M48
; DRILL file {KiCad 9.0.2} date 2025-11-06T14:17:09-0600
; FORMAT={-:-/ absolute / inch / decimal}
; #@! TF.CreationDate,2025-11-06T14:17:09-06:00
; #@! TF.GenerationSoftware,Kicad,Pcbnew,9.0.2
; #@! TF.FileFunction,Plated,1,2,PTH
FMAT,2
INCH
; #@! TA.AperFunction,Plated,PTH,ViaDrill
T1C0.0118
; #@! TA.AperFunction,Plated,PTH,ComponentDrill
T2C0.0197
; #@! TA.AperFunction,Plated,PTH,ComponentDrill
T3C0.0217
; #@! TA.AperFunction,Plated,PTH,ComponentDrill
T4C0.0295
; #@! TA.AperFunction,Plated,PTH,ComponentDrill
T5C0.0315
; #@! TA.AperFunction,Plated,PTH,ComponentDrill
T6C0.0394
; #@! TA.AperFunction,Plated,PTH,ComponentDrill
T7C0.0510
; #@! TA.AperFunction,Plated,PTH,ComponentDrill
T8C0.0551
; #@! TA.AperFunction,Plated,PTH,ComponentDrill
T9C0.1063
%
G90
G05
T1
X4.92Y-4.4444
X4.94Y-4.4234
X5.005Y-3.03
X5.05Y-4.4334
X5.06Y-3.075
X5.095Y-2.965
X5.1367Y-3.0283
X5.26Y-4.2521
X5.31Y-3.065
X5.4Y-2.72
X5.66Y-4.975
X5.79Y-2.755
X5.83Y-2.97
X6.23Y-2.745
X6.355Y-3.07
X7.2314Y-2.6536
X7.285Y-2.6535
T4
X4.9106Y-2.1217
X4.9894Y-2.1217
X7.2856Y-2.1467
X7.3644Y-2.1467
T5
X5.34Y-4.0411
X5.34Y-4.1411
X5.4611Y-4.26
X5.5611Y-4.26
T6
X4.879Y-2.413
X4.879Y-2.513
X4.979Y-2.413
X4.979Y-2.513
X5.079Y-2.413
X5.079Y-2.513
X5.13Y-3.65
X5.13Y-3.7484
X5.13Y-3.8469
X5.179Y-2.413
X5.179Y-2.513
X5.279Y-2.413
X5.279Y-2.513
X5.379Y-2.413
X5.379Y-2.513
X5.479Y-2.413
X5.479Y-2.513
X5.579Y-2.413
X5.579Y-2.513
X5.679Y-2.413
X5.679Y-2.513
X5.779Y-2.413
X5.779Y-2.513
X5.81Y-3.48
X5.879Y-2.413
X5.879Y-2.513
X5.91Y-3.48
X5.979Y-2.413
X5.979Y-2.513
X6.01Y-3.48
X6.079Y-2.413
X6.079Y-2.513
X6.11Y-3.48
X6.179Y-2.413
X6.179Y-2.513
X6.21Y-3.48
X6.279Y-2.413
X6.279Y-2.513
X6.31Y-3.48
X6.379Y-2.413
X6.379Y-2.513
X6.479Y-2.413
X6.479Y-2.513
X6.579Y-2.413
X6.579Y-2.513
X6.679Y-2.413
X6.679Y-2.513
X6.779Y-2.413
X6.779Y-2.513
X6.865Y-2.9535
X6.865Y-3.0535
X6.865Y-3.1535
X6.865Y-3.2535
X7.065Y-2.8035
X7.065Y-3.4035
X7.165Y-2.8035
X7.165Y-3.4035
X7.265Y-2.8035
X7.265Y-3.4035
X7.365Y-2.8035
X7.365Y-3.4035
T7
X4.725Y-4.1
X4.725Y-4.2
X4.775Y-3.125
X4.775Y-3.225
X4.775Y-3.325
T8
X6.489Y-2.127
X7.089Y-2.127
T9
X4.6806Y-2.4629
X4.7398Y-4.8931
X6.964Y-2.463
X7.5066Y-4.8932
T2
G00X7.6122Y-2.2663
M15
G01X7.6378Y-2.2663
M16
G05
G00X7.6122Y-2.5419
M15
G01X7.6378Y-2.5419
M16
G05
T3
G00X7.5187Y-2.3116
M15
G01X7.5187Y-2.2998
M16
G05
G00X7.5187Y-2.5084
M15
G01X7.5187Y-2.4966
M16
G05
T5
G00X4.7363Y-3.7346
M15
G01X4.7363Y-3.7622
M16
G05
G00X4.9194Y-3.5516
M15
G01X4.9469Y-3.5516
M16
G05
G00X4.9194Y-3.9453
M15
G01X4.9469Y-3.9453
M16
G05
M30
