%TF.GenerationSoftware,KiCad,Pcbnew,9.0.2*%
%TF.CreationDate,2025-11-06T14:17:09-06:00*%
%TF.ProjectId,cubesat Sim board,63756265-7361-4742-9053-696d20626f61,rev?*%
%TF.SameCoordinates,Original*%
%TF.FileFunction,Soldermask,Top*%
%TF.FilePolarity,Negative*%
%FSLAX46Y46*%
G04 Gerber Fmt 4.6, Leading zero omitted, Abs format (unit mm)*
G04 Created by KiCad (PCBNEW 9.0.2) date 2025-11-06 14:17:09*
%MOMM*%
%LPD*%
G01*
G04 APERTURE LIST*
G04 Aperture macros list*
%AMRoundRect*
0 Rectangle with rounded corners*
0 $1 Rounding radius*
0 $2 $3 $4 $5 $6 $7 $8 $9 X,Y pos of 4 corners*
0 Add a 4 corners polygon primitive as box body*
4,1,4,$2,$3,$4,$5,$6,$7,$8,$9,$2,$3,0*
0 Add four circle primitives for the rounded corners*
1,1,$1+$1,$2,$3*
1,1,$1+$1,$4,$5*
1,1,$1+$1,$6,$7*
1,1,$1+$1,$8,$9*
0 Add four rect primitives between the rounded corners*
20,1,$1+$1,$2,$3,$4,$5,0*
20,1,$1+$1,$4,$5,$6,$7,0*
20,1,$1+$1,$6,$7,$8,$9,0*
20,1,$1+$1,$8,$9,$2,$3,0*%
G04 Aperture macros list end*
%ADD10RoundRect,0.250000X1.100000X-0.325000X1.100000X0.325000X-1.100000X0.325000X-1.100000X-0.325000X0*%
%ADD11C,2.800000*%
%ADD12O,2.800000X2.800000*%
%ADD13C,5.400000*%
%ADD14RoundRect,0.225000X0.225000X0.250000X-0.225000X0.250000X-0.225000X-0.250000X0.225000X-0.250000X0*%
%ADD15C,1.803400*%
%ADD16RoundRect,0.100000X0.575000X-0.100000X0.575000X0.100000X-0.575000X0.100000X-0.575000X-0.100000X0*%
%ADD17O,1.550000X0.890000*%
%ADD18RoundRect,0.250000X0.525000X-0.475000X0.525000X0.475000X-0.525000X0.475000X-0.525000X-0.475000X0*%
%ADD19O,0.950000X1.250000*%
%ADD20RoundRect,0.250000X0.525000X-0.500000X0.525000X0.500000X-0.525000X0.500000X-0.525000X-0.500000X0*%
%ADD21RoundRect,0.225000X-0.250000X0.225000X-0.250000X-0.225000X0.250000X-0.225000X0.250000X0.225000X0*%
%ADD22C,1.600000*%
%ADD23O,1.600000X1.600000*%
%ADD24RoundRect,0.225000X-0.225000X-0.250000X0.225000X-0.250000X0.225000X0.250000X-0.225000X0.250000X0*%
%ADD25R,4.000000X7.000000*%
%ADD26RoundRect,0.200000X-0.275000X0.200000X-0.275000X-0.200000X0.275000X-0.200000X0.275000X0.200000X0*%
%ADD27C,1.700000*%
%ADD28R,1.700000X1.700000*%
%ADD29RoundRect,0.050000X-0.285000X-0.100000X0.285000X-0.100000X0.285000X0.100000X-0.285000X0.100000X0*%
%ADD30RoundRect,0.218750X0.256250X-0.218750X0.256250X0.218750X-0.256250X0.218750X-0.256250X-0.218750X0*%
%ADD31RoundRect,0.250000X0.350000X0.625000X-0.350000X0.625000X-0.350000X-0.625000X0.350000X-0.625000X0*%
%ADD32O,1.200000X1.750000*%
%ADD33O,1.512000X2.820000*%
%ADD34O,2.820000X1.512000*%
%ADD35C,1.712000*%
%ADD36R,1.750000X0.450000*%
%ADD37RoundRect,0.225000X0.250000X-0.225000X0.250000X0.225000X-0.250000X0.225000X-0.250000X-0.225000X0*%
%ADD38RoundRect,0.250000X-0.475000X0.250000X-0.475000X-0.250000X0.475000X-0.250000X0.475000X0.250000X0*%
%ADD39RoundRect,0.150000X-0.825000X-0.150000X0.825000X-0.150000X0.825000X0.150000X-0.825000X0.150000X0*%
%ADD40RoundRect,0.200000X0.275000X-0.200000X0.275000X0.200000X-0.275000X0.200000X-0.275000X-0.200000X0*%
G04 APERTURE END LIST*
D10*
%TO.C,C5*%
X145000000Y-126443000D03*
X145000000Y-123493000D03*
%TD*%
D11*
%TO.C,R3*%
X164820600Y-54025800D03*
D12*
X180060600Y-54025800D03*
%TD*%
D13*
%TO.C,REF\u002A\u002A*%
X176885600Y-62560200D03*
%TD*%
%TO.C,*%
X120389808Y-124285359D03*
%TD*%
D14*
%TO.C,C12*%
X160896600Y-78638400D03*
X159346600Y-78638400D03*
%TD*%
D15*
%TO.C,J1*%
X120015000Y-104140000D03*
X120015000Y-106680000D03*
%TD*%
D14*
%TO.C,C10*%
X145809000Y-69342000D03*
X144259000Y-69342000D03*
%TD*%
%TO.C,C3*%
X132614000Y-108585000D03*
X131064000Y-108585000D03*
%TD*%
D16*
%TO.C,J10*%
X190975000Y-62364000D03*
X190975000Y-61714000D03*
X190975000Y-61064000D03*
X190975000Y-60414000D03*
X190975000Y-59764000D03*
D17*
X193675000Y-64564000D03*
D18*
X193675000Y-64089000D03*
D19*
X190975000Y-63564000D03*
D20*
X193675000Y-62064000D03*
X193675000Y-60064000D03*
D19*
X190975000Y-58564000D03*
D18*
X193675000Y-58039000D03*
D17*
X193675000Y-57564000D03*
%TD*%
D21*
%TO.C,C8*%
X137160000Y-74549000D03*
X137160000Y-76099000D03*
%TD*%
D22*
%TO.C,R1*%
X135636000Y-105185000D03*
D23*
X135636000Y-102645000D03*
%TD*%
D24*
%TO.C,C4*%
X131105000Y-110146000D03*
X132655000Y-110146000D03*
%TD*%
D25*
%TO.C,L1*%
X131906000Y-118364000D03*
X141906000Y-118364000D03*
%TD*%
D26*
%TO.C,R7*%
X159131000Y-68835000D03*
X159131000Y-70485000D03*
%TD*%
D22*
%TO.C,R2*%
X141253000Y-108204000D03*
D23*
X138713000Y-108204000D03*
%TD*%
D21*
%TO.C,C11*%
X147828000Y-71361000D03*
X147828000Y-72911000D03*
%TD*%
D27*
%TO.C,J5*%
X157734000Y-88392000D03*
X155194000Y-88392000D03*
X152654000Y-88392000D03*
D28*
X160274000Y-88392000D03*
D27*
X147574000Y-88392000D03*
X150114000Y-88392000D03*
%TD*%
D15*
%TO.C,J6*%
X121285000Y-79375000D03*
X121285000Y-81915000D03*
X121285000Y-84455000D03*
%TD*%
D29*
%TO.C,U1*%
X128000000Y-109990000D03*
X128000000Y-110490000D03*
X128000000Y-110990000D03*
X128000000Y-111490000D03*
X129480000Y-111490000D03*
X129480000Y-110990000D03*
X129480000Y-110490000D03*
X129480000Y-109990000D03*
%TD*%
D26*
%TO.C,R4*%
X163894000Y-76391000D03*
X163894000Y-78041000D03*
%TD*%
%TO.C,R6*%
X160782000Y-68834000D03*
X160782000Y-70484000D03*
%TD*%
D21*
%TO.C,C13*%
X135636000Y-71361000D03*
X135636000Y-72911000D03*
%TD*%
D14*
%TO.C,C9*%
X137300000Y-77851000D03*
X135750000Y-77851000D03*
%TD*%
D30*
%TO.C,D1*%
X159131000Y-73431500D03*
X159131000Y-71856500D03*
%TD*%
D31*
%TO.C,J4*%
X126730000Y-53890000D03*
D32*
X124730000Y-53890000D03*
%TD*%
D13*
%TO.C,*%
X190666930Y-124286700D03*
%TD*%
D33*
%TO.C,X1*%
X120302000Y-95210000D03*
D34*
X125302000Y-100210000D03*
X125302000Y-90210000D03*
D35*
X130302000Y-92710000D03*
X130302000Y-95210000D03*
X130302000Y-97710000D03*
%TD*%
D36*
%TO.C,U3*%
X149816000Y-70959000D03*
X149816000Y-71609000D03*
X149816000Y-72259000D03*
X149816000Y-72909000D03*
X149816000Y-73559000D03*
X149816000Y-74209000D03*
X149816000Y-74859000D03*
X149816000Y-75509000D03*
X149816000Y-76159000D03*
X149816000Y-76809000D03*
X149816000Y-77459000D03*
X149816000Y-78109000D03*
X149816000Y-78759000D03*
X149816000Y-79409000D03*
X157016000Y-79409000D03*
X157016000Y-78759000D03*
X157016000Y-78109000D03*
X157016000Y-77459000D03*
X157016000Y-76809000D03*
X157016000Y-76159000D03*
X157016000Y-75509000D03*
X157016000Y-74859000D03*
X157016000Y-74209000D03*
X157016000Y-73559000D03*
X157016000Y-72909000D03*
X157016000Y-72259000D03*
X157016000Y-71609000D03*
X157016000Y-70959000D03*
%TD*%
D37*
%TO.C,C14*%
X159004000Y-77140400D03*
X159004000Y-75590400D03*
%TD*%
D38*
%TO.C,C1*%
X123698000Y-110962000D03*
X123698000Y-112862000D03*
%TD*%
D21*
%TO.C,C2*%
X126492000Y-111338000D03*
X126492000Y-112888000D03*
%TD*%
%TO.C,C7*%
X137160000Y-70345000D03*
X137160000Y-71895000D03*
%TD*%
D39*
%TO.C,U2*%
X139322000Y-70866000D03*
X139322000Y-72136000D03*
X139322000Y-73406000D03*
X139322000Y-74676000D03*
X139322000Y-75946000D03*
X139322000Y-77216000D03*
X139322000Y-78486000D03*
X139322000Y-79756000D03*
X144272000Y-79756000D03*
X144272000Y-78486000D03*
X144272000Y-77216000D03*
X144272000Y-75946000D03*
X144272000Y-74676000D03*
X144272000Y-73406000D03*
X144272000Y-72136000D03*
X144272000Y-70866000D03*
%TD*%
D31*
%TO.C,J3*%
X187055000Y-54525000D03*
D32*
X185055000Y-54525000D03*
%TD*%
D40*
%TO.C,R5*%
X162382200Y-78676000D03*
X162382200Y-77026000D03*
%TD*%
D30*
%TO.C,D2*%
X160782000Y-73431500D03*
X160782000Y-71856500D03*
%TD*%
D27*
%TO.C,J8*%
X184531000Y-86448000D03*
X181991000Y-86448000D03*
X179451000Y-86448000D03*
D28*
X187071000Y-86448000D03*
%TD*%
D27*
%TO.C,J9*%
X184531000Y-71208000D03*
X181991000Y-71208000D03*
X179451000Y-71208000D03*
D28*
X187071000Y-71208000D03*
%TD*%
D13*
%TO.C,*%
X118887040Y-62558600D03*
%TD*%
D27*
%TO.C,J7*%
X174371000Y-77558000D03*
X174371000Y-80098000D03*
X174371000Y-82638000D03*
D28*
X174371000Y-75018000D03*
%TD*%
%TO.C,J2*%
X123926600Y-63830200D03*
D27*
X123926600Y-61290200D03*
X126466600Y-63830200D03*
X126466600Y-61290200D03*
X129006600Y-63830200D03*
X129006600Y-61290200D03*
X131546600Y-63830200D03*
X131546600Y-61290200D03*
X134086600Y-63830200D03*
X134086600Y-61290200D03*
X136626600Y-63830200D03*
X136626600Y-61290200D03*
X139166600Y-63830200D03*
X139166600Y-61290200D03*
X141706600Y-63830200D03*
X141706600Y-61290200D03*
X144246600Y-63830200D03*
X144246600Y-61290200D03*
X146786600Y-63830200D03*
X146786600Y-61290200D03*
X149326600Y-63830200D03*
X149326600Y-61290200D03*
X151866600Y-63830200D03*
X151866600Y-61290200D03*
X154406600Y-63830200D03*
X154406600Y-61290200D03*
X156946600Y-63830200D03*
X156946600Y-61290200D03*
X159486600Y-63830200D03*
X159486600Y-61290200D03*
X162026600Y-63830200D03*
X162026600Y-61290200D03*
X164566600Y-63830200D03*
X164566600Y-61290200D03*
X167106600Y-63830200D03*
X167106600Y-61290200D03*
X169646600Y-63830200D03*
X169646600Y-61290200D03*
X172186600Y-63830200D03*
X172186600Y-61290200D03*
%TD*%
M02*
