%TF.GenerationSoftware,KiCad,Pcbnew,9.0.1*%
%TF.CreationDate,2025-11-07T15:46:44-06:00*%
%TF.ProjectId,cubesat Sim board,63756265-7361-4742-9053-696d20626f61,rev?*%
%TF.SameCoordinates,Original*%
%TF.FileFunction,Legend,Bot*%
%TF.FilePolarity,Positive*%
%FSLAX46Y46*%
G04 Gerber Fmt 4.6, Leading zero omitted, Abs format (unit mm)*
G04 Created by KiCad (PCBNEW 9.0.1) date 2025-11-07 15:46:44*
%MOMM*%
%LPD*%
G01*
G04 APERTURE LIST*
G04 Aperture macros list*
%AMRoundRect*
0 Rectangle with rounded corners*
0 $1 Rounding radius*
0 $2 $3 $4 $5 $6 $7 $8 $9 X,Y pos of 4 corners*
0 Add a 4 corners polygon primitive as box body*
4,1,4,$2,$3,$4,$5,$6,$7,$8,$9,$2,$3,0*
0 Add four circle primitives for the rounded corners*
1,1,$1+$1,$2,$3*
1,1,$1+$1,$4,$5*
1,1,$1+$1,$6,$7*
1,1,$1+$1,$8,$9*
0 Add four rect primitives between the rounded corners*
20,1,$1+$1,$2,$3,$4,$5,0*
20,1,$1+$1,$4,$5,$6,$7,0*
20,1,$1+$1,$6,$7,$8,$9,0*
20,1,$1+$1,$8,$9,$2,$3,0*%
G04 Aperture macros list end*
%ADD10C,0.127000*%
%ADD11C,0.101600*%
%ADD12C,0.100000*%
%ADD13C,0.203200*%
%ADD14C,0.150000*%
%ADD15C,0.508000*%
%ADD16C,0.120000*%
%ADD17C,2.800000*%
%ADD18O,2.800000X2.800000*%
%ADD19C,5.400000*%
%ADD20C,1.803400*%
%ADD21O,1.550000X0.890000*%
%ADD22O,0.950000X1.250000*%
%ADD23C,1.600000*%
%ADD24O,1.600000X1.600000*%
%ADD25C,1.700000*%
%ADD26R,1.700000X1.700000*%
%ADD27RoundRect,0.250000X0.350000X0.625000X-0.350000X0.625000X-0.350000X-0.625000X0.350000X-0.625000X0*%
%ADD28O,1.200000X1.750000*%
%ADD29C,1.200000*%
%ADD30O,1.512000X2.820000*%
%ADD31O,2.820000X1.512000*%
%ADD32C,1.712000*%
G04 APERTURE END LIST*
D10*
X161919670Y-71138540D02*
X161980630Y-71146670D01*
D11*
X164962340Y-84846410D02*
X164657280Y-85151470D01*
X146160240Y-86503510D02*
X146397480Y-86741000D01*
D10*
X163833560Y-88864440D02*
X163803080Y-88917780D01*
D11*
X149662900Y-68935600D02*
X149662900Y-69410320D01*
D10*
X164093660Y-88178130D02*
X164079690Y-88237820D01*
D11*
X164657280Y-74555860D02*
X164657280Y-74860910D01*
D10*
X145303240Y-71356470D02*
X145359120Y-71331330D01*
D11*
X155774900Y-70629520D02*
X155893520Y-70629520D01*
D10*
X143880840Y-88117930D02*
X143869920Y-88057730D01*
D11*
X153505160Y-70510910D02*
X153386540Y-70629520D01*
X151917660Y-86587970D02*
X151799040Y-86706840D01*
X154764740Y-70036180D02*
X154764740Y-70629520D01*
X150411180Y-70748140D02*
X150529800Y-70866760D01*
X161539430Y-67691000D02*
X161302200Y-67691000D01*
D10*
X163297870Y-89531190D02*
X163251390Y-89571320D01*
X164126930Y-87997030D02*
X164117280Y-88057730D01*
D11*
X165114740Y-84521040D02*
X164809680Y-84521040D01*
D10*
X162339790Y-71226170D02*
X162398460Y-71244200D01*
X163343340Y-71799960D02*
X163387790Y-71842370D01*
X163594040Y-89220550D02*
X163554920Y-89267790D01*
D11*
X151278340Y-70629520D02*
X151159720Y-70629520D01*
X157234890Y-87223855D02*
X157353510Y-87105235D01*
X154750320Y-59367350D02*
X154750320Y-58986090D01*
D10*
X145588740Y-71244200D02*
X145647410Y-71226170D01*
D12*
X171831000Y-78828000D02*
X174371000Y-78828000D01*
D11*
X146671290Y-86503510D02*
X146908780Y-86503510D01*
X165109450Y-59494600D02*
X165490710Y-59494600D01*
X149081240Y-86520275D02*
X148844000Y-86757765D01*
X165114740Y-87171780D02*
X165267390Y-87019130D01*
D10*
X163771330Y-72319890D02*
X163803080Y-72372220D01*
X162398460Y-90045790D02*
X162339790Y-90063830D01*
D11*
X158375860Y-86511895D02*
X158731720Y-86511895D01*
X166031730Y-59113090D02*
X166412980Y-59113090D01*
D10*
X163106610Y-71605140D02*
X163155890Y-71641710D01*
X144283180Y-72217020D02*
X144318740Y-72166990D01*
X144432280Y-72022210D02*
X144472410Y-71975720D01*
D11*
X165114740Y-74708260D02*
X165267390Y-74860910D01*
X161539430Y-68402960D02*
X161302200Y-68402960D01*
D10*
X145530570Y-71264020D02*
X145588740Y-71244200D01*
X162280860Y-71209150D02*
X162339790Y-71226170D01*
X163942270Y-88644470D02*
X163917130Y-88700350D01*
D11*
X149318480Y-86757765D02*
X149081240Y-86520275D01*
D10*
X122448120Y-59824800D02*
X173654520Y-59824800D01*
D11*
X157353510Y-86868005D02*
X157116280Y-86868005D01*
X165267390Y-73142350D02*
X165114740Y-73294750D01*
D10*
X164150550Y-87752680D02*
X164147000Y-87813890D01*
X143852140Y-73353930D02*
X143860270Y-73292970D01*
D11*
X155026360Y-70629520D02*
X155026360Y-70273670D01*
D10*
X173654520Y-65311200D02*
X122448120Y-65311200D01*
D11*
X155443430Y-87308310D02*
X155206200Y-87308310D01*
X155650190Y-69291710D02*
X155768810Y-69410320D01*
X145943580Y-67809870D02*
X146062200Y-67691000D01*
D10*
X146128490Y-90158060D02*
X146067530Y-90151460D01*
X144981680Y-71535290D02*
X145033500Y-71502270D01*
X162901380Y-89819480D02*
X162848040Y-89849960D01*
D11*
X153770590Y-86944080D02*
X153295860Y-86944080D01*
X144545360Y-59113090D02*
X144545360Y-59367350D01*
X165267390Y-82039970D02*
X164657280Y-82039970D01*
X165904730Y-59367350D02*
X166031730Y-59494600D01*
X165267390Y-77362300D02*
X164352230Y-77972410D01*
X153955040Y-59367350D02*
X153955040Y-59113090D01*
D10*
X161980630Y-90143330D02*
X161919670Y-90151460D01*
X164064450Y-88297260D02*
X164047430Y-88356180D01*
X162456630Y-71264020D02*
X162514280Y-71285100D01*
X143840200Y-87813890D02*
X143836650Y-87752680D01*
D11*
X154764740Y-70866760D02*
X154764740Y-70985380D01*
X164504630Y-73294750D02*
X164657280Y-73294750D01*
D10*
X144783050Y-71679560D02*
X144831310Y-71641710D01*
D11*
X160672280Y-68402960D02*
X160435040Y-68165720D01*
X155376380Y-68816980D02*
X155376380Y-69410320D01*
X155153410Y-58731840D02*
X155153410Y-59494600D01*
X166031730Y-58731840D02*
X165904730Y-58858840D01*
D10*
X146373600Y-90170000D02*
X146312130Y-90169240D01*
X146189700Y-71126600D02*
X146250920Y-71123050D01*
X163431220Y-89404190D02*
X163387790Y-89447620D01*
D11*
X157390340Y-70629520D02*
X157627580Y-70629520D01*
D10*
X162571430Y-71307450D02*
X162628080Y-71331330D01*
X164029390Y-88414860D02*
X164009580Y-88473020D01*
D11*
X152638260Y-69410320D02*
X152282400Y-69410320D01*
X153505160Y-70273670D02*
X153505160Y-70510910D01*
X150091400Y-87232235D02*
X150091400Y-86520275D01*
D10*
X163917130Y-72589640D02*
X163942270Y-72645520D01*
D11*
X156006040Y-68935600D02*
X155768810Y-68935600D01*
X157746200Y-70510910D02*
X157746200Y-70392290D01*
X156997910Y-70273670D02*
X156997910Y-70510910D01*
D10*
X162280860Y-90080840D02*
X162221420Y-90096080D01*
D11*
X146146570Y-59494600D02*
X146400830Y-59494600D01*
D10*
X145825470Y-90110050D02*
X145765780Y-90096080D01*
D11*
X158731720Y-86511895D02*
X158850590Y-86630765D01*
X169328900Y-58731840D02*
X168947390Y-58731840D01*
X159412690Y-68165720D02*
X159412690Y-67691000D01*
X147170400Y-87215470D02*
X147644870Y-86503510D01*
X159175450Y-68402960D02*
X158938220Y-68165720D01*
X156249370Y-70510910D02*
X156249370Y-70154800D01*
X154901650Y-69291710D02*
X154901650Y-69054470D01*
X154527510Y-69917560D02*
X154646130Y-69917560D01*
X165267390Y-76738730D02*
X165267390Y-77043790D01*
X155567180Y-59367350D02*
X155567180Y-59113090D01*
X164314180Y-59367350D02*
X164441430Y-59494600D01*
X155694180Y-59494600D02*
X155567180Y-59367350D01*
X153828040Y-58986090D02*
X153446790Y-58986090D01*
D10*
X145247870Y-71383140D02*
X145303240Y-71356470D01*
X162953700Y-89787730D02*
X162901380Y-89819480D01*
D11*
X158664410Y-67691000D02*
X158664410Y-68402960D01*
X168947390Y-58731840D02*
X168820390Y-58858840D01*
X164352230Y-72684640D02*
X165267390Y-72684640D01*
X151159720Y-69291710D02*
X151278340Y-69291710D01*
D10*
X164093660Y-73111870D02*
X164106360Y-73172060D01*
D11*
X164657280Y-74077830D02*
X164809680Y-74230480D01*
X164657280Y-84846410D02*
X165267390Y-84846410D01*
X160133540Y-86622380D02*
X160133540Y-87096850D01*
X147170400Y-86503510D02*
X147170400Y-87215470D01*
X156075690Y-58986090D02*
X156075690Y-59748600D01*
X150244100Y-59494600D02*
X150244100Y-59367350D01*
X156006040Y-69410320D02*
X156124660Y-69291710D01*
X155020270Y-68935600D02*
X155376380Y-68935600D01*
X149318480Y-87232235D02*
X149318480Y-86757765D01*
X165114740Y-81104480D02*
X165267390Y-81256880D01*
X151917660Y-87299930D02*
X152154890Y-87299930D01*
X149900140Y-69647560D02*
X150137370Y-69410320D01*
X151314410Y-86876385D02*
X150839680Y-86876385D01*
X168820390Y-59113090D02*
X168947390Y-59240350D01*
D10*
X145647410Y-71226170D02*
X145706340Y-71209150D01*
D11*
X170123920Y-59367350D02*
X170123920Y-58858840D01*
X164809680Y-73142350D02*
X164809680Y-72684640D01*
D10*
X161858710Y-71131940D02*
X161919670Y-71138540D01*
D11*
X154153370Y-69291710D02*
X154271980Y-69410320D01*
D10*
X146250920Y-71123050D02*
X146312130Y-71120760D01*
X143860270Y-87997030D02*
X143852140Y-87936070D01*
X162793940Y-71410830D02*
X162848040Y-71440040D01*
X161919670Y-90151460D02*
X161858710Y-90158060D01*
D11*
X158257500Y-70629520D02*
X158020260Y-70392290D01*
D10*
X143880840Y-73172060D02*
X143893540Y-73111870D01*
X162161730Y-71179940D02*
X162221420Y-71193910D01*
X143893540Y-88178130D02*
X143880840Y-88117930D01*
X163942270Y-72645520D02*
X163966150Y-72702160D01*
X144124430Y-72479660D02*
X144153640Y-72425560D01*
D11*
X165114740Y-83585560D02*
X164962340Y-83433160D01*
X161000440Y-86503510D02*
X161237680Y-86503510D01*
X164809680Y-84521040D02*
X164657280Y-84368640D01*
D10*
X162628080Y-89958670D02*
X162571430Y-89982550D01*
D12*
X194691000Y-68668000D02*
X194691000Y-88988000D01*
D11*
X164657280Y-81256880D02*
X164657280Y-81561940D01*
X146273570Y-58986090D02*
X146400830Y-58986090D01*
X152273510Y-86706840D02*
X152154890Y-86587970D01*
D10*
X144513560Y-89359740D02*
X144472410Y-89314270D01*
D11*
X156997660Y-87223855D02*
X157234890Y-87223855D01*
X153828040Y-59494600D02*
X153955040Y-59367350D01*
X165267390Y-72684640D02*
X165267390Y-73142350D01*
D10*
X144783050Y-89610440D02*
X144735810Y-89571320D01*
D11*
X167495020Y-58858840D02*
X167495020Y-59367350D01*
D10*
X164009580Y-88473020D02*
X163988500Y-88530680D01*
D11*
X155694180Y-58986090D02*
X156075690Y-58986090D01*
D13*
X124683320Y-65489000D02*
X123032320Y-65489000D01*
D11*
X168279370Y-58731840D02*
X168533630Y-58731840D01*
X165114740Y-75332080D02*
X165267390Y-75484480D01*
X152273510Y-86825460D02*
X152273510Y-86706840D01*
D10*
X144599410Y-71842370D02*
X144643860Y-71799960D01*
D11*
X160161230Y-67691000D02*
X159686760Y-67691000D01*
D10*
X146189700Y-90163390D02*
X146128490Y-90158060D01*
X163387790Y-89447620D02*
X163343340Y-89490040D01*
D11*
X148844000Y-86757765D02*
X148844000Y-87232235D01*
X149449080Y-59367350D02*
X149449080Y-59113090D01*
X146062200Y-67691000D02*
X146299430Y-67691000D01*
D10*
X143833600Y-73660000D02*
X143834360Y-73598530D01*
X164153600Y-87630000D02*
X164152840Y-87691470D01*
D11*
X165267390Y-80321400D02*
X165114740Y-80169000D01*
X153891750Y-68935600D02*
X153654510Y-68935600D01*
D10*
X143845540Y-73414890D02*
X143852140Y-73353930D01*
D11*
X158102050Y-87223855D02*
X158102050Y-86511895D01*
X154271980Y-68935600D02*
X154153370Y-69054470D01*
D10*
X164152840Y-87691470D02*
X164150550Y-87752680D01*
D11*
X151569470Y-59494600D02*
X151315220Y-59494600D01*
D10*
X161858710Y-90158060D02*
X161797500Y-90163390D01*
D11*
X153022050Y-86706840D02*
X152903430Y-86587970D01*
X150137370Y-69410320D02*
X150137370Y-68935600D01*
X151442470Y-58986090D02*
X151569470Y-58986090D01*
D10*
X163803080Y-72372220D02*
X163833560Y-72425560D01*
D11*
X153030690Y-70510910D02*
X153030690Y-70273670D01*
X151983490Y-59240350D02*
X152364750Y-59240350D01*
D10*
X163204150Y-89610440D02*
X163155890Y-89648280D01*
X163554920Y-72022210D02*
X163594040Y-72069450D01*
D11*
X168003530Y-59367350D02*
X168003530Y-58858840D01*
X160133540Y-87096850D02*
X160252160Y-87215470D01*
D10*
X162514280Y-90004900D02*
X162456630Y-90025980D01*
X163668460Y-89123010D02*
X163631880Y-89172290D01*
X145472920Y-71285100D02*
X145530570Y-71264020D01*
D11*
X164504630Y-86561670D02*
X165114740Y-86561670D01*
D10*
X144096740Y-72534270D02*
X144124430Y-72479660D01*
D11*
X154627840Y-68935600D02*
X154271980Y-68935600D01*
X164962340Y-78907890D02*
X164352230Y-78907890D01*
X155020270Y-69410320D02*
X154901650Y-69291710D01*
X150137370Y-69291710D02*
X149662900Y-69291710D01*
D10*
X143840200Y-73476100D02*
X143845540Y-73414890D01*
D11*
X149900140Y-70866760D02*
X150137370Y-70629520D01*
D10*
X144215870Y-88970100D02*
X144184120Y-88917780D01*
D11*
X155562050Y-87189690D02*
X155443430Y-87308310D01*
D10*
X161797500Y-71126600D02*
X161858710Y-71131940D01*
D11*
X152638260Y-68935600D02*
X152756870Y-69054470D01*
D10*
X145885670Y-90122750D02*
X145825470Y-90110050D01*
D11*
X156124660Y-69291710D02*
X156124660Y-69173090D01*
X153773130Y-69647560D02*
X153773130Y-69766180D01*
D10*
X145085820Y-71470520D02*
X145139160Y-71440040D01*
D11*
X160161230Y-68165720D02*
X160161230Y-68284340D01*
X161302200Y-68402960D02*
X161183580Y-68284340D01*
X153446790Y-59621600D02*
X153573790Y-59748600D01*
D10*
X162398460Y-71244200D02*
X162456630Y-71264020D01*
X163917130Y-88700350D02*
X163890460Y-88755730D01*
D11*
X164314180Y-58986090D02*
X164695690Y-58986090D01*
X154153370Y-69054470D02*
X154153370Y-69291710D01*
X165904730Y-58986090D02*
X166031730Y-59113090D01*
X150137370Y-70629520D02*
X150137370Y-70154800D01*
D10*
X163862770Y-88810340D02*
X163833560Y-88864440D01*
X145945860Y-90133680D02*
X145885670Y-90122750D01*
D11*
X151278340Y-69054470D02*
X151159720Y-69054470D01*
X164352230Y-76891130D02*
X165267390Y-76891130D01*
X169996920Y-59494600D02*
X170123920Y-59367350D01*
X156879290Y-70629520D02*
X156523440Y-70629520D01*
X164809680Y-80321400D02*
X164809680Y-80626460D01*
X165114740Y-83910930D02*
X165267390Y-84063580D01*
X164962340Y-80779110D02*
X165114740Y-80779110D01*
X148653810Y-59494600D02*
X148653810Y-58986090D01*
X164809680Y-88432640D02*
X164809680Y-89042750D01*
D10*
X144689330Y-89531190D02*
X144643860Y-89490040D01*
X164150550Y-73537320D02*
X164152840Y-73598530D01*
X162456630Y-90025980D02*
X162398460Y-90045790D01*
D11*
X154627840Y-69647560D02*
X154627840Y-68935600D01*
D10*
X144318740Y-89123010D02*
X144283180Y-89072970D01*
D11*
X149067830Y-58986090D02*
X148940570Y-59113090D01*
D10*
X144555980Y-89404190D02*
X144513560Y-89359740D01*
D11*
X153828040Y-59494600D02*
X153446790Y-59494600D01*
D10*
X140785600Y-92456000D02*
X166439600Y-92456000D01*
X163803080Y-88917780D02*
X163771330Y-88970100D01*
X143834360Y-87691470D02*
X143833600Y-87630000D01*
D11*
X164657280Y-82497420D02*
X164809680Y-82650070D01*
X167495020Y-59367350D02*
X167622270Y-59494600D01*
X168406370Y-58731840D02*
X168406370Y-59494600D01*
X152903430Y-86587970D02*
X152547580Y-86587970D01*
D10*
X163106610Y-89684860D02*
X163056570Y-89720420D01*
D11*
X165267390Y-74230480D02*
X165267390Y-73772770D01*
X159622240Y-86503510D02*
X159385000Y-86741000D01*
X155280410Y-58731840D02*
X155153410Y-58731840D01*
X158257500Y-70629520D02*
X158376120Y-70629520D01*
X155145240Y-70154800D02*
X155501090Y-70154800D01*
X164809680Y-81714590D02*
X164962340Y-81714590D01*
X164657280Y-87497160D02*
X165267390Y-88107260D01*
X147609870Y-58986090D02*
X147482870Y-59113090D01*
X157809440Y-67691000D02*
X157809440Y-68402960D01*
X151442470Y-58731840D02*
X151442470Y-58604840D01*
X148155920Y-87096850D02*
X148155920Y-86622380D01*
X165114740Y-81104480D02*
X164809680Y-81104480D01*
D10*
X164135060Y-87936070D02*
X164126930Y-87997030D01*
D11*
X164657280Y-83128100D02*
X164657280Y-83585560D01*
X158850590Y-87105235D02*
X158731720Y-87223855D01*
X154339040Y-87189690D02*
X154457660Y-87308310D01*
X156873200Y-69647560D02*
X156873200Y-68935600D01*
X151856240Y-58858840D02*
X151856240Y-59113090D01*
D10*
X145085820Y-89819480D02*
X145033500Y-89787730D01*
X144283180Y-89072970D02*
X144248890Y-89021920D01*
X144930630Y-89720420D02*
X144880590Y-89684860D01*
D11*
X156012140Y-70510910D02*
X156130760Y-70629520D01*
D10*
X164141660Y-87875110D02*
X164135060Y-87936070D01*
D11*
X158375860Y-87223855D02*
X158375860Y-86511895D01*
D10*
X145415770Y-89982550D02*
X145359120Y-89958670D01*
D11*
X156879290Y-70154800D02*
X156997910Y-70273670D01*
X164352230Y-87019130D02*
X164504630Y-87171780D01*
X165267390Y-84063580D02*
X165267390Y-84368640D01*
D10*
X166439600Y-92456000D02*
X166439600Y-68580000D01*
X144735810Y-71718680D02*
X144783050Y-71679560D01*
D11*
X149710910Y-86520275D02*
X149710910Y-87232235D01*
X165267390Y-83433160D02*
X165114740Y-83585560D01*
D10*
X163988500Y-88530680D02*
X163966150Y-88587830D01*
D11*
X149662900Y-70154800D02*
X149662900Y-70629520D01*
D10*
X146006570Y-71146670D02*
X146067530Y-71138540D01*
D11*
X165114740Y-80779110D02*
X165267390Y-80626460D01*
X155768810Y-68935600D02*
X155650190Y-69054470D01*
X157627580Y-70629520D02*
X157746200Y-70510910D01*
X164657280Y-75179430D02*
X164657280Y-75484480D01*
X153386540Y-70154800D02*
X153505160Y-70273670D01*
D10*
X145139160Y-71440040D02*
X145193260Y-71410830D01*
D11*
X151856240Y-59113090D02*
X151983490Y-59240350D01*
D10*
X144355320Y-89172290D02*
X144318740Y-89123010D01*
D11*
X165114740Y-73620370D02*
X164962340Y-73772770D01*
X156012140Y-70154800D02*
X156012140Y-70510910D01*
D10*
X140785600Y-68580000D02*
X140785600Y-92456000D01*
D11*
X156130760Y-70629520D02*
X156249370Y-70510910D01*
D10*
X144880590Y-71605140D02*
X144930630Y-71569580D01*
D11*
X150411180Y-70273670D02*
X150885910Y-70748140D01*
X165904730Y-59240350D02*
X165904730Y-59367350D01*
D10*
X163155890Y-89648280D02*
X163106610Y-89684860D01*
X144513560Y-71930260D02*
X144555980Y-71885810D01*
D11*
X164657280Y-81561940D02*
X164809680Y-81714590D01*
X160672280Y-67691000D02*
X160672280Y-68402960D01*
X164657280Y-73772770D02*
X164657280Y-74077830D01*
X157353510Y-86630765D02*
X157234890Y-86511895D01*
X164962340Y-78297780D02*
X165267390Y-78602840D01*
D10*
X164135060Y-73353930D02*
X164141660Y-73414890D01*
D11*
X158850590Y-86630765D02*
X158850590Y-87105235D01*
X144821200Y-59494600D02*
X144948460Y-59367350D01*
X157627580Y-87223855D02*
X157627580Y-86511895D01*
D10*
X162739330Y-89906850D02*
X162683960Y-89933520D01*
D11*
X164962340Y-73772770D02*
X164962340Y-74230480D01*
X164962340Y-81714590D02*
X164962340Y-81104480D01*
D10*
X163204150Y-71679560D02*
X163251390Y-71718680D01*
D11*
X155835860Y-86596350D02*
X155835860Y-87308310D01*
D10*
X145415770Y-71307450D02*
X145472920Y-71285100D01*
D11*
X150411180Y-70273670D02*
X150411180Y-70748140D01*
X157271720Y-70273670D02*
X157390340Y-70154800D01*
X161658050Y-67809870D02*
X161658050Y-68284340D01*
X151799040Y-87062690D02*
X151799040Y-87181310D01*
D10*
X164064450Y-72992740D02*
X164079690Y-73052180D01*
X163554920Y-89267790D02*
X163514790Y-89314270D01*
D11*
X164352230Y-80321400D02*
X164352230Y-80626460D01*
X168279370Y-59494600D02*
X168533630Y-59494600D01*
X164352230Y-86714070D02*
X164352230Y-87019130D01*
D10*
X164079690Y-73052180D02*
X164093660Y-73111870D01*
X143834360Y-73598530D02*
X143836650Y-73537320D01*
X144184120Y-88917780D02*
X144153640Y-88864440D01*
D11*
X169615670Y-59113090D02*
X169615670Y-59367350D01*
X150885910Y-70748140D02*
X150885910Y-70273670D01*
D10*
X144930630Y-71569580D02*
X144981680Y-71535290D01*
D11*
X145870730Y-58986090D02*
X145870730Y-59494600D01*
D10*
X162101530Y-71167240D02*
X162161730Y-71179940D01*
D11*
X164809680Y-89368120D02*
X164809680Y-89978230D01*
X164809680Y-89368120D02*
X164352230Y-89825830D01*
D10*
X143922750Y-72992740D02*
X143939770Y-72933810D01*
D11*
X158189930Y-68402960D02*
X158189930Y-67691000D01*
D10*
X144880590Y-89684860D02*
X144831310Y-89648280D01*
X163631880Y-89172290D02*
X163594040Y-89220550D01*
D11*
X151159720Y-69054470D02*
X151159720Y-68935600D01*
D10*
X144021050Y-88587830D02*
X143998700Y-88530680D01*
D11*
X146908780Y-87215470D02*
X146671290Y-87215470D01*
D10*
X163771330Y-88970100D02*
X163738310Y-89021920D01*
D11*
X165114740Y-86561670D02*
X164504630Y-87171780D01*
X151278340Y-69291710D02*
X151278340Y-69410320D01*
X146789910Y-87215470D02*
X146789910Y-86503510D01*
X156124660Y-69173090D02*
X155650190Y-69173090D01*
D10*
X143907510Y-88237820D02*
X143893540Y-88178130D01*
D11*
X169615670Y-59367350D02*
X169742670Y-59494600D01*
X156517090Y-69410320D02*
X156873200Y-69410320D01*
X151159720Y-70273670D02*
X151159720Y-70154800D01*
X151278340Y-69410320D02*
X151159720Y-69410320D01*
X156310590Y-86596350D02*
X155835860Y-86596350D01*
X144418360Y-58986090D02*
X144545360Y-59113090D01*
X151278340Y-70154800D02*
X151278340Y-70273670D01*
X164504630Y-87171780D02*
X165114740Y-87171780D01*
X149735850Y-59494600D02*
X150244100Y-59494600D01*
D10*
X163005520Y-71535290D02*
X163056570Y-71569580D01*
D11*
X164504630Y-86561670D02*
X164352230Y-86714070D01*
D10*
X146067530Y-71138540D02*
X146128490Y-71131940D01*
D11*
X152282400Y-70629520D02*
X152282400Y-70154800D01*
D10*
X144393160Y-89220550D02*
X144355320Y-89172290D01*
D11*
X159859470Y-86741000D02*
X159622240Y-86503510D01*
D10*
X162683960Y-71356470D02*
X162739330Y-71383140D01*
X146312130Y-90169240D02*
X146250920Y-90166950D01*
D11*
X153267920Y-69410320D02*
X153030690Y-69173090D01*
D10*
X162041340Y-90133680D02*
X161980630Y-90143330D01*
X161675070Y-90169240D02*
X161613600Y-90170000D01*
D11*
X155893520Y-70629520D02*
X156012140Y-70510910D01*
D10*
X144599410Y-89447620D02*
X144555980Y-89404190D01*
X162628080Y-71331330D02*
X162683960Y-71356470D01*
X163387790Y-71842370D02*
X163431220Y-71885810D01*
D11*
X151159720Y-70510910D02*
X151278340Y-70510910D01*
X146418050Y-67809870D02*
X146418050Y-68402960D01*
X145075460Y-58986090D02*
X144821200Y-58986090D01*
X151159720Y-69410320D02*
X151159720Y-69291710D01*
D10*
X173654520Y-59824800D02*
X173654520Y-65311200D01*
X144153640Y-72425560D02*
X144184120Y-72372220D01*
X162514280Y-71285100D02*
X162571430Y-71307450D01*
X145247870Y-89906850D02*
X145193260Y-89879170D01*
D11*
X160161230Y-68284340D02*
X160042610Y-68402960D01*
D10*
X144124430Y-88810340D02*
X144096740Y-88755730D01*
D11*
X164504630Y-80169000D02*
X164352230Y-80321400D01*
X152756870Y-69054470D02*
X152756870Y-69291710D01*
X150565870Y-86520275D02*
X150091400Y-87232235D01*
X154646130Y-69917560D02*
X154764740Y-70036180D01*
D10*
X163704020Y-89072970D02*
X163668460Y-89123010D01*
D11*
X155774900Y-70629520D02*
X155774900Y-70154800D01*
X161000440Y-87215470D02*
X160881820Y-87096850D01*
X161356550Y-87096850D02*
X161237680Y-87215470D01*
D10*
X161613600Y-71120000D02*
X161675070Y-71120760D01*
X163966150Y-88587830D02*
X163942270Y-88644470D01*
X144248890Y-72268080D02*
X144283180Y-72217020D01*
X163704020Y-72217020D02*
X163738310Y-72268080D01*
D11*
X145923000Y-86741000D02*
X146160240Y-86503510D01*
X165109450Y-59494600D02*
X165109450Y-58986090D01*
X165114740Y-73294750D02*
X164962340Y-73294750D01*
D10*
X144555980Y-71885810D02*
X144599410Y-71842370D01*
D11*
X149735850Y-58858840D02*
X149735850Y-58731840D01*
D10*
X164117280Y-88057730D02*
X164106360Y-88117930D01*
D11*
X144036850Y-59113090D02*
X144164100Y-58986090D01*
D10*
X144432280Y-89267790D02*
X144393160Y-89220550D01*
D11*
X157234890Y-86511895D02*
X156997660Y-86511895D01*
X145362220Y-59113090D02*
X145362220Y-59494600D01*
X155768810Y-69410320D02*
X156006040Y-69410320D01*
X154339040Y-87071070D02*
X154339040Y-87189690D01*
X151278340Y-70273670D02*
X151159720Y-70273670D01*
D10*
X146250920Y-90166950D02*
X146189700Y-90163390D01*
X161736280Y-90166950D02*
X161675070Y-90169240D01*
D11*
X151159720Y-68935600D02*
X151278340Y-68935600D01*
D10*
X143907510Y-73052180D02*
X143922750Y-72992740D01*
X145303240Y-89933520D02*
X145247870Y-89906850D01*
D11*
X151159720Y-70629520D02*
X151159720Y-70510910D01*
D10*
X163005520Y-89754710D02*
X162953700Y-89787730D01*
X143836650Y-73537320D02*
X143840200Y-73476100D01*
D11*
X146273570Y-59494600D02*
X146273570Y-58986090D01*
X167876270Y-59494600D02*
X168003530Y-59367350D01*
X159412690Y-68165720D02*
X159175450Y-68402960D01*
D10*
X144472410Y-71975720D02*
X144513560Y-71930260D01*
X162339790Y-90063830D02*
X162280860Y-90080840D01*
D11*
X154241810Y-58986090D02*
X154241810Y-59494600D01*
X153533100Y-87299930D02*
X153770590Y-87062690D01*
D10*
X144318740Y-72166990D02*
X144355320Y-72117710D01*
D11*
X150565870Y-87232235D02*
X150565870Y-86520275D01*
D10*
X164029390Y-72875140D02*
X164047430Y-72933810D01*
D11*
X144164100Y-59494600D02*
X144036850Y-59367350D01*
D10*
X145193260Y-89879170D02*
X145139160Y-89849960D01*
X143836650Y-87752680D02*
X143834360Y-87691470D01*
X163833560Y-72425560D02*
X163862770Y-72479660D01*
X145945860Y-71156320D02*
X146006570Y-71146670D01*
D11*
X153149300Y-70629520D02*
X153030690Y-70510910D01*
X165267390Y-80626460D02*
X165267390Y-80321400D01*
X151917660Y-86944080D02*
X151799040Y-87062690D01*
X154623320Y-59494600D02*
X154750320Y-59367350D01*
X164657280Y-82039970D02*
X164657280Y-82497420D01*
D10*
X161980630Y-71146670D02*
X162041340Y-71156320D01*
D11*
X158664410Y-67691000D02*
X158189930Y-68402960D01*
X155650190Y-69054470D02*
X155650190Y-69291710D01*
D10*
X143922750Y-88297260D02*
X143907510Y-88237820D01*
D11*
X161302200Y-68047110D02*
X161658050Y-68047110D01*
D10*
X145647410Y-90063830D02*
X145588740Y-90045790D01*
X164079690Y-88237820D02*
X164064450Y-88297260D01*
D11*
X159805370Y-68402960D02*
X159686760Y-68284340D01*
X151983490Y-58731840D02*
X151856240Y-58858840D01*
X144948460Y-59367350D02*
X144948460Y-58858840D01*
X152154890Y-87299930D02*
X152273510Y-87181310D01*
X155087580Y-86715220D02*
X155206200Y-86596350D01*
X164352230Y-73142350D02*
X164504630Y-73294750D01*
X155087580Y-87189690D02*
X155087580Y-86715220D01*
X152282400Y-68935600D02*
X152638260Y-68935600D01*
D10*
X145359120Y-71331330D02*
X145415770Y-71307450D01*
D12*
X194691000Y-88988000D02*
X171831000Y-88988000D01*
D10*
X162901380Y-71470520D02*
X162953700Y-71502270D01*
D11*
X167622270Y-59494600D02*
X167876270Y-59494600D01*
X149829780Y-86520275D02*
X149592290Y-86520275D01*
X160042610Y-68402960D02*
X159805370Y-68402960D01*
X144036850Y-59367350D02*
X144036850Y-59113090D01*
D10*
X163988500Y-72759310D02*
X164009580Y-72816970D01*
D11*
X155206200Y-86596350D02*
X155443430Y-86596350D01*
X150767040Y-70154800D02*
X150529800Y-70154800D01*
X158020260Y-70154800D02*
X158020260Y-70629520D01*
D10*
X144643860Y-71799960D02*
X144689330Y-71758810D01*
D11*
X167622270Y-58731840D02*
X167495020Y-58858840D01*
X159385000Y-86741000D02*
X159385000Y-87215470D01*
X159859470Y-87215470D02*
X159859470Y-86741000D01*
X160252160Y-87215470D02*
X160489390Y-87215470D01*
D10*
X161613600Y-90170000D02*
X146373600Y-90170000D01*
D11*
X152756870Y-70154800D02*
X152756870Y-70510910D01*
D10*
X163473640Y-71930260D02*
X163514790Y-71975720D01*
D11*
X153030690Y-70273670D02*
X153149300Y-70154800D01*
X150411180Y-68935600D02*
X150885910Y-68935600D01*
D10*
X163343340Y-89490040D02*
X163297870Y-89531190D01*
X164147000Y-87813890D02*
X164141660Y-87875110D01*
D11*
X164809680Y-83910930D02*
X165114740Y-83910930D01*
D10*
X163631880Y-72117710D02*
X163668460Y-72166990D01*
D11*
X151159720Y-70154800D02*
X151278340Y-70154800D01*
X169615670Y-59113090D02*
X169869670Y-59113090D01*
X147864120Y-58986090D02*
X147609870Y-58986090D01*
D10*
X164126930Y-73292970D02*
X164135060Y-73353930D01*
D11*
X149321830Y-58986090D02*
X149067830Y-58986090D01*
X150244100Y-59367350D02*
X149735850Y-58858840D01*
D10*
X144643860Y-89490040D02*
X144599410Y-89447620D01*
D11*
X157690820Y-68402960D02*
X157928060Y-68402960D01*
X160909510Y-67691000D02*
X160435040Y-67691000D01*
X165267390Y-87019130D02*
X165267390Y-86714070D01*
X149662900Y-69410320D02*
X149900140Y-69647560D01*
D10*
X145193260Y-71410830D02*
X145247870Y-71383140D01*
D11*
X164504630Y-80169000D02*
X164657280Y-80169000D01*
X156523440Y-70629520D02*
X156523440Y-69917560D01*
D12*
X171831000Y-68668000D02*
X194691000Y-68668000D01*
D11*
X153770590Y-87062690D02*
X153770590Y-86587970D01*
D10*
X163668460Y-72166990D02*
X163704020Y-72217020D01*
D11*
X151278340Y-68935600D02*
X151278340Y-69054470D01*
D10*
X145588740Y-90045790D02*
X145530570Y-90025980D01*
X145825470Y-71179940D02*
X145885670Y-71167240D01*
D11*
X155026360Y-70273670D02*
X155145240Y-70154800D01*
D10*
X143977620Y-72816970D02*
X143998700Y-72759310D01*
D11*
X155206200Y-87308310D02*
X155087580Y-87189690D01*
X161183580Y-68165720D02*
X161302200Y-68047110D01*
X168003530Y-58858840D02*
X167876270Y-58731840D01*
D10*
X143869920Y-88057730D02*
X143860270Y-87997030D01*
X162793940Y-89879170D02*
X162739330Y-89906850D01*
D11*
X154457660Y-87308310D02*
X154694890Y-87308310D01*
D10*
X145530570Y-90025980D02*
X145472920Y-90004900D01*
X145706340Y-90080840D02*
X145647410Y-90063830D01*
X162221420Y-71193910D02*
X162280860Y-71209150D01*
D11*
X169328900Y-59494600D02*
X169328900Y-58731840D01*
X153386540Y-69410320D02*
X153267920Y-69410320D01*
D10*
X144831310Y-89648280D02*
X144783050Y-89610440D01*
D11*
X152154890Y-86944080D02*
X152273510Y-86825460D01*
X169742670Y-58731840D02*
X169615670Y-58858840D01*
X166412980Y-58731840D02*
X166031730Y-58731840D01*
X157271720Y-70510910D02*
X157390340Y-70629520D01*
X152364750Y-59494600D02*
X152364750Y-58731840D01*
X164352230Y-80626460D02*
X164504630Y-80779110D01*
X160489390Y-86503510D02*
X160252160Y-86503510D01*
D10*
X164147000Y-73476100D02*
X164150550Y-73537320D01*
D11*
X144164100Y-58986090D02*
X144418360Y-58986090D01*
D10*
X143852140Y-87936070D02*
X143845540Y-87875110D01*
D11*
X164352230Y-78297780D02*
X164962340Y-78297780D01*
D10*
X164047430Y-88356180D02*
X164029390Y-88414860D01*
D11*
X165617960Y-59367350D02*
X165617960Y-58986090D01*
X151278340Y-70510910D02*
X151278340Y-70629520D01*
X145362220Y-59113090D02*
X145489220Y-58986090D01*
X147864120Y-59494600D02*
X147991120Y-59367350D01*
X168820390Y-58858840D02*
X168820390Y-59113090D01*
D10*
X163738310Y-72268080D02*
X163771330Y-72319890D01*
D11*
X165114740Y-75332080D02*
X164504630Y-75332080D01*
D10*
X143957810Y-72875140D02*
X143977620Y-72816970D01*
X164117280Y-73232260D02*
X164126930Y-73292970D01*
X144044930Y-88644470D02*
X144021050Y-88587830D01*
D11*
X153573790Y-59748600D02*
X153700790Y-59748600D01*
X157271720Y-70273670D02*
X157271720Y-70510910D01*
D10*
X143998700Y-72759310D02*
X144021050Y-72702160D01*
X162221420Y-90096080D02*
X162161730Y-90110050D01*
D11*
X164352230Y-76738730D02*
X164352230Y-77043790D01*
X165267390Y-78602840D02*
X164962340Y-78907890D01*
X147991120Y-59367350D02*
X147991120Y-59113090D01*
X149067830Y-59494600D02*
X149321830Y-59494600D01*
X156398470Y-69291710D02*
X156517090Y-69410320D01*
X164657280Y-88107260D02*
X165267390Y-87497160D01*
D10*
X164047430Y-72933810D02*
X164064450Y-72992740D01*
D11*
X148393410Y-86859620D02*
X147918680Y-86859620D01*
X164352230Y-89825830D02*
X165267390Y-89825830D01*
X164809680Y-82650070D02*
X165267390Y-82650070D01*
X146691860Y-68165720D02*
X146929100Y-68402960D01*
D10*
X163594040Y-72069450D02*
X163631880Y-72117710D01*
D11*
X149735850Y-58731840D02*
X150244100Y-58731840D01*
X161539430Y-67691000D02*
X161658050Y-67809870D01*
X159686760Y-67691000D02*
X160161230Y-68165720D01*
X147991120Y-59113090D02*
X147864120Y-58986090D01*
D10*
X144215870Y-72319890D02*
X144248890Y-72268080D01*
X162848040Y-71440040D02*
X162901380Y-71470520D01*
D11*
X155376380Y-68816980D02*
X155257760Y-68698360D01*
X154457660Y-86952460D02*
X154694890Y-86952460D01*
X164809680Y-82975450D02*
X164657280Y-83128100D01*
D10*
X162101530Y-90122750D02*
X162041340Y-90133680D01*
D11*
X164962340Y-83128100D02*
X164809680Y-82975450D01*
D10*
X144393160Y-72069450D02*
X144432280Y-72022210D01*
D11*
X169742670Y-59494600D02*
X169996920Y-59494600D01*
D10*
X143957810Y-88414860D02*
X143939770Y-88356180D01*
X146006570Y-90143330D02*
X145945860Y-90133680D01*
D11*
X164504630Y-74708260D02*
X165114740Y-74708260D01*
X161183580Y-68284340D02*
X161183580Y-68165720D01*
X147482870Y-59367350D02*
X147609870Y-59494600D01*
X164352230Y-72684640D02*
X164352230Y-73142350D01*
X144545360Y-59367350D02*
X144418360Y-59494600D01*
D10*
X144044930Y-72645520D02*
X144070070Y-72589640D01*
D11*
X146929100Y-68402960D02*
X146929100Y-67691000D01*
X145943580Y-68402960D02*
X145943580Y-67809870D01*
X156879040Y-87105235D02*
X156997660Y-87223855D01*
X160489390Y-87215470D02*
X160608010Y-87096850D01*
D10*
X163251390Y-89571320D02*
X163204150Y-89610440D01*
X163514790Y-89314270D02*
X163473640Y-89359740D01*
D11*
X153022050Y-87181310D02*
X153022050Y-86706840D01*
D10*
X162161730Y-90110050D02*
X162101530Y-90122750D01*
D11*
X161237680Y-87215470D02*
X161000440Y-87215470D01*
D10*
X145359120Y-89958670D02*
X145303240Y-89933520D01*
D11*
X160881820Y-87096850D02*
X160881820Y-86622380D01*
X164441430Y-59240350D02*
X164314180Y-59367350D01*
X149662900Y-70629520D02*
X149900140Y-70866760D01*
X151917660Y-86944080D02*
X152154890Y-86944080D01*
D10*
X144831310Y-71641710D02*
X144880590Y-71605140D01*
X164152840Y-73598530D02*
X164153600Y-73660000D01*
D11*
X151799040Y-87181310D02*
X151917660Y-87299930D01*
X158938220Y-68047110D02*
X159412690Y-68047110D01*
X164809680Y-80626460D02*
X164962340Y-80779110D01*
X160252160Y-86503510D02*
X160133540Y-86622380D01*
D10*
X145472920Y-90004900D02*
X145415770Y-89982550D01*
X144070070Y-72589640D02*
X144096740Y-72534270D01*
D11*
X157353510Y-86868005D02*
X157353510Y-86630765D01*
X150648420Y-69647560D02*
X150411180Y-69410320D01*
X158938220Y-68165720D02*
X158938220Y-67691000D01*
X153149300Y-70154800D02*
X153386540Y-70154800D01*
D10*
X164153600Y-73660000D02*
X164153600Y-87630000D01*
D11*
X153030690Y-69410320D02*
X153030690Y-68935600D01*
X154813510Y-86833840D02*
X154813510Y-86715220D01*
D10*
X145033500Y-89787730D02*
X144981680Y-89754710D01*
D11*
X146273570Y-58731840D02*
X146273570Y-58604840D01*
D10*
X144689330Y-71758810D02*
X144735810Y-71718680D01*
D11*
X155280410Y-59494600D02*
X155026160Y-59494600D01*
X164695690Y-58986090D02*
X164822690Y-59113090D01*
X164809680Y-74230480D02*
X165267390Y-74230480D01*
D10*
X144070070Y-88700350D02*
X144044930Y-88644470D01*
D11*
X153446790Y-58986090D02*
X153446790Y-59621600D01*
X155443430Y-86596350D02*
X155562050Y-86715220D01*
X151442470Y-58986090D02*
X151442470Y-59494600D01*
D10*
X164141660Y-73414890D02*
X164147000Y-73476100D01*
X163890460Y-72534270D02*
X163917130Y-72589640D01*
D11*
X160881820Y-86622380D02*
X161000440Y-86503510D01*
X147644870Y-86503510D02*
X147644870Y-87215470D01*
D10*
X162041340Y-71156320D02*
X162101530Y-71167240D01*
D11*
X165490710Y-59494600D02*
X165617960Y-59367350D01*
X152547580Y-86587970D02*
X152547580Y-87299930D01*
D10*
X162953700Y-71502270D02*
X163005520Y-71535290D01*
D11*
X144418360Y-59494600D02*
X144164100Y-59494600D01*
D10*
X144981680Y-89754710D02*
X144930630Y-89720420D01*
D11*
X166031730Y-59494600D02*
X166412980Y-59494600D01*
X157746200Y-70392290D02*
X157271720Y-70392290D01*
X169996920Y-58731840D02*
X169742670Y-58731840D01*
D10*
X161736280Y-71123050D02*
X161797500Y-71126600D01*
X144355320Y-72117710D02*
X144393160Y-72069450D01*
X161675070Y-71120760D02*
X161736280Y-71123050D01*
X163890460Y-88755730D02*
X163862770Y-88810340D01*
D11*
X156997660Y-86511895D02*
X156879040Y-86630765D01*
D10*
X145765780Y-71193910D02*
X145825470Y-71179940D01*
X144184120Y-72372220D02*
X144215870Y-72319890D01*
X163431220Y-71885810D02*
X163473640Y-71930260D01*
X143860270Y-73292970D02*
X143869920Y-73232260D01*
D11*
X155501090Y-70154800D02*
X155501090Y-70629520D01*
X152756870Y-69291710D02*
X152638260Y-69410320D01*
D10*
X163862770Y-72479660D02*
X163890460Y-72534270D01*
D11*
X164657280Y-84368640D02*
X164657280Y-84063580D01*
D10*
X143869920Y-73232260D02*
X143880840Y-73172060D01*
D11*
X147609870Y-59494600D02*
X147864120Y-59494600D01*
X170123920Y-58858840D02*
X169996920Y-58731840D01*
X155376380Y-69410320D02*
X155020270Y-69410320D01*
X165267390Y-73772770D02*
X165114740Y-73620370D01*
X160608010Y-86622380D02*
X160489390Y-86503510D01*
X154271980Y-69410320D02*
X154627840Y-69410320D01*
X161658050Y-68284340D02*
X161539430Y-68402960D01*
D10*
X162683960Y-89933520D02*
X162628080Y-89958670D01*
D11*
X148940570Y-59113090D02*
X148940570Y-59240350D01*
X164695690Y-59240350D02*
X164441430Y-59240350D01*
X150885910Y-70273670D02*
X150767040Y-70154800D01*
X150137370Y-70510910D02*
X149662900Y-70510910D01*
D10*
X146067530Y-90151460D02*
X146006570Y-90143330D01*
D11*
X149449080Y-59113090D02*
X149321830Y-58986090D01*
D10*
X164106360Y-88117930D02*
X164093660Y-88178130D01*
D11*
X164352230Y-88890350D02*
X165267390Y-88890350D01*
D10*
X144735810Y-89571320D02*
X144689330Y-89531190D01*
X161797500Y-90163390D02*
X161736280Y-90166950D01*
D11*
X152364750Y-58731840D02*
X151983490Y-58731840D01*
D10*
X146312130Y-71120760D02*
X146373600Y-71120000D01*
D11*
X149321830Y-59494600D02*
X149449080Y-59367350D01*
D10*
X143845540Y-87875110D02*
X143840200Y-87813890D01*
D12*
X171831000Y-88988000D02*
X171831000Y-68668000D01*
D11*
X154457660Y-86952460D02*
X154339040Y-87071070D01*
X153955040Y-59113090D02*
X153828040Y-58986090D01*
D10*
X162571430Y-89982550D02*
X162514280Y-90004900D01*
D11*
X166031730Y-59113090D02*
X165904730Y-59240350D01*
D10*
X144472410Y-89314270D02*
X144432280Y-89267790D01*
D11*
X154813510Y-86715220D02*
X154694890Y-86596350D01*
D10*
X145765780Y-90096080D02*
X145706340Y-90080840D01*
X143977620Y-88473020D02*
X143957810Y-88414860D01*
D11*
X156517090Y-68935600D02*
X156398470Y-69054470D01*
X164962340Y-73294750D02*
X164809680Y-73142350D01*
X150529800Y-70866760D02*
X150767040Y-70866760D01*
X150529800Y-70154800D02*
X150411180Y-70273670D01*
X157928060Y-67691000D02*
X157690820Y-67691000D01*
D10*
X164009580Y-72816970D02*
X164029390Y-72875140D01*
X143833600Y-87630000D02*
X143833600Y-73660000D01*
X163155890Y-71641710D02*
X163204150Y-71679560D01*
D11*
X164441430Y-59494600D02*
X164822690Y-59494600D01*
X152638260Y-70629520D02*
X152282400Y-70629520D01*
D10*
X145706340Y-71209150D02*
X145765780Y-71193910D01*
D11*
X148272550Y-58986090D02*
X148399550Y-58986090D01*
X145489220Y-58986090D02*
X145870730Y-58986090D01*
X152903430Y-87299930D02*
X153022050Y-87181310D01*
X150767040Y-70866760D02*
X150885910Y-70748140D01*
X152154890Y-86587970D02*
X151917660Y-86587970D01*
X165904730Y-58858840D02*
X165904730Y-58986090D01*
X156879040Y-86630765D02*
X156879040Y-87105235D01*
X164657280Y-84063580D02*
X164809680Y-83910930D01*
D10*
X145885670Y-71167240D02*
X145945860Y-71156320D01*
D11*
X154901650Y-69054470D02*
X155020270Y-68935600D01*
D10*
X145139160Y-89849960D02*
X145085820Y-89819480D01*
X143939770Y-88356180D02*
X143922750Y-88297260D01*
X163738310Y-89021920D02*
X163704020Y-89072970D01*
D11*
X161302200Y-67691000D02*
X161183580Y-67809870D01*
X146691860Y-67691000D02*
X147166590Y-67691000D01*
D10*
X163473640Y-89359740D02*
X163431220Y-89404190D01*
D11*
X165267390Y-84368640D02*
X165114740Y-84521040D01*
X154694890Y-86596350D02*
X154457660Y-86596350D01*
D10*
X144021050Y-72702160D02*
X144044930Y-72645520D01*
D11*
X165267390Y-81256880D02*
X165267390Y-81561940D01*
D10*
X146128490Y-71131940D02*
X146189700Y-71126600D01*
X163966150Y-72702160D02*
X163988500Y-72759310D01*
D11*
X153773130Y-69410320D02*
X153654510Y-69410320D01*
X164657280Y-85151470D02*
X164657280Y-85304120D01*
D10*
X144248890Y-89021920D02*
X144215870Y-88970100D01*
D11*
X154241810Y-59494600D02*
X154623320Y-59494600D01*
X148940570Y-59240350D02*
X149449080Y-59240350D01*
X157390340Y-70154800D02*
X157627580Y-70154800D01*
D10*
X163514790Y-71975720D02*
X163554920Y-72022210D01*
D11*
X164657280Y-80169000D02*
X164809680Y-80321400D01*
X164822690Y-59113090D02*
X164695690Y-59240350D01*
X156398470Y-69054470D02*
X156398470Y-69291710D01*
X156873200Y-68935600D02*
X156517090Y-68935600D01*
X166412980Y-59494600D02*
X166412980Y-58731840D01*
X148399550Y-58986090D02*
X148653810Y-59240350D01*
D10*
X146373600Y-71120000D02*
X161613600Y-71120000D01*
X163056570Y-89720420D02*
X163005520Y-89754710D01*
D11*
X145923000Y-87215470D02*
X145923000Y-86741000D01*
X146397480Y-86741000D02*
X146397480Y-87215470D01*
X155257760Y-68698360D02*
X155139140Y-68698360D01*
D10*
X143939770Y-72933810D02*
X143957810Y-72875140D01*
D12*
X183261000Y-88988000D02*
X183261000Y-86448000D01*
D11*
X155567180Y-59113090D02*
X155694180Y-58986090D01*
X153295860Y-87062690D02*
X153533100Y-87299930D01*
X164657280Y-73294750D02*
X164809680Y-73142350D01*
X149592290Y-87232235D02*
X149829780Y-87232235D01*
X161237680Y-86503510D02*
X161356550Y-86622380D01*
X156075690Y-59494600D02*
X155694180Y-59494600D01*
X153773130Y-68935600D02*
X153773130Y-69410320D01*
X168947390Y-59240350D02*
X169328900Y-59240350D01*
D10*
X163297870Y-71758810D02*
X163343340Y-71799960D01*
D11*
X146299430Y-67691000D02*
X146418050Y-67809870D01*
X152756870Y-70510910D02*
X152638260Y-70629520D01*
X156997910Y-70510910D02*
X156879290Y-70629520D01*
X153295860Y-87062690D02*
X153295860Y-86587970D01*
D10*
X162739330Y-71383140D02*
X162793940Y-71410830D01*
D11*
X164809680Y-88432640D02*
X164352230Y-88890350D01*
X156523440Y-70154800D02*
X156879290Y-70154800D01*
D10*
X143893540Y-73111870D02*
X143907510Y-73052180D01*
X163251390Y-71718680D02*
X163297870Y-71758810D01*
X145033500Y-71502270D02*
X145085820Y-71470520D01*
D11*
X165267390Y-86714070D02*
X165114740Y-86561670D01*
D10*
X166439600Y-68580000D02*
X140785600Y-68580000D01*
D12*
X183261000Y-68668000D02*
X183261000Y-71208000D01*
D10*
X164106360Y-73172060D02*
X164117280Y-73232260D01*
X162848040Y-89849960D02*
X162793940Y-89879170D01*
D11*
X165267390Y-82975450D02*
X165267390Y-83433160D01*
X164962340Y-83433160D02*
X164962340Y-83128100D01*
D10*
X163056570Y-71569580D02*
X163106610Y-71605140D01*
X144096740Y-88755730D02*
X144070070Y-88700350D01*
D11*
X158102050Y-86511895D02*
X157627580Y-87223855D01*
D10*
X143998700Y-88530680D02*
X143977620Y-88473020D01*
D11*
X167876270Y-58731840D02*
X167622270Y-58731840D01*
X147482870Y-59113090D02*
X147482870Y-59367350D01*
X154457660Y-86596350D02*
X154339040Y-86715220D01*
X154694890Y-87308310D02*
X154813510Y-87189690D01*
X152547580Y-87299930D02*
X152903430Y-87299930D01*
X150648420Y-68935600D02*
X150648420Y-69647560D01*
X152282400Y-69647560D02*
X152282400Y-68935600D01*
D10*
X144153640Y-88864440D02*
X144124430Y-88810340D01*
D11*
X154694890Y-86952460D02*
X154813510Y-86833840D01*
X153386540Y-70629520D02*
X153149300Y-70629520D01*
X164809680Y-81104480D02*
X164657280Y-81256880D01*
X158731720Y-87223855D02*
X158375860Y-87223855D01*
D14*
X185654792Y-78856580D02*
X185702411Y-78904200D01*
X185702411Y-78904200D02*
X185845268Y-78951819D01*
X185845268Y-78951819D02*
X185940506Y-78951819D01*
X185940506Y-78951819D02*
X186083363Y-78904200D01*
X186083363Y-78904200D02*
X186178601Y-78808961D01*
X186178601Y-78808961D02*
X186226220Y-78713723D01*
X186226220Y-78713723D02*
X186273839Y-78523247D01*
X186273839Y-78523247D02*
X186273839Y-78380390D01*
X186273839Y-78380390D02*
X186226220Y-78189914D01*
X186226220Y-78189914D02*
X186178601Y-78094676D01*
X186178601Y-78094676D02*
X186083363Y-77999438D01*
X186083363Y-77999438D02*
X185940506Y-77951819D01*
X185940506Y-77951819D02*
X185845268Y-77951819D01*
X185845268Y-77951819D02*
X185702411Y-77999438D01*
X185702411Y-77999438D02*
X185654792Y-78047057D01*
X185226220Y-78951819D02*
X185226220Y-77951819D01*
X185226220Y-78428009D02*
X184654792Y-78428009D01*
X184654792Y-78951819D02*
X184654792Y-77951819D01*
X184273839Y-77951819D02*
X183654792Y-77951819D01*
X183654792Y-77951819D02*
X183988125Y-78332771D01*
X183988125Y-78332771D02*
X183845268Y-78332771D01*
X183845268Y-78332771D02*
X183750030Y-78380390D01*
X183750030Y-78380390D02*
X183702411Y-78428009D01*
X183702411Y-78428009D02*
X183654792Y-78523247D01*
X183654792Y-78523247D02*
X183654792Y-78761342D01*
X183654792Y-78761342D02*
X183702411Y-78856580D01*
X183702411Y-78856580D02*
X183750030Y-78904200D01*
X183750030Y-78904200D02*
X183845268Y-78951819D01*
X183845268Y-78951819D02*
X184130982Y-78951819D01*
X184130982Y-78951819D02*
X184226220Y-78904200D01*
X184226220Y-78904200D02*
X184273839Y-78856580D01*
X183321458Y-77951819D02*
X182702411Y-77951819D01*
X182702411Y-77951819D02*
X183035744Y-78332771D01*
X183035744Y-78332771D02*
X182892887Y-78332771D01*
X182892887Y-78332771D02*
X182797649Y-78380390D01*
X182797649Y-78380390D02*
X182750030Y-78428009D01*
X182750030Y-78428009D02*
X182702411Y-78523247D01*
X182702411Y-78523247D02*
X182702411Y-78761342D01*
X182702411Y-78761342D02*
X182750030Y-78856580D01*
X182750030Y-78856580D02*
X182797649Y-78904200D01*
X182797649Y-78904200D02*
X182892887Y-78951819D01*
X182892887Y-78951819D02*
X183178601Y-78951819D01*
X183178601Y-78951819D02*
X183273839Y-78904200D01*
X183273839Y-78904200D02*
X183321458Y-78856580D01*
X181845268Y-78285152D02*
X181845268Y-78951819D01*
X182083363Y-77904200D02*
X182321458Y-78618485D01*
X182321458Y-78618485D02*
X181702411Y-78618485D01*
X180988125Y-78428009D02*
X181321458Y-78428009D01*
X181321458Y-78951819D02*
X181321458Y-77951819D01*
X181321458Y-77951819D02*
X180845268Y-77951819D01*
X160855419Y-72121666D02*
X161569704Y-72121666D01*
X161569704Y-72121666D02*
X161712561Y-72074047D01*
X161712561Y-72074047D02*
X161807800Y-71978809D01*
X161807800Y-71978809D02*
X161855419Y-71835952D01*
X161855419Y-71835952D02*
X161855419Y-71740714D01*
X160855419Y-73074047D02*
X160855419Y-72597857D01*
X160855419Y-72597857D02*
X161331609Y-72550238D01*
X161331609Y-72550238D02*
X161283990Y-72597857D01*
X161283990Y-72597857D02*
X161236371Y-72693095D01*
X161236371Y-72693095D02*
X161236371Y-72931190D01*
X161236371Y-72931190D02*
X161283990Y-73026428D01*
X161283990Y-73026428D02*
X161331609Y-73074047D01*
X161331609Y-73074047D02*
X161426847Y-73121666D01*
X161426847Y-73121666D02*
X161664942Y-73121666D01*
X161664942Y-73121666D02*
X161760180Y-73074047D01*
X161760180Y-73074047D02*
X161807800Y-73026428D01*
X161807800Y-73026428D02*
X161855419Y-72931190D01*
X161855419Y-72931190D02*
X161855419Y-72693095D01*
X161855419Y-72693095D02*
X161807800Y-72597857D01*
X161807800Y-72597857D02*
X161760180Y-72550238D01*
X188905819Y-86114666D02*
X189620104Y-86114666D01*
X189620104Y-86114666D02*
X189762961Y-86067047D01*
X189762961Y-86067047D02*
X189858200Y-85971809D01*
X189858200Y-85971809D02*
X189905819Y-85828952D01*
X189905819Y-85828952D02*
X189905819Y-85733714D01*
X189334390Y-86733714D02*
X189286771Y-86638476D01*
X189286771Y-86638476D02*
X189239152Y-86590857D01*
X189239152Y-86590857D02*
X189143914Y-86543238D01*
X189143914Y-86543238D02*
X189096295Y-86543238D01*
X189096295Y-86543238D02*
X189001057Y-86590857D01*
X189001057Y-86590857D02*
X188953438Y-86638476D01*
X188953438Y-86638476D02*
X188905819Y-86733714D01*
X188905819Y-86733714D02*
X188905819Y-86924190D01*
X188905819Y-86924190D02*
X188953438Y-87019428D01*
X188953438Y-87019428D02*
X189001057Y-87067047D01*
X189001057Y-87067047D02*
X189096295Y-87114666D01*
X189096295Y-87114666D02*
X189143914Y-87114666D01*
X189143914Y-87114666D02*
X189239152Y-87067047D01*
X189239152Y-87067047D02*
X189286771Y-87019428D01*
X189286771Y-87019428D02*
X189334390Y-86924190D01*
X189334390Y-86924190D02*
X189334390Y-86733714D01*
X189334390Y-86733714D02*
X189382009Y-86638476D01*
X189382009Y-86638476D02*
X189429628Y-86590857D01*
X189429628Y-86590857D02*
X189524866Y-86543238D01*
X189524866Y-86543238D02*
X189715342Y-86543238D01*
X189715342Y-86543238D02*
X189810580Y-86590857D01*
X189810580Y-86590857D02*
X189858200Y-86638476D01*
X189858200Y-86638476D02*
X189905819Y-86733714D01*
X189905819Y-86733714D02*
X189905819Y-86924190D01*
X189905819Y-86924190D02*
X189858200Y-87019428D01*
X189858200Y-87019428D02*
X189810580Y-87067047D01*
X189810580Y-87067047D02*
X189715342Y-87114666D01*
X189715342Y-87114666D02*
X189524866Y-87114666D01*
X189524866Y-87114666D02*
X189429628Y-87067047D01*
X189429628Y-87067047D02*
X189382009Y-87019428D01*
X189382009Y-87019428D02*
X189334390Y-86924190D01*
X188905819Y-70874666D02*
X189620104Y-70874666D01*
X189620104Y-70874666D02*
X189762961Y-70827047D01*
X189762961Y-70827047D02*
X189858200Y-70731809D01*
X189858200Y-70731809D02*
X189905819Y-70588952D01*
X189905819Y-70588952D02*
X189905819Y-70493714D01*
X189905819Y-71398476D02*
X189905819Y-71588952D01*
X189905819Y-71588952D02*
X189858200Y-71684190D01*
X189858200Y-71684190D02*
X189810580Y-71731809D01*
X189810580Y-71731809D02*
X189667723Y-71827047D01*
X189667723Y-71827047D02*
X189477247Y-71874666D01*
X189477247Y-71874666D02*
X189096295Y-71874666D01*
X189096295Y-71874666D02*
X189001057Y-71827047D01*
X189001057Y-71827047D02*
X188953438Y-71779428D01*
X188953438Y-71779428D02*
X188905819Y-71684190D01*
X188905819Y-71684190D02*
X188905819Y-71493714D01*
X188905819Y-71493714D02*
X188953438Y-71398476D01*
X188953438Y-71398476D02*
X189001057Y-71350857D01*
X189001057Y-71350857D02*
X189096295Y-71303238D01*
X189096295Y-71303238D02*
X189334390Y-71303238D01*
X189334390Y-71303238D02*
X189429628Y-71350857D01*
X189429628Y-71350857D02*
X189477247Y-71398476D01*
X189477247Y-71398476D02*
X189524866Y-71493714D01*
X189524866Y-71493714D02*
X189524866Y-71684190D01*
X189524866Y-71684190D02*
X189477247Y-71779428D01*
X189477247Y-71779428D02*
X189429628Y-71827047D01*
X189429628Y-71827047D02*
X189334390Y-71874666D01*
X174704333Y-72092819D02*
X174704333Y-72807104D01*
X174704333Y-72807104D02*
X174751952Y-72949961D01*
X174751952Y-72949961D02*
X174847190Y-73045200D01*
X174847190Y-73045200D02*
X174990047Y-73092819D01*
X174990047Y-73092819D02*
X175085285Y-73092819D01*
X174323380Y-72092819D02*
X173656714Y-72092819D01*
X173656714Y-72092819D02*
X174085285Y-73092819D01*
X130509415Y-65907405D02*
X130509415Y-66621690D01*
X130509415Y-66621690D02*
X130557034Y-66764547D01*
X130557034Y-66764547D02*
X130652272Y-66859786D01*
X130652272Y-66859786D02*
X130795129Y-66907405D01*
X130795129Y-66907405D02*
X130890367Y-66907405D01*
X130080843Y-66002643D02*
X130033224Y-65955024D01*
X130033224Y-65955024D02*
X129937986Y-65907405D01*
X129937986Y-65907405D02*
X129699891Y-65907405D01*
X129699891Y-65907405D02*
X129604653Y-65955024D01*
X129604653Y-65955024D02*
X129557034Y-66002643D01*
X129557034Y-66002643D02*
X129509415Y-66097881D01*
X129509415Y-66097881D02*
X129509415Y-66193119D01*
X129509415Y-66193119D02*
X129557034Y-66335976D01*
X129557034Y-66335976D02*
X130128462Y-66907405D01*
X130128462Y-66907405D02*
X129509415Y-66907405D01*
D15*
%TO.C,J1*%
X122305832Y-104146228D02*
G75*
G02*
X121543832Y-104146228I-381000J0D01*
G01*
X121543832Y-104146228D02*
G75*
G02*
X122305832Y-104146228I381000J0D01*
G01*
%TO.C,J6*%
X123568329Y-79377629D02*
G75*
G02*
X122806329Y-79377629I-381000J0D01*
G01*
X122806329Y-79377629D02*
G75*
G02*
X123568329Y-79377629I381000J0D01*
G01*
D16*
%TO.C,J8*%
X178071000Y-87828000D02*
X178071000Y-85068000D01*
X185801000Y-85068000D02*
X178071000Y-85068000D01*
X185801000Y-87828000D02*
X178071000Y-87828000D01*
X185801000Y-87828000D02*
X185801000Y-85068000D01*
X187071000Y-87828000D02*
X188451000Y-87828000D01*
X188451000Y-87828000D02*
X188451000Y-86448000D01*
%TO.C,J9*%
X178071000Y-72588000D02*
X178071000Y-69828000D01*
X185801000Y-69828000D02*
X178071000Y-69828000D01*
X185801000Y-72588000D02*
X178071000Y-72588000D01*
X185801000Y-72588000D02*
X185801000Y-69828000D01*
X187071000Y-72588000D02*
X188451000Y-72588000D01*
X188451000Y-72588000D02*
X188451000Y-71208000D01*
%TO.C,J7*%
X172991000Y-76288000D02*
X172991000Y-84018000D01*
X175751000Y-73638000D02*
X174371000Y-73638000D01*
X175751000Y-75018000D02*
X175751000Y-73638000D01*
X175751000Y-76288000D02*
X172991000Y-76288000D01*
X175751000Y-76288000D02*
X175751000Y-84018000D01*
X175751000Y-84018000D02*
X172991000Y-84018000D01*
%TO.C,J2*%
X122596600Y-59960200D02*
X122596600Y-62560200D01*
X122596600Y-59960200D02*
X173516600Y-59960200D01*
X122596600Y-62560200D02*
X125196600Y-62560200D01*
X122596600Y-63830200D02*
X122596600Y-65160200D01*
X122596600Y-65160200D02*
X123926600Y-65160200D01*
X125196600Y-62560200D02*
X125196600Y-65160200D01*
X125196600Y-65160200D02*
X173516600Y-65160200D01*
X173516600Y-59960200D02*
X173516600Y-65160200D01*
%TD*%
%LPC*%
D17*
%TO.C,R3*%
X149453600Y-53898800D03*
D18*
X164693600Y-53898800D03*
%TD*%
D19*
%TO.C,REF\u002A\u002A*%
X176885600Y-62560200D03*
%TD*%
%TO.C,*%
X120389808Y-124285359D03*
%TD*%
D20*
%TO.C,J1*%
X120015000Y-104140000D03*
X120015000Y-106680000D03*
%TD*%
D21*
%TO.C,J10*%
X193708000Y-64564000D03*
D22*
X191008000Y-63564000D03*
X191008000Y-58564000D03*
D21*
X193708000Y-57564000D03*
%TD*%
D23*
%TO.C,R1*%
X135636000Y-105185000D03*
D24*
X135636000Y-102645000D03*
%TD*%
D23*
%TO.C,R2*%
X141253000Y-108204000D03*
D24*
X138713000Y-108204000D03*
%TD*%
D25*
%TO.C,J5*%
X157734000Y-88392000D03*
X155194000Y-88392000D03*
X152654000Y-88392000D03*
D26*
X160274000Y-88392000D03*
D25*
X147574000Y-88392000D03*
X150114000Y-88392000D03*
%TD*%
D20*
%TO.C,J6*%
X121285000Y-79375000D03*
X121285000Y-81915000D03*
X121285000Y-84455000D03*
%TD*%
D27*
%TO.C,J4*%
X126730000Y-53890000D03*
D28*
X124730000Y-53890000D03*
%TD*%
D19*
%TO.C,*%
X190666930Y-124286700D03*
%TD*%
D29*
%TO.C,X1*%
X117802000Y-90210000D03*
X117802000Y-100210000D03*
X120302000Y-90210000D03*
X120302000Y-100210000D03*
X125302000Y-95210000D03*
X130302000Y-90210000D03*
X130302000Y-100210000D03*
D30*
X120302000Y-95210000D03*
D31*
X125302000Y-100210000D03*
X125302000Y-90210000D03*
D32*
X130302000Y-92710000D03*
X130302000Y-95210000D03*
X130302000Y-97710000D03*
%TD*%
D27*
%TO.C,J3*%
X171688000Y-54398000D03*
D28*
X169688000Y-54398000D03*
%TD*%
D25*
%TO.C,J8*%
X184531000Y-86448000D03*
X181991000Y-86448000D03*
X179451000Y-86448000D03*
D26*
X187071000Y-86448000D03*
%TD*%
D25*
%TO.C,J9*%
X184531000Y-71208000D03*
X181991000Y-71208000D03*
X179451000Y-71208000D03*
D26*
X187071000Y-71208000D03*
%TD*%
D19*
%TO.C,*%
X118887040Y-62558600D03*
%TD*%
D25*
%TO.C,J7*%
X174371000Y-77558000D03*
X174371000Y-80098000D03*
X174371000Y-82638000D03*
D26*
X174371000Y-75018000D03*
%TD*%
%TO.C,J2*%
X123926600Y-63830200D03*
D25*
X123926600Y-61290200D03*
X126466600Y-63830200D03*
X126466600Y-61290200D03*
X129006600Y-63830200D03*
X129006600Y-61290200D03*
X131546600Y-63830200D03*
X131546600Y-61290200D03*
X134086600Y-63830200D03*
X134086600Y-61290200D03*
X136626600Y-63830200D03*
X136626600Y-61290200D03*
X139166600Y-63830200D03*
X139166600Y-61290200D03*
X141706600Y-63830200D03*
X141706600Y-61290200D03*
X144246600Y-63830200D03*
X144246600Y-61290200D03*
X146786600Y-63830200D03*
X146786600Y-61290200D03*
X149326600Y-63830200D03*
X149326600Y-61290200D03*
X151866600Y-63830200D03*
X151866600Y-61290200D03*
X154406600Y-63830200D03*
X154406600Y-61290200D03*
X156946600Y-63830200D03*
X156946600Y-61290200D03*
X159486600Y-63830200D03*
X159486600Y-61290200D03*
X162026600Y-63830200D03*
X162026600Y-61290200D03*
X164566600Y-63830200D03*
X164566600Y-61290200D03*
X167106600Y-63830200D03*
X167106600Y-61290200D03*
X169646600Y-63830200D03*
X169646600Y-61290200D03*
X172186600Y-63830200D03*
X172186600Y-61290200D03*
%TD*%
%LPD*%
M02*
