%TF.GenerationSoftware,KiCad,Pcbnew,9.0.1*%
%TF.CreationDate,2025-11-07T15:46:44-06:00*%
%TF.ProjectId,cubesat Sim board,63756265-7361-4742-9053-696d20626f61,rev?*%
%TF.SameCoordinates,Original*%
%TF.FileFunction,Copper,L1,Top*%
%TF.FilePolarity,Positive*%
%FSLAX46Y46*%
G04 Gerber Fmt 4.6, Leading zero omitted, Abs format (unit mm)*
G04 Created by KiCad (PCBNEW 9.0.1) date 2025-11-07 15:46:44*
%MOMM*%
%LPD*%
G01*
G04 APERTURE LIST*
G04 Aperture macros list*
%AMRoundRect*
0 Rectangle with rounded corners*
0 $1 Rounding radius*
0 $2 $3 $4 $5 $6 $7 $8 $9 X,Y pos of 4 corners*
0 Add a 4 corners polygon primitive as box body*
4,1,4,$2,$3,$4,$5,$6,$7,$8,$9,$2,$3,0*
0 Add four circle primitives for the rounded corners*
1,1,$1+$1,$2,$3*
1,1,$1+$1,$4,$5*
1,1,$1+$1,$6,$7*
1,1,$1+$1,$8,$9*
0 Add four rect primitives between the rounded corners*
20,1,$1+$1,$2,$3,$4,$5,0*
20,1,$1+$1,$4,$5,$6,$7,0*
20,1,$1+$1,$6,$7,$8,$9,0*
20,1,$1+$1,$8,$9,$2,$3,0*%
G04 Aperture macros list end*
%ADD10C,0.300000*%
%TA.AperFunction,NonConductor*%
%ADD11C,0.300000*%
%TD*%
%TA.AperFunction,ComponentPad*%
%ADD12C,2.800000*%
%TD*%
%TA.AperFunction,ComponentPad*%
%ADD13O,2.800000X2.800000*%
%TD*%
%TA.AperFunction,ComponentPad*%
%ADD14C,5.400000*%
%TD*%
%TA.AperFunction,SMDPad,CuDef*%
%ADD15RoundRect,0.225000X0.225000X0.250000X-0.225000X0.250000X-0.225000X-0.250000X0.225000X-0.250000X0*%
%TD*%
%TA.AperFunction,ComponentPad*%
%ADD16C,1.803400*%
%TD*%
%TA.AperFunction,SMDPad,CuDef*%
%ADD17RoundRect,0.100000X0.575000X-0.100000X0.575000X0.100000X-0.575000X0.100000X-0.575000X-0.100000X0*%
%TD*%
%TA.AperFunction,HeatsinkPad*%
%ADD18O,1.550000X0.890000*%
%TD*%
%TA.AperFunction,SMDPad,CuDef*%
%ADD19RoundRect,0.250000X0.525000X-0.475000X0.525000X0.475000X-0.525000X0.475000X-0.525000X-0.475000X0*%
%TD*%
%TA.AperFunction,HeatsinkPad*%
%ADD20O,0.950000X1.250000*%
%TD*%
%TA.AperFunction,SMDPad,CuDef*%
%ADD21RoundRect,0.250000X0.525000X-0.500000X0.525000X0.500000X-0.525000X0.500000X-0.525000X-0.500000X0*%
%TD*%
%TA.AperFunction,SMDPad,CuDef*%
%ADD22RoundRect,0.225000X-0.250000X0.225000X-0.250000X-0.225000X0.250000X-0.225000X0.250000X0.225000X0*%
%TD*%
%TA.AperFunction,ComponentPad*%
%ADD23C,1.600000*%
%TD*%
%TA.AperFunction,ComponentPad*%
%ADD24O,1.600000X1.600000*%
%TD*%
%TA.AperFunction,SMDPad,CuDef*%
%ADD25RoundRect,0.225000X-0.225000X-0.250000X0.225000X-0.250000X0.225000X0.250000X-0.225000X0.250000X0*%
%TD*%
%TA.AperFunction,SMDPad,CuDef*%
%ADD26R,4.000000X7.000000*%
%TD*%
%TA.AperFunction,SMDPad,CuDef*%
%ADD27RoundRect,0.200000X-0.275000X0.200000X-0.275000X-0.200000X0.275000X-0.200000X0.275000X0.200000X0*%
%TD*%
%TA.AperFunction,ComponentPad*%
%ADD28C,1.700000*%
%TD*%
%TA.AperFunction,ComponentPad*%
%ADD29R,1.700000X1.700000*%
%TD*%
%TA.AperFunction,SMDPad,CuDef*%
%ADD30RoundRect,0.050000X-0.285000X-0.100000X0.285000X-0.100000X0.285000X0.100000X-0.285000X0.100000X0*%
%TD*%
%TA.AperFunction,SMDPad,CuDef*%
%ADD31RoundRect,0.218750X0.256250X-0.218750X0.256250X0.218750X-0.256250X0.218750X-0.256250X-0.218750X0*%
%TD*%
%TA.AperFunction,ComponentPad*%
%ADD32RoundRect,0.250000X0.350000X0.625000X-0.350000X0.625000X-0.350000X-0.625000X0.350000X-0.625000X0*%
%TD*%
%TA.AperFunction,ComponentPad*%
%ADD33O,1.200000X1.750000*%
%TD*%
%TA.AperFunction,ComponentPad*%
%ADD34O,1.308000X2.616000*%
%TD*%
%TA.AperFunction,ComponentPad*%
%ADD35O,2.616000X1.308000*%
%TD*%
%TA.AperFunction,ComponentPad*%
%ADD36C,1.508000*%
%TD*%
%TA.AperFunction,SMDPad,CuDef*%
%ADD37R,1.750000X0.450000*%
%TD*%
%TA.AperFunction,SMDPad,CuDef*%
%ADD38RoundRect,0.225000X0.250000X-0.225000X0.250000X0.225000X-0.250000X0.225000X-0.250000X-0.225000X0*%
%TD*%
%TA.AperFunction,SMDPad,CuDef*%
%ADD39RoundRect,0.250000X-0.475000X0.250000X-0.475000X-0.250000X0.475000X-0.250000X0.475000X0.250000X0*%
%TD*%
%TA.AperFunction,SMDPad,CuDef*%
%ADD40RoundRect,0.250000X0.650000X-0.325000X0.650000X0.325000X-0.650000X0.325000X-0.650000X-0.325000X0*%
%TD*%
%TA.AperFunction,SMDPad,CuDef*%
%ADD41RoundRect,0.150000X-0.825000X-0.150000X0.825000X-0.150000X0.825000X0.150000X-0.825000X0.150000X0*%
%TD*%
%TA.AperFunction,SMDPad,CuDef*%
%ADD42RoundRect,0.200000X0.275000X-0.200000X0.275000X0.200000X-0.275000X0.200000X-0.275000X-0.200000X0*%
%TD*%
%TA.AperFunction,ViaPad*%
%ADD43C,0.600000*%
%TD*%
%TA.AperFunction,Conductor*%
%ADD44C,0.254000*%
%TD*%
%TA.AperFunction,Conductor*%
%ADD45C,0.200000*%
%TD*%
%TA.AperFunction,Conductor*%
%ADD46C,0.762000*%
%TD*%
G04 APERTURE END LIST*
D10*
D11*
X124506510Y-104131400D02*
X125649368Y-104131400D01*
D10*
D11*
X124506510Y-106925400D02*
X125649368Y-106925400D01*
X125077939Y-107496828D02*
X125077939Y-106353971D01*
D12*
%TO.P,R3,1*%
%TO.N,GND*%
X149453600Y-53898800D03*
D13*
%TO.P,R3,2*%
%TO.N,Net-(J3-Pin_1)*%
X164693600Y-53898800D03*
%TD*%
D14*
%TO.P,REF\u002A\u002A,1*%
%TO.N,GND*%
X176885600Y-62560200D03*
%TD*%
%TO.P,,1*%
%TO.N,GND*%
X120389808Y-124285359D03*
%TD*%
D15*
%TO.P,C12,1*%
%TO.N,GND*%
X160896600Y-78638400D03*
%TO.P,C12,2*%
%TO.N,Net-(U3-3V3OUT)*%
X159346600Y-78638400D03*
%TD*%
D16*
%TO.P,J1,1,Pin_1*%
%TO.N,GND*%
X120015000Y-104140000D03*
%TO.P,J1,2,Pin_2*%
%TO.N,/28V*%
X120015000Y-106680000D03*
%TD*%
D15*
%TO.P,C10,1*%
%TO.N,GND*%
X145809000Y-69342000D03*
%TO.P,C10,2*%
%TO.N,/BATT_SW*%
X144259000Y-69342000D03*
%TD*%
%TO.P,C3,1*%
%TO.N,GND*%
X132614000Y-108585000D03*
%TO.P,C3,2*%
%TO.N,Net-(U1-SS)*%
X131064000Y-108585000D03*
%TD*%
D17*
%TO.P,J10,1,VBUS*%
%TO.N,Net-(J10-VBUS)*%
X191008000Y-62364000D03*
%TO.P,J10,2,D-*%
%TO.N,Net-(J10-D-)*%
X191008000Y-61714000D03*
%TO.P,J10,3,D+*%
%TO.N,Net-(J10-D+)*%
X191008000Y-61064000D03*
%TO.P,J10,4,ID*%
%TO.N,unconnected-(J10-ID-Pad4)*%
X191008000Y-60414000D03*
%TO.P,J10,5,GND*%
%TO.N,GND*%
X191008000Y-59764000D03*
D18*
%TO.P,J10,6,Shield*%
X193708000Y-64564000D03*
D19*
X193708000Y-64089000D03*
D20*
X191008000Y-63564000D03*
D21*
X193708000Y-62064000D03*
X193708000Y-60064000D03*
D20*
X191008000Y-58564000D03*
D19*
X193708000Y-58039000D03*
D18*
X193708000Y-57564000D03*
%TD*%
D22*
%TO.P,C8,1*%
%TO.N,Net-(U2-C2+)*%
X137160000Y-74549000D03*
%TO.P,C8,2*%
%TO.N,Net-(U2-C2-)*%
X137160000Y-76099000D03*
%TD*%
D23*
%TO.P,R1,1*%
%TO.N,Net-(U1-FB)*%
X135636000Y-105185000D03*
D24*
%TO.P,R1,2*%
%TO.N,GND*%
X135636000Y-102645000D03*
%TD*%
D25*
%TO.P,C4,1*%
%TO.N,Net-(U1-BST)*%
X131105000Y-110146000D03*
%TO.P,C4,2*%
%TO.N,/SW*%
X132655000Y-110146000D03*
%TD*%
D26*
%TO.P,L1,1,1*%
%TO.N,/SW*%
X131906000Y-118364000D03*
%TO.P,L1,2,2*%
%TO.N,/4v6*%
X141906000Y-118364000D03*
%TD*%
D27*
%TO.P,R7,1*%
%TO.N,/BATT_SW*%
X159131000Y-68835000D03*
%TO.P,R7,2*%
%TO.N,Net-(D1-A)*%
X159131000Y-70485000D03*
%TD*%
D23*
%TO.P,R2,1*%
%TO.N,/4v6*%
X141253000Y-108204000D03*
D24*
%TO.P,R2,2*%
%TO.N,Net-(U1-FB)*%
X138713000Y-108204000D03*
%TD*%
D22*
%TO.P,C11,1*%
%TO.N,GND*%
X147828000Y-71361000D03*
%TO.P,C11,2*%
%TO.N,/BATT_SW*%
X147828000Y-72911000D03*
%TD*%
D28*
%TO.P,J5,GND,Pin_2*%
%TO.N,GND*%
X157734000Y-88392000D03*
%TO.P,J5,SCL,Pin_3*%
%TO.N,/SCL*%
X155194000Y-88392000D03*
%TO.P,J5,SDA,Pin_4*%
%TO.N,/SDA*%
X152654000Y-88392000D03*
D29*
%TO.P,J5,VCC,Pin_1*%
%TO.N,/BATT_SW*%
X160274000Y-88392000D03*
D28*
%TO.P,J5,Vin+,Pin_6*%
%TO.N,/4v6*%
X147574000Y-88392000D03*
%TO.P,J5,Vin-,Pin_5*%
%TO.N,/BATT_SW*%
X150114000Y-88392000D03*
%TD*%
D16*
%TO.P,J6,HASP_RX,Pin_1*%
%TO.N,Net-(J6-Pin_1)*%
X121285000Y-79375000D03*
%TO.P,J6,HASP_TX,Pin_2*%
%TO.N,Net-(J6-Pin_2)*%
X121285000Y-81915000D03*
%TO.P,J6,SIG_GND,Pin_3*%
%TO.N,GND*%
X121285000Y-84455000D03*
%TD*%
D30*
%TO.P,U1,1,RT*%
%TO.N,unconnected-(U1-RT-Pad1)*%
X128000000Y-109990000D03*
%TO.P,U1,2,EN*%
%TO.N,/EN*%
X128000000Y-110490000D03*
%TO.P,U1,3,VIN*%
%TO.N,/28V*%
X128000000Y-110990000D03*
%TO.P,U1,4,GND*%
%TO.N,GND*%
X128000000Y-111490000D03*
%TO.P,U1,5,SW*%
%TO.N,/SW*%
X129480000Y-111490000D03*
%TO.P,U1,6,BST*%
%TO.N,Net-(U1-BST)*%
X129480000Y-110990000D03*
%TO.P,U1,7,SS*%
%TO.N,Net-(U1-SS)*%
X129480000Y-110490000D03*
%TO.P,U1,8,FB*%
%TO.N,Net-(U1-FB)*%
X129480000Y-109990000D03*
%TD*%
D27*
%TO.P,R4,1*%
%TO.N,Net-(U3-~{RESET})*%
X163894000Y-76391000D03*
%TO.P,R4,2*%
%TO.N,Net-(J8-Pin_1)*%
X163894000Y-78041000D03*
%TD*%
%TO.P,R6,1*%
%TO.N,/BATT_SW*%
X160782000Y-68834000D03*
%TO.P,R6,2*%
%TO.N,Net-(D2-A)*%
X160782000Y-70484000D03*
%TD*%
D22*
%TO.P,C13,1*%
%TO.N,Net-(U2-C1+)*%
X135636000Y-71361000D03*
%TO.P,C13,2*%
%TO.N,Net-(U2-C1-)*%
X135636000Y-72911000D03*
%TD*%
D15*
%TO.P,C9,1*%
%TO.N,Net-(U2-VS-)*%
X137300000Y-77851000D03*
%TO.P,C9,2*%
%TO.N,GND*%
X135750000Y-77851000D03*
%TD*%
D31*
%TO.P,D1,1,K*%
%TO.N,Net-(D1-K)*%
X159131000Y-73431500D03*
%TO.P,D1,2,A*%
%TO.N,Net-(D1-A)*%
X159131000Y-71856500D03*
%TD*%
D32*
%TO.P,J4,1,Pin_1*%
%TO.N,/BATT_SW*%
X126730000Y-53890000D03*
D33*
%TO.P,J4,2,Pin_2*%
%TO.N,GND*%
X124730000Y-53890000D03*
%TD*%
D14*
%TO.P,,1*%
%TO.N,GND*%
X190666930Y-124286700D03*
%TD*%
D34*
%TO.P,X1,1*%
%TO.N,unconnected-(X1-Pad1)*%
X120302000Y-95210000D03*
D35*
%TO.P,X1,2*%
%TO.N,unconnected-(X1-Pad2)*%
X125302000Y-100210000D03*
%TO.P,X1,3*%
%TO.N,unconnected-(X1-Pad3)*%
X125302000Y-90210000D03*
D36*
%TO.P,X1,4*%
%TO.N,unconnected-(X1-Pad4)*%
X130302000Y-92710000D03*
%TO.P,X1,5*%
%TO.N,/EN*%
X130302000Y-95210000D03*
%TO.P,X1,6*%
%TO.N,GND*%
X130302000Y-97710000D03*
%TD*%
D37*
%TO.P,U3,1,TXD*%
%TO.N,Net-(U2-T1IN)*%
X149816000Y-70959000D03*
%TO.P,U3,2,DTR*%
%TO.N,unconnected-(U3-DTR-Pad2)*%
X149816000Y-71609000D03*
%TO.P,U3,3,RTS*%
%TO.N,unconnected-(U3-RTS-Pad3)*%
X149816000Y-72259000D03*
%TO.P,U3,4,VCCIO*%
%TO.N,/BATT_SW*%
X149816000Y-72909000D03*
%TO.P,U3,5,RXD*%
%TO.N,Net-(U2-R1OUT)*%
X149816000Y-73559000D03*
%TO.P,U3,6,RI*%
%TO.N,unconnected-(U3-RI-Pad6)*%
X149816000Y-74209000D03*
%TO.P,U3,7,GND*%
%TO.N,GND*%
X149816000Y-74859000D03*
%TO.P,U3,8*%
%TO.N,N/C*%
X149816000Y-75509000D03*
%TO.P,U3,9,DCR*%
%TO.N,unconnected-(U3-DCR-Pad9)*%
X149816000Y-76159000D03*
%TO.P,U3,10,DCD*%
%TO.N,unconnected-(U3-DCD-Pad10)*%
X149816000Y-76809000D03*
%TO.P,U3,11,CTS*%
%TO.N,unconnected-(U3-CTS-Pad11)*%
X149816000Y-77459000D03*
%TO.P,U3,12,CBUS4*%
%TO.N,unconnected-(U3-CBUS4-Pad12)*%
X149816000Y-78109000D03*
%TO.P,U3,13,CBUS2*%
%TO.N,unconnected-(U3-CBUS2-Pad13)*%
X149816000Y-78759000D03*
%TO.P,U3,14,CBUS3*%
%TO.N,unconnected-(U3-CBUS3-Pad14)*%
X149816000Y-79409000D03*
%TO.P,U3,15,USBD+*%
%TO.N,Net-(J8-Pin_2)*%
X157016000Y-79409000D03*
%TO.P,U3,16,USBD-*%
%TO.N,Net-(J8-Pin_3)*%
X157016000Y-78759000D03*
%TO.P,U3,17,3V3OUT*%
%TO.N,Net-(U3-3V3OUT)*%
X157016000Y-78109000D03*
%TO.P,U3,18,GND*%
%TO.N,GND*%
X157016000Y-77459000D03*
%TO.P,U3,19,~{RESET}*%
%TO.N,Net-(U3-~{RESET})*%
X157016000Y-76809000D03*
%TO.P,U3,20,VCC*%
%TO.N,/BATT_SW*%
X157016000Y-76159000D03*
%TO.P,U3,21,GND*%
%TO.N,GND*%
X157016000Y-75509000D03*
%TO.P,U3,22,CBUS1*%
%TO.N,Net-(D2-K)*%
X157016000Y-74859000D03*
%TO.P,U3,23,CBUS0*%
%TO.N,Net-(D1-K)*%
X157016000Y-74209000D03*
%TO.P,U3,24*%
%TO.N,N/C*%
X157016000Y-73559000D03*
%TO.P,U3,25,AGND*%
%TO.N,GND*%
X157016000Y-72909000D03*
%TO.P,U3,26,TEST*%
X157016000Y-72259000D03*
%TO.P,U3,27,OSCI*%
%TO.N,unconnected-(U3-OSCI-Pad27)*%
X157016000Y-71609000D03*
%TO.P,U3,28,OSCO*%
%TO.N,unconnected-(U3-OSCO-Pad28)*%
X157016000Y-70959000D03*
%TD*%
D38*
%TO.P,C14,1*%
%TO.N,GND*%
X159004000Y-77140400D03*
%TO.P,C14,2*%
%TO.N,/BATT_SW*%
X159004000Y-75590400D03*
%TD*%
D39*
%TO.P,C1,1*%
%TO.N,/28V*%
X123698000Y-110962000D03*
%TO.P,C1,2*%
%TO.N,GND*%
X123698000Y-112862000D03*
%TD*%
D22*
%TO.P,C2,1*%
%TO.N,/28V*%
X126492000Y-111338000D03*
%TO.P,C2,2*%
%TO.N,GND*%
X126492000Y-112888000D03*
%TD*%
D40*
%TO.P,C5,1*%
%TO.N,GND*%
X145000000Y-126443000D03*
%TO.P,C5,2*%
%TO.N,/4v6*%
X145000000Y-123493000D03*
%TD*%
D22*
%TO.P,C7,1*%
%TO.N,GND*%
X137160000Y-70345000D03*
%TO.P,C7,2*%
%TO.N,Net-(U2-VS+)*%
X137160000Y-71895000D03*
%TD*%
D41*
%TO.P,U2,1,C1+*%
%TO.N,Net-(U2-C1+)*%
X139322000Y-70866000D03*
%TO.P,U2,2,VS+*%
%TO.N,Net-(U2-VS+)*%
X139322000Y-72136000D03*
%TO.P,U2,3,C1-*%
%TO.N,Net-(U2-C1-)*%
X139322000Y-73406000D03*
%TO.P,U2,4,C2+*%
%TO.N,Net-(U2-C2+)*%
X139322000Y-74676000D03*
%TO.P,U2,5,C2-*%
%TO.N,Net-(U2-C2-)*%
X139322000Y-75946000D03*
%TO.P,U2,6,VS-*%
%TO.N,Net-(U2-VS-)*%
X139322000Y-77216000D03*
%TO.P,U2,7,T2OUT*%
%TO.N,unconnected-(U2-T2OUT-Pad7)*%
X139322000Y-78486000D03*
%TO.P,U2,8,R2IN*%
%TO.N,unconnected-(U2-R2IN-Pad8)*%
X139322000Y-79756000D03*
%TO.P,U2,9,R2OUT*%
%TO.N,unconnected-(U2-R2OUT-Pad9)*%
X144272000Y-79756000D03*
%TO.P,U2,10,T2IN*%
%TO.N,unconnected-(U2-T2IN-Pad10)*%
X144272000Y-78486000D03*
%TO.P,U2,11,T1IN*%
%TO.N,Net-(U2-T1IN)*%
X144272000Y-77216000D03*
%TO.P,U2,12,R1OUT*%
%TO.N,Net-(U2-R1OUT)*%
X144272000Y-75946000D03*
%TO.P,U2,13,R1IN*%
%TO.N,Net-(J6-Pin_2)*%
X144272000Y-74676000D03*
%TO.P,U2,14,T1OUT*%
%TO.N,Net-(J6-Pin_1)*%
X144272000Y-73406000D03*
%TO.P,U2,15,GND*%
%TO.N,GND*%
X144272000Y-72136000D03*
%TO.P,U2,16,VCC*%
%TO.N,/BATT_SW*%
X144272000Y-70866000D03*
%TD*%
D32*
%TO.P,J3,1,Pin_1*%
%TO.N,Net-(J3-Pin_1)*%
X171688000Y-54398000D03*
D33*
%TO.P,J3,2,Pin_2*%
%TO.N,GND*%
X169688000Y-54398000D03*
%TD*%
D42*
%TO.P,R5,1*%
%TO.N,GND*%
X162382200Y-78676000D03*
%TO.P,R5,2*%
%TO.N,Net-(U3-~{RESET})*%
X162382200Y-77026000D03*
%TD*%
D31*
%TO.P,D2,1,K*%
%TO.N,Net-(D2-K)*%
X160782000Y-73431500D03*
%TO.P,D2,2,A*%
%TO.N,Net-(D2-A)*%
X160782000Y-71856500D03*
%TD*%
D28*
%TO.P,J8,D+,Pin_2*%
%TO.N,Net-(J8-Pin_2)*%
X184531000Y-86448000D03*
%TO.P,J8,D-,Pin_3*%
%TO.N,Net-(J8-Pin_3)*%
X181991000Y-86448000D03*
%TO.P,J8,GND,Pin_4*%
%TO.N,GND*%
X179451000Y-86448000D03*
D29*
%TO.P,J8,VBUS,Pin_1*%
%TO.N,Net-(J8-Pin_1)*%
X187071000Y-86448000D03*
%TD*%
D28*
%TO.P,J9,D+,Pin_2*%
%TO.N,Net-(J10-D+)*%
X184531000Y-71208000D03*
%TO.P,J9,D-,Pin_3*%
%TO.N,Net-(J10-D-)*%
X181991000Y-71208000D03*
%TO.P,J9,GND,Pin_4*%
%TO.N,GND*%
X179451000Y-71208000D03*
D29*
%TO.P,J9,VBUS,Pin_1*%
%TO.N,Net-(J10-VBUS)*%
X187071000Y-71208000D03*
%TD*%
D14*
%TO.P,,1*%
%TO.N,GND*%
X118887040Y-62558600D03*
%TD*%
D28*
%TO.P,J7,D+,Pin_2*%
%TO.N,unconnected-(J7-Pin_2-PadD+)*%
X174371000Y-77558000D03*
%TO.P,J7,D-,Pin_3*%
%TO.N,unconnected-(J7-Pin_3-PadD-)*%
X174371000Y-80098000D03*
%TO.P,J7,GND,Pin_4*%
%TO.N,GND*%
X174371000Y-82638000D03*
D29*
%TO.P,J7,VBUS,Pin_1*%
%TO.N,unconnected-(J7-Pin_1-PadVBUS)*%
X174371000Y-75018000D03*
%TD*%
%TO.P,J2,1,Pin_1*%
%TO.N,/PI_3V3*%
X123926600Y-63830200D03*
D28*
%TO.P,J2,2,Pin_2*%
%TO.N,/BATT_SW*%
X123926600Y-61290200D03*
%TO.P,J2,3,Pin_3*%
%TO.N,/SDA*%
X126466600Y-63830200D03*
%TO.P,J2,4,Pin_4*%
%TO.N,/BATT_SW*%
X126466600Y-61290200D03*
%TO.P,J2,5,Pin_5*%
%TO.N,/SCL*%
X129006600Y-63830200D03*
%TO.P,J2,6,Pin_6*%
%TO.N,GND*%
X129006600Y-61290200D03*
%TO.P,J2,7,Pin_7*%
%TO.N,unconnected-(J2-Pin_7-Pad7)*%
X131546600Y-63830200D03*
%TO.P,J2,8,Pin_8*%
%TO.N,unconnected-(J2-Pin_8-Pad8)*%
X131546600Y-61290200D03*
%TO.P,J2,9,Pin_9*%
%TO.N,unconnected-(J2-Pin_9-Pad9)*%
X134086600Y-63830200D03*
%TO.P,J2,10,Pin_10*%
%TO.N,unconnected-(J2-Pin_10-Pad10)*%
X134086600Y-61290200D03*
%TO.P,J2,11,Pin_11*%
%TO.N,unconnected-(J2-Pin_11-Pad11)*%
X136626600Y-63830200D03*
%TO.P,J2,12,Pin_12*%
%TO.N,unconnected-(J2-Pin_12-Pad12)*%
X136626600Y-61290200D03*
%TO.P,J2,13,Pin_13*%
%TO.N,unconnected-(J2-Pin_13-Pad13)*%
X139166600Y-63830200D03*
%TO.P,J2,14,Pin_14*%
%TO.N,unconnected-(J2-Pin_14-Pad14)*%
X139166600Y-61290200D03*
%TO.P,J2,15,Pin_15*%
%TO.N,unconnected-(J2-Pin_15-Pad15)*%
X141706600Y-63830200D03*
%TO.P,J2,16,Pin_16*%
%TO.N,unconnected-(J2-Pin_16-Pad16)*%
X141706600Y-61290200D03*
%TO.P,J2,17,Pin_17*%
%TO.N,unconnected-(J2-Pin_17-Pad17)*%
X144246600Y-63830200D03*
%TO.P,J2,18,Pin_18*%
%TO.N,unconnected-(J2-Pin_18-Pad18)*%
X144246600Y-61290200D03*
%TO.P,J2,19,Pin_19*%
%TO.N,unconnected-(J2-Pin_19-Pad19)*%
X146786600Y-63830200D03*
%TO.P,J2,20,Pin_20*%
%TO.N,unconnected-(J2-Pin_20-Pad20)*%
X146786600Y-61290200D03*
%TO.P,J2,21,Pin_21*%
%TO.N,unconnected-(J2-Pin_21-Pad21)*%
X149326600Y-63830200D03*
%TO.P,J2,22,Pin_22*%
%TO.N,unconnected-(J2-Pin_22-Pad22)*%
X149326600Y-61290200D03*
%TO.P,J2,23,Pin_23*%
%TO.N,unconnected-(J2-Pin_23-Pad23)*%
X151866600Y-63830200D03*
%TO.P,J2,24,Pin_24*%
%TO.N,unconnected-(J2-Pin_24-Pad24)*%
X151866600Y-61290200D03*
%TO.P,J2,25,Pin_25*%
%TO.N,unconnected-(J2-Pin_25-Pad25)*%
X154406600Y-63830200D03*
%TO.P,J2,26,Pin_26*%
%TO.N,unconnected-(J2-Pin_26-Pad26)*%
X154406600Y-61290200D03*
%TO.P,J2,27,Pin_27*%
%TO.N,unconnected-(J2-Pin_27-Pad27)*%
X156946600Y-63830200D03*
%TO.P,J2,28,Pin_28*%
%TO.N,unconnected-(J2-Pin_28-Pad28)*%
X156946600Y-61290200D03*
%TO.P,J2,29,Pin_29*%
%TO.N,unconnected-(J2-Pin_29-Pad29)*%
X159486600Y-63830200D03*
%TO.P,J2,30,Pin_30*%
%TO.N,unconnected-(J2-Pin_30-Pad30)*%
X159486600Y-61290200D03*
%TO.P,J2,31,Pin_31*%
%TO.N,unconnected-(J2-Pin_31-Pad31)*%
X162026600Y-63830200D03*
%TO.P,J2,32,Pin_32*%
%TO.N,unconnected-(J2-Pin_32-Pad32)*%
X162026600Y-61290200D03*
%TO.P,J2,33,Pin_33*%
%TO.N,unconnected-(J2-Pin_33-Pad33)*%
X164566600Y-63830200D03*
%TO.P,J2,34,Pin_34*%
%TO.N,unconnected-(J2-Pin_34-Pad34)*%
X164566600Y-61290200D03*
%TO.P,J2,35,Pin_35*%
%TO.N,unconnected-(J2-Pin_35-Pad35)*%
X167106600Y-63830200D03*
%TO.P,J2,36,Pin_36*%
%TO.N,unconnected-(J2-Pin_36-Pad36)*%
X167106600Y-61290200D03*
%TO.P,J2,37,Pin_37*%
%TO.N,unconnected-(J2-Pin_37-Pad37)*%
X169646600Y-63830200D03*
%TO.P,J2,38,Pin_38*%
%TO.N,unconnected-(J2-Pin_38-Pad38)*%
X169646600Y-61290200D03*
%TO.P,J2,39,Pin_39*%
%TO.N,GND*%
X172186600Y-63830200D03*
%TO.P,J2,40,Pin_40*%
%TO.N,unconnected-(J2-Pin_40-Pad40)*%
X172186600Y-61290200D03*
%TD*%
D43*
%TO.N,GND*%
X158242000Y-69723000D03*
X133604000Y-108004001D03*
X147066000Y-69977000D03*
X161417000Y-77978000D03*
X148082000Y-75438000D03*
X124968000Y-112888000D03*
X125476000Y-112354000D03*
X134874000Y-77851000D03*
X137160000Y-69088000D03*
X143764000Y-126365000D03*
X128270000Y-112608000D03*
%TO.N,Net-(J6-Pin_2)*%
X128524000Y-78105000D03*
X130472265Y-76918735D03*
%TO.N,Net-(J6-Pin_1)*%
X127127000Y-76962000D03*
X129413000Y-75311000D03*
%TO.N,Net-(J10-D-)*%
X185039000Y-67398000D03*
X183677000Y-67400278D03*
%TD*%
D44*
%TO.N,/28V*%
X128000000Y-110990000D02*
X126840000Y-110990000D01*
D45*
X126840000Y-110990000D02*
X126492000Y-111338000D01*
%TO.N,GND*%
X146431000Y-69342000D02*
X147066000Y-69977000D01*
X161290300Y-78244700D02*
X161683700Y-78244700D01*
X158969200Y-77638100D02*
X159055100Y-77724000D01*
X193675000Y-62064000D02*
X193675000Y-64089000D01*
X193675000Y-60064000D02*
X193675000Y-62064000D01*
X161264900Y-78130100D02*
X161417000Y-77978000D01*
X159004000Y-77140400D02*
X158969200Y-77175200D01*
X193675000Y-57564000D02*
X193675000Y-58039000D01*
X158192000Y-77583000D02*
X158192000Y-77652000D01*
X158248000Y-77708000D02*
X159039100Y-77708000D01*
X132614000Y-108585000D02*
X133023001Y-108585000D01*
X162382200Y-78676000D02*
X162115000Y-78676000D01*
X144272000Y-72136000D02*
X144907000Y-72136000D01*
X159039100Y-77708000D02*
X159055100Y-77724000D01*
X124968000Y-112888000D02*
X125476000Y-112888000D01*
X148661000Y-74859000D02*
X148082000Y-75438000D01*
X125476000Y-112888000D02*
X125476000Y-112354000D01*
X160896600Y-78638400D02*
X161417000Y-78118000D01*
X158969200Y-77175200D02*
X158969200Y-77638100D01*
X161683700Y-78244700D02*
X161417000Y-77978000D01*
X158242000Y-72333000D02*
X158242000Y-71882000D01*
X133023001Y-108585000D02*
X133604000Y-108004001D01*
X193375000Y-59764000D02*
X190975000Y-59764000D01*
X158123000Y-77583000D02*
X158192000Y-77583000D01*
X160896600Y-78320600D02*
X160896600Y-78638400D01*
X145809000Y-69342000D02*
X146431000Y-69342000D01*
X193675000Y-64089000D02*
X193675000Y-64564000D01*
X155840000Y-77227000D02*
X156072000Y-77459000D01*
X162115000Y-78676000D02*
X161683700Y-78244700D01*
X125476000Y-112888000D02*
X126492000Y-112888000D01*
X190975000Y-59764000D02*
X190975000Y-58564000D01*
X158068000Y-72259000D02*
X158242000Y-72085000D01*
X149816000Y-74859000D02*
X148661000Y-74859000D01*
X128000000Y-112338000D02*
X128270000Y-112608000D01*
X124968000Y-112888000D02*
X124806000Y-113050000D01*
X160300000Y-77724000D02*
X160629900Y-78053900D01*
X157666000Y-72909000D02*
X158242000Y-72333000D01*
X137160000Y-70345000D02*
X137160000Y-69088000D01*
X193675000Y-60064000D02*
X193375000Y-59764000D01*
X155840000Y-75633000D02*
X155840000Y-77227000D01*
X157016000Y-72909000D02*
X157666000Y-72909000D01*
X160629900Y-78053900D02*
X160896600Y-78320600D01*
X157016000Y-77459000D02*
X157999000Y-77459000D01*
X160706100Y-78130100D02*
X161264900Y-78130100D01*
X147828000Y-71361000D02*
X147828000Y-70739000D01*
X156072000Y-77459000D02*
X157016000Y-77459000D01*
X157999000Y-77459000D02*
X158123000Y-77583000D01*
X161417000Y-78118000D02*
X161417000Y-77978000D01*
X157016000Y-72259000D02*
X158068000Y-72259000D01*
X145796000Y-126443000D02*
X143842000Y-126443000D01*
X160896600Y-78638400D02*
X161290300Y-78244700D01*
X155964000Y-75509000D02*
X155840000Y-75633000D01*
X144907000Y-72136000D02*
X147066000Y-69977000D01*
X158192000Y-77652000D02*
X158248000Y-77708000D01*
X157016000Y-75509000D02*
X155964000Y-75509000D01*
X123724000Y-112888000D02*
X123698000Y-112862000D01*
X147828000Y-70739000D02*
X147066000Y-69977000D01*
X158242000Y-71882000D02*
X158242000Y-69723000D01*
X159055100Y-77724000D02*
X160300000Y-77724000D01*
X160629900Y-78053900D02*
X160706100Y-78130100D01*
X124968000Y-112888000D02*
X123724000Y-112888000D01*
X134874000Y-77851000D02*
X135877000Y-77851000D01*
X128000000Y-111490000D02*
X128000000Y-112338000D01*
X193675000Y-60064000D02*
X193675000Y-58039000D01*
X143842000Y-126443000D02*
X143764000Y-126365000D01*
X158242000Y-72085000D02*
X158242000Y-71882000D01*
%TO.N,Net-(U1-SS)*%
X130302000Y-109347000D02*
X131064000Y-108585000D01*
X129862774Y-110490000D02*
X130302000Y-110050774D01*
X129480000Y-110490000D02*
X129862774Y-110490000D01*
X131064000Y-108585000D02*
X131064000Y-108458000D01*
X130302000Y-110050774D02*
X130302000Y-109347000D01*
%TO.N,Net-(U1-BST)*%
X129480000Y-110990000D02*
X130261000Y-110990000D01*
X130261000Y-110990000D02*
X131105000Y-110146000D01*
%TO.N,/4v6*%
X141253000Y-117711000D02*
X141906000Y-118364000D01*
X141253000Y-108204000D02*
X141253000Y-117711000D01*
%TO.N,/BATT_SW*%
X159004000Y-75590400D02*
X158529000Y-75590400D01*
X149691000Y-72784000D02*
X149816000Y-72909000D01*
X157960400Y-76159000D02*
X157016000Y-76159000D01*
D44*
X158529000Y-75590400D02*
X157960400Y-76159000D01*
D45*
X144272000Y-69355000D02*
X144259000Y-69342000D01*
%TO.N,/SCL*%
X153642000Y-86840000D02*
X139543587Y-86840000D01*
X155194000Y-88392000D02*
X153642000Y-86840000D01*
X139543587Y-86840000D02*
X127863600Y-75160013D01*
X127863600Y-75160013D02*
X127863600Y-64973200D01*
X127863600Y-64973200D02*
X129006600Y-63830200D01*
%TO.N,/SDA*%
X126466600Y-63830200D02*
X126466600Y-75197657D01*
X151503000Y-87241000D02*
X152654000Y-88392000D01*
X126466600Y-75197657D02*
X138509943Y-87241000D01*
X138509943Y-87241000D02*
X151503000Y-87241000D01*
D46*
%TO.N,Net-(J3-Pin_1)*%
X171688000Y-54398000D02*
X170282200Y-55803800D01*
X170282200Y-55803800D02*
X166598600Y-55803800D01*
X166598600Y-55803800D02*
X164693600Y-53898800D01*
D45*
%TO.N,/EN*%
X127364000Y-98148000D02*
X130302000Y-95210000D01*
X127617226Y-110490000D02*
X127364000Y-110236774D01*
X127364000Y-110236774D02*
X127364000Y-98148000D01*
X128000000Y-110490000D02*
X127617226Y-110490000D01*
%TO.N,Net-(U1-FB)*%
X131019889Y-107404001D02*
X135636000Y-107404001D01*
X129480000Y-108943890D02*
X131019889Y-107404001D01*
X129480000Y-109990000D02*
X129480000Y-108943890D01*
X135636000Y-107404001D02*
X137913001Y-107404001D01*
X135636000Y-107404001D02*
X135636000Y-105185000D01*
X137913001Y-107404001D02*
X138713000Y-108204000D01*
%TO.N,Net-(U3-3V3OUT)*%
X159346600Y-78638400D02*
X159346600Y-78582600D01*
X158873000Y-78109000D02*
X157016000Y-78109000D01*
X159346600Y-78582600D02*
X158873000Y-78109000D01*
%TO.N,Net-(U2-VS+)*%
X137401000Y-72136000D02*
X137160000Y-71895000D01*
X139322000Y-72136000D02*
X137401000Y-72136000D01*
%TO.N,Net-(U2-C2-)*%
X137160000Y-76099000D02*
X139169000Y-76099000D01*
X139169000Y-76099000D02*
X139322000Y-75946000D01*
%TO.N,Net-(D2-K)*%
X160782000Y-73431500D02*
X159461300Y-74752200D01*
X159461300Y-74752200D02*
X157122800Y-74752200D01*
X157122800Y-74752200D02*
X157016000Y-74859000D01*
%TO.N,Net-(D1-K)*%
X157016000Y-74209000D02*
X158353500Y-74209000D01*
X158353500Y-74209000D02*
X159131000Y-73431500D01*
%TO.N,Net-(U2-R1OUT)*%
X146377000Y-75946000D02*
X144272000Y-75946000D01*
X149816000Y-73559000D02*
X148764000Y-73559000D01*
X148764000Y-73559000D02*
X146377000Y-75946000D01*
%TO.N,Net-(U3-~{RESET})*%
X157016000Y-76809000D02*
X158110290Y-76809000D01*
X161735000Y-77026000D02*
X162382200Y-77026000D01*
X158110290Y-76809000D02*
X158541490Y-76377800D01*
X158541490Y-76377800D02*
X161086800Y-76377800D01*
X161086800Y-76377800D02*
X161735000Y-77026000D01*
X157016000Y-76809000D02*
X157140000Y-76933000D01*
X163894000Y-76391000D02*
X163017200Y-76391000D01*
X163017200Y-76391000D02*
X162382200Y-77026000D01*
X157016000Y-76809000D02*
X157140000Y-76685000D01*
%TO.N,Net-(U2-T1IN)*%
X148302110Y-72160000D02*
X148640000Y-71822110D01*
X147353890Y-72160000D02*
X148302110Y-72160000D01*
X148640000Y-71060000D02*
X148741000Y-70959000D01*
X147052000Y-73580968D02*
X147052000Y-72461890D01*
X148640000Y-71822110D02*
X148640000Y-71060000D01*
X143925032Y-77216000D02*
X142996000Y-76286968D01*
X142996000Y-76286968D02*
X142996000Y-75605032D01*
X143256032Y-75345000D02*
X145287968Y-75345000D01*
X144272000Y-77216000D02*
X143925032Y-77216000D01*
X145287968Y-75345000D02*
X147052000Y-73580968D01*
X147052000Y-72461890D02*
X147353890Y-72160000D01*
X148741000Y-70959000D02*
X149816000Y-70959000D01*
X142996000Y-75605032D02*
X143256032Y-75345000D01*
%TO.N,Net-(U2-C2+)*%
X137160000Y-74549000D02*
X139195000Y-74549000D01*
X139195000Y-74549000D02*
X139322000Y-74676000D01*
%TO.N,Net-(U2-VS-)*%
X137935000Y-77343000D02*
X139195000Y-77343000D01*
X139195000Y-77343000D02*
X139322000Y-77216000D01*
X137427000Y-77851000D02*
X137935000Y-77343000D01*
%TO.N,Net-(U2-C1-)*%
X136144000Y-73419000D02*
X139309000Y-73419000D01*
X135636000Y-72911000D02*
X136144000Y-73419000D01*
X139309000Y-73419000D02*
X139322000Y-73406000D01*
%TO.N,Net-(U2-C1+)*%
X139092000Y-71096000D02*
X135901000Y-71096000D01*
X139322000Y-70866000D02*
X139092000Y-71096000D01*
X135901000Y-71096000D02*
X135636000Y-71361000D01*
%TO.N,Net-(D1-A)*%
X159131000Y-70485000D02*
X159131000Y-71856500D01*
%TO.N,Net-(D2-A)*%
X160782000Y-71856500D02*
X160782000Y-70484000D01*
%TO.N,Net-(J6-Pin_2)*%
X125095000Y-78105000D02*
X121285000Y-81915000D01*
X128524000Y-78105000D02*
X125095000Y-78105000D01*
X143297001Y-74676000D02*
X141358001Y-76615000D01*
X137869110Y-76615000D02*
X137565375Y-76918735D01*
X141358001Y-76615000D02*
X137869110Y-76615000D01*
X137565375Y-76918735D02*
X130472265Y-76918735D01*
X144272000Y-74676000D02*
X143297001Y-74676000D01*
%TO.N,Net-(J6-Pin_1)*%
X144272000Y-73406000D02*
X142276968Y-73406000D01*
X142276968Y-73406000D02*
X140371968Y-75311000D01*
X140371968Y-75311000D02*
X129413000Y-75311000D01*
X127127000Y-76962000D02*
X123698000Y-76962000D01*
X123698000Y-76962000D02*
X121285000Y-79375000D01*
%TO.N,Net-(J10-VBUS)*%
X186817000Y-66474570D02*
X190927570Y-62364000D01*
X187071000Y-71208000D02*
X186817000Y-70954000D01*
X190927570Y-62364000D02*
X190975000Y-62364000D01*
X186817000Y-70954000D02*
X186817000Y-66474570D01*
%TO.N,Net-(J10-D-)*%
X181991000Y-69176000D02*
X181991000Y-71208000D01*
X185547000Y-66890000D02*
X185547000Y-66547130D01*
X183677000Y-67400278D02*
X183677000Y-67490000D01*
X190380130Y-61714000D02*
X190975000Y-61714000D01*
X183677000Y-67490000D02*
X181991000Y-69176000D01*
X185039000Y-67398000D02*
X185547000Y-66890000D01*
X185547000Y-66547130D02*
X190380130Y-61714000D01*
%TO.N,Net-(J10-D+)*%
X184277000Y-67087001D02*
X190300001Y-61064000D01*
X184277000Y-70954000D02*
X184277000Y-67087001D01*
X184531000Y-71208000D02*
X184277000Y-70954000D01*
X190300001Y-61064000D02*
X190975000Y-61064000D01*
%TO.N,Net-(J8-Pin_1)*%
X167340000Y-81487000D02*
X182110000Y-81487000D01*
X163894000Y-78041000D02*
X167340000Y-81487000D01*
X182110000Y-81487000D02*
X187071000Y-86448000D01*
%TO.N,Net-(J8-Pin_3)*%
X180840000Y-85297000D02*
X181991000Y-86448000D01*
X158007000Y-78759000D02*
X164545000Y-85297000D01*
X164545000Y-85297000D02*
X180840000Y-85297000D01*
X157016000Y-78759000D02*
X158007000Y-78759000D01*
%TO.N,Net-(J8-Pin_2)*%
X165206000Y-87599000D02*
X157016000Y-79409000D01*
X184531000Y-86448000D02*
X183380000Y-87599000D01*
X183380000Y-87599000D02*
X165206000Y-87599000D01*
%TO.N,/SW*%
X131311000Y-111490000D02*
X132655000Y-110146000D01*
X129480000Y-111490000D02*
X131311000Y-111490000D01*
%TD*%
%TA.AperFunction,Conductor*%
%TO.N,/SW*%
G36*
X134944039Y-111144685D02*
G01*
X134989794Y-111197489D01*
X135001000Y-111249000D01*
X135001000Y-122558000D01*
X134981315Y-122625039D01*
X134928511Y-122670794D01*
X134877000Y-122682000D01*
X128902000Y-122682000D01*
X128834961Y-122662315D01*
X128789206Y-122609511D01*
X128778000Y-122558000D01*
X128778000Y-121876510D01*
X129778999Y-121876510D01*
X129786368Y-121913552D01*
X129814438Y-121955561D01*
X129856447Y-121983631D01*
X129893489Y-121991000D01*
X131656000Y-121991000D01*
X132156000Y-121991000D01*
X133918510Y-121991000D01*
X133955552Y-121983631D01*
X133997561Y-121955561D01*
X134025631Y-121913552D01*
X134033000Y-121876510D01*
X134033000Y-118614000D01*
X132156000Y-118614000D01*
X132156000Y-121991000D01*
X131656000Y-121991000D01*
X131656000Y-118614000D01*
X129779000Y-118614000D01*
X129779000Y-121876510D01*
X129778999Y-121876510D01*
X128778000Y-121876510D01*
X128778000Y-114851489D01*
X129779000Y-114851489D01*
X129779000Y-118114000D01*
X131656000Y-118114000D01*
X132156000Y-118114000D01*
X134033000Y-118114000D01*
X134033000Y-114851489D01*
X134025631Y-114814447D01*
X133997561Y-114772438D01*
X133955552Y-114744368D01*
X133918510Y-114737000D01*
X132156000Y-114737000D01*
X132156000Y-118114000D01*
X131656000Y-118114000D01*
X131656000Y-114737000D01*
X129893490Y-114737000D01*
X129856447Y-114744368D01*
X129814438Y-114772438D01*
X129786368Y-114814447D01*
X129779000Y-114851489D01*
X128778000Y-114851489D01*
X128778000Y-111766998D01*
X129415131Y-111766998D01*
X129415132Y-111766999D01*
X129544867Y-111766999D01*
X129544867Y-111766998D01*
X129479999Y-111702130D01*
X129415131Y-111766998D01*
X128778000Y-111766998D01*
X128778000Y-111659865D01*
X128797685Y-111592826D01*
X128850489Y-111547071D01*
X128919647Y-111537127D01*
X128983203Y-111566152D01*
X129020977Y-111624930D01*
X129023618Y-111635678D01*
X129028268Y-111659060D01*
X129028269Y-111659063D01*
X129056521Y-111701345D01*
X129286252Y-111471614D01*
X129294197Y-111467275D01*
X129299623Y-111460028D01*
X129324382Y-111450793D01*
X129347575Y-111438129D01*
X129356604Y-111438774D01*
X129365087Y-111435611D01*
X129390907Y-111441227D01*
X129417266Y-111443113D01*
X129426319Y-111448931D01*
X129433360Y-111450463D01*
X129461614Y-111471614D01*
X129479999Y-111489999D01*
X129498384Y-111471615D01*
X129559707Y-111438130D01*
X129629399Y-111443114D01*
X129673746Y-111471615D01*
X129903476Y-111701345D01*
X129903477Y-111701344D01*
X129931730Y-111659063D01*
X129941999Y-111607433D01*
X129941999Y-111414501D01*
X129961683Y-111347461D01*
X130014487Y-111301706D01*
X130065999Y-111290500D01*
X130300560Y-111290500D01*
X130300562Y-111290500D01*
X130376989Y-111270021D01*
X130445511Y-111230460D01*
X130501460Y-111174511D01*
X130514652Y-111161319D01*
X130575975Y-111127834D01*
X130602333Y-111125000D01*
X134877000Y-111125000D01*
X134944039Y-111144685D01*
G37*
%TD.AperFunction*%
%TD*%
%TA.AperFunction,Conductor*%
%TO.N,/28V*%
G36*
X126698353Y-102395870D02*
G01*
X126744202Y-102448592D01*
X126755500Y-102500305D01*
X126755500Y-110323138D01*
X126742000Y-110369113D01*
X126742000Y-111214000D01*
X126722315Y-111281039D01*
X126669511Y-111326794D01*
X126618000Y-111338000D01*
X126492000Y-111338000D01*
X126492000Y-111464000D01*
X126472315Y-111531039D01*
X126419511Y-111576794D01*
X126368000Y-111588000D01*
X125764090Y-111588000D01*
X125716639Y-111578561D01*
X125711831Y-111576570D01*
X125711827Y-111576569D01*
X125711823Y-111576568D01*
X125555634Y-111545500D01*
X125555630Y-111545500D01*
X125396370Y-111545500D01*
X125396365Y-111545500D01*
X125240176Y-111576568D01*
X125240168Y-111576570D01*
X125093031Y-111637517D01*
X125045194Y-111669480D01*
X124978517Y-111690357D01*
X124911137Y-111671872D01*
X124864447Y-111619892D01*
X124853272Y-111550922D01*
X124858599Y-111527373D01*
X124912505Y-111364697D01*
X124912506Y-111364690D01*
X124922999Y-111261986D01*
X124923000Y-111261973D01*
X124923000Y-111212000D01*
X122473001Y-111212000D01*
X122473001Y-111261986D01*
X122483494Y-111364697D01*
X122538641Y-111531119D01*
X122538643Y-111531124D01*
X122630684Y-111680345D01*
X122754655Y-111804316D01*
X122760323Y-111808798D01*
X122758592Y-111810986D01*
X122796749Y-111853390D01*
X122807987Y-111922350D01*
X122780158Y-111986438D01*
X122754894Y-112008336D01*
X122755015Y-112008489D01*
X122751627Y-112011167D01*
X122750043Y-112012541D01*
X122749350Y-112012968D01*
X122749347Y-112012970D01*
X122623971Y-112138346D01*
X122530886Y-112289259D01*
X122530884Y-112289264D01*
X122475113Y-112457572D01*
X122464500Y-112561447D01*
X122464500Y-113162537D01*
X122464501Y-113162553D01*
X122474695Y-113262336D01*
X122475113Y-113266426D01*
X122530885Y-113434738D01*
X122623970Y-113585652D01*
X122749348Y-113711030D01*
X122900262Y-113804115D01*
X123068574Y-113859887D01*
X123172455Y-113870500D01*
X124223544Y-113870499D01*
X124327426Y-113859887D01*
X124495738Y-113804115D01*
X124646652Y-113711030D01*
X124652004Y-113705678D01*
X124713325Y-113672190D01*
X124763880Y-113671738D01*
X124888365Y-113696499D01*
X124888369Y-113696500D01*
X124888370Y-113696500D01*
X125047631Y-113696500D01*
X125047632Y-113696499D01*
X125203831Y-113665430D01*
X125350968Y-113604483D01*
X125479420Y-113518654D01*
X125546093Y-113497778D01*
X125613473Y-113516262D01*
X125653845Y-113556660D01*
X125662714Y-113571039D01*
X125783959Y-113692284D01*
X125783963Y-113692287D01*
X125929890Y-113782297D01*
X125929893Y-113782298D01*
X125929899Y-113782302D01*
X126092664Y-113836236D01*
X126193128Y-113846500D01*
X126193133Y-113846500D01*
X126790867Y-113846500D01*
X126790872Y-113846500D01*
X126863397Y-113839090D01*
X126932089Y-113851859D01*
X126982974Y-113899739D01*
X127000000Y-113962448D01*
X127000000Y-119213313D01*
X126980315Y-119280352D01*
X126927511Y-119326107D01*
X126877081Y-119337308D01*
X116018329Y-119431977D01*
X115951120Y-119412878D01*
X115904907Y-119360475D01*
X115893248Y-119307840D01*
X115902898Y-111064677D01*
X125517000Y-111064677D01*
X125517000Y-111088000D01*
X126242000Y-111088000D01*
X126242000Y-110388000D01*
X126241999Y-110387999D01*
X126193693Y-110388000D01*
X126193675Y-110388001D01*
X126094392Y-110398144D01*
X125933518Y-110451452D01*
X125933507Y-110451457D01*
X125789271Y-110540424D01*
X125789267Y-110540427D01*
X125669427Y-110660267D01*
X125669424Y-110660271D01*
X125580457Y-110804507D01*
X125580452Y-110804518D01*
X125527144Y-110965393D01*
X125517000Y-111064677D01*
X115902898Y-111064677D01*
X115903369Y-110662013D01*
X122473000Y-110662013D01*
X122473000Y-110712000D01*
X123448000Y-110712000D01*
X123948000Y-110712000D01*
X124922999Y-110712000D01*
X124922999Y-110662028D01*
X124922998Y-110662013D01*
X124912505Y-110559302D01*
X124857358Y-110392880D01*
X124857356Y-110392875D01*
X124765315Y-110243654D01*
X124641345Y-110119684D01*
X124492124Y-110027643D01*
X124492119Y-110027641D01*
X124325697Y-109972494D01*
X124325690Y-109972493D01*
X124222986Y-109962000D01*
X123948000Y-109962000D01*
X123948000Y-110712000D01*
X123448000Y-110712000D01*
X123448000Y-109962000D01*
X123173029Y-109962000D01*
X123173012Y-109962001D01*
X123070302Y-109972494D01*
X122903880Y-110027641D01*
X122903875Y-110027643D01*
X122754654Y-110119684D01*
X122630684Y-110243654D01*
X122538643Y-110392875D01*
X122538641Y-110392880D01*
X122483494Y-110559302D01*
X122483493Y-110559309D01*
X122473000Y-110662013D01*
X115903369Y-110662013D01*
X115906298Y-108160328D01*
X123843010Y-108160328D01*
X126312868Y-108160328D01*
X126312868Y-105690471D01*
X123843010Y-105690471D01*
X123843010Y-108160328D01*
X115906298Y-108160328D01*
X115911134Y-104029009D01*
X118604800Y-104029009D01*
X118604800Y-104250990D01*
X118639522Y-104470223D01*
X118708117Y-104681333D01*
X118765983Y-104794900D01*
X118808888Y-104879106D01*
X118939359Y-105058684D01*
X119096316Y-105215641D01*
X119232983Y-105314935D01*
X119275648Y-105370265D01*
X119281627Y-105439878D01*
X119249021Y-105501673D01*
X119232981Y-105515572D01*
X119216268Y-105527714D01*
X119216268Y-105527715D01*
X119769271Y-106080718D01*
X119708199Y-106106016D01*
X119602115Y-106176899D01*
X119511899Y-106267115D01*
X119441016Y-106373199D01*
X119415718Y-106434271D01*
X118862715Y-105881268D01*
X118862714Y-105881268D01*
X118816162Y-105945342D01*
X118715992Y-106141936D01*
X118647815Y-106351763D01*
X118647815Y-106351766D01*
X118613300Y-106569684D01*
X118613300Y-106790315D01*
X118647815Y-107008233D01*
X118647815Y-107008236D01*
X118715992Y-107218063D01*
X118816157Y-107414647D01*
X118862715Y-107478730D01*
X119415718Y-106925727D01*
X119441016Y-106986801D01*
X119511899Y-107092885D01*
X119602115Y-107183101D01*
X119708199Y-107253984D01*
X119769271Y-107279280D01*
X119216268Y-107832282D01*
X119216268Y-107832283D01*
X119280352Y-107878842D01*
X119476936Y-107979007D01*
X119686764Y-108047184D01*
X119904685Y-108081700D01*
X120125315Y-108081700D01*
X120343233Y-108047184D01*
X120343236Y-108047184D01*
X120553063Y-107979007D01*
X120749651Y-107878840D01*
X120813730Y-107832283D01*
X120813731Y-107832283D01*
X120260728Y-107279281D01*
X120321801Y-107253984D01*
X120427885Y-107183101D01*
X120518101Y-107092885D01*
X120588984Y-106986801D01*
X120614280Y-106925728D01*
X121167283Y-107478731D01*
X121167283Y-107478730D01*
X121213840Y-107414651D01*
X121314007Y-107218063D01*
X121382184Y-107008236D01*
X121382184Y-107008233D01*
X121416700Y-106790315D01*
X121416700Y-106569684D01*
X121382184Y-106351766D01*
X121382184Y-106351763D01*
X121314007Y-106141936D01*
X121213842Y-105945352D01*
X121167283Y-105881268D01*
X121167282Y-105881268D01*
X120614280Y-106434270D01*
X120588984Y-106373199D01*
X120518101Y-106267115D01*
X120427885Y-106176899D01*
X120321801Y-106106016D01*
X120260726Y-106080718D01*
X120751897Y-105589548D01*
X120745977Y-105419569D01*
X120749632Y-105405300D01*
X120748372Y-105390628D01*
X120758127Y-105372139D01*
X120763316Y-105351885D01*
X120774105Y-105341857D01*
X120780978Y-105328833D01*
X120797017Y-105314935D01*
X120933684Y-105215641D01*
X121090641Y-105058684D01*
X121221112Y-104879106D01*
X121264017Y-104794900D01*
X123843010Y-104794900D01*
X126312868Y-104794900D01*
X126312868Y-103467900D01*
X123843010Y-103467900D01*
X123843010Y-104794900D01*
X121264017Y-104794900D01*
X121321884Y-104681329D01*
X121390477Y-104470223D01*
X121425200Y-104250990D01*
X121425200Y-104029009D01*
X121390477Y-103809776D01*
X121321881Y-103598663D01*
X121257768Y-103472834D01*
X121257767Y-103472833D01*
X121221111Y-103400893D01*
X121090641Y-103221316D01*
X120933684Y-103064359D01*
X120754106Y-102933888D01*
X120556333Y-102833117D01*
X120345223Y-102764522D01*
X120125990Y-102729800D01*
X120125985Y-102729800D01*
X119904015Y-102729800D01*
X119904010Y-102729800D01*
X119684776Y-102764522D01*
X119473666Y-102833117D01*
X119275893Y-102933888D01*
X119096313Y-103064361D01*
X118939361Y-103221313D01*
X118808888Y-103400893D01*
X118708117Y-103598666D01*
X118639522Y-103809776D01*
X118604800Y-104029009D01*
X115911134Y-104029009D01*
X115912901Y-102519128D01*
X115932663Y-102452115D01*
X115985521Y-102406422D01*
X116036671Y-102395278D01*
X126631282Y-102376306D01*
X126698353Y-102395870D01*
G37*
%TD.AperFunction*%
%TD*%
%TA.AperFunction,Conductor*%
%TO.N,/BATT_SW*%
G36*
X190951039Y-50184685D02*
G01*
X190996794Y-50237489D01*
X191008000Y-50289000D01*
X191008000Y-57623502D01*
X190988315Y-57690541D01*
X190935511Y-57736296D01*
X190908192Y-57745119D01*
X190810969Y-57764458D01*
X190810959Y-57764461D01*
X190688038Y-57815376D01*
X190688020Y-57815386D01*
X190577398Y-57889301D01*
X190577390Y-57889307D01*
X190483307Y-57983390D01*
X190483301Y-57983398D01*
X190409386Y-58094020D01*
X190409376Y-58094038D01*
X190358461Y-58216959D01*
X190358458Y-58216969D01*
X190332500Y-58347466D01*
X190332500Y-58347469D01*
X190332500Y-58780531D01*
X190332500Y-58780533D01*
X190332499Y-58780533D01*
X190358458Y-58911030D01*
X190358461Y-58911040D01*
X190409376Y-59033961D01*
X190409386Y-59033979D01*
X190483301Y-59144601D01*
X190483307Y-59144609D01*
X190490517Y-59151819D01*
X190524002Y-59213142D01*
X190519018Y-59282834D01*
X190477146Y-59338767D01*
X190411682Y-59363184D01*
X190402843Y-59363500D01*
X190388147Y-59363500D01*
X190388117Y-59363502D01*
X190363012Y-59366413D01*
X190363008Y-59366415D01*
X190260235Y-59411793D01*
X190180794Y-59491234D01*
X190135415Y-59594006D01*
X190135415Y-59594008D01*
X190132500Y-59619131D01*
X190132500Y-59908856D01*
X190132502Y-59908882D01*
X190135413Y-59933986D01*
X190135414Y-59933990D01*
X190135415Y-59933991D01*
X190180794Y-60036765D01*
X190180795Y-60036766D01*
X190181743Y-60038913D01*
X190190814Y-60108191D01*
X190181743Y-60139085D01*
X190135415Y-60244009D01*
X190132500Y-60269131D01*
X190132500Y-60558856D01*
X190132502Y-60558882D01*
X190135413Y-60583986D01*
X190170694Y-60663890D01*
X190179765Y-60733169D01*
X190149941Y-60796354D01*
X190119266Y-60821359D01*
X190115496Y-60823535D01*
X190115487Y-60823542D01*
X184036536Y-66902493D01*
X184034966Y-66904540D01*
X184033202Y-66905827D01*
X184030793Y-66908237D01*
X184030417Y-66907861D01*
X183978535Y-66945738D01*
X183908789Y-66949887D01*
X183874598Y-66936432D01*
X183870193Y-66933888D01*
X183870188Y-66933887D01*
X183870187Y-66933886D01*
X183870186Y-66933886D01*
X183742892Y-66899778D01*
X183611108Y-66899778D01*
X183483812Y-66933886D01*
X183369686Y-66999778D01*
X183369683Y-66999780D01*
X183276502Y-67092961D01*
X183276500Y-67092964D01*
X183210608Y-67207090D01*
X183176500Y-67334386D01*
X183176500Y-67466172D01*
X183178968Y-67475383D01*
X183177303Y-67545232D01*
X183146873Y-67595154D01*
X181806489Y-68935540D01*
X181750541Y-68991487D01*
X181750535Y-68991495D01*
X181710982Y-69060004D01*
X181710979Y-69060009D01*
X181704283Y-69085000D01*
X181694653Y-69120941D01*
X181690500Y-69136439D01*
X181690500Y-70112563D01*
X181670815Y-70179602D01*
X181618011Y-70225357D01*
X181613953Y-70227124D01*
X181493404Y-70277057D01*
X181321342Y-70392024D01*
X181175024Y-70538342D01*
X181060058Y-70710403D01*
X180980870Y-70901579D01*
X180980868Y-70901587D01*
X180940500Y-71104530D01*
X180940500Y-71311469D01*
X180980868Y-71514412D01*
X180980870Y-71514420D01*
X181056415Y-71696802D01*
X181060059Y-71705598D01*
X181114616Y-71787249D01*
X181175024Y-71877657D01*
X181321342Y-72023975D01*
X181321345Y-72023977D01*
X181493402Y-72138941D01*
X181684580Y-72218130D01*
X181829052Y-72246867D01*
X181887530Y-72258499D01*
X181887534Y-72258500D01*
X181887535Y-72258500D01*
X182094466Y-72258500D01*
X182094467Y-72258499D01*
X182297420Y-72218130D01*
X182488598Y-72138941D01*
X182660655Y-72023977D01*
X182806977Y-71877655D01*
X182921941Y-71705598D01*
X183001130Y-71514420D01*
X183041500Y-71311465D01*
X183041500Y-71104535D01*
X183001130Y-70901580D01*
X182921941Y-70710402D01*
X182806977Y-70538345D01*
X182806975Y-70538342D01*
X182660657Y-70392024D01*
X182488595Y-70277057D01*
X182368047Y-70227124D01*
X182313643Y-70183282D01*
X182291579Y-70116988D01*
X182291500Y-70112563D01*
X182291500Y-69351833D01*
X182311185Y-69284794D01*
X182327819Y-69264152D01*
X183654874Y-67937097D01*
X183715065Y-67903864D01*
X183728639Y-67900778D01*
X183742892Y-67900778D01*
X183822713Y-67879390D01*
X183825010Y-67878868D01*
X183857600Y-67880892D01*
X183890256Y-67881670D01*
X183892291Y-67883047D01*
X183894745Y-67883200D01*
X183921072Y-67902526D01*
X183948118Y-67920832D01*
X183949085Y-67923091D01*
X183951068Y-67924547D01*
X183962767Y-67955040D01*
X183975623Y-67985060D01*
X183975868Y-67989188D01*
X183976096Y-67989780D01*
X183975946Y-67990497D01*
X183976500Y-67999782D01*
X183976500Y-70248799D01*
X183956815Y-70315838D01*
X183921391Y-70351901D01*
X183861345Y-70392022D01*
X183861341Y-70392025D01*
X183715024Y-70538342D01*
X183600058Y-70710403D01*
X183520870Y-70901579D01*
X183520868Y-70901587D01*
X183480500Y-71104530D01*
X183480500Y-71311469D01*
X183520868Y-71514412D01*
X183520870Y-71514420D01*
X183596415Y-71696802D01*
X183600059Y-71705598D01*
X183654616Y-71787249D01*
X183715024Y-71877657D01*
X183861342Y-72023975D01*
X183861345Y-72023977D01*
X184033402Y-72138941D01*
X184224580Y-72218130D01*
X184369052Y-72246867D01*
X184427530Y-72258499D01*
X184427534Y-72258500D01*
X184427535Y-72258500D01*
X184634466Y-72258500D01*
X184634467Y-72258499D01*
X184837420Y-72218130D01*
X185028598Y-72138941D01*
X185200655Y-72023977D01*
X185346977Y-71877655D01*
X185461941Y-71705598D01*
X185541130Y-71514420D01*
X185581500Y-71311465D01*
X185581500Y-71104535D01*
X185541130Y-70901580D01*
X185461941Y-70710402D01*
X185346977Y-70538345D01*
X185346975Y-70538342D01*
X185200657Y-70392024D01*
X185032655Y-70279770D01*
X185028598Y-70277059D01*
X185028593Y-70277057D01*
X184837420Y-70197870D01*
X184837414Y-70197868D01*
X184677308Y-70166021D01*
X184615398Y-70133636D01*
X184580823Y-70072920D01*
X184577500Y-70044404D01*
X184577500Y-67924255D01*
X184597185Y-67857216D01*
X184649989Y-67811461D01*
X184719147Y-67801517D01*
X184763499Y-67816867D01*
X184845814Y-67864392D01*
X184973108Y-67898500D01*
X184973110Y-67898500D01*
X185104890Y-67898500D01*
X185104892Y-67898500D01*
X185232186Y-67864392D01*
X185346314Y-67798500D01*
X185439500Y-67705314D01*
X185505392Y-67591186D01*
X185539500Y-67463892D01*
X185539500Y-67373832D01*
X185559185Y-67306793D01*
X185575819Y-67286151D01*
X185654880Y-67207090D01*
X185787460Y-67074511D01*
X185814849Y-67027071D01*
X185827021Y-67005989D01*
X185847500Y-66929562D01*
X185847500Y-66722962D01*
X185867185Y-66655923D01*
X185883814Y-66635286D01*
X186385227Y-66133872D01*
X186446549Y-66100389D01*
X186516241Y-66105373D01*
X186572174Y-66147245D01*
X186596591Y-66212709D01*
X186581739Y-66280982D01*
X186580295Y-66283554D01*
X186536979Y-66358580D01*
X186516500Y-66435009D01*
X186516500Y-70033500D01*
X186496815Y-70100539D01*
X186444011Y-70146294D01*
X186392500Y-70157500D01*
X186201247Y-70157500D01*
X186142770Y-70169131D01*
X186142769Y-70169132D01*
X186076447Y-70213447D01*
X186032132Y-70279769D01*
X186032131Y-70279770D01*
X186020500Y-70338247D01*
X186020500Y-72077752D01*
X186032131Y-72136229D01*
X186032132Y-72136230D01*
X186076447Y-72202552D01*
X186142769Y-72246867D01*
X186142770Y-72246868D01*
X186201247Y-72258499D01*
X186201250Y-72258500D01*
X186201252Y-72258500D01*
X187940750Y-72258500D01*
X187940751Y-72258499D01*
X187955568Y-72255552D01*
X187999229Y-72246868D01*
X187999229Y-72246867D01*
X187999231Y-72246867D01*
X188065552Y-72202552D01*
X188109867Y-72136231D01*
X188109867Y-72136229D01*
X188109868Y-72136229D01*
X188121499Y-72077752D01*
X188121500Y-72077750D01*
X188121500Y-70338249D01*
X188121499Y-70338247D01*
X188109868Y-70279770D01*
X188109867Y-70279769D01*
X188065552Y-70213447D01*
X187999230Y-70169132D01*
X187999229Y-70169131D01*
X187940752Y-70157500D01*
X187940748Y-70157500D01*
X187241500Y-70157500D01*
X187174461Y-70137815D01*
X187128706Y-70085011D01*
X187117500Y-70033500D01*
X187117500Y-66650403D01*
X187137185Y-66583364D01*
X187153819Y-66562722D01*
X190120819Y-63595722D01*
X190182142Y-63562237D01*
X190251834Y-63567221D01*
X190307767Y-63609093D01*
X190332184Y-63674557D01*
X190332500Y-63683403D01*
X190332500Y-63780531D01*
X190332500Y-63780533D01*
X190332499Y-63780533D01*
X190358458Y-63911030D01*
X190358461Y-63911040D01*
X190409376Y-64033961D01*
X190409386Y-64033979D01*
X190483301Y-64144601D01*
X190483307Y-64144609D01*
X190577390Y-64238692D01*
X190577398Y-64238698D01*
X190688020Y-64312613D01*
X190688023Y-64312614D01*
X190688031Y-64312620D01*
X190688037Y-64312622D01*
X190688038Y-64312623D01*
X190724669Y-64327796D01*
X190810964Y-64363540D01*
X190908192Y-64382880D01*
X190970102Y-64415265D01*
X191004676Y-64475980D01*
X191008000Y-64504497D01*
X191008000Y-90300000D01*
X190988315Y-90367039D01*
X190935511Y-90412794D01*
X190884000Y-90424000D01*
X149476000Y-90424000D01*
X149408961Y-90404315D01*
X149363206Y-90351511D01*
X149352000Y-90300000D01*
X149352000Y-89289863D01*
X149371685Y-89222824D01*
X149424489Y-89177069D01*
X149493647Y-89167125D01*
X149544891Y-89186761D01*
X149651211Y-89257802D01*
X149651223Y-89257809D01*
X149829015Y-89331452D01*
X149829025Y-89331455D01*
X150017771Y-89369000D01*
X150210228Y-89369000D01*
X150398974Y-89331455D01*
X150398984Y-89331452D01*
X150576778Y-89257808D01*
X150576789Y-89257802D01*
X150606436Y-89237991D01*
X150606437Y-89237990D01*
X150243409Y-88874962D01*
X150306993Y-88857925D01*
X150421007Y-88792099D01*
X150514099Y-88699007D01*
X150579925Y-88584993D01*
X150596962Y-88521409D01*
X150959990Y-88884437D01*
X150979806Y-88854782D01*
X150979808Y-88854778D01*
X151053452Y-88676984D01*
X151053455Y-88676974D01*
X151091000Y-88488228D01*
X151091000Y-88295771D01*
X151053455Y-88107025D01*
X151053452Y-88107015D01*
X150979808Y-87929221D01*
X150979807Y-87929219D01*
X150959990Y-87899562D01*
X150596962Y-88262590D01*
X150579925Y-88199007D01*
X150514099Y-88084993D01*
X150421007Y-87991901D01*
X150306993Y-87926075D01*
X150243407Y-87909036D01*
X150574626Y-87577819D01*
X150635949Y-87544334D01*
X150662307Y-87541500D01*
X151327167Y-87541500D01*
X151394206Y-87561185D01*
X151414848Y-87577819D01*
X151666924Y-87829895D01*
X151700409Y-87891218D01*
X151695425Y-87960910D01*
X151693804Y-87965029D01*
X151643870Y-88085579D01*
X151643868Y-88085587D01*
X151603500Y-88288530D01*
X151603500Y-88495469D01*
X151643868Y-88698412D01*
X151643870Y-88698420D01*
X151723058Y-88889596D01*
X151838024Y-89061657D01*
X151984342Y-89207975D01*
X151984345Y-89207977D01*
X152156402Y-89322941D01*
X152347580Y-89402130D01*
X152550530Y-89442499D01*
X152550534Y-89442500D01*
X152550535Y-89442500D01*
X152757466Y-89442500D01*
X152757467Y-89442499D01*
X152960420Y-89402130D01*
X153151598Y-89322941D01*
X153323655Y-89207977D01*
X153469977Y-89061655D01*
X153584941Y-88889598D01*
X153664130Y-88698420D01*
X153704500Y-88495465D01*
X153704500Y-88288535D01*
X153664130Y-88085580D01*
X153584941Y-87894402D01*
X153469977Y-87722345D01*
X153469975Y-87722342D01*
X153323657Y-87576024D01*
X153190224Y-87486868D01*
X153151598Y-87461059D01*
X153144529Y-87458131D01*
X152954792Y-87379539D01*
X152955722Y-87377292D01*
X152906239Y-87344867D01*
X152877779Y-87281056D01*
X152888337Y-87211989D01*
X152934559Y-87159593D01*
X153000669Y-87140500D01*
X153466167Y-87140500D01*
X153533206Y-87160185D01*
X153553848Y-87176819D01*
X154206924Y-87829895D01*
X154240409Y-87891218D01*
X154235425Y-87960910D01*
X154233804Y-87965029D01*
X154183870Y-88085579D01*
X154183868Y-88085587D01*
X154143500Y-88288530D01*
X154143500Y-88495469D01*
X154183868Y-88698412D01*
X154183870Y-88698420D01*
X154263058Y-88889596D01*
X154378024Y-89061657D01*
X154524342Y-89207975D01*
X154524345Y-89207977D01*
X154696402Y-89322941D01*
X154887580Y-89402130D01*
X155090530Y-89442499D01*
X155090534Y-89442500D01*
X155090535Y-89442500D01*
X155297466Y-89442500D01*
X155297467Y-89442499D01*
X155500420Y-89402130D01*
X155691598Y-89322941D01*
X155863655Y-89207977D01*
X156009977Y-89061655D01*
X156124941Y-88889598D01*
X156204130Y-88698420D01*
X156244500Y-88495465D01*
X156244500Y-88288535D01*
X156244499Y-88288530D01*
X156683500Y-88288530D01*
X156683500Y-88495469D01*
X156723868Y-88698412D01*
X156723870Y-88698420D01*
X156803058Y-88889596D01*
X156918024Y-89061657D01*
X157064342Y-89207975D01*
X157064345Y-89207977D01*
X157236402Y-89322941D01*
X157427580Y-89402130D01*
X157630530Y-89442499D01*
X157630534Y-89442500D01*
X157630535Y-89442500D01*
X157837466Y-89442500D01*
X157837467Y-89442499D01*
X158040420Y-89402130D01*
X158231598Y-89322941D01*
X158334013Y-89254510D01*
X159296999Y-89254510D01*
X159304368Y-89291552D01*
X159332438Y-89333561D01*
X159374447Y-89361631D01*
X159411489Y-89369000D01*
X160024000Y-89369000D01*
X160024000Y-88825012D01*
X160081007Y-88857925D01*
X160208174Y-88892000D01*
X160339826Y-88892000D01*
X160466993Y-88857925D01*
X160524000Y-88825012D01*
X160524000Y-89369000D01*
X161136510Y-89369000D01*
X161173552Y-89361631D01*
X161215561Y-89333561D01*
X161243631Y-89291552D01*
X161251000Y-89254510D01*
X161251000Y-88642000D01*
X160707012Y-88642000D01*
X160739925Y-88584993D01*
X160774000Y-88457826D01*
X160774000Y-88326174D01*
X160739925Y-88199007D01*
X160707012Y-88142000D01*
X161251000Y-88142000D01*
X161251000Y-87529489D01*
X161243631Y-87492447D01*
X161215561Y-87450438D01*
X161173552Y-87422368D01*
X161136510Y-87415000D01*
X160524000Y-87415000D01*
X160524000Y-87958988D01*
X160466993Y-87926075D01*
X160339826Y-87892000D01*
X160208174Y-87892000D01*
X160081007Y-87926075D01*
X160024000Y-87958988D01*
X160024000Y-87415000D01*
X159411490Y-87415000D01*
X159374447Y-87422368D01*
X159332438Y-87450438D01*
X159304368Y-87492447D01*
X159297000Y-87529489D01*
X159297000Y-88142000D01*
X159840988Y-88142000D01*
X159808075Y-88199007D01*
X159774000Y-88326174D01*
X159774000Y-88457826D01*
X159808075Y-88584993D01*
X159840988Y-88642000D01*
X159297000Y-88642000D01*
X159297000Y-89254510D01*
X159296999Y-89254510D01*
X158334013Y-89254510D01*
X158403655Y-89207977D01*
X158549977Y-89061655D01*
X158664941Y-88889598D01*
X158744130Y-88698420D01*
X158784500Y-88495465D01*
X158784500Y-88288535D01*
X158744130Y-88085580D01*
X158664941Y-87894402D01*
X158549977Y-87722345D01*
X158549975Y-87722342D01*
X158403657Y-87576024D01*
X158270224Y-87486868D01*
X158231598Y-87461059D01*
X158224529Y-87458131D01*
X158040420Y-87381870D01*
X158040412Y-87381868D01*
X157837469Y-87341500D01*
X157837465Y-87341500D01*
X157630535Y-87341500D01*
X157630530Y-87341500D01*
X157427587Y-87381868D01*
X157427579Y-87381870D01*
X157236403Y-87461058D01*
X157064342Y-87576024D01*
X156918024Y-87722342D01*
X156803058Y-87894403D01*
X156723870Y-88085579D01*
X156723868Y-88085587D01*
X156683500Y-88288530D01*
X156244499Y-88288530D01*
X156204130Y-88085580D01*
X156124941Y-87894402D01*
X156009977Y-87722345D01*
X156009975Y-87722342D01*
X155863657Y-87576024D01*
X155730224Y-87486868D01*
X155691598Y-87461059D01*
X155684529Y-87458131D01*
X155500420Y-87381870D01*
X155500412Y-87381868D01*
X155297469Y-87341500D01*
X155297465Y-87341500D01*
X155090535Y-87341500D01*
X155090530Y-87341500D01*
X154887587Y-87381868D01*
X154887579Y-87381870D01*
X154767029Y-87431804D01*
X154697559Y-87439273D01*
X154635080Y-87407998D01*
X154631895Y-87404924D01*
X153826512Y-86599541D01*
X153826504Y-86599535D01*
X153757995Y-86559982D01*
X153757990Y-86559979D01*
X153726230Y-86551469D01*
X153681562Y-86539500D01*
X153681560Y-86539500D01*
X149476000Y-86539500D01*
X149408961Y-86519815D01*
X149363206Y-86467011D01*
X149352000Y-86415500D01*
X149352000Y-85852000D01*
X139031920Y-85852000D01*
X138964881Y-85832315D01*
X138944239Y-85815681D01*
X132701297Y-79572739D01*
X138146500Y-79572739D01*
X138146500Y-79939260D01*
X138156426Y-80007391D01*
X138207803Y-80112485D01*
X138290514Y-80195196D01*
X138290515Y-80195196D01*
X138290517Y-80195198D01*
X138395607Y-80246573D01*
X138429673Y-80251536D01*
X138463739Y-80256500D01*
X138463740Y-80256500D01*
X140180261Y-80256500D01*
X140202971Y-80253191D01*
X140248393Y-80246573D01*
X140353483Y-80195198D01*
X140436198Y-80112483D01*
X140487573Y-80007393D01*
X140497500Y-79939260D01*
X140497500Y-79572740D01*
X140497500Y-79572739D01*
X143096500Y-79572739D01*
X143096500Y-79939260D01*
X143106426Y-80007391D01*
X143157803Y-80112485D01*
X143240514Y-80195196D01*
X143240515Y-80195196D01*
X143240517Y-80195198D01*
X143345607Y-80246573D01*
X143379673Y-80251536D01*
X143413739Y-80256500D01*
X143413740Y-80256500D01*
X145130261Y-80256500D01*
X145152971Y-80253191D01*
X145198393Y-80246573D01*
X145303483Y-80195198D01*
X145386198Y-80112483D01*
X145437573Y-80007393D01*
X145447500Y-79939260D01*
X145447500Y-79572740D01*
X145437573Y-79504607D01*
X145386198Y-79399517D01*
X145386196Y-79399515D01*
X145386196Y-79399514D01*
X145303485Y-79316803D01*
X145198391Y-79265426D01*
X145130261Y-79255500D01*
X145130260Y-79255500D01*
X143413740Y-79255500D01*
X143413739Y-79255500D01*
X143345608Y-79265426D01*
X143240514Y-79316803D01*
X143157803Y-79399514D01*
X143106426Y-79504608D01*
X143096500Y-79572739D01*
X140497500Y-79572739D01*
X140487573Y-79504607D01*
X140436198Y-79399517D01*
X140436196Y-79399515D01*
X140436196Y-79399514D01*
X140353485Y-79316803D01*
X140248391Y-79265426D01*
X140180261Y-79255500D01*
X140180260Y-79255500D01*
X138463740Y-79255500D01*
X138463739Y-79255500D01*
X138395608Y-79265426D01*
X138290514Y-79316803D01*
X138207803Y-79399514D01*
X138156426Y-79504608D01*
X138146500Y-79572739D01*
X132701297Y-79572739D01*
X130683503Y-77554945D01*
X130675471Y-77540236D01*
X130663412Y-77528593D01*
X130659072Y-77510203D01*
X130650018Y-77493622D01*
X130651213Y-77476903D01*
X130647364Y-77460591D01*
X130653654Y-77442776D01*
X130655002Y-77423930D01*
X130665215Y-77410033D01*
X130670627Y-77394708D01*
X130688043Y-77378975D01*
X130695142Y-77369317D01*
X130701835Y-77364120D01*
X130779579Y-77319235D01*
X130848759Y-77250054D01*
X130854899Y-77245288D01*
X130880472Y-77235234D01*
X130904583Y-77222069D01*
X130917492Y-77220681D01*
X130919924Y-77219725D01*
X130922188Y-77220176D01*
X130930941Y-77219235D01*
X134504475Y-77219235D01*
X134571514Y-77238920D01*
X134617269Y-77291724D01*
X134627213Y-77360882D01*
X134598188Y-77424438D01*
X134572933Y-77445289D01*
X134573135Y-77445552D01*
X134566683Y-77450502D01*
X134473502Y-77543683D01*
X134473500Y-77543686D01*
X134407608Y-77657812D01*
X134373500Y-77785108D01*
X134373500Y-77916891D01*
X134407608Y-78044187D01*
X134440554Y-78101250D01*
X134473500Y-78158314D01*
X134566686Y-78251500D01*
X134680814Y-78317392D01*
X134808108Y-78351500D01*
X134808110Y-78351500D01*
X134939889Y-78351500D01*
X134939892Y-78351500D01*
X135055183Y-78320608D01*
X135125028Y-78322271D01*
X135174953Y-78352702D01*
X135271774Y-78449523D01*
X135271778Y-78449526D01*
X135271780Y-78449528D01*
X135391874Y-78510719D01*
X135391876Y-78510719D01*
X135391878Y-78510720D01*
X135491507Y-78526500D01*
X135491512Y-78526500D01*
X136008493Y-78526500D01*
X136108121Y-78510720D01*
X136108121Y-78510719D01*
X136108126Y-78510719D01*
X136228220Y-78449528D01*
X136323528Y-78354220D01*
X136384719Y-78234126D01*
X136393531Y-78178491D01*
X136400500Y-78134493D01*
X136400500Y-77567506D01*
X136384720Y-77467878D01*
X136384719Y-77467876D01*
X136384719Y-77467874D01*
X136349894Y-77399527D01*
X136349386Y-77396824D01*
X136347586Y-77394746D01*
X136342977Y-77362696D01*
X136336999Y-77330861D01*
X136338033Y-77328311D01*
X136337642Y-77325588D01*
X136351095Y-77296129D01*
X136363275Y-77266120D01*
X136365524Y-77264534D01*
X136366667Y-77262032D01*
X136393910Y-77244523D01*
X136420382Y-77225863D01*
X136423838Y-77225290D01*
X136425445Y-77224258D01*
X136460380Y-77219235D01*
X136589620Y-77219235D01*
X136656659Y-77238920D01*
X136702414Y-77291724D01*
X136712358Y-77360882D01*
X136700106Y-77399524D01*
X136672080Y-77454530D01*
X136665279Y-77467878D01*
X136649500Y-77567506D01*
X136649500Y-78134493D01*
X136665279Y-78234121D01*
X136665280Y-78234124D01*
X136665281Y-78234126D01*
X136726231Y-78353747D01*
X136726473Y-78354221D01*
X136726476Y-78354225D01*
X136821774Y-78449523D01*
X136821778Y-78449526D01*
X136821780Y-78449528D01*
X136941874Y-78510719D01*
X136941876Y-78510719D01*
X136941878Y-78510720D01*
X137041507Y-78526500D01*
X137041512Y-78526500D01*
X137558493Y-78526500D01*
X137658121Y-78510720D01*
X137658121Y-78510719D01*
X137658126Y-78510719D01*
X137778220Y-78449528D01*
X137873528Y-78354220D01*
X137899758Y-78302740D01*
X138146500Y-78302740D01*
X138146500Y-78349753D01*
X138146500Y-78669260D01*
X138156426Y-78737391D01*
X138207803Y-78842485D01*
X138290514Y-78925196D01*
X138290515Y-78925196D01*
X138290517Y-78925198D01*
X138395607Y-78976573D01*
X138429673Y-78981536D01*
X138463739Y-78986500D01*
X138463740Y-78986500D01*
X140180261Y-78986500D01*
X140202971Y-78983191D01*
X140248393Y-78976573D01*
X140353483Y-78925198D01*
X140436198Y-78842483D01*
X140487573Y-78737393D01*
X140497500Y-78669260D01*
X140497500Y-78302740D01*
X140497500Y-78302739D01*
X143096500Y-78302739D01*
X143096500Y-78669260D01*
X143106426Y-78737391D01*
X143157803Y-78842485D01*
X143240514Y-78925196D01*
X143240515Y-78925196D01*
X143240517Y-78925198D01*
X143345607Y-78976573D01*
X143379673Y-78981536D01*
X143413739Y-78986500D01*
X143413740Y-78986500D01*
X145130261Y-78986500D01*
X145152971Y-78983191D01*
X145198393Y-78976573D01*
X145303483Y-78925198D01*
X145386198Y-78842483D01*
X145437573Y-78737393D01*
X145447500Y-78669260D01*
X145447500Y-78302740D01*
X145446836Y-78298186D01*
X145437573Y-78234608D01*
X145437573Y-78234607D01*
X145386198Y-78129517D01*
X145386196Y-78129515D01*
X145386196Y-78129514D01*
X145303485Y-78046803D01*
X145198391Y-77995426D01*
X145130261Y-77985500D01*
X145130260Y-77985500D01*
X143413740Y-77985500D01*
X143413739Y-77985500D01*
X143345608Y-77995426D01*
X143240514Y-78046803D01*
X143157803Y-78129514D01*
X143106426Y-78234608D01*
X143096500Y-78302739D01*
X140497500Y-78302739D01*
X140496836Y-78298186D01*
X140487573Y-78234608D01*
X140487573Y-78234607D01*
X140436198Y-78129517D01*
X140436196Y-78129515D01*
X140436196Y-78129514D01*
X140353485Y-78046803D01*
X140248391Y-77995426D01*
X140180261Y-77985500D01*
X140180260Y-77985500D01*
X138463740Y-77985500D01*
X138463739Y-77985500D01*
X138395608Y-77995426D01*
X138290514Y-78046803D01*
X138207803Y-78129514D01*
X138191847Y-78162152D01*
X138191846Y-78162155D01*
X138156427Y-78234607D01*
X138146500Y-78302740D01*
X137899758Y-78302740D01*
X137934719Y-78234126D01*
X137950500Y-78134488D01*
X137950500Y-77803833D01*
X137970185Y-77736794D01*
X137986819Y-77716152D01*
X138023152Y-77679819D01*
X138084475Y-77646334D01*
X138110833Y-77643500D01*
X138237901Y-77643500D01*
X138292359Y-77656098D01*
X138395607Y-77706573D01*
X138429673Y-77711536D01*
X138463739Y-77716500D01*
X138463740Y-77716500D01*
X140180261Y-77716500D01*
X140202971Y-77713191D01*
X140248393Y-77706573D01*
X140353483Y-77655198D01*
X140436198Y-77572483D01*
X140487573Y-77467393D01*
X140497500Y-77399260D01*
X140497500Y-77039500D01*
X140517185Y-76972461D01*
X140569989Y-76926706D01*
X140621500Y-76915500D01*
X141397561Y-76915500D01*
X141397563Y-76915500D01*
X141473990Y-76895021D01*
X141542512Y-76855460D01*
X141598461Y-76799511D01*
X142483819Y-75914153D01*
X142545142Y-75880668D01*
X142614834Y-75885652D01*
X142670767Y-75927524D01*
X142695184Y-75992988D01*
X142695500Y-76001834D01*
X142695500Y-76326530D01*
X142703797Y-76357493D01*
X142715979Y-76402958D01*
X142724800Y-76418235D01*
X142744491Y-76452341D01*
X142744491Y-76452343D01*
X142755537Y-76471475D01*
X142755541Y-76471480D01*
X143090528Y-76806467D01*
X143124013Y-76867790D01*
X143119029Y-76937482D01*
X143114250Y-76948604D01*
X143106427Y-76964606D01*
X143106425Y-76964611D01*
X143096500Y-77032739D01*
X143096500Y-77399260D01*
X143106426Y-77467391D01*
X143106427Y-77467393D01*
X143153235Y-77563142D01*
X143157803Y-77572485D01*
X143240514Y-77655196D01*
X143240515Y-77655196D01*
X143240517Y-77655198D01*
X143345607Y-77706573D01*
X143379673Y-77711536D01*
X143413739Y-77716500D01*
X143413740Y-77716500D01*
X145130261Y-77716500D01*
X145152971Y-77713191D01*
X145198393Y-77706573D01*
X145303483Y-77655198D01*
X145386198Y-77572483D01*
X145437573Y-77467393D01*
X145447500Y-77399260D01*
X145447500Y-77032740D01*
X145437573Y-76964607D01*
X145386198Y-76859517D01*
X145386196Y-76859515D01*
X145386196Y-76859514D01*
X145303485Y-76776803D01*
X145198391Y-76725426D01*
X145130261Y-76715500D01*
X145130260Y-76715500D01*
X143900865Y-76715500D01*
X143871424Y-76706855D01*
X143841438Y-76700332D01*
X143836422Y-76696577D01*
X143833826Y-76695815D01*
X143813184Y-76679181D01*
X143792184Y-76658181D01*
X143758699Y-76596858D01*
X143763683Y-76527166D01*
X143805555Y-76471233D01*
X143871019Y-76446816D01*
X143879865Y-76446500D01*
X145130261Y-76446500D01*
X145172442Y-76440354D01*
X145198393Y-76436573D01*
X145303483Y-76385198D01*
X145386198Y-76302483D01*
X145386200Y-76302477D01*
X145389077Y-76298450D01*
X145444051Y-76255326D01*
X145489997Y-76246500D01*
X146416560Y-76246500D01*
X146416562Y-76246500D01*
X146492989Y-76226021D01*
X146561511Y-76186460D01*
X146617460Y-76130511D01*
X147369819Y-75378152D01*
X147431142Y-75344667D01*
X147500834Y-75349651D01*
X147556767Y-75391523D01*
X147581184Y-75456987D01*
X147581500Y-75465833D01*
X147581500Y-75503892D01*
X147599824Y-75572276D01*
X147615608Y-75631185D01*
X147615607Y-75631185D01*
X147623872Y-75645500D01*
X147681500Y-75745314D01*
X147774686Y-75838500D01*
X147888814Y-75904392D01*
X148016108Y-75938500D01*
X148016110Y-75938500D01*
X148147890Y-75938500D01*
X148147892Y-75938500D01*
X148275186Y-75904392D01*
X148389314Y-75838500D01*
X148482500Y-75745314D01*
X148509229Y-75699017D01*
X148528723Y-75680429D01*
X148545559Y-75659396D01*
X148553632Y-75656679D01*
X148559796Y-75650802D01*
X148586247Y-75645703D01*
X148611780Y-75637112D01*
X148620039Y-75639190D01*
X148628403Y-75637579D01*
X148653413Y-75647591D01*
X148679536Y-75654167D01*
X148685360Y-75660381D01*
X148693268Y-75663547D01*
X148708894Y-75685491D01*
X148727316Y-75705147D01*
X148730366Y-75715645D01*
X148733796Y-75720462D01*
X148738572Y-75738598D01*
X148740500Y-75749085D01*
X148740500Y-75753748D01*
X148751812Y-75810617D01*
X148751989Y-75811580D01*
X148751651Y-75814823D01*
X148751651Y-75858190D01*
X148745771Y-75887752D01*
X148740500Y-75914252D01*
X148740500Y-76403748D01*
X148743382Y-76418235D01*
X148751651Y-76459810D01*
X148751651Y-76508190D01*
X148741895Y-76557238D01*
X148740500Y-76564252D01*
X148740500Y-77053748D01*
X148741824Y-77060402D01*
X148751651Y-77109810D01*
X148751651Y-77158190D01*
X148740501Y-77214249D01*
X148740500Y-77214252D01*
X148740500Y-77703748D01*
X148740632Y-77704410D01*
X148751651Y-77759810D01*
X148751651Y-77808190D01*
X148748312Y-77824978D01*
X148740500Y-77864252D01*
X148740500Y-78353748D01*
X148740594Y-78354220D01*
X148751651Y-78409810D01*
X148751651Y-78458190D01*
X148742241Y-78505497D01*
X148740500Y-78514252D01*
X148740500Y-79003748D01*
X148744011Y-79021399D01*
X148751651Y-79059810D01*
X148751651Y-79108190D01*
X148740500Y-79164252D01*
X148740500Y-79653752D01*
X148752131Y-79712229D01*
X148752132Y-79712230D01*
X148796447Y-79778552D01*
X148862769Y-79822867D01*
X148862770Y-79822868D01*
X148921247Y-79834499D01*
X148921250Y-79834500D01*
X148921252Y-79834500D01*
X150710750Y-79834500D01*
X150710751Y-79834499D01*
X150725568Y-79831552D01*
X150769229Y-79822868D01*
X150769229Y-79822867D01*
X150769231Y-79822867D01*
X150835552Y-79778552D01*
X150879867Y-79712231D01*
X150879867Y-79712229D01*
X150879868Y-79712229D01*
X150891499Y-79653752D01*
X150891500Y-79653750D01*
X150891500Y-79164249D01*
X150880349Y-79108192D01*
X150880349Y-79059808D01*
X150891500Y-79003750D01*
X150891500Y-78514249D01*
X150880349Y-78458192D01*
X150880349Y-78409808D01*
X150891500Y-78353750D01*
X150891500Y-77864249D01*
X150880349Y-77808192D01*
X150880349Y-77759808D01*
X150891500Y-77703750D01*
X150891500Y-77214249D01*
X150880349Y-77158192D01*
X150880349Y-77109808D01*
X150891500Y-77053750D01*
X150891500Y-76564249D01*
X150880349Y-76508192D01*
X150880349Y-76459808D01*
X150891500Y-76403750D01*
X150891500Y-75914249D01*
X150880349Y-75858192D01*
X150878149Y-75827262D01*
X150878887Y-75813697D01*
X150879867Y-75812231D01*
X150891500Y-75753748D01*
X150891500Y-75593438D01*
X155539500Y-75593438D01*
X155539500Y-77266562D01*
X155549258Y-77302979D01*
X155559979Y-77342991D01*
X155559980Y-77342992D01*
X155584008Y-77384609D01*
X155584009Y-77384610D01*
X155589839Y-77394708D01*
X155599540Y-77411511D01*
X155887489Y-77699460D01*
X155887491Y-77699461D01*
X155893940Y-77704410D01*
X155893167Y-77705416D01*
X155935705Y-77750029D01*
X155948926Y-77818636D01*
X155947106Y-77831035D01*
X155940500Y-77864249D01*
X155940500Y-77864252D01*
X155940500Y-78353748D01*
X155940594Y-78354220D01*
X155951651Y-78409810D01*
X155951651Y-78458190D01*
X155942241Y-78505497D01*
X155940500Y-78514252D01*
X155940500Y-79003748D01*
X155944011Y-79021399D01*
X155951651Y-79059810D01*
X155951651Y-79108190D01*
X155940500Y-79164252D01*
X155940500Y-79653752D01*
X155952131Y-79712229D01*
X155952132Y-79712230D01*
X155996447Y-79778552D01*
X156062769Y-79822867D01*
X156062770Y-79822868D01*
X156121247Y-79834499D01*
X156121250Y-79834500D01*
X156121252Y-79834500D01*
X156965167Y-79834500D01*
X157032206Y-79854185D01*
X157052848Y-79870819D01*
X164965540Y-87783511D01*
X165021489Y-87839460D01*
X165021491Y-87839461D01*
X165021495Y-87839464D01*
X165090004Y-87879017D01*
X165090011Y-87879021D01*
X165166438Y-87899500D01*
X165166440Y-87899500D01*
X183419560Y-87899500D01*
X183419562Y-87899500D01*
X183495989Y-87879021D01*
X183564511Y-87839460D01*
X183620460Y-87783511D01*
X183968896Y-87435073D01*
X184030217Y-87401590D01*
X184099908Y-87406574D01*
X184104007Y-87408186D01*
X184224580Y-87458130D01*
X184427530Y-87498499D01*
X184427534Y-87498500D01*
X184427535Y-87498500D01*
X184634466Y-87498500D01*
X184634467Y-87498499D01*
X184837420Y-87458130D01*
X185028598Y-87378941D01*
X185200655Y-87263977D01*
X185346977Y-87117655D01*
X185461941Y-86945598D01*
X185541130Y-86754420D01*
X185581500Y-86551465D01*
X185581500Y-86344535D01*
X185541130Y-86141580D01*
X185461941Y-85950402D01*
X185346977Y-85778345D01*
X185346975Y-85778342D01*
X185200657Y-85632024D01*
X185059127Y-85537458D01*
X185028598Y-85517059D01*
X184976002Y-85495273D01*
X184837420Y-85437870D01*
X184837412Y-85437868D01*
X184634469Y-85397500D01*
X184634465Y-85397500D01*
X184427535Y-85397500D01*
X184427530Y-85397500D01*
X184224587Y-85437868D01*
X184224579Y-85437870D01*
X184033403Y-85517058D01*
X183861342Y-85632024D01*
X183715024Y-85778342D01*
X183600058Y-85950403D01*
X183520870Y-86141579D01*
X183520868Y-86141587D01*
X183480500Y-86344530D01*
X183480500Y-86551469D01*
X183520868Y-86754412D01*
X183520871Y-86754424D01*
X183570803Y-86874971D01*
X183578272Y-86944440D01*
X183546997Y-87006919D01*
X183543924Y-87010104D01*
X183291846Y-87262182D01*
X183230526Y-87295666D01*
X183204167Y-87298500D01*
X182918128Y-87298500D01*
X182851089Y-87278815D01*
X182805334Y-87226011D01*
X182795390Y-87156853D01*
X182815026Y-87105610D01*
X182921940Y-86945600D01*
X182921940Y-86945599D01*
X182921941Y-86945598D01*
X183001130Y-86754420D01*
X183041500Y-86551465D01*
X183041500Y-86344535D01*
X183001130Y-86141580D01*
X182921941Y-85950402D01*
X182806977Y-85778345D01*
X182806975Y-85778342D01*
X182660657Y-85632024D01*
X182519127Y-85537458D01*
X182488598Y-85517059D01*
X182436002Y-85495273D01*
X182297420Y-85437870D01*
X182297412Y-85437868D01*
X182094469Y-85397500D01*
X182094465Y-85397500D01*
X181887535Y-85397500D01*
X181887530Y-85397500D01*
X181684587Y-85437868D01*
X181684579Y-85437870D01*
X181564029Y-85487804D01*
X181494559Y-85495273D01*
X181432080Y-85463998D01*
X181428895Y-85460924D01*
X181024512Y-85056541D01*
X181024507Y-85056537D01*
X180998871Y-85041737D01*
X180983182Y-85032679D01*
X180983180Y-85032677D01*
X180983180Y-85032678D01*
X180983178Y-85032677D01*
X180977433Y-85029360D01*
X180955990Y-85016979D01*
X180955991Y-85016979D01*
X180917775Y-85006739D01*
X180879562Y-84996500D01*
X180879560Y-84996500D01*
X164720833Y-84996500D01*
X164653794Y-84976815D01*
X164633152Y-84960181D01*
X159198552Y-79525581D01*
X159165067Y-79464258D01*
X159170051Y-79394566D01*
X159211923Y-79338633D01*
X159277387Y-79314216D01*
X159286233Y-79313900D01*
X159605092Y-79313900D01*
X159675535Y-79302742D01*
X159690785Y-79300326D01*
X159710183Y-79298800D01*
X160533017Y-79298800D01*
X160552414Y-79300326D01*
X160567664Y-79302742D01*
X160638108Y-79313900D01*
X160638112Y-79313900D01*
X161155092Y-79313900D01*
X161225535Y-79302742D01*
X161240785Y-79300326D01*
X161260183Y-79298800D01*
X164338000Y-79298800D01*
X164338000Y-79209333D01*
X164357685Y-79142294D01*
X164410489Y-79096539D01*
X164479647Y-79086595D01*
X164543203Y-79115620D01*
X164549681Y-79121652D01*
X167099540Y-81671511D01*
X167155489Y-81727460D01*
X167155491Y-81727461D01*
X167155495Y-81727464D01*
X167224004Y-81767017D01*
X167224011Y-81767021D01*
X167300438Y-81787500D01*
X167379562Y-81787500D01*
X173443872Y-81787500D01*
X173510911Y-81807185D01*
X173556666Y-81859989D01*
X173566610Y-81929147D01*
X173546974Y-81980390D01*
X173440059Y-82140399D01*
X173440059Y-82140400D01*
X173360870Y-82331579D01*
X173360868Y-82331587D01*
X173320500Y-82534530D01*
X173320500Y-82741469D01*
X173360868Y-82944412D01*
X173360870Y-82944420D01*
X173440058Y-83135596D01*
X173555024Y-83307657D01*
X173701342Y-83453975D01*
X173701345Y-83453977D01*
X173873402Y-83568941D01*
X174064580Y-83648130D01*
X174267530Y-83688499D01*
X174267534Y-83688500D01*
X174267535Y-83688500D01*
X174474466Y-83688500D01*
X174474467Y-83688499D01*
X174677420Y-83648130D01*
X174868598Y-83568941D01*
X175040655Y-83453977D01*
X175186977Y-83307655D01*
X175301941Y-83135598D01*
X175381130Y-82944420D01*
X175421500Y-82741465D01*
X175421500Y-82534535D01*
X175381130Y-82331580D01*
X175301941Y-82140402D01*
X175301940Y-82140400D01*
X175301940Y-82140399D01*
X175195026Y-81980390D01*
X175174148Y-81913713D01*
X175192633Y-81846333D01*
X175244612Y-81799643D01*
X175298128Y-81787500D01*
X181934167Y-81787500D01*
X182001206Y-81807185D01*
X182021848Y-81823819D01*
X185984181Y-85786152D01*
X186017666Y-85847475D01*
X186020500Y-85873833D01*
X186020500Y-87317752D01*
X186032131Y-87376229D01*
X186032132Y-87376230D01*
X186076447Y-87442552D01*
X186142769Y-87486867D01*
X186142770Y-87486868D01*
X186201247Y-87498499D01*
X186201250Y-87498500D01*
X186201252Y-87498500D01*
X187940750Y-87498500D01*
X187940751Y-87498499D01*
X187955568Y-87495552D01*
X187999229Y-87486868D01*
X187999229Y-87486867D01*
X187999231Y-87486867D01*
X188065552Y-87442552D01*
X188109867Y-87376231D01*
X188109867Y-87376229D01*
X188109868Y-87376229D01*
X188121499Y-87317752D01*
X188121500Y-87317750D01*
X188121500Y-85578249D01*
X188121499Y-85578247D01*
X188109868Y-85519770D01*
X188109867Y-85519769D01*
X188065552Y-85453447D01*
X187999230Y-85409132D01*
X187999229Y-85409131D01*
X187940752Y-85397500D01*
X187940748Y-85397500D01*
X186496833Y-85397500D01*
X186429794Y-85377815D01*
X186409152Y-85361181D01*
X182294512Y-81246541D01*
X182294507Y-81246537D01*
X182243904Y-81217322D01*
X182243904Y-81217321D01*
X182230092Y-81209348D01*
X182225989Y-81206979D01*
X182149562Y-81186500D01*
X182149560Y-81186500D01*
X175041568Y-81186500D01*
X174974529Y-81166815D01*
X174928774Y-81114011D01*
X174918830Y-81044853D01*
X174947855Y-80981297D01*
X174972675Y-80959398D01*
X175040655Y-80913977D01*
X175186977Y-80767655D01*
X175301941Y-80595598D01*
X175381130Y-80404420D01*
X175421500Y-80201465D01*
X175421500Y-79994535D01*
X175381130Y-79791580D01*
X175301941Y-79600402D01*
X175186977Y-79428345D01*
X175186975Y-79428342D01*
X175040657Y-79282024D01*
X174931866Y-79209333D01*
X174868598Y-79167059D01*
X174861821Y-79164252D01*
X174677420Y-79087870D01*
X174677412Y-79087868D01*
X174474469Y-79047500D01*
X174474465Y-79047500D01*
X174267535Y-79047500D01*
X174267530Y-79047500D01*
X174064587Y-79087868D01*
X174064579Y-79087870D01*
X173873403Y-79167058D01*
X173701342Y-79282024D01*
X173555024Y-79428342D01*
X173440058Y-79600403D01*
X173360870Y-79791579D01*
X173360868Y-79791587D01*
X173320500Y-79994530D01*
X173320500Y-80201469D01*
X173360868Y-80404412D01*
X173360870Y-80404420D01*
X173440058Y-80595596D01*
X173555024Y-80767657D01*
X173701342Y-80913975D01*
X173701345Y-80913977D01*
X173769322Y-80959398D01*
X173814127Y-81013009D01*
X173822835Y-81082334D01*
X173792681Y-81145362D01*
X173733239Y-81182081D01*
X173700432Y-81186500D01*
X167515833Y-81186500D01*
X167448794Y-81166815D01*
X167428152Y-81150181D01*
X164605818Y-78327847D01*
X164572333Y-78266524D01*
X164569499Y-78240174D01*
X164569499Y-77809482D01*
X164554646Y-77715696D01*
X164497050Y-77602658D01*
X164497046Y-77602654D01*
X164497045Y-77602652D01*
X164434506Y-77540113D01*
X164434500Y-77540108D01*
X164407342Y-77512950D01*
X164393318Y-77505804D01*
X164382637Y-77496907D01*
X164370608Y-77478968D01*
X164354909Y-77464141D01*
X164352309Y-77454530D01*
X173320500Y-77454530D01*
X173320500Y-77661469D01*
X173360868Y-77864412D01*
X173360870Y-77864420D01*
X173440058Y-78055596D01*
X173555024Y-78227657D01*
X173701342Y-78373975D01*
X173701345Y-78373977D01*
X173873402Y-78488941D01*
X174064580Y-78568130D01*
X174252448Y-78605499D01*
X174267530Y-78608499D01*
X174267534Y-78608500D01*
X174267535Y-78608500D01*
X174474466Y-78608500D01*
X174474467Y-78608499D01*
X174677420Y-78568130D01*
X174868598Y-78488941D01*
X175040655Y-78373977D01*
X175186977Y-78227655D01*
X175301941Y-78055598D01*
X175381130Y-77864420D01*
X175421500Y-77661465D01*
X175421500Y-77454535D01*
X175381130Y-77251580D01*
X175301941Y-77060402D01*
X175186977Y-76888345D01*
X175186975Y-76888342D01*
X175040657Y-76742024D01*
X174920143Y-76661500D01*
X174868598Y-76627059D01*
X174865469Y-76625763D01*
X174677420Y-76547870D01*
X174677412Y-76547868D01*
X174474469Y-76507500D01*
X174474465Y-76507500D01*
X174267535Y-76507500D01*
X174267530Y-76507500D01*
X174064587Y-76547868D01*
X174064579Y-76547870D01*
X173873403Y-76627058D01*
X173701342Y-76742024D01*
X173555024Y-76888342D01*
X173440058Y-77060403D01*
X173360870Y-77251579D01*
X173360868Y-77251587D01*
X173320500Y-77454530D01*
X164352309Y-77454530D01*
X164351015Y-77449748D01*
X164343725Y-77438875D01*
X164343387Y-77421548D01*
X164338000Y-77401631D01*
X164338000Y-77030369D01*
X164357685Y-76963330D01*
X164399776Y-76925249D01*
X164399443Y-76924790D01*
X164403715Y-76921685D01*
X164405709Y-76919882D01*
X164407342Y-76919050D01*
X164497050Y-76829342D01*
X164554646Y-76716304D01*
X164554646Y-76716302D01*
X164554647Y-76716301D01*
X164569499Y-76622524D01*
X164569500Y-76622519D01*
X164569499Y-76159482D01*
X164554646Y-76065696D01*
X164497050Y-75952658D01*
X164497046Y-75952654D01*
X164497045Y-75952652D01*
X164407347Y-75862954D01*
X164407344Y-75862952D01*
X164407342Y-75862950D01*
X164307797Y-75812229D01*
X164294301Y-75805352D01*
X164200524Y-75790500D01*
X163587482Y-75790500D01*
X163509879Y-75802791D01*
X163493696Y-75805354D01*
X163380658Y-75862950D01*
X163380657Y-75862951D01*
X163380652Y-75862954D01*
X163290954Y-75952652D01*
X163290951Y-75952657D01*
X163290950Y-75952658D01*
X163255212Y-76022796D01*
X163207239Y-76073591D01*
X163144729Y-76090500D01*
X162977638Y-76090500D01*
X162901210Y-76110978D01*
X162832689Y-76150540D01*
X162832686Y-76150542D01*
X162594047Y-76389181D01*
X162532724Y-76422666D01*
X162506366Y-76425500D01*
X162075682Y-76425500D01*
X161994719Y-76438323D01*
X161981896Y-76440354D01*
X161868858Y-76497950D01*
X161868857Y-76497951D01*
X161868852Y-76497954D01*
X161838070Y-76528737D01*
X161776747Y-76562222D01*
X161707055Y-76557238D01*
X161662708Y-76528737D01*
X161271312Y-76137341D01*
X161271304Y-76137335D01*
X161225650Y-76110977D01*
X161225648Y-76110977D01*
X161202789Y-76097779D01*
X161126362Y-76077300D01*
X159714669Y-76077300D01*
X159647630Y-76057615D01*
X159601875Y-76004811D01*
X159591931Y-75935653D01*
X159595946Y-75917801D01*
X159606000Y-75848799D01*
X159606000Y-75840400D01*
X158402001Y-75840400D01*
X158402001Y-75848803D01*
X158411969Y-75917227D01*
X158432953Y-75960150D01*
X158437199Y-75985024D01*
X158445420Y-76008884D01*
X158442979Y-76018882D01*
X158444711Y-76029024D01*
X158434836Y-76052244D01*
X158428852Y-76076761D01*
X158421131Y-76084470D01*
X158417368Y-76093321D01*
X158401363Y-76104211D01*
X158383554Y-76121996D01*
X158356982Y-76137337D01*
X158356977Y-76137341D01*
X158146637Y-76347681D01*
X158119709Y-76362384D01*
X158093891Y-76378977D01*
X158087690Y-76379868D01*
X158085314Y-76381166D01*
X158058956Y-76384000D01*
X157921916Y-76384000D01*
X157911738Y-76383500D01*
X157910748Y-76383500D01*
X157140000Y-76383500D01*
X157072961Y-76363815D01*
X157027206Y-76311011D01*
X157016000Y-76259500D01*
X157016000Y-76058500D01*
X157035685Y-75991461D01*
X157088489Y-75945706D01*
X157140000Y-75934500D01*
X157911738Y-75934500D01*
X157921916Y-75934000D01*
X158018000Y-75934000D01*
X158021506Y-75930493D01*
X158027065Y-75911561D01*
X158034700Y-75880284D01*
X158036849Y-75878239D01*
X158037685Y-75875396D01*
X158038899Y-75873543D01*
X158079867Y-75812231D01*
X158079868Y-75812229D01*
X158091499Y-75753752D01*
X158091500Y-75753750D01*
X158091500Y-75264249D01*
X158080349Y-75208192D01*
X158080349Y-75199846D01*
X158078458Y-75195037D01*
X158080352Y-75159794D01*
X158081805Y-75152494D01*
X158114197Y-75090587D01*
X158174917Y-75056020D01*
X158203419Y-75052700D01*
X158316414Y-75052700D01*
X158383453Y-75072385D01*
X158429208Y-75125189D01*
X158439152Y-75194347D01*
X158427814Y-75231160D01*
X158411970Y-75263569D01*
X158402000Y-75332000D01*
X158402000Y-75340400D01*
X159605999Y-75340400D01*
X159605999Y-75331996D01*
X159596029Y-75263570D01*
X159554532Y-75178685D01*
X159542772Y-75109812D01*
X159570116Y-75045515D01*
X159603931Y-75016838D01*
X159645811Y-74992660D01*
X159701760Y-74936711D01*
X160490224Y-74148247D01*
X173320500Y-74148247D01*
X173320500Y-75887752D01*
X173332131Y-75946229D01*
X173332132Y-75946230D01*
X173376447Y-76012552D01*
X173442769Y-76056867D01*
X173442770Y-76056868D01*
X173501247Y-76068499D01*
X173501250Y-76068500D01*
X173501252Y-76068500D01*
X175240750Y-76068500D01*
X175240751Y-76068499D01*
X175255568Y-76065552D01*
X175299229Y-76056868D01*
X175299229Y-76056867D01*
X175299231Y-76056867D01*
X175365552Y-76012552D01*
X175409867Y-75946231D01*
X175409867Y-75946229D01*
X175409868Y-75946229D01*
X175421499Y-75887752D01*
X175421500Y-75887750D01*
X175421500Y-74148249D01*
X175421499Y-74148247D01*
X175409868Y-74089770D01*
X175409867Y-74089769D01*
X175365552Y-74023447D01*
X175299230Y-73979132D01*
X175299229Y-73979131D01*
X175240752Y-73967500D01*
X175240748Y-73967500D01*
X173501252Y-73967500D01*
X173501247Y-73967500D01*
X173442770Y-73979131D01*
X173442769Y-73979132D01*
X173376447Y-74023447D01*
X173332132Y-74089769D01*
X173332131Y-74089770D01*
X173320500Y-74148247D01*
X160490224Y-74148247D01*
X160532652Y-74105819D01*
X160593975Y-74072334D01*
X160620333Y-74069500D01*
X161071251Y-74069500D01*
X161169417Y-74053952D01*
X161169418Y-74053951D01*
X161169420Y-74053951D01*
X161287751Y-73993658D01*
X161381658Y-73899751D01*
X161441951Y-73781420D01*
X161441951Y-73781418D01*
X161441952Y-73781417D01*
X161457500Y-73683251D01*
X161457500Y-73179748D01*
X161441952Y-73081582D01*
X161425611Y-73049512D01*
X161381658Y-72963249D01*
X161381654Y-72963245D01*
X161381653Y-72963243D01*
X161287756Y-72869346D01*
X161287753Y-72869344D01*
X161287751Y-72869342D01*
X161169420Y-72809049D01*
X161169419Y-72809048D01*
X161169416Y-72809047D01*
X161169417Y-72809047D01*
X161071251Y-72793500D01*
X161071246Y-72793500D01*
X160492754Y-72793500D01*
X160492749Y-72793500D01*
X160394582Y-72809047D01*
X160315692Y-72849244D01*
X160276249Y-72869342D01*
X160276248Y-72869343D01*
X160276243Y-72869346D01*
X160182346Y-72963243D01*
X160182343Y-72963248D01*
X160182342Y-72963249D01*
X160166419Y-72994500D01*
X160122047Y-73081582D01*
X160106500Y-73179748D01*
X160106500Y-73630667D01*
X160097855Y-73660107D01*
X160091332Y-73690094D01*
X160087577Y-73695109D01*
X160086815Y-73697706D01*
X160070181Y-73718348D01*
X160018181Y-73770348D01*
X159956858Y-73803833D01*
X159887166Y-73798849D01*
X159831233Y-73756977D01*
X159806816Y-73691513D01*
X159806500Y-73682667D01*
X159806500Y-73179748D01*
X159790952Y-73081582D01*
X159774611Y-73049512D01*
X159730658Y-72963249D01*
X159730654Y-72963245D01*
X159730653Y-72963243D01*
X159636756Y-72869346D01*
X159636753Y-72869344D01*
X159636751Y-72869342D01*
X159518420Y-72809049D01*
X159518419Y-72809048D01*
X159518416Y-72809047D01*
X159518417Y-72809047D01*
X159420251Y-72793500D01*
X159420246Y-72793500D01*
X158841754Y-72793500D01*
X158841749Y-72793500D01*
X158743582Y-72809047D01*
X158664692Y-72849244D01*
X158625249Y-72869342D01*
X158625248Y-72869343D01*
X158625243Y-72869346D01*
X158531346Y-72963243D01*
X158531343Y-72963248D01*
X158531342Y-72963249D01*
X158515419Y-72994500D01*
X158471047Y-73081582D01*
X158455500Y-73179748D01*
X158455500Y-73630667D01*
X158446855Y-73660107D01*
X158440332Y-73690094D01*
X158436577Y-73695109D01*
X158435815Y-73697706D01*
X158419181Y-73718348D01*
X158303181Y-73834348D01*
X158241858Y-73867833D01*
X158172166Y-73862849D01*
X158116233Y-73820977D01*
X158091816Y-73755513D01*
X158091500Y-73746667D01*
X158091500Y-73314249D01*
X158080349Y-73258192D01*
X158080349Y-73209808D01*
X158091500Y-73153750D01*
X158091500Y-72959833D01*
X158111185Y-72892794D01*
X158127819Y-72872152D01*
X158282010Y-72717961D01*
X158482460Y-72517511D01*
X158490406Y-72503748D01*
X158500179Y-72486819D01*
X158550741Y-72438604D01*
X158619348Y-72425378D01*
X158663860Y-72438331D01*
X158716600Y-72465204D01*
X158743582Y-72478952D01*
X158841749Y-72494500D01*
X158841754Y-72494500D01*
X159420251Y-72494500D01*
X159518417Y-72478952D01*
X159518418Y-72478951D01*
X159518420Y-72478951D01*
X159636751Y-72418658D01*
X159730658Y-72324751D01*
X159790951Y-72206420D01*
X159790951Y-72206418D01*
X159790952Y-72206417D01*
X159806500Y-72108251D01*
X159806500Y-71604748D01*
X159790952Y-71506582D01*
X159784466Y-71493853D01*
X159730658Y-71388249D01*
X159730654Y-71388245D01*
X159730653Y-71388243D01*
X159636756Y-71294346D01*
X159636752Y-71294343D01*
X159636751Y-71294342D01*
X159616454Y-71284000D01*
X159581350Y-71266113D01*
X159530554Y-71218138D01*
X159513760Y-71150317D01*
X159536298Y-71084182D01*
X159581348Y-71045146D01*
X159644342Y-71013050D01*
X159734050Y-70923342D01*
X159791646Y-70810304D01*
X159791646Y-70810302D01*
X159791647Y-70810301D01*
X159806499Y-70716524D01*
X159806500Y-70716519D01*
X159806499Y-70253482D01*
X159806340Y-70252475D01*
X160106500Y-70252475D01*
X160106500Y-70715517D01*
X160117027Y-70781985D01*
X160121354Y-70809304D01*
X160178950Y-70922342D01*
X160178952Y-70922344D01*
X160178954Y-70922347D01*
X160268652Y-71012045D01*
X160268656Y-71012048D01*
X160268658Y-71012050D01*
X160332631Y-71044646D01*
X160383425Y-71092618D01*
X160400220Y-71160439D01*
X160377683Y-71226574D01*
X160332631Y-71265613D01*
X160276248Y-71294342D01*
X160276243Y-71294346D01*
X160182346Y-71388243D01*
X160182343Y-71388248D01*
X160182342Y-71388249D01*
X160168108Y-71416185D01*
X160122047Y-71506582D01*
X160106500Y-71604748D01*
X160106500Y-72108251D01*
X160122047Y-72206417D01*
X160128016Y-72218131D01*
X160182342Y-72324751D01*
X160182344Y-72324753D01*
X160182346Y-72324756D01*
X160276243Y-72418653D01*
X160276245Y-72418654D01*
X160276249Y-72418658D01*
X160394580Y-72478951D01*
X160394581Y-72478951D01*
X160394583Y-72478952D01*
X160394582Y-72478952D01*
X160492749Y-72494500D01*
X160492754Y-72494500D01*
X161071251Y-72494500D01*
X161169417Y-72478952D01*
X161169418Y-72478951D01*
X161169420Y-72478951D01*
X161287751Y-72418658D01*
X161381658Y-72324751D01*
X161441951Y-72206420D01*
X161441951Y-72206418D01*
X161441952Y-72206417D01*
X161457500Y-72108251D01*
X161457500Y-71604748D01*
X161441952Y-71506582D01*
X161435466Y-71493853D01*
X161381658Y-71388249D01*
X161381654Y-71388245D01*
X161381653Y-71388243D01*
X161287756Y-71294346D01*
X161287752Y-71294343D01*
X161287751Y-71294342D01*
X161232349Y-71266113D01*
X161231368Y-71265613D01*
X161224882Y-71259487D01*
X161216431Y-71256627D01*
X161199875Y-71235869D01*
X161180573Y-71217639D01*
X161178428Y-71208978D01*
X161172865Y-71202003D01*
X161170160Y-71175590D01*
X161163778Y-71149818D01*
X161166656Y-71141372D01*
X161165747Y-71132496D01*
X161177752Y-71108812D01*
X161179211Y-71104530D01*
X178400500Y-71104530D01*
X178400500Y-71311469D01*
X178440868Y-71514412D01*
X178440870Y-71514420D01*
X178516415Y-71696802D01*
X178520059Y-71705598D01*
X178574616Y-71787249D01*
X178635024Y-71877657D01*
X178781342Y-72023975D01*
X178781345Y-72023977D01*
X178953402Y-72138941D01*
X179144580Y-72218130D01*
X179289052Y-72246867D01*
X179347530Y-72258499D01*
X179347534Y-72258500D01*
X179347535Y-72258500D01*
X179554466Y-72258500D01*
X179554467Y-72258499D01*
X179757420Y-72218130D01*
X179948598Y-72138941D01*
X180120655Y-72023977D01*
X180266977Y-71877655D01*
X180381941Y-71705598D01*
X180461130Y-71514420D01*
X180501500Y-71311465D01*
X180501500Y-71104535D01*
X180461130Y-70901580D01*
X180381941Y-70710402D01*
X180266977Y-70538345D01*
X180266975Y-70538342D01*
X180120657Y-70392024D01*
X179952655Y-70279770D01*
X179948598Y-70277059D01*
X179948593Y-70277057D01*
X179757420Y-70197870D01*
X179757412Y-70197868D01*
X179554469Y-70157500D01*
X179554465Y-70157500D01*
X179347535Y-70157500D01*
X179347530Y-70157500D01*
X179144587Y-70197868D01*
X179144579Y-70197870D01*
X178953403Y-70277058D01*
X178781342Y-70392024D01*
X178635024Y-70538342D01*
X178520058Y-70710403D01*
X178440870Y-70901579D01*
X178440868Y-70901587D01*
X178400500Y-71104530D01*
X161179211Y-71104530D01*
X161186316Y-71083683D01*
X161194136Y-71076490D01*
X161197337Y-71070176D01*
X161217223Y-71055256D01*
X161224930Y-71048169D01*
X161228074Y-71046324D01*
X161295342Y-71012050D01*
X161385050Y-70922342D01*
X161442646Y-70809304D01*
X161442646Y-70809302D01*
X161442647Y-70809301D01*
X161456569Y-70721395D01*
X161457500Y-70715519D01*
X161457499Y-70252482D01*
X161442646Y-70158696D01*
X161385050Y-70045658D01*
X161385046Y-70045654D01*
X161385045Y-70045652D01*
X161295347Y-69955954D01*
X161295344Y-69955952D01*
X161295342Y-69955950D01*
X161204874Y-69909854D01*
X161182301Y-69898352D01*
X161088524Y-69883500D01*
X160475482Y-69883500D01*
X160394519Y-69896323D01*
X160381696Y-69898354D01*
X160268658Y-69955950D01*
X160268657Y-69955951D01*
X160268652Y-69955954D01*
X160178954Y-70045652D01*
X160178951Y-70045657D01*
X160178950Y-70045658D01*
X160176487Y-70050492D01*
X160121352Y-70158698D01*
X160106500Y-70252475D01*
X159806340Y-70252475D01*
X159791646Y-70159696D01*
X159734050Y-70046658D01*
X159734046Y-70046654D01*
X159734045Y-70046652D01*
X159644347Y-69956954D01*
X159644344Y-69956952D01*
X159644342Y-69956950D01*
X159567517Y-69917805D01*
X159531301Y-69899352D01*
X159437524Y-69884500D01*
X158866500Y-69884500D01*
X158799461Y-69864815D01*
X158753706Y-69812011D01*
X158742500Y-69760500D01*
X158742500Y-69657110D01*
X158742500Y-69657108D01*
X158708392Y-69529814D01*
X158708391Y-69529812D01*
X158706288Y-69521963D01*
X158708595Y-69521344D01*
X158702432Y-69463971D01*
X158733713Y-69401495D01*
X158793805Y-69365848D01*
X158824459Y-69361999D01*
X159381000Y-69361999D01*
X159444315Y-69361999D01*
X159491941Y-69355730D01*
X159596454Y-69306993D01*
X159677993Y-69225454D01*
X159726730Y-69120941D01*
X159726731Y-69120937D01*
X159731462Y-69085001D01*
X159731461Y-69085000D01*
X159381000Y-69085000D01*
X159381000Y-69361999D01*
X158824459Y-69361999D01*
X158881000Y-69361998D01*
X158881000Y-69085000D01*
X158530539Y-69085000D01*
X158530537Y-69085001D01*
X158533220Y-69105376D01*
X158522454Y-69174411D01*
X158476073Y-69226667D01*
X158408804Y-69245551D01*
X158378189Y-69241335D01*
X158307893Y-69222500D01*
X158307892Y-69222500D01*
X158176108Y-69222500D01*
X158048812Y-69256608D01*
X157934686Y-69322500D01*
X157934683Y-69322502D01*
X157841502Y-69415683D01*
X157841500Y-69415686D01*
X157775608Y-69529812D01*
X157753627Y-69611849D01*
X157741500Y-69657108D01*
X157741500Y-69788892D01*
X157747695Y-69812011D01*
X157775608Y-69916187D01*
X157789662Y-69940528D01*
X157841500Y-70030314D01*
X157841502Y-70030316D01*
X157905181Y-70093995D01*
X157919884Y-70120922D01*
X157936477Y-70146741D01*
X157937368Y-70152941D01*
X157938666Y-70155318D01*
X157941500Y-70181676D01*
X157941500Y-70409500D01*
X157921815Y-70476539D01*
X157869011Y-70522294D01*
X157817500Y-70533500D01*
X156121247Y-70533500D01*
X156062770Y-70545131D01*
X156062769Y-70545132D01*
X155996447Y-70589447D01*
X155952132Y-70655769D01*
X155952131Y-70655770D01*
X155940500Y-70714247D01*
X155940500Y-70714252D01*
X155940500Y-71203748D01*
X155941540Y-71208978D01*
X155951651Y-71259810D01*
X155951651Y-71308190D01*
X155947429Y-71329417D01*
X155940500Y-71364252D01*
X155940500Y-71853748D01*
X155942762Y-71865118D01*
X155951651Y-71909810D01*
X155951651Y-71958190D01*
X155941047Y-72011500D01*
X155940500Y-72014252D01*
X155940500Y-72503748D01*
X155940946Y-72505990D01*
X155951651Y-72559810D01*
X155951651Y-72608190D01*
X155941147Y-72661000D01*
X155940500Y-72664252D01*
X155940500Y-73153748D01*
X155940671Y-73154606D01*
X155951651Y-73209810D01*
X155951651Y-73258190D01*
X155943627Y-73298533D01*
X155940500Y-73314252D01*
X155940500Y-73803748D01*
X155940517Y-73803833D01*
X155951651Y-73859810D01*
X155951651Y-73908190D01*
X155942542Y-73953985D01*
X155940500Y-73964252D01*
X155940500Y-74453748D01*
X155943917Y-74470924D01*
X155951651Y-74509810D01*
X155951651Y-74558190D01*
X155940500Y-74614252D01*
X155940500Y-75109048D01*
X155920815Y-75176087D01*
X155873279Y-75219285D01*
X155861448Y-75225378D01*
X155848011Y-75228979D01*
X155797272Y-75258273D01*
X155794708Y-75259753D01*
X155794695Y-75259760D01*
X155779489Y-75268539D01*
X155599541Y-75448487D01*
X155599535Y-75448495D01*
X155559982Y-75517004D01*
X155559979Y-75517009D01*
X155550749Y-75551458D01*
X155539500Y-75593438D01*
X150891500Y-75593438D01*
X150891500Y-75264252D01*
X150891500Y-75264249D01*
X150880349Y-75208192D01*
X150880349Y-75159808D01*
X150891500Y-75103750D01*
X150891500Y-74614249D01*
X150880349Y-74558192D01*
X150880349Y-74509808D01*
X150891500Y-74453750D01*
X150891500Y-73964249D01*
X150880349Y-73908192D01*
X150880349Y-73859808D01*
X150891500Y-73803750D01*
X150891500Y-73314249D01*
X150891499Y-73314247D01*
X150879868Y-73255770D01*
X150879867Y-73255769D01*
X150856423Y-73220682D01*
X150856421Y-73220681D01*
X150835552Y-73189448D01*
X150769231Y-73145133D01*
X150710748Y-73133500D01*
X148921252Y-73133500D01*
X148915161Y-73133500D01*
X148915161Y-73132895D01*
X148910084Y-73134000D01*
X148814000Y-73134000D01*
X148810493Y-73137506D01*
X148808671Y-73143711D01*
X148808333Y-73162623D01*
X148794835Y-73190831D01*
X148794315Y-73192603D01*
X148793099Y-73194460D01*
X148781875Y-73211256D01*
X148728260Y-73256058D01*
X148710871Y-73262134D01*
X148648013Y-73278977D01*
X148648008Y-73278979D01*
X148614141Y-73298533D01*
X148546241Y-73315006D01*
X148480214Y-73292154D01*
X148437024Y-73237233D01*
X148429437Y-73173264D01*
X148430000Y-73169400D01*
X148430000Y-73161000D01*
X148078000Y-73161000D01*
X148078000Y-73487999D01*
X148110668Y-73487999D01*
X148177707Y-73507684D01*
X148223462Y-73560488D01*
X148233406Y-73629646D01*
X148204381Y-73693202D01*
X148198349Y-73699680D01*
X146288848Y-75609181D01*
X146227525Y-75642666D01*
X146201167Y-75645500D01*
X145711801Y-75645500D01*
X145644762Y-75625815D01*
X145599007Y-75573011D01*
X145589063Y-75503853D01*
X145618088Y-75440297D01*
X145624120Y-75433819D01*
X146443690Y-74614249D01*
X147292460Y-73765479D01*
X147305143Y-73743511D01*
X147332021Y-73696957D01*
X147352500Y-73620530D01*
X147352500Y-73584234D01*
X147358280Y-73565972D01*
X147367520Y-73552233D01*
X147372185Y-73536349D01*
X147386615Y-73523845D01*
X147397275Y-73507997D01*
X147412478Y-73501434D01*
X147424989Y-73490594D01*
X147443890Y-73487876D01*
X147461424Y-73480308D01*
X147477758Y-73483006D01*
X147494147Y-73480650D01*
X147494379Y-73480684D01*
X147544588Y-73487999D01*
X147578000Y-73487998D01*
X147578000Y-73035000D01*
X147597685Y-72967961D01*
X147650489Y-72922206D01*
X147702000Y-72911000D01*
X147828000Y-72911000D01*
X147828000Y-72785000D01*
X147847685Y-72717961D01*
X147900489Y-72672206D01*
X147952000Y-72661000D01*
X148429999Y-72661000D01*
X148429999Y-72652596D01*
X148420030Y-72584172D01*
X148415479Y-72574863D01*
X148403718Y-72505990D01*
X148431060Y-72441692D01*
X148447638Y-72425021D01*
X148455743Y-72418287D01*
X148486621Y-72400460D01*
X148532869Y-72354211D01*
X148537260Y-72350564D01*
X148564301Y-72338886D01*
X148590142Y-72324777D01*
X148596006Y-72325196D01*
X148601405Y-72322865D01*
X148630462Y-72327660D01*
X148659834Y-72329761D01*
X148664540Y-72333284D01*
X148670342Y-72334242D01*
X148692193Y-72353985D01*
X148715767Y-72371633D01*
X148717821Y-72377141D01*
X148722185Y-72381084D01*
X148729893Y-72409507D01*
X148740184Y-72437097D01*
X148740500Y-72445943D01*
X148740500Y-72503750D01*
X148752131Y-72562228D01*
X148752132Y-72562230D01*
X148752133Y-72562231D01*
X148793102Y-72623544D01*
X148811136Y-72681136D01*
X148814000Y-72684000D01*
X148910084Y-72684000D01*
X148920262Y-72684500D01*
X148921252Y-72684500D01*
X150711738Y-72684500D01*
X150721916Y-72684000D01*
X150818000Y-72684000D01*
X150821506Y-72680493D01*
X150837685Y-72625396D01*
X150838899Y-72623543D01*
X150879867Y-72562231D01*
X150879868Y-72562229D01*
X150891500Y-72503750D01*
X150891500Y-72014249D01*
X150880349Y-71958192D01*
X150880349Y-71909808D01*
X150891500Y-71853750D01*
X150891500Y-71364249D01*
X150880349Y-71308192D01*
X150880349Y-71259808D01*
X150891500Y-71203750D01*
X150891500Y-70714249D01*
X150891499Y-70714247D01*
X150879868Y-70655770D01*
X150879867Y-70655769D01*
X150835552Y-70589447D01*
X150769230Y-70545132D01*
X150769229Y-70545131D01*
X150710752Y-70533500D01*
X150710748Y-70533500D01*
X148921252Y-70533500D01*
X148921247Y-70533500D01*
X148862770Y-70545131D01*
X148862769Y-70545132D01*
X148796447Y-70589447D01*
X148786234Y-70604733D01*
X148732620Y-70649537D01*
X148709192Y-70656039D01*
X148709288Y-70656397D01*
X148701439Y-70658500D01*
X148701438Y-70658500D01*
X148674761Y-70665647D01*
X148625010Y-70678978D01*
X148556489Y-70718540D01*
X148496656Y-70778373D01*
X148435332Y-70811857D01*
X148365641Y-70806872D01*
X148354568Y-70802117D01*
X148337560Y-70793812D01*
X148331220Y-70787472D01*
X148211126Y-70726281D01*
X148193556Y-70723498D01*
X148176875Y-70715353D01*
X148164224Y-70703806D01*
X148148745Y-70696467D01*
X148138953Y-70680739D01*
X148125270Y-70668250D01*
X148120869Y-70651694D01*
X148111817Y-70637154D01*
X148111507Y-70636020D01*
X148108021Y-70623010D01*
X148102720Y-70613829D01*
X148068460Y-70554489D01*
X147602818Y-70088847D01*
X147569334Y-70027525D01*
X147566500Y-70001167D01*
X147566500Y-69911110D01*
X147566500Y-69911108D01*
X147532392Y-69783814D01*
X147466500Y-69669686D01*
X147373314Y-69576500D01*
X147292452Y-69529814D01*
X147259187Y-69510608D01*
X147176677Y-69488500D01*
X147131892Y-69476500D01*
X147041833Y-69476500D01*
X146974794Y-69456815D01*
X146954152Y-69440181D01*
X146615512Y-69101541D01*
X146615504Y-69101535D01*
X146585134Y-69084001D01*
X160181537Y-69084001D01*
X160186268Y-69119937D01*
X160186269Y-69119941D01*
X160235006Y-69224454D01*
X160316546Y-69305994D01*
X160421062Y-69354731D01*
X160421061Y-69354731D01*
X160468667Y-69360998D01*
X160468685Y-69360999D01*
X161032000Y-69360999D01*
X161095315Y-69360999D01*
X161142941Y-69354730D01*
X161247454Y-69305993D01*
X161328993Y-69224454D01*
X161377730Y-69119941D01*
X161377731Y-69119937D01*
X161382462Y-69084001D01*
X161382461Y-69084000D01*
X161032000Y-69084000D01*
X161032000Y-69360999D01*
X160468685Y-69360999D01*
X160531999Y-69360998D01*
X160532000Y-69360998D01*
X160532000Y-69084000D01*
X160181539Y-69084000D01*
X160181537Y-69084001D01*
X146585134Y-69084001D01*
X146546995Y-69061982D01*
X146546991Y-69061980D01*
X146546989Y-69061979D01*
X146546987Y-69061978D01*
X146546984Y-69061977D01*
X146533977Y-69058492D01*
X146474317Y-69022127D01*
X146447915Y-68967774D01*
X146446736Y-68968158D01*
X146443975Y-68959663D01*
X146443789Y-68959279D01*
X146443726Y-68958895D01*
X146443720Y-68958876D01*
X146443719Y-68958874D01*
X146382528Y-68838780D01*
X146382524Y-68838776D01*
X146382523Y-68838774D01*
X146287225Y-68743476D01*
X146287221Y-68743473D01*
X146287220Y-68743472D01*
X146167126Y-68682281D01*
X146167124Y-68682280D01*
X146167121Y-68682279D01*
X146067493Y-68666500D01*
X146067488Y-68666500D01*
X145550512Y-68666500D01*
X145550507Y-68666500D01*
X145450878Y-68682279D01*
X145330778Y-68743473D01*
X145330774Y-68743476D01*
X145235476Y-68838774D01*
X145235473Y-68838778D01*
X145174279Y-68958878D01*
X145158500Y-69058506D01*
X145158500Y-69625493D01*
X145174279Y-69725121D01*
X145174280Y-69725124D01*
X145174281Y-69725126D01*
X145235472Y-69845220D01*
X145235473Y-69845221D01*
X145235476Y-69845225D01*
X145330774Y-69940523D01*
X145330778Y-69940526D01*
X145330780Y-69940528D01*
X145450874Y-70001719D01*
X145450876Y-70001719D01*
X145450878Y-70001720D01*
X145550507Y-70017500D01*
X145550512Y-70017500D01*
X146067493Y-70017500D01*
X146167121Y-70001720D01*
X146167121Y-70001719D01*
X146167126Y-70001719D01*
X146287220Y-69940528D01*
X146353820Y-69873927D01*
X146373256Y-69863314D01*
X146389989Y-69848816D01*
X146403318Y-69846899D01*
X146415141Y-69840444D01*
X146437228Y-69842023D01*
X146459147Y-69838872D01*
X146471398Y-69844467D01*
X146484833Y-69845428D01*
X146502559Y-69858697D01*
X146522703Y-69867897D01*
X146529984Y-69879227D01*
X146540767Y-69887299D01*
X146548505Y-69908047D01*
X146560477Y-69926675D01*
X146563628Y-69948591D01*
X146565184Y-69952763D01*
X146565500Y-69961610D01*
X146565500Y-70001166D01*
X146545815Y-70068205D01*
X146529181Y-70088847D01*
X145521504Y-71096523D01*
X145460181Y-71130008D01*
X145390489Y-71125024D01*
X145378435Y-71116000D01*
X144522000Y-71116000D01*
X144522000Y-71292999D01*
X145025668Y-71292999D01*
X145046913Y-71299237D01*
X145069002Y-71300817D01*
X145079785Y-71308889D01*
X145092707Y-71312684D01*
X145107206Y-71329417D01*
X145124935Y-71342689D01*
X145129642Y-71355309D01*
X145138462Y-71365488D01*
X145141613Y-71387405D01*
X145149352Y-71408153D01*
X145146489Y-71421313D01*
X145148406Y-71434646D01*
X145139206Y-71454789D01*
X145134500Y-71476426D01*
X145121231Y-71494151D01*
X145119381Y-71498202D01*
X145113349Y-71504680D01*
X145018848Y-71599181D01*
X144957525Y-71632666D01*
X144931167Y-71635500D01*
X143413739Y-71635500D01*
X143345608Y-71645426D01*
X143240514Y-71696803D01*
X143157803Y-71779514D01*
X143106426Y-71884608D01*
X143096500Y-71952739D01*
X143096500Y-72319260D01*
X143106426Y-72387391D01*
X143157803Y-72492485D01*
X143240514Y-72575196D01*
X143240515Y-72575196D01*
X143240517Y-72575198D01*
X143345607Y-72626573D01*
X143359190Y-72628552D01*
X143413739Y-72636500D01*
X143413740Y-72636500D01*
X145130261Y-72636500D01*
X145152971Y-72633191D01*
X145198393Y-72626573D01*
X145303483Y-72575198D01*
X145386198Y-72492483D01*
X145437573Y-72387393D01*
X145447500Y-72319260D01*
X145447500Y-72071832D01*
X145467185Y-72004793D01*
X145483814Y-71984156D01*
X146954151Y-70513818D01*
X146981078Y-70499115D01*
X147006897Y-70482523D01*
X147013097Y-70481631D01*
X147015474Y-70480334D01*
X147041832Y-70477500D01*
X147090167Y-70477500D01*
X147157206Y-70497185D01*
X147177848Y-70513819D01*
X147300459Y-70636430D01*
X147333944Y-70697753D01*
X147328960Y-70767445D01*
X147300459Y-70811792D01*
X147229476Y-70882774D01*
X147229473Y-70882778D01*
X147168279Y-71002878D01*
X147152500Y-71102506D01*
X147152500Y-71619493D01*
X147168279Y-71719121D01*
X147168280Y-71719124D01*
X147168281Y-71719126D01*
X147195399Y-71772349D01*
X147208295Y-71841015D01*
X147182019Y-71905756D01*
X147172596Y-71916322D01*
X147093200Y-71995719D01*
X146867489Y-72221430D01*
X146811541Y-72277377D01*
X146811535Y-72277385D01*
X146771982Y-72345894D01*
X146771979Y-72345899D01*
X146760861Y-72387393D01*
X146752484Y-72418658D01*
X146751500Y-72422329D01*
X146751500Y-73405135D01*
X146731815Y-73472174D01*
X146715181Y-73492816D01*
X145656304Y-74551692D01*
X145594981Y-74585177D01*
X145525289Y-74580193D01*
X145469356Y-74538321D01*
X145445919Y-74481891D01*
X145437573Y-74424607D01*
X145386198Y-74319517D01*
X145386196Y-74319515D01*
X145386196Y-74319514D01*
X145303485Y-74236803D01*
X145198391Y-74185426D01*
X145130261Y-74175500D01*
X145130260Y-74175500D01*
X143413740Y-74175500D01*
X143413739Y-74175500D01*
X143345608Y-74185426D01*
X143240514Y-74236803D01*
X143157803Y-74319514D01*
X143123644Y-74389389D01*
X143106428Y-74424606D01*
X143102198Y-74433258D01*
X143100357Y-74432358D01*
X143077104Y-74470924D01*
X141269849Y-76278181D01*
X141208526Y-76311666D01*
X141182168Y-76314500D01*
X140613886Y-76314500D01*
X140546847Y-76294815D01*
X140501092Y-76242011D01*
X140491148Y-76172853D01*
X140491182Y-76172621D01*
X140493097Y-76159482D01*
X140497500Y-76129260D01*
X140497500Y-75762740D01*
X140487573Y-75694607D01*
X140487572Y-75694605D01*
X140486184Y-75685076D01*
X140489445Y-75684600D01*
X140488682Y-75631592D01*
X140525606Y-75572276D01*
X140546154Y-75557421D01*
X140549000Y-75555778D01*
X140556479Y-75551460D01*
X140612428Y-75495511D01*
X142365120Y-73742819D01*
X142426443Y-73709334D01*
X142452801Y-73706500D01*
X143054003Y-73706500D01*
X143121042Y-73726185D01*
X143154923Y-73758450D01*
X143157805Y-73762487D01*
X143240514Y-73845196D01*
X143240515Y-73845196D01*
X143240517Y-73845198D01*
X143345607Y-73896573D01*
X143379673Y-73901536D01*
X143413739Y-73906500D01*
X143413740Y-73906500D01*
X145130261Y-73906500D01*
X145152971Y-73903191D01*
X145198393Y-73896573D01*
X145303483Y-73845198D01*
X145386198Y-73762483D01*
X145437573Y-73657393D01*
X145447500Y-73589260D01*
X145447500Y-73222740D01*
X145437573Y-73154607D01*
X145386198Y-73049517D01*
X145386196Y-73049515D01*
X145386196Y-73049514D01*
X145303485Y-72966803D01*
X145198391Y-72915426D01*
X145130261Y-72905500D01*
X145130260Y-72905500D01*
X143413740Y-72905500D01*
X143413739Y-72905500D01*
X143345608Y-72915426D01*
X143240514Y-72966803D01*
X143157805Y-73049512D01*
X143154923Y-73053550D01*
X143099949Y-73096674D01*
X143054003Y-73105500D01*
X142237406Y-73105500D01*
X142206835Y-73113691D01*
X142160976Y-73125979D01*
X142160975Y-73125980D01*
X142111395Y-73154606D01*
X142111394Y-73154607D01*
X142092458Y-73165539D01*
X142092455Y-73165541D01*
X140706304Y-74551692D01*
X140644981Y-74585177D01*
X140575289Y-74580193D01*
X140519356Y-74538321D01*
X140495919Y-74481891D01*
X140487573Y-74424607D01*
X140436198Y-74319517D01*
X140436196Y-74319515D01*
X140436196Y-74319514D01*
X140353485Y-74236803D01*
X140248391Y-74185426D01*
X140180261Y-74175500D01*
X140180260Y-74175500D01*
X138463740Y-74175500D01*
X138463739Y-74175500D01*
X138395608Y-74185426D01*
X138341829Y-74211717D01*
X138292359Y-74235901D01*
X138237901Y-74248500D01*
X137925068Y-74248500D01*
X137858029Y-74228815D01*
X137814583Y-74180795D01*
X137758528Y-74070780D01*
X137758524Y-74070776D01*
X137758523Y-74070774D01*
X137663225Y-73975476D01*
X137663221Y-73975473D01*
X137663220Y-73975472D01*
X137621046Y-73953983D01*
X137570252Y-73906011D01*
X137553457Y-73838190D01*
X137575994Y-73772055D01*
X137630709Y-73728603D01*
X137677343Y-73719500D01*
X138113456Y-73719500D01*
X138180495Y-73739185D01*
X138201137Y-73755819D01*
X138290514Y-73845196D01*
X138290515Y-73845196D01*
X138290517Y-73845198D01*
X138395607Y-73896573D01*
X138429673Y-73901536D01*
X138463739Y-73906500D01*
X138463740Y-73906500D01*
X140180261Y-73906500D01*
X140202971Y-73903191D01*
X140248393Y-73896573D01*
X140353483Y-73845198D01*
X140436198Y-73762483D01*
X140487573Y-73657393D01*
X140497500Y-73589260D01*
X140497500Y-73222740D01*
X140487573Y-73154607D01*
X140436198Y-73049517D01*
X140436196Y-73049515D01*
X140436196Y-73049514D01*
X140353485Y-72966803D01*
X140248391Y-72915426D01*
X140180261Y-72905500D01*
X140180260Y-72905500D01*
X138463740Y-72905500D01*
X138463739Y-72905500D01*
X138395608Y-72915426D01*
X138290514Y-72966803D01*
X138207802Y-73049515D01*
X138201832Y-73057878D01*
X138200678Y-73057054D01*
X138160951Y-73100540D01*
X138096674Y-73118500D01*
X136435500Y-73118500D01*
X136368461Y-73098815D01*
X136322706Y-73046011D01*
X136311500Y-72994500D01*
X136311500Y-72652506D01*
X136295720Y-72552878D01*
X136295719Y-72552876D01*
X136295719Y-72552874D01*
X136234528Y-72432780D01*
X136234526Y-72432778D01*
X136234523Y-72432774D01*
X136139225Y-72337476D01*
X136139221Y-72337473D01*
X136139220Y-72337472D01*
X136019126Y-72276281D01*
X136019124Y-72276280D01*
X136019121Y-72276279D01*
X135919493Y-72260500D01*
X135919488Y-72260500D01*
X135352512Y-72260500D01*
X135352507Y-72260500D01*
X135252878Y-72276279D01*
X135132778Y-72337473D01*
X135132774Y-72337476D01*
X135037476Y-72432774D01*
X135037473Y-72432778D01*
X134976279Y-72552878D01*
X134960500Y-72652506D01*
X134960500Y-73169493D01*
X134976279Y-73269121D01*
X134976280Y-73269124D01*
X134976281Y-73269126D01*
X135001459Y-73318540D01*
X135037473Y-73389221D01*
X135037476Y-73389225D01*
X135132774Y-73484523D01*
X135132778Y-73484526D01*
X135132780Y-73484528D01*
X135252874Y-73545719D01*
X135252876Y-73545719D01*
X135252878Y-73545720D01*
X135352507Y-73561500D01*
X135352512Y-73561500D01*
X135810167Y-73561500D01*
X135877206Y-73581185D01*
X135897848Y-73597819D01*
X135903540Y-73603511D01*
X135959489Y-73659460D01*
X135959491Y-73659461D01*
X135959495Y-73659464D01*
X136017932Y-73693202D01*
X136028011Y-73699021D01*
X136104438Y-73719500D01*
X136183562Y-73719500D01*
X136642657Y-73719500D01*
X136709696Y-73739185D01*
X136755451Y-73791989D01*
X136765395Y-73861147D01*
X136736370Y-73924703D01*
X136698954Y-73953982D01*
X136672426Y-73967500D01*
X136656778Y-73975473D01*
X136656774Y-73975476D01*
X136561476Y-74070774D01*
X136561473Y-74070778D01*
X136500279Y-74190878D01*
X136484500Y-74290506D01*
X136484500Y-74807493D01*
X136493941Y-74867102D01*
X136484986Y-74936396D01*
X136439990Y-74989848D01*
X136373239Y-75010487D01*
X136371468Y-75010500D01*
X129871676Y-75010500D01*
X129804637Y-74990815D01*
X129783995Y-74974181D01*
X129720316Y-74910502D01*
X129720314Y-74910500D01*
X129631564Y-74859260D01*
X129606187Y-74844608D01*
X129542539Y-74827554D01*
X129478892Y-74810500D01*
X129347108Y-74810500D01*
X129219812Y-74844608D01*
X129105686Y-74910500D01*
X129105683Y-74910502D01*
X129012502Y-75003683D01*
X129012500Y-75003686D01*
X128946608Y-75117812D01*
X128922309Y-75208500D01*
X128912500Y-75245108D01*
X128912500Y-75376892D01*
X128941716Y-75485928D01*
X128940053Y-75555778D01*
X128900890Y-75613640D01*
X128836662Y-75641144D01*
X128767759Y-75629557D01*
X128734260Y-75605702D01*
X128200419Y-75071861D01*
X128166934Y-75010538D01*
X128164100Y-74984180D01*
X128164100Y-71102506D01*
X134960500Y-71102506D01*
X134960500Y-71619493D01*
X134976279Y-71719121D01*
X134976280Y-71719124D01*
X134976281Y-71719126D01*
X135037472Y-71839220D01*
X135037473Y-71839221D01*
X135037476Y-71839225D01*
X135132774Y-71934523D01*
X135132778Y-71934526D01*
X135132780Y-71934528D01*
X135252874Y-71995719D01*
X135252876Y-71995719D01*
X135252878Y-71995720D01*
X135352507Y-72011500D01*
X135352512Y-72011500D01*
X135919493Y-72011500D01*
X136019121Y-71995720D01*
X136019121Y-71995719D01*
X136019126Y-71995719D01*
X136139220Y-71934528D01*
X136234528Y-71839220D01*
X136250016Y-71808822D01*
X136297989Y-71758028D01*
X136365810Y-71741232D01*
X136431945Y-71763769D01*
X136475397Y-71818484D01*
X136484500Y-71865118D01*
X136484500Y-72153493D01*
X136500279Y-72253121D01*
X136500280Y-72253124D01*
X136500281Y-72253126D01*
X136561137Y-72372562D01*
X136561473Y-72373221D01*
X136561476Y-72373225D01*
X136656774Y-72468523D01*
X136656778Y-72468526D01*
X136656780Y-72468528D01*
X136776874Y-72529719D01*
X136776876Y-72529719D01*
X136776878Y-72529720D01*
X136876507Y-72545500D01*
X136876512Y-72545500D01*
X137443493Y-72545500D01*
X137543121Y-72529720D01*
X137543121Y-72529719D01*
X137543126Y-72529719D01*
X137663220Y-72468528D01*
X137663224Y-72468523D01*
X137671119Y-72462789D01*
X137672874Y-72465204D01*
X137720253Y-72439334D01*
X137746611Y-72436500D01*
X138104003Y-72436500D01*
X138171042Y-72456185D01*
X138204923Y-72488450D01*
X138207805Y-72492487D01*
X138290514Y-72575196D01*
X138290515Y-72575196D01*
X138290517Y-72575198D01*
X138395607Y-72626573D01*
X138409190Y-72628552D01*
X138463739Y-72636500D01*
X138463740Y-72636500D01*
X140180261Y-72636500D01*
X140202971Y-72633191D01*
X140248393Y-72626573D01*
X140353483Y-72575198D01*
X140436198Y-72492483D01*
X140487573Y-72387393D01*
X140497500Y-72319260D01*
X140497500Y-71952740D01*
X140487573Y-71884607D01*
X140436198Y-71779517D01*
X140436196Y-71779515D01*
X140436196Y-71779514D01*
X140353485Y-71696803D01*
X140248391Y-71645426D01*
X140180261Y-71635500D01*
X140180260Y-71635500D01*
X139181474Y-71635500D01*
X139163805Y-71630311D01*
X139145390Y-71630134D01*
X139130974Y-71620671D01*
X139114435Y-71615815D01*
X139102377Y-71601900D01*
X139086980Y-71591793D01*
X139079968Y-71576038D01*
X139068680Y-71563011D01*
X139066059Y-71544785D01*
X139058571Y-71527959D01*
X139061189Y-71510917D01*
X139058736Y-71493853D01*
X139066386Y-71477101D01*
X139069183Y-71458900D01*
X139080598Y-71445979D01*
X139087761Y-71430297D01*
X139103252Y-71420341D01*
X139115446Y-71406541D01*
X139144391Y-71393902D01*
X139146539Y-71392523D01*
X139147691Y-71392191D01*
X139148536Y-71391951D01*
X139207989Y-71376021D01*
X139211060Y-71374247D01*
X139221856Y-71371191D01*
X139231582Y-71371284D01*
X139255639Y-71366500D01*
X140180261Y-71366500D01*
X140202971Y-71363191D01*
X140248393Y-71356573D01*
X140353483Y-71305198D01*
X140436198Y-71222483D01*
X140487573Y-71117393D01*
X140487776Y-71116000D01*
X143188354Y-71116000D01*
X143214516Y-71175253D01*
X143287745Y-71248482D01*
X143382480Y-71290312D01*
X143405642Y-71292999D01*
X144021999Y-71292999D01*
X144022000Y-71292998D01*
X144022000Y-71116000D01*
X143188354Y-71116000D01*
X140487776Y-71116000D01*
X140497500Y-71049260D01*
X140497500Y-70682740D01*
X140487776Y-70616000D01*
X143188353Y-70616000D01*
X144022000Y-70616000D01*
X144522000Y-70616000D01*
X145355646Y-70616000D01*
X145329483Y-70556746D01*
X145256254Y-70483517D01*
X145161519Y-70441687D01*
X145138360Y-70439000D01*
X144522000Y-70439000D01*
X144522000Y-70616000D01*
X144022000Y-70616000D01*
X144022000Y-70439000D01*
X143405651Y-70439000D01*
X143405642Y-70439001D01*
X143382481Y-70441687D01*
X143382477Y-70441688D01*
X143287746Y-70483516D01*
X143214516Y-70556746D01*
X143188353Y-70616000D01*
X140487776Y-70616000D01*
X140487573Y-70614607D01*
X140436198Y-70509517D01*
X140436196Y-70509515D01*
X140436196Y-70509514D01*
X140353485Y-70426803D01*
X140248391Y-70375426D01*
X140180261Y-70365500D01*
X140180260Y-70365500D01*
X138463740Y-70365500D01*
X138463739Y-70365500D01*
X138395608Y-70375426D01*
X138290514Y-70426803D01*
X138207803Y-70509514D01*
X138156426Y-70614608D01*
X138145853Y-70687180D01*
X138145436Y-70687119D01*
X138145728Y-70689147D01*
X138132961Y-70717101D01*
X138122197Y-70745891D01*
X138118579Y-70748594D01*
X138116703Y-70752703D01*
X138090846Y-70769319D01*
X138066229Y-70787717D01*
X138060659Y-70788719D01*
X138057925Y-70790477D01*
X138022990Y-70795500D01*
X137950274Y-70795500D01*
X137883235Y-70775815D01*
X137837480Y-70723011D01*
X137827536Y-70653853D01*
X137827801Y-70652102D01*
X137835500Y-70603493D01*
X137835500Y-70086506D01*
X137819720Y-69986878D01*
X137819719Y-69986876D01*
X137819719Y-69986874D01*
X137758528Y-69866780D01*
X137758526Y-69866778D01*
X137758523Y-69866774D01*
X137663225Y-69771476D01*
X137663222Y-69771474D01*
X137663220Y-69771472D01*
X137543126Y-69710281D01*
X137543124Y-69710280D01*
X137534431Y-69705851D01*
X137535416Y-69703916D01*
X137525771Y-69697318D01*
X137503297Y-69687055D01*
X137497438Y-69677939D01*
X137488494Y-69671821D01*
X137478879Y-69649060D01*
X137465523Y-69628277D01*
X137465110Y-69625403D01*
X143682001Y-69625403D01*
X143691969Y-69693827D01*
X143743565Y-69799369D01*
X143826630Y-69882434D01*
X143932174Y-69934031D01*
X144000589Y-69943999D01*
X144000599Y-69944000D01*
X144008999Y-69943999D01*
X144509000Y-69943999D01*
X144517404Y-69943999D01*
X144585827Y-69934030D01*
X144691369Y-69882434D01*
X144774434Y-69799369D01*
X144826030Y-69693827D01*
X144836000Y-69625399D01*
X144836000Y-69592000D01*
X144509000Y-69592000D01*
X144509000Y-69943999D01*
X144008999Y-69943999D01*
X144009000Y-69943998D01*
X144009000Y-69592000D01*
X143682001Y-69592000D01*
X143682001Y-69625403D01*
X137465110Y-69625403D01*
X137463161Y-69611849D01*
X137461306Y-69607458D01*
X137460500Y-69593342D01*
X137460500Y-69546676D01*
X137480185Y-69479637D01*
X137496819Y-69458995D01*
X137502857Y-69452957D01*
X137515633Y-69440181D01*
X137560500Y-69395314D01*
X137626392Y-69281186D01*
X137660500Y-69153892D01*
X137660500Y-69058600D01*
X143682000Y-69058600D01*
X143682000Y-69092000D01*
X144009000Y-69092000D01*
X144509000Y-69092000D01*
X144835999Y-69092000D01*
X144835999Y-69058596D01*
X144826030Y-68990172D01*
X144774434Y-68884630D01*
X144691369Y-68801565D01*
X144585827Y-68749969D01*
X144517400Y-68740000D01*
X144509000Y-68740000D01*
X144509000Y-69092000D01*
X144009000Y-69092000D01*
X144009000Y-68740000D01*
X144008999Y-68740000D01*
X144000596Y-68740001D01*
X144000592Y-68740001D01*
X143932173Y-68749969D01*
X143826630Y-68801565D01*
X143743565Y-68884630D01*
X143691969Y-68990172D01*
X143682000Y-69058600D01*
X137660500Y-69058600D01*
X137660500Y-69022108D01*
X137626392Y-68894814D01*
X137560500Y-68780686D01*
X137467314Y-68687500D01*
X137410250Y-68654554D01*
X137353187Y-68621608D01*
X137289539Y-68604554D01*
X137225892Y-68587500D01*
X137094108Y-68587500D01*
X136966812Y-68621608D01*
X136852686Y-68687500D01*
X136852683Y-68687502D01*
X136759502Y-68780683D01*
X136759500Y-68780686D01*
X136693608Y-68894812D01*
X136659500Y-69022108D01*
X136659500Y-69153891D01*
X136693608Y-69281187D01*
X136717461Y-69322500D01*
X136759500Y-69395314D01*
X136759502Y-69395316D01*
X136823181Y-69458995D01*
X136837884Y-69485922D01*
X136854477Y-69511741D01*
X136855368Y-69517941D01*
X136856666Y-69520318D01*
X136859500Y-69546676D01*
X136859500Y-69593342D01*
X136839815Y-69660381D01*
X136787011Y-69706136D01*
X136778518Y-69709443D01*
X136747749Y-69725121D01*
X136656780Y-69771472D01*
X136656779Y-69771473D01*
X136656774Y-69771476D01*
X136561476Y-69866774D01*
X136561473Y-69866778D01*
X136561472Y-69866780D01*
X136523896Y-69940528D01*
X136500279Y-69986878D01*
X136484500Y-70086506D01*
X136484500Y-70603493D01*
X136492199Y-70652102D01*
X136489803Y-70670642D01*
X136492464Y-70689147D01*
X136485418Y-70704574D01*
X136483245Y-70721395D01*
X136471205Y-70735696D01*
X136463439Y-70752703D01*
X136449169Y-70761873D01*
X136438248Y-70774847D01*
X136420389Y-70780369D01*
X136404661Y-70790477D01*
X136372957Y-70795035D01*
X136371497Y-70795487D01*
X136369726Y-70795500D01*
X136184745Y-70795500D01*
X136128452Y-70781985D01*
X136019126Y-70726281D01*
X136019124Y-70726280D01*
X136019121Y-70726279D01*
X135919493Y-70710500D01*
X135919488Y-70710500D01*
X135352512Y-70710500D01*
X135352507Y-70710500D01*
X135252878Y-70726279D01*
X135132778Y-70787473D01*
X135132774Y-70787476D01*
X135037476Y-70882774D01*
X135037473Y-70882778D01*
X134976279Y-71002878D01*
X134960500Y-71102506D01*
X128164100Y-71102506D01*
X128164100Y-68584998D01*
X158530537Y-68584998D01*
X158530539Y-68585000D01*
X158881000Y-68585000D01*
X159381000Y-68585000D01*
X159731461Y-68585000D01*
X159731462Y-68584998D01*
X159731330Y-68583998D01*
X160181537Y-68583998D01*
X160181539Y-68584000D01*
X160532000Y-68584000D01*
X161032000Y-68584000D01*
X161382461Y-68584000D01*
X161382462Y-68583998D01*
X161377731Y-68548062D01*
X161377730Y-68548058D01*
X161328993Y-68443545D01*
X161247453Y-68362005D01*
X161142937Y-68313268D01*
X161142938Y-68313268D01*
X161095323Y-68307000D01*
X161032000Y-68307000D01*
X161032000Y-68584000D01*
X160532000Y-68584000D01*
X160532000Y-68307000D01*
X160531999Y-68306999D01*
X160468685Y-68307000D01*
X160421058Y-68313270D01*
X160316545Y-68362006D01*
X160235006Y-68443545D01*
X160186269Y-68548058D01*
X160186268Y-68548062D01*
X160181537Y-68583998D01*
X159731330Y-68583998D01*
X159726731Y-68549063D01*
X159726730Y-68549058D01*
X159677993Y-68444545D01*
X159596453Y-68363005D01*
X159491937Y-68314268D01*
X159491938Y-68314268D01*
X159444323Y-68308000D01*
X159381000Y-68308000D01*
X159381000Y-68585000D01*
X158881000Y-68585000D01*
X158881000Y-68308000D01*
X158880999Y-68307999D01*
X158817685Y-68308000D01*
X158770058Y-68314270D01*
X158665545Y-68363006D01*
X158584006Y-68444545D01*
X158535269Y-68549058D01*
X158535268Y-68549062D01*
X158530537Y-68584998D01*
X128164100Y-68584998D01*
X128164100Y-65149032D01*
X128183785Y-65081993D01*
X128200415Y-65061355D01*
X128444496Y-64817273D01*
X128505817Y-64783790D01*
X128575508Y-64788774D01*
X128579607Y-64790386D01*
X128700180Y-64840330D01*
X128844652Y-64869067D01*
X128903130Y-64880699D01*
X128903134Y-64880700D01*
X128903135Y-64880700D01*
X129110066Y-64880700D01*
X129110067Y-64880699D01*
X129313020Y-64840330D01*
X129504198Y-64761141D01*
X129676255Y-64646177D01*
X129822577Y-64499855D01*
X129937541Y-64327798D01*
X130016730Y-64136620D01*
X130057100Y-63933665D01*
X130057100Y-63726735D01*
X130057099Y-63726730D01*
X130496100Y-63726730D01*
X130496100Y-63933669D01*
X130536468Y-64136612D01*
X130536470Y-64136620D01*
X130615658Y-64327796D01*
X130730624Y-64499857D01*
X130876942Y-64646175D01*
X130876945Y-64646177D01*
X131049002Y-64761141D01*
X131240180Y-64840330D01*
X131384652Y-64869067D01*
X131443130Y-64880699D01*
X131443134Y-64880700D01*
X131443135Y-64880700D01*
X131650066Y-64880700D01*
X131650067Y-64880699D01*
X131853020Y-64840330D01*
X132044198Y-64761141D01*
X132216255Y-64646177D01*
X132362577Y-64499855D01*
X132477541Y-64327798D01*
X132556730Y-64136620D01*
X132597100Y-63933665D01*
X132597100Y-63726735D01*
X132597099Y-63726730D01*
X133036100Y-63726730D01*
X133036100Y-63933669D01*
X133076468Y-64136612D01*
X133076470Y-64136620D01*
X133155658Y-64327796D01*
X133270624Y-64499857D01*
X133416942Y-64646175D01*
X133416945Y-64646177D01*
X133589002Y-64761141D01*
X133780180Y-64840330D01*
X133924652Y-64869067D01*
X133983130Y-64880699D01*
X133983134Y-64880700D01*
X133983135Y-64880700D01*
X134190066Y-64880700D01*
X134190067Y-64880699D01*
X134393020Y-64840330D01*
X134584198Y-64761141D01*
X134756255Y-64646177D01*
X134902577Y-64499855D01*
X135017541Y-64327798D01*
X135096730Y-64136620D01*
X135137100Y-63933665D01*
X135137100Y-63726735D01*
X135137099Y-63726730D01*
X135576100Y-63726730D01*
X135576100Y-63933669D01*
X135616468Y-64136612D01*
X135616470Y-64136620D01*
X135695658Y-64327796D01*
X135810624Y-64499857D01*
X135956942Y-64646175D01*
X135956945Y-64646177D01*
X136129002Y-64761141D01*
X136320180Y-64840330D01*
X136464652Y-64869067D01*
X136523130Y-64880699D01*
X136523134Y-64880700D01*
X136523135Y-64880700D01*
X136730066Y-64880700D01*
X136730067Y-64880699D01*
X136933020Y-64840330D01*
X137124198Y-64761141D01*
X137296255Y-64646177D01*
X137442577Y-64499855D01*
X137557541Y-64327798D01*
X137636730Y-64136620D01*
X137677100Y-63933665D01*
X137677100Y-63726735D01*
X137677099Y-63726730D01*
X138116100Y-63726730D01*
X138116100Y-63933669D01*
X138156468Y-64136612D01*
X138156470Y-64136620D01*
X138235658Y-64327796D01*
X138350624Y-64499857D01*
X138496942Y-64646175D01*
X138496945Y-64646177D01*
X138669002Y-64761141D01*
X138860180Y-64840330D01*
X139004652Y-64869067D01*
X139063130Y-64880699D01*
X139063134Y-64880700D01*
X139063135Y-64880700D01*
X139270066Y-64880700D01*
X139270067Y-64880699D01*
X139473020Y-64840330D01*
X139664198Y-64761141D01*
X139836255Y-64646177D01*
X139982577Y-64499855D01*
X140097541Y-64327798D01*
X140176730Y-64136620D01*
X140217100Y-63933665D01*
X140217100Y-63726735D01*
X140217099Y-63726730D01*
X140656100Y-63726730D01*
X140656100Y-63933669D01*
X140696468Y-64136612D01*
X140696470Y-64136620D01*
X140775658Y-64327796D01*
X140890624Y-64499857D01*
X141036942Y-64646175D01*
X141036945Y-64646177D01*
X141209002Y-64761141D01*
X141400180Y-64840330D01*
X141544652Y-64869067D01*
X141603130Y-64880699D01*
X141603134Y-64880700D01*
X141603135Y-64880700D01*
X141810066Y-64880700D01*
X141810067Y-64880699D01*
X142013020Y-64840330D01*
X142204198Y-64761141D01*
X142376255Y-64646177D01*
X142522577Y-64499855D01*
X142637541Y-64327798D01*
X142716730Y-64136620D01*
X142757100Y-63933665D01*
X142757100Y-63726735D01*
X142757099Y-63726730D01*
X143196100Y-63726730D01*
X143196100Y-63933669D01*
X143236468Y-64136612D01*
X143236470Y-64136620D01*
X143315658Y-64327796D01*
X143430624Y-64499857D01*
X143576942Y-64646175D01*
X143576945Y-64646177D01*
X143749002Y-64761141D01*
X143940180Y-64840330D01*
X144084652Y-64869067D01*
X144143130Y-64880699D01*
X144143134Y-64880700D01*
X144143135Y-64880700D01*
X144350066Y-64880700D01*
X144350067Y-64880699D01*
X144553020Y-64840330D01*
X144744198Y-64761141D01*
X144916255Y-64646177D01*
X145062577Y-64499855D01*
X145177541Y-64327798D01*
X145256730Y-64136620D01*
X145297100Y-63933665D01*
X145297100Y-63726735D01*
X145297099Y-63726730D01*
X145736100Y-63726730D01*
X145736100Y-63933669D01*
X145776468Y-64136612D01*
X145776470Y-64136620D01*
X145855658Y-64327796D01*
X145970624Y-64499857D01*
X146116942Y-64646175D01*
X146116945Y-64646177D01*
X146289002Y-64761141D01*
X146480180Y-64840330D01*
X146624652Y-64869067D01*
X146683130Y-64880699D01*
X146683134Y-64880700D01*
X146683135Y-64880700D01*
X146890066Y-64880700D01*
X146890067Y-64880699D01*
X147093020Y-64840330D01*
X147284198Y-64761141D01*
X147456255Y-64646177D01*
X147602577Y-64499855D01*
X147717541Y-64327798D01*
X147796730Y-64136620D01*
X147837100Y-63933665D01*
X147837100Y-63726735D01*
X147837099Y-63726730D01*
X148276100Y-63726730D01*
X148276100Y-63933669D01*
X148316468Y-64136612D01*
X148316470Y-64136620D01*
X148395658Y-64327796D01*
X148510624Y-64499857D01*
X148656942Y-64646175D01*
X148656945Y-64646177D01*
X148829002Y-64761141D01*
X149020180Y-64840330D01*
X149164652Y-64869067D01*
X149223130Y-64880699D01*
X149223134Y-64880700D01*
X149223135Y-64880700D01*
X149430066Y-64880700D01*
X149430067Y-64880699D01*
X149633020Y-64840330D01*
X149824198Y-64761141D01*
X149996255Y-64646177D01*
X150142577Y-64499855D01*
X150257541Y-64327798D01*
X150336730Y-64136620D01*
X150377100Y-63933665D01*
X150377100Y-63726735D01*
X150377099Y-63726730D01*
X150816100Y-63726730D01*
X150816100Y-63933669D01*
X150856468Y-64136612D01*
X150856470Y-64136620D01*
X150935658Y-64327796D01*
X151050624Y-64499857D01*
X151196942Y-64646175D01*
X151196945Y-64646177D01*
X151369002Y-64761141D01*
X151560180Y-64840330D01*
X151704652Y-64869067D01*
X151763130Y-64880699D01*
X151763134Y-64880700D01*
X151763135Y-64880700D01*
X151970066Y-64880700D01*
X151970067Y-64880699D01*
X152173020Y-64840330D01*
X152364198Y-64761141D01*
X152536255Y-64646177D01*
X152682577Y-64499855D01*
X152797541Y-64327798D01*
X152876730Y-64136620D01*
X152917100Y-63933665D01*
X152917100Y-63726735D01*
X152917099Y-63726730D01*
X153356100Y-63726730D01*
X153356100Y-63933669D01*
X153396468Y-64136612D01*
X153396470Y-64136620D01*
X153475658Y-64327796D01*
X153590624Y-64499857D01*
X153736942Y-64646175D01*
X153736945Y-64646177D01*
X153909002Y-64761141D01*
X154100180Y-64840330D01*
X154244652Y-64869067D01*
X154303130Y-64880699D01*
X154303134Y-64880700D01*
X154303135Y-64880700D01*
X154510066Y-64880700D01*
X154510067Y-64880699D01*
X154713020Y-64840330D01*
X154904198Y-64761141D01*
X155076255Y-64646177D01*
X155222577Y-64499855D01*
X155337541Y-64327798D01*
X155416730Y-64136620D01*
X155457100Y-63933665D01*
X155457100Y-63726735D01*
X155457099Y-63726730D01*
X155896100Y-63726730D01*
X155896100Y-63933669D01*
X155936468Y-64136612D01*
X155936470Y-64136620D01*
X156015658Y-64327796D01*
X156130624Y-64499857D01*
X156276942Y-64646175D01*
X156276945Y-64646177D01*
X156449002Y-64761141D01*
X156640180Y-64840330D01*
X156784652Y-64869067D01*
X156843130Y-64880699D01*
X156843134Y-64880700D01*
X156843135Y-64880700D01*
X157050066Y-64880700D01*
X157050067Y-64880699D01*
X157253020Y-64840330D01*
X157444198Y-64761141D01*
X157616255Y-64646177D01*
X157762577Y-64499855D01*
X157877541Y-64327798D01*
X157956730Y-64136620D01*
X157997100Y-63933665D01*
X157997100Y-63726735D01*
X157997099Y-63726730D01*
X158436100Y-63726730D01*
X158436100Y-63933669D01*
X158476468Y-64136612D01*
X158476470Y-64136620D01*
X158555658Y-64327796D01*
X158670624Y-64499857D01*
X158816942Y-64646175D01*
X158816945Y-64646177D01*
X158989002Y-64761141D01*
X159180180Y-64840330D01*
X159324652Y-64869067D01*
X159383130Y-64880699D01*
X159383134Y-64880700D01*
X159383135Y-64880700D01*
X159590066Y-64880700D01*
X159590067Y-64880699D01*
X159793020Y-64840330D01*
X159984198Y-64761141D01*
X160156255Y-64646177D01*
X160302577Y-64499855D01*
X160417541Y-64327798D01*
X160496730Y-64136620D01*
X160537100Y-63933665D01*
X160537100Y-63726735D01*
X160537099Y-63726730D01*
X160976100Y-63726730D01*
X160976100Y-63933669D01*
X161016468Y-64136612D01*
X161016470Y-64136620D01*
X161095658Y-64327796D01*
X161210624Y-64499857D01*
X161356942Y-64646175D01*
X161356945Y-64646177D01*
X161529002Y-64761141D01*
X161720180Y-64840330D01*
X161864652Y-64869067D01*
X161923130Y-64880699D01*
X161923134Y-64880700D01*
X161923135Y-64880700D01*
X162130066Y-64880700D01*
X162130067Y-64880699D01*
X162333020Y-64840330D01*
X162524198Y-64761141D01*
X162696255Y-64646177D01*
X162842577Y-64499855D01*
X162957541Y-64327798D01*
X163036730Y-64136620D01*
X163077100Y-63933665D01*
X163077100Y-63726735D01*
X163077099Y-63726730D01*
X163516100Y-63726730D01*
X163516100Y-63933669D01*
X163556468Y-64136612D01*
X163556470Y-64136620D01*
X163635658Y-64327796D01*
X163750624Y-64499857D01*
X163896942Y-64646175D01*
X163896945Y-64646177D01*
X164069002Y-64761141D01*
X164260180Y-64840330D01*
X164404652Y-64869067D01*
X164463130Y-64880699D01*
X164463134Y-64880700D01*
X164463135Y-64880700D01*
X164670066Y-64880700D01*
X164670067Y-64880699D01*
X164873020Y-64840330D01*
X165064198Y-64761141D01*
X165236255Y-64646177D01*
X165382577Y-64499855D01*
X165497541Y-64327798D01*
X165576730Y-64136620D01*
X165617100Y-63933665D01*
X165617100Y-63726735D01*
X165617099Y-63726730D01*
X166056100Y-63726730D01*
X166056100Y-63933669D01*
X166096468Y-64136612D01*
X166096470Y-64136620D01*
X166175658Y-64327796D01*
X166290624Y-64499857D01*
X166436942Y-64646175D01*
X166436945Y-64646177D01*
X166609002Y-64761141D01*
X166800180Y-64840330D01*
X166944652Y-64869067D01*
X167003130Y-64880699D01*
X167003134Y-64880700D01*
X167003135Y-64880700D01*
X167210066Y-64880700D01*
X167210067Y-64880699D01*
X167413020Y-64840330D01*
X167604198Y-64761141D01*
X167776255Y-64646177D01*
X167922577Y-64499855D01*
X168037541Y-64327798D01*
X168116730Y-64136620D01*
X168157100Y-63933665D01*
X168157100Y-63726735D01*
X168157099Y-63726730D01*
X168596100Y-63726730D01*
X168596100Y-63933669D01*
X168636468Y-64136612D01*
X168636470Y-64136620D01*
X168715658Y-64327796D01*
X168830624Y-64499857D01*
X168976942Y-64646175D01*
X168976945Y-64646177D01*
X169149002Y-64761141D01*
X169340180Y-64840330D01*
X169484652Y-64869067D01*
X169543130Y-64880699D01*
X169543134Y-64880700D01*
X169543135Y-64880700D01*
X169750066Y-64880700D01*
X169750067Y-64880699D01*
X169953020Y-64840330D01*
X170144198Y-64761141D01*
X170316255Y-64646177D01*
X170462577Y-64499855D01*
X170577541Y-64327798D01*
X170656730Y-64136620D01*
X170697100Y-63933665D01*
X170697100Y-63726735D01*
X170697099Y-63726730D01*
X171136100Y-63726730D01*
X171136100Y-63933669D01*
X171176468Y-64136612D01*
X171176470Y-64136620D01*
X171255658Y-64327796D01*
X171370624Y-64499857D01*
X171516942Y-64646175D01*
X171516945Y-64646177D01*
X171689002Y-64761141D01*
X171880180Y-64840330D01*
X172024652Y-64869067D01*
X172083130Y-64880699D01*
X172083134Y-64880700D01*
X172083135Y-64880700D01*
X172290066Y-64880700D01*
X172290067Y-64880699D01*
X172493020Y-64840330D01*
X172684198Y-64761141D01*
X172856255Y-64646177D01*
X173002577Y-64499855D01*
X173117541Y-64327798D01*
X173196730Y-64136620D01*
X173237100Y-63933665D01*
X173237100Y-63726735D01*
X173196730Y-63523780D01*
X173117541Y-63332602D01*
X173002577Y-63160545D01*
X173002575Y-63160542D01*
X172856257Y-63014224D01*
X172688255Y-62901970D01*
X172684198Y-62899259D01*
X172493020Y-62820070D01*
X172493012Y-62820068D01*
X172290069Y-62779700D01*
X172290065Y-62779700D01*
X172083135Y-62779700D01*
X172083130Y-62779700D01*
X171880187Y-62820068D01*
X171880179Y-62820070D01*
X171689003Y-62899258D01*
X171516942Y-63014224D01*
X171370624Y-63160542D01*
X171255658Y-63332603D01*
X171176470Y-63523779D01*
X171176468Y-63523787D01*
X171136100Y-63726730D01*
X170697099Y-63726730D01*
X170656730Y-63523780D01*
X170577541Y-63332602D01*
X170462577Y-63160545D01*
X170462575Y-63160542D01*
X170316257Y-63014224D01*
X170148255Y-62901970D01*
X170144198Y-62899259D01*
X169953020Y-62820070D01*
X169953012Y-62820068D01*
X169750069Y-62779700D01*
X169750065Y-62779700D01*
X169543135Y-62779700D01*
X169543130Y-62779700D01*
X169340187Y-62820068D01*
X169340179Y-62820070D01*
X169149003Y-62899258D01*
X168976942Y-63014224D01*
X168830624Y-63160542D01*
X168715658Y-63332603D01*
X168636470Y-63523779D01*
X168636468Y-63523787D01*
X168596100Y-63726730D01*
X168157099Y-63726730D01*
X168116730Y-63523780D01*
X168037541Y-63332602D01*
X167922577Y-63160545D01*
X167922575Y-63160542D01*
X167776257Y-63014224D01*
X167608255Y-62901970D01*
X167604198Y-62899259D01*
X167413020Y-62820070D01*
X167413012Y-62820068D01*
X167210069Y-62779700D01*
X167210065Y-62779700D01*
X167003135Y-62779700D01*
X167003130Y-62779700D01*
X166800187Y-62820068D01*
X166800179Y-62820070D01*
X166609003Y-62899258D01*
X166436942Y-63014224D01*
X166290624Y-63160542D01*
X166175658Y-63332603D01*
X166096470Y-63523779D01*
X166096468Y-63523787D01*
X166056100Y-63726730D01*
X165617099Y-63726730D01*
X165576730Y-63523780D01*
X165497541Y-63332602D01*
X165382577Y-63160545D01*
X165382575Y-63160542D01*
X165236257Y-63014224D01*
X165068255Y-62901970D01*
X165064198Y-62899259D01*
X164873020Y-62820070D01*
X164873012Y-62820068D01*
X164670069Y-62779700D01*
X164670065Y-62779700D01*
X164463135Y-62779700D01*
X164463130Y-62779700D01*
X164260187Y-62820068D01*
X164260179Y-62820070D01*
X164069003Y-62899258D01*
X163896942Y-63014224D01*
X163750624Y-63160542D01*
X163635658Y-63332603D01*
X163556470Y-63523779D01*
X163556468Y-63523787D01*
X163516100Y-63726730D01*
X163077099Y-63726730D01*
X163036730Y-63523780D01*
X162957541Y-63332602D01*
X162842577Y-63160545D01*
X162842575Y-63160542D01*
X162696257Y-63014224D01*
X162528255Y-62901970D01*
X162524198Y-62899259D01*
X162333020Y-62820070D01*
X162333012Y-62820068D01*
X162130069Y-62779700D01*
X162130065Y-62779700D01*
X161923135Y-62779700D01*
X161923130Y-62779700D01*
X161720187Y-62820068D01*
X161720179Y-62820070D01*
X161529003Y-62899258D01*
X161356942Y-63014224D01*
X161210624Y-63160542D01*
X161095658Y-63332603D01*
X161016470Y-63523779D01*
X161016468Y-63523787D01*
X160976100Y-63726730D01*
X160537099Y-63726730D01*
X160496730Y-63523780D01*
X160417541Y-63332602D01*
X160302577Y-63160545D01*
X160302575Y-63160542D01*
X160156257Y-63014224D01*
X159988255Y-62901970D01*
X159984198Y-62899259D01*
X159793020Y-62820070D01*
X159793012Y-62820068D01*
X159590069Y-62779700D01*
X159590065Y-62779700D01*
X159383135Y-62779700D01*
X159383130Y-62779700D01*
X159180187Y-62820068D01*
X159180179Y-62820070D01*
X158989003Y-62899258D01*
X158816942Y-63014224D01*
X158670624Y-63160542D01*
X158555658Y-63332603D01*
X158476470Y-63523779D01*
X158476468Y-63523787D01*
X158436100Y-63726730D01*
X157997099Y-63726730D01*
X157956730Y-63523780D01*
X157877541Y-63332602D01*
X157762577Y-63160545D01*
X157762575Y-63160542D01*
X157616257Y-63014224D01*
X157448255Y-62901970D01*
X157444198Y-62899259D01*
X157253020Y-62820070D01*
X157253012Y-62820068D01*
X157050069Y-62779700D01*
X157050065Y-62779700D01*
X156843135Y-62779700D01*
X156843130Y-62779700D01*
X156640187Y-62820068D01*
X156640179Y-62820070D01*
X156449003Y-62899258D01*
X156276942Y-63014224D01*
X156130624Y-63160542D01*
X156015658Y-63332603D01*
X155936470Y-63523779D01*
X155936468Y-63523787D01*
X155896100Y-63726730D01*
X155457099Y-63726730D01*
X155416730Y-63523780D01*
X155337541Y-63332602D01*
X155222577Y-63160545D01*
X155222575Y-63160542D01*
X155076257Y-63014224D01*
X154908255Y-62901970D01*
X154904198Y-62899259D01*
X154713020Y-62820070D01*
X154713012Y-62820068D01*
X154510069Y-62779700D01*
X154510065Y-62779700D01*
X154303135Y-62779700D01*
X154303130Y-62779700D01*
X154100187Y-62820068D01*
X154100179Y-62820070D01*
X153909003Y-62899258D01*
X153736942Y-63014224D01*
X153590624Y-63160542D01*
X153475658Y-63332603D01*
X153396470Y-63523779D01*
X153396468Y-63523787D01*
X153356100Y-63726730D01*
X152917099Y-63726730D01*
X152876730Y-63523780D01*
X152797541Y-63332602D01*
X152682577Y-63160545D01*
X152682575Y-63160542D01*
X152536257Y-63014224D01*
X152368255Y-62901970D01*
X152364198Y-62899259D01*
X152173020Y-62820070D01*
X152173012Y-62820068D01*
X151970069Y-62779700D01*
X151970065Y-62779700D01*
X151763135Y-62779700D01*
X151763130Y-62779700D01*
X151560187Y-62820068D01*
X151560179Y-62820070D01*
X151369003Y-62899258D01*
X151196942Y-63014224D01*
X151050624Y-63160542D01*
X150935658Y-63332603D01*
X150856470Y-63523779D01*
X150856468Y-63523787D01*
X150816100Y-63726730D01*
X150377099Y-63726730D01*
X150336730Y-63523780D01*
X150257541Y-63332602D01*
X150142577Y-63160545D01*
X150142575Y-63160542D01*
X149996257Y-63014224D01*
X149828255Y-62901970D01*
X149824198Y-62899259D01*
X149633020Y-62820070D01*
X149633012Y-62820068D01*
X149430069Y-62779700D01*
X149430065Y-62779700D01*
X149223135Y-62779700D01*
X149223130Y-62779700D01*
X149020187Y-62820068D01*
X149020179Y-62820070D01*
X148829003Y-62899258D01*
X148656942Y-63014224D01*
X148510624Y-63160542D01*
X148395658Y-63332603D01*
X148316470Y-63523779D01*
X148316468Y-63523787D01*
X148276100Y-63726730D01*
X147837099Y-63726730D01*
X147796730Y-63523780D01*
X147717541Y-63332602D01*
X147602577Y-63160545D01*
X147602575Y-63160542D01*
X147456257Y-63014224D01*
X147288255Y-62901970D01*
X147284198Y-62899259D01*
X147093020Y-62820070D01*
X147093012Y-62820068D01*
X146890069Y-62779700D01*
X146890065Y-62779700D01*
X146683135Y-62779700D01*
X146683130Y-62779700D01*
X146480187Y-62820068D01*
X146480179Y-62820070D01*
X146289003Y-62899258D01*
X146116942Y-63014224D01*
X145970624Y-63160542D01*
X145855658Y-63332603D01*
X145776470Y-63523779D01*
X145776468Y-63523787D01*
X145736100Y-63726730D01*
X145297099Y-63726730D01*
X145256730Y-63523780D01*
X145177541Y-63332602D01*
X145062577Y-63160545D01*
X145062575Y-63160542D01*
X144916257Y-63014224D01*
X144748255Y-62901970D01*
X144744198Y-62899259D01*
X144553020Y-62820070D01*
X144553012Y-62820068D01*
X144350069Y-62779700D01*
X144350065Y-62779700D01*
X144143135Y-62779700D01*
X144143130Y-62779700D01*
X143940187Y-62820068D01*
X143940179Y-62820070D01*
X143749003Y-62899258D01*
X143576942Y-63014224D01*
X143430624Y-63160542D01*
X143315658Y-63332603D01*
X143236470Y-63523779D01*
X143236468Y-63523787D01*
X143196100Y-63726730D01*
X142757099Y-63726730D01*
X142716730Y-63523780D01*
X142637541Y-63332602D01*
X142522577Y-63160545D01*
X142522575Y-63160542D01*
X142376257Y-63014224D01*
X142208255Y-62901970D01*
X142204198Y-62899259D01*
X142013020Y-62820070D01*
X142013012Y-62820068D01*
X141810069Y-62779700D01*
X141810065Y-62779700D01*
X141603135Y-62779700D01*
X141603130Y-62779700D01*
X141400187Y-62820068D01*
X141400179Y-62820070D01*
X141209003Y-62899258D01*
X141036942Y-63014224D01*
X140890624Y-63160542D01*
X140775658Y-63332603D01*
X140696470Y-63523779D01*
X140696468Y-63523787D01*
X140656100Y-63726730D01*
X140217099Y-63726730D01*
X140176730Y-63523780D01*
X140097541Y-63332602D01*
X139982577Y-63160545D01*
X139982575Y-63160542D01*
X139836257Y-63014224D01*
X139668255Y-62901970D01*
X139664198Y-62899259D01*
X139473020Y-62820070D01*
X139473012Y-62820068D01*
X139270069Y-62779700D01*
X139270065Y-62779700D01*
X139063135Y-62779700D01*
X139063130Y-62779700D01*
X138860187Y-62820068D01*
X138860179Y-62820070D01*
X138669003Y-62899258D01*
X138496942Y-63014224D01*
X138350624Y-63160542D01*
X138235658Y-63332603D01*
X138156470Y-63523779D01*
X138156468Y-63523787D01*
X138116100Y-63726730D01*
X137677099Y-63726730D01*
X137636730Y-63523780D01*
X137557541Y-63332602D01*
X137442577Y-63160545D01*
X137442575Y-63160542D01*
X137296257Y-63014224D01*
X137128255Y-62901970D01*
X137124198Y-62899259D01*
X136933020Y-62820070D01*
X136933012Y-62820068D01*
X136730069Y-62779700D01*
X136730065Y-62779700D01*
X136523135Y-62779700D01*
X136523130Y-62779700D01*
X136320187Y-62820068D01*
X136320179Y-62820070D01*
X136129003Y-62899258D01*
X135956942Y-63014224D01*
X135810624Y-63160542D01*
X135695658Y-63332603D01*
X135616470Y-63523779D01*
X135616468Y-63523787D01*
X135576100Y-63726730D01*
X135137099Y-63726730D01*
X135096730Y-63523780D01*
X135017541Y-63332602D01*
X134902577Y-63160545D01*
X134902575Y-63160542D01*
X134756257Y-63014224D01*
X134588255Y-62901970D01*
X134584198Y-62899259D01*
X134393020Y-62820070D01*
X134393012Y-62820068D01*
X134190069Y-62779700D01*
X134190065Y-62779700D01*
X133983135Y-62779700D01*
X133983130Y-62779700D01*
X133780187Y-62820068D01*
X133780179Y-62820070D01*
X133589003Y-62899258D01*
X133416942Y-63014224D01*
X133270624Y-63160542D01*
X133155658Y-63332603D01*
X133076470Y-63523779D01*
X133076468Y-63523787D01*
X133036100Y-63726730D01*
X132597099Y-63726730D01*
X132556730Y-63523780D01*
X132477541Y-63332602D01*
X132362577Y-63160545D01*
X132362575Y-63160542D01*
X132216257Y-63014224D01*
X132048255Y-62901970D01*
X132044198Y-62899259D01*
X131853020Y-62820070D01*
X131853012Y-62820068D01*
X131650069Y-62779700D01*
X131650065Y-62779700D01*
X131443135Y-62779700D01*
X131443130Y-62779700D01*
X131240187Y-62820068D01*
X131240179Y-62820070D01*
X131049003Y-62899258D01*
X130876942Y-63014224D01*
X130730624Y-63160542D01*
X130615658Y-63332603D01*
X130536470Y-63523779D01*
X130536468Y-63523787D01*
X130496100Y-63726730D01*
X130057099Y-63726730D01*
X130016730Y-63523780D01*
X129937541Y-63332602D01*
X129822577Y-63160545D01*
X129822575Y-63160542D01*
X129676257Y-63014224D01*
X129508255Y-62901970D01*
X129504198Y-62899259D01*
X129313020Y-62820070D01*
X129313012Y-62820068D01*
X129110069Y-62779700D01*
X129110065Y-62779700D01*
X128903135Y-62779700D01*
X128903130Y-62779700D01*
X128700187Y-62820068D01*
X128700179Y-62820070D01*
X128509003Y-62899258D01*
X128336942Y-63014224D01*
X128190624Y-63160542D01*
X128075658Y-63332603D01*
X127996470Y-63523779D01*
X127996468Y-63523787D01*
X127956100Y-63726730D01*
X127956100Y-63933669D01*
X127996468Y-64136612D01*
X127996471Y-64136624D01*
X128046403Y-64257171D01*
X128053872Y-64326640D01*
X128022597Y-64389119D01*
X128019523Y-64392304D01*
X127679089Y-64732740D01*
X127623141Y-64788687D01*
X127623135Y-64788695D01*
X127583582Y-64857204D01*
X127583579Y-64857209D01*
X127577285Y-64880699D01*
X127563100Y-64933638D01*
X127563100Y-75199575D01*
X127579227Y-75259760D01*
X127583579Y-75276002D01*
X127600051Y-75304532D01*
X127600051Y-75304533D01*
X127623137Y-75344520D01*
X127623141Y-75344525D01*
X137918935Y-85640319D01*
X137929547Y-85659755D01*
X137944048Y-85676489D01*
X137945964Y-85689820D01*
X137952420Y-85701642D01*
X137950840Y-85723728D01*
X137953992Y-85745647D01*
X137948396Y-85757898D01*
X137947436Y-85771334D01*
X137934165Y-85789060D01*
X137924967Y-85809203D01*
X137913635Y-85816485D01*
X137905564Y-85827267D01*
X137884818Y-85835004D01*
X137866189Y-85846977D01*
X137844270Y-85850128D01*
X137840100Y-85851684D01*
X137831254Y-85852000D01*
X137597276Y-85852000D01*
X137530237Y-85832315D01*
X137509595Y-85815681D01*
X126803419Y-75109505D01*
X126769934Y-75048182D01*
X126767100Y-75021824D01*
X126767100Y-64925635D01*
X126786785Y-64858596D01*
X126839589Y-64812841D01*
X126843612Y-64811089D01*
X126964198Y-64761141D01*
X127136255Y-64646177D01*
X127282577Y-64499855D01*
X127397541Y-64327798D01*
X127476730Y-64136620D01*
X127517100Y-63933665D01*
X127517100Y-63726735D01*
X127476730Y-63523780D01*
X127397541Y-63332602D01*
X127282577Y-63160545D01*
X127282575Y-63160542D01*
X127136257Y-63014224D01*
X126968255Y-62901970D01*
X126964198Y-62899259D01*
X126773020Y-62820070D01*
X126773012Y-62820068D01*
X126570069Y-62779700D01*
X126570065Y-62779700D01*
X126363135Y-62779700D01*
X126363130Y-62779700D01*
X126160187Y-62820068D01*
X126160179Y-62820070D01*
X125969003Y-62899258D01*
X125796942Y-63014224D01*
X125650624Y-63160542D01*
X125535658Y-63332603D01*
X125456470Y-63523779D01*
X125456468Y-63523787D01*
X125416100Y-63726730D01*
X125416100Y-63933669D01*
X125456468Y-64136612D01*
X125456470Y-64136620D01*
X125535658Y-64327796D01*
X125650624Y-64499857D01*
X125796942Y-64646175D01*
X125796945Y-64646177D01*
X125969002Y-64761141D01*
X126089553Y-64811075D01*
X126143956Y-64854914D01*
X126166021Y-64921208D01*
X126166100Y-64925635D01*
X126166100Y-75237219D01*
X126168214Y-75245108D01*
X126186579Y-75313648D01*
X126186581Y-75313651D01*
X126209286Y-75352976D01*
X126209287Y-75352979D01*
X126226135Y-75382161D01*
X126226141Y-75382169D01*
X127101963Y-76257991D01*
X127135448Y-76319314D01*
X127130464Y-76389006D01*
X127088592Y-76444939D01*
X127046376Y-76465447D01*
X126994981Y-76479218D01*
X126933814Y-76495608D01*
X126933812Y-76495608D01*
X126933812Y-76495609D01*
X126819686Y-76561500D01*
X126819683Y-76561502D01*
X126756005Y-76625181D01*
X126694682Y-76658666D01*
X126668324Y-76661500D01*
X123658438Y-76661500D01*
X123620224Y-76671739D01*
X123582009Y-76681979D01*
X123582008Y-76681980D01*
X123536942Y-76707998D01*
X123536943Y-76707999D01*
X123513487Y-76721541D01*
X122538081Y-77696947D01*
X122476758Y-77730432D01*
X122407066Y-77725448D01*
X122351133Y-77683576D01*
X122326716Y-77618112D01*
X122326400Y-77609266D01*
X122326400Y-62960447D01*
X122876100Y-62960447D01*
X122876100Y-64699952D01*
X122887731Y-64758429D01*
X122887732Y-64758430D01*
X122932047Y-64824752D01*
X122998369Y-64869067D01*
X122998370Y-64869068D01*
X123056847Y-64880699D01*
X123056850Y-64880700D01*
X123056852Y-64880700D01*
X124796350Y-64880700D01*
X124796351Y-64880699D01*
X124811168Y-64877752D01*
X124854829Y-64869068D01*
X124854829Y-64869067D01*
X124854831Y-64869067D01*
X124921152Y-64824752D01*
X124965467Y-64758431D01*
X124965467Y-64758429D01*
X124965468Y-64758429D01*
X124977099Y-64699952D01*
X124977100Y-64699950D01*
X124977100Y-62960449D01*
X124977099Y-62960447D01*
X124965468Y-62901970D01*
X124965467Y-62901969D01*
X124921152Y-62835647D01*
X124854830Y-62791332D01*
X124854829Y-62791331D01*
X124796352Y-62779700D01*
X124796348Y-62779700D01*
X123056852Y-62779700D01*
X123056847Y-62779700D01*
X122998370Y-62791331D01*
X122998369Y-62791332D01*
X122932047Y-62835647D01*
X122887732Y-62901969D01*
X122887731Y-62901970D01*
X122876100Y-62960447D01*
X122326400Y-62960447D01*
X122326400Y-62397306D01*
X173985100Y-62397306D01*
X173985100Y-62723093D01*
X174021574Y-63046804D01*
X174021576Y-63046820D01*
X174094067Y-63364426D01*
X174094071Y-63364438D01*
X174201666Y-63671925D01*
X174343013Y-63965434D01*
X174343015Y-63965437D01*
X174516339Y-64241281D01*
X174719457Y-64495983D01*
X174949817Y-64726343D01*
X175204519Y-64929461D01*
X175480363Y-65102785D01*
X175773878Y-65244135D01*
X176004817Y-65324944D01*
X176081361Y-65351728D01*
X176081373Y-65351732D01*
X176398983Y-65424224D01*
X176722706Y-65460699D01*
X176722707Y-65460700D01*
X176722711Y-65460700D01*
X177048493Y-65460700D01*
X177048493Y-65460699D01*
X177372217Y-65424224D01*
X177689827Y-65351732D01*
X177997322Y-65244135D01*
X178290837Y-65102785D01*
X178566681Y-64929461D01*
X178821383Y-64726343D01*
X179051743Y-64495983D01*
X179254861Y-64241281D01*
X179428185Y-63965437D01*
X179569535Y-63671922D01*
X179677132Y-63364427D01*
X179749624Y-63046817D01*
X179786100Y-62723089D01*
X179786100Y-62397311D01*
X179749624Y-62073583D01*
X179677132Y-61755973D01*
X179676085Y-61752982D01*
X179650344Y-61679417D01*
X179569535Y-61448478D01*
X179428185Y-61154963D01*
X179254861Y-60879119D01*
X179051743Y-60624417D01*
X178821383Y-60394057D01*
X178777746Y-60359258D01*
X178719991Y-60313200D01*
X178566681Y-60190939D01*
X178290837Y-60017615D01*
X178290834Y-60017613D01*
X177997325Y-59876266D01*
X177689838Y-59768671D01*
X177689826Y-59768667D01*
X177372220Y-59696176D01*
X177372204Y-59696174D01*
X177048493Y-59659700D01*
X177048489Y-59659700D01*
X176722711Y-59659700D01*
X176722707Y-59659700D01*
X176398995Y-59696174D01*
X176398979Y-59696176D01*
X176081373Y-59768667D01*
X176081361Y-59768671D01*
X175773874Y-59876266D01*
X175480365Y-60017613D01*
X175204520Y-60190938D01*
X174949817Y-60394056D01*
X174719456Y-60624417D01*
X174516338Y-60879120D01*
X174343013Y-61154965D01*
X174201666Y-61448474D01*
X174094071Y-61755961D01*
X174094067Y-61755973D01*
X174021576Y-62073579D01*
X174021574Y-62073595D01*
X173985100Y-62397306D01*
X122326400Y-62397306D01*
X122326400Y-61386428D01*
X122949599Y-61386428D01*
X122987144Y-61575174D01*
X122987146Y-61575180D01*
X123060792Y-61752979D01*
X123060796Y-61752986D01*
X123080608Y-61782636D01*
X123080609Y-61782637D01*
X123443637Y-61419608D01*
X123460675Y-61483193D01*
X123526501Y-61597207D01*
X123619593Y-61690299D01*
X123733607Y-61756125D01*
X123797190Y-61773162D01*
X123434162Y-62136190D01*
X123463819Y-62156007D01*
X123463821Y-62156008D01*
X123641615Y-62229652D01*
X123641625Y-62229655D01*
X123830371Y-62267200D01*
X124022828Y-62267200D01*
X124211574Y-62229655D01*
X124211584Y-62229652D01*
X124389378Y-62156008D01*
X124389382Y-62156006D01*
X124419037Y-62136190D01*
X124056010Y-61773162D01*
X124119593Y-61756125D01*
X124233607Y-61690299D01*
X124326699Y-61597207D01*
X124392525Y-61483193D01*
X124409562Y-61419609D01*
X124772590Y-61782637D01*
X124792406Y-61752982D01*
X124792408Y-61752978D01*
X124866052Y-61575184D01*
X124866055Y-61575174D01*
X124903600Y-61386428D01*
X125489599Y-61386428D01*
X125527144Y-61575174D01*
X125527146Y-61575180D01*
X125600792Y-61752979D01*
X125600796Y-61752986D01*
X125620608Y-61782636D01*
X125620609Y-61782637D01*
X125983637Y-61419608D01*
X126000675Y-61483193D01*
X126066501Y-61597207D01*
X126159593Y-61690299D01*
X126273607Y-61756125D01*
X126337190Y-61773162D01*
X125974162Y-62136190D01*
X126003819Y-62156007D01*
X126003821Y-62156008D01*
X126181615Y-62229652D01*
X126181625Y-62229655D01*
X126370371Y-62267200D01*
X126562828Y-62267200D01*
X126751574Y-62229655D01*
X126751584Y-62229652D01*
X126929378Y-62156008D01*
X126929382Y-62156006D01*
X126959037Y-62136190D01*
X126596010Y-61773162D01*
X126659593Y-61756125D01*
X126773607Y-61690299D01*
X126866699Y-61597207D01*
X126932525Y-61483193D01*
X126949562Y-61419609D01*
X127312590Y-61782637D01*
X127332406Y-61752982D01*
X127332408Y-61752978D01*
X127406052Y-61575184D01*
X127406055Y-61575174D01*
X127443600Y-61386428D01*
X127443600Y-61193974D01*
X127443599Y-61193968D01*
X127442159Y-61186730D01*
X127956100Y-61186730D01*
X127956100Y-61393669D01*
X127996468Y-61596612D01*
X127996470Y-61596620D01*
X128075658Y-61787796D01*
X128190624Y-61959857D01*
X128336942Y-62106175D01*
X128336945Y-62106177D01*
X128509002Y-62221141D01*
X128700180Y-62300330D01*
X128903130Y-62340699D01*
X128903134Y-62340700D01*
X128903135Y-62340700D01*
X129110066Y-62340700D01*
X129110067Y-62340699D01*
X129313020Y-62300330D01*
X129504198Y-62221141D01*
X129676255Y-62106177D01*
X129822577Y-61959855D01*
X129937541Y-61787798D01*
X130016730Y-61596620D01*
X130057100Y-61393665D01*
X130057100Y-61186735D01*
X130057099Y-61186730D01*
X130496100Y-61186730D01*
X130496100Y-61393669D01*
X130536468Y-61596612D01*
X130536470Y-61596620D01*
X130615658Y-61787796D01*
X130730624Y-61959857D01*
X130876942Y-62106175D01*
X130876945Y-62106177D01*
X131049002Y-62221141D01*
X131240180Y-62300330D01*
X131443130Y-62340699D01*
X131443134Y-62340700D01*
X131443135Y-62340700D01*
X131650066Y-62340700D01*
X131650067Y-62340699D01*
X131853020Y-62300330D01*
X132044198Y-62221141D01*
X132216255Y-62106177D01*
X132362577Y-61959855D01*
X132477541Y-61787798D01*
X132556730Y-61596620D01*
X132597100Y-61393665D01*
X132597100Y-61186735D01*
X132597099Y-61186730D01*
X133036100Y-61186730D01*
X133036100Y-61393669D01*
X133076468Y-61596612D01*
X133076470Y-61596620D01*
X133155658Y-61787796D01*
X133270624Y-61959857D01*
X133416942Y-62106175D01*
X133416945Y-62106177D01*
X133589002Y-62221141D01*
X133780180Y-62300330D01*
X133983130Y-62340699D01*
X133983134Y-62340700D01*
X133983135Y-62340700D01*
X134190066Y-62340700D01*
X134190067Y-62340699D01*
X134393020Y-62300330D01*
X134584198Y-62221141D01*
X134756255Y-62106177D01*
X134902577Y-61959855D01*
X135017541Y-61787798D01*
X135096730Y-61596620D01*
X135137100Y-61393665D01*
X135137100Y-61186735D01*
X135137099Y-61186730D01*
X135576100Y-61186730D01*
X135576100Y-61393669D01*
X135616468Y-61596612D01*
X135616470Y-61596620D01*
X135695658Y-61787796D01*
X135810624Y-61959857D01*
X135956942Y-62106175D01*
X135956945Y-62106177D01*
X136129002Y-62221141D01*
X136320180Y-62300330D01*
X136523130Y-62340699D01*
X136523134Y-62340700D01*
X136523135Y-62340700D01*
X136730066Y-62340700D01*
X136730067Y-62340699D01*
X136933020Y-62300330D01*
X137124198Y-62221141D01*
X137296255Y-62106177D01*
X137442577Y-61959855D01*
X137557541Y-61787798D01*
X137636730Y-61596620D01*
X137677100Y-61393665D01*
X137677100Y-61186735D01*
X137677099Y-61186730D01*
X138116100Y-61186730D01*
X138116100Y-61393669D01*
X138156468Y-61596612D01*
X138156470Y-61596620D01*
X138235658Y-61787796D01*
X138350624Y-61959857D01*
X138496942Y-62106175D01*
X138496945Y-62106177D01*
X138669002Y-62221141D01*
X138860180Y-62300330D01*
X139063130Y-62340699D01*
X139063134Y-62340700D01*
X139063135Y-62340700D01*
X139270066Y-62340700D01*
X139270067Y-62340699D01*
X139473020Y-62300330D01*
X139664198Y-62221141D01*
X139836255Y-62106177D01*
X139982577Y-61959855D01*
X140097541Y-61787798D01*
X140176730Y-61596620D01*
X140217100Y-61393665D01*
X140217100Y-61186735D01*
X140217099Y-61186730D01*
X140656100Y-61186730D01*
X140656100Y-61393669D01*
X140696468Y-61596612D01*
X140696470Y-61596620D01*
X140775658Y-61787796D01*
X140890624Y-61959857D01*
X141036942Y-62106175D01*
X141036945Y-62106177D01*
X141209002Y-62221141D01*
X141400180Y-62300330D01*
X141603130Y-62340699D01*
X141603134Y-62340700D01*
X141603135Y-62340700D01*
X141810066Y-62340700D01*
X141810067Y-62340699D01*
X142013020Y-62300330D01*
X142204198Y-62221141D01*
X142376255Y-62106177D01*
X142522577Y-61959855D01*
X142637541Y-61787798D01*
X142716730Y-61596620D01*
X142757100Y-61393665D01*
X142757100Y-61186735D01*
X142757099Y-61186730D01*
X143196100Y-61186730D01*
X143196100Y-61393669D01*
X143236468Y-61596612D01*
X143236470Y-61596620D01*
X143315658Y-61787796D01*
X143430624Y-61959857D01*
X143576942Y-62106175D01*
X143576945Y-62106177D01*
X143749002Y-62221141D01*
X143940180Y-62300330D01*
X144143130Y-62340699D01*
X144143134Y-62340700D01*
X144143135Y-62340700D01*
X144350066Y-62340700D01*
X144350067Y-62340699D01*
X144553020Y-62300330D01*
X144744198Y-62221141D01*
X144916255Y-62106177D01*
X145062577Y-61959855D01*
X145177541Y-61787798D01*
X145256730Y-61596620D01*
X145297100Y-61393665D01*
X145297100Y-61186735D01*
X145297099Y-61186730D01*
X145736100Y-61186730D01*
X145736100Y-61393669D01*
X145776468Y-61596612D01*
X145776470Y-61596620D01*
X145855658Y-61787796D01*
X145970624Y-61959857D01*
X146116942Y-62106175D01*
X146116945Y-62106177D01*
X146289002Y-62221141D01*
X146480180Y-62300330D01*
X146683130Y-62340699D01*
X146683134Y-62340700D01*
X146683135Y-62340700D01*
X146890066Y-62340700D01*
X146890067Y-62340699D01*
X147093020Y-62300330D01*
X147284198Y-62221141D01*
X147456255Y-62106177D01*
X147602577Y-61959855D01*
X147717541Y-61787798D01*
X147796730Y-61596620D01*
X147837100Y-61393665D01*
X147837100Y-61186735D01*
X147837099Y-61186730D01*
X148276100Y-61186730D01*
X148276100Y-61393669D01*
X148316468Y-61596612D01*
X148316470Y-61596620D01*
X148395658Y-61787796D01*
X148510624Y-61959857D01*
X148656942Y-62106175D01*
X148656945Y-62106177D01*
X148829002Y-62221141D01*
X149020180Y-62300330D01*
X149223130Y-62340699D01*
X149223134Y-62340700D01*
X149223135Y-62340700D01*
X149430066Y-62340700D01*
X149430067Y-62340699D01*
X149633020Y-62300330D01*
X149824198Y-62221141D01*
X149996255Y-62106177D01*
X150142577Y-61959855D01*
X150257541Y-61787798D01*
X150336730Y-61596620D01*
X150377100Y-61393665D01*
X150377100Y-61186735D01*
X150377099Y-61186730D01*
X150816100Y-61186730D01*
X150816100Y-61393669D01*
X150856468Y-61596612D01*
X150856470Y-61596620D01*
X150935658Y-61787796D01*
X151050624Y-61959857D01*
X151196942Y-62106175D01*
X151196945Y-62106177D01*
X151369002Y-62221141D01*
X151560180Y-62300330D01*
X151763130Y-62340699D01*
X151763134Y-62340700D01*
X151763135Y-62340700D01*
X151970066Y-62340700D01*
X151970067Y-62340699D01*
X152173020Y-62300330D01*
X152364198Y-62221141D01*
X152536255Y-62106177D01*
X152682577Y-61959855D01*
X152797541Y-61787798D01*
X152876730Y-61596620D01*
X152917100Y-61393665D01*
X152917100Y-61186735D01*
X152917099Y-61186730D01*
X153356100Y-61186730D01*
X153356100Y-61393669D01*
X153396468Y-61596612D01*
X153396470Y-61596620D01*
X153475658Y-61787796D01*
X153590624Y-61959857D01*
X153736942Y-62106175D01*
X153736945Y-62106177D01*
X153909002Y-62221141D01*
X154100180Y-62300330D01*
X154303130Y-62340699D01*
X154303134Y-62340700D01*
X154303135Y-62340700D01*
X154510066Y-62340700D01*
X154510067Y-62340699D01*
X154713020Y-62300330D01*
X154904198Y-62221141D01*
X155076255Y-62106177D01*
X155222577Y-61959855D01*
X155337541Y-61787798D01*
X155416730Y-61596620D01*
X155457100Y-61393665D01*
X155457100Y-61186735D01*
X155457099Y-61186730D01*
X155896100Y-61186730D01*
X155896100Y-61393669D01*
X155936468Y-61596612D01*
X155936470Y-61596620D01*
X156015658Y-61787796D01*
X156130624Y-61959857D01*
X156276942Y-62106175D01*
X156276945Y-62106177D01*
X156449002Y-62221141D01*
X156640180Y-62300330D01*
X156843130Y-62340699D01*
X156843134Y-62340700D01*
X156843135Y-62340700D01*
X157050066Y-62340700D01*
X157050067Y-62340699D01*
X157253020Y-62300330D01*
X157444198Y-62221141D01*
X157616255Y-62106177D01*
X157762577Y-61959855D01*
X157877541Y-61787798D01*
X157956730Y-61596620D01*
X157997100Y-61393665D01*
X157997100Y-61186735D01*
X157997099Y-61186730D01*
X158436100Y-61186730D01*
X158436100Y-61393669D01*
X158476468Y-61596612D01*
X158476470Y-61596620D01*
X158555658Y-61787796D01*
X158670624Y-61959857D01*
X158816942Y-62106175D01*
X158816945Y-62106177D01*
X158989002Y-62221141D01*
X159180180Y-62300330D01*
X159383130Y-62340699D01*
X159383134Y-62340700D01*
X159383135Y-62340700D01*
X159590066Y-62340700D01*
X159590067Y-62340699D01*
X159793020Y-62300330D01*
X159984198Y-62221141D01*
X160156255Y-62106177D01*
X160302577Y-61959855D01*
X160417541Y-61787798D01*
X160496730Y-61596620D01*
X160537100Y-61393665D01*
X160537100Y-61186735D01*
X160537099Y-61186730D01*
X160976100Y-61186730D01*
X160976100Y-61393669D01*
X161016468Y-61596612D01*
X161016470Y-61596620D01*
X161095658Y-61787796D01*
X161210624Y-61959857D01*
X161356942Y-62106175D01*
X161356945Y-62106177D01*
X161529002Y-62221141D01*
X161720180Y-62300330D01*
X161923130Y-62340699D01*
X161923134Y-62340700D01*
X161923135Y-62340700D01*
X162130066Y-62340700D01*
X162130067Y-62340699D01*
X162333020Y-62300330D01*
X162524198Y-62221141D01*
X162696255Y-62106177D01*
X162842577Y-61959855D01*
X162957541Y-61787798D01*
X163036730Y-61596620D01*
X163077100Y-61393665D01*
X163077100Y-61186735D01*
X163077099Y-61186730D01*
X163516100Y-61186730D01*
X163516100Y-61393669D01*
X163556468Y-61596612D01*
X163556470Y-61596620D01*
X163635658Y-61787796D01*
X163750624Y-61959857D01*
X163896942Y-62106175D01*
X163896945Y-62106177D01*
X164069002Y-62221141D01*
X164260180Y-62300330D01*
X164463130Y-62340699D01*
X164463134Y-62340700D01*
X164463135Y-62340700D01*
X164670066Y-62340700D01*
X164670067Y-62340699D01*
X164873020Y-62300330D01*
X165064198Y-62221141D01*
X165236255Y-62106177D01*
X165382577Y-61959855D01*
X165497541Y-61787798D01*
X165576730Y-61596620D01*
X165617100Y-61393665D01*
X165617100Y-61186735D01*
X165617099Y-61186730D01*
X166056100Y-61186730D01*
X166056100Y-61393669D01*
X166096468Y-61596612D01*
X166096470Y-61596620D01*
X166175658Y-61787796D01*
X166290624Y-61959857D01*
X166436942Y-62106175D01*
X166436945Y-62106177D01*
X166609002Y-62221141D01*
X166800180Y-62300330D01*
X167003130Y-62340699D01*
X167003134Y-62340700D01*
X167003135Y-62340700D01*
X167210066Y-62340700D01*
X167210067Y-62340699D01*
X167413020Y-62300330D01*
X167604198Y-62221141D01*
X167776255Y-62106177D01*
X167922577Y-61959855D01*
X168037541Y-61787798D01*
X168116730Y-61596620D01*
X168157100Y-61393665D01*
X168157100Y-61186735D01*
X168157099Y-61186730D01*
X168596100Y-61186730D01*
X168596100Y-61393669D01*
X168636468Y-61596612D01*
X168636470Y-61596620D01*
X168715658Y-61787796D01*
X168830624Y-61959857D01*
X168976942Y-62106175D01*
X168976945Y-62106177D01*
X169149002Y-62221141D01*
X169340180Y-62300330D01*
X169543130Y-62340699D01*
X169543134Y-62340700D01*
X169543135Y-62340700D01*
X169750066Y-62340700D01*
X169750067Y-62340699D01*
X169953020Y-62300330D01*
X170144198Y-62221141D01*
X170316255Y-62106177D01*
X170462577Y-61959855D01*
X170577541Y-61787798D01*
X170656730Y-61596620D01*
X170697100Y-61393665D01*
X170697100Y-61186735D01*
X170697099Y-61186730D01*
X171136100Y-61186730D01*
X171136100Y-61393669D01*
X171176468Y-61596612D01*
X171176470Y-61596620D01*
X171255658Y-61787796D01*
X171370624Y-61959857D01*
X171516942Y-62106175D01*
X171516945Y-62106177D01*
X171689002Y-62221141D01*
X171880180Y-62300330D01*
X172083130Y-62340699D01*
X172083134Y-62340700D01*
X172083135Y-62340700D01*
X172290066Y-62340700D01*
X172290067Y-62340699D01*
X172493020Y-62300330D01*
X172684198Y-62221141D01*
X172856255Y-62106177D01*
X173002577Y-61959855D01*
X173117541Y-61787798D01*
X173196730Y-61596620D01*
X173237100Y-61393665D01*
X173237100Y-61186735D01*
X173196730Y-60983780D01*
X173117541Y-60792602D01*
X173002577Y-60620545D01*
X173002575Y-60620542D01*
X172856257Y-60474224D01*
X172736276Y-60394056D01*
X172684198Y-60359259D01*
X172573002Y-60313200D01*
X172493020Y-60280070D01*
X172493012Y-60280068D01*
X172290069Y-60239700D01*
X172290065Y-60239700D01*
X172083135Y-60239700D01*
X172083130Y-60239700D01*
X171880187Y-60280068D01*
X171880179Y-60280070D01*
X171689003Y-60359258D01*
X171516942Y-60474224D01*
X171370624Y-60620542D01*
X171255658Y-60792603D01*
X171176470Y-60983779D01*
X171176468Y-60983787D01*
X171136100Y-61186730D01*
X170697099Y-61186730D01*
X170656730Y-60983780D01*
X170577541Y-60792602D01*
X170462577Y-60620545D01*
X170462575Y-60620542D01*
X170316257Y-60474224D01*
X170196276Y-60394056D01*
X170144198Y-60359259D01*
X170033002Y-60313200D01*
X169953020Y-60280070D01*
X169953012Y-60280068D01*
X169750069Y-60239700D01*
X169750065Y-60239700D01*
X169543135Y-60239700D01*
X169543130Y-60239700D01*
X169340187Y-60280068D01*
X169340179Y-60280070D01*
X169149003Y-60359258D01*
X168976942Y-60474224D01*
X168830624Y-60620542D01*
X168715658Y-60792603D01*
X168636470Y-60983779D01*
X168636468Y-60983787D01*
X168596100Y-61186730D01*
X168157099Y-61186730D01*
X168116730Y-60983780D01*
X168037541Y-60792602D01*
X167922577Y-60620545D01*
X167922575Y-60620542D01*
X167776257Y-60474224D01*
X167656276Y-60394056D01*
X167604198Y-60359259D01*
X167493002Y-60313200D01*
X167413020Y-60280070D01*
X167413012Y-60280068D01*
X167210069Y-60239700D01*
X167210065Y-60239700D01*
X167003135Y-60239700D01*
X167003130Y-60239700D01*
X166800187Y-60280068D01*
X166800179Y-60280070D01*
X166609003Y-60359258D01*
X166436942Y-60474224D01*
X166290624Y-60620542D01*
X166175658Y-60792603D01*
X166096470Y-60983779D01*
X166096468Y-60983787D01*
X166056100Y-61186730D01*
X165617099Y-61186730D01*
X165576730Y-60983780D01*
X165497541Y-60792602D01*
X165382577Y-60620545D01*
X165382575Y-60620542D01*
X165236257Y-60474224D01*
X165116276Y-60394056D01*
X165064198Y-60359259D01*
X164953002Y-60313200D01*
X164873020Y-60280070D01*
X164873012Y-60280068D01*
X164670069Y-60239700D01*
X164670065Y-60239700D01*
X164463135Y-60239700D01*
X164463130Y-60239700D01*
X164260187Y-60280068D01*
X164260179Y-60280070D01*
X164069003Y-60359258D01*
X163896942Y-60474224D01*
X163750624Y-60620542D01*
X163635658Y-60792603D01*
X163556470Y-60983779D01*
X163556468Y-60983787D01*
X163516100Y-61186730D01*
X163077099Y-61186730D01*
X163036730Y-60983780D01*
X162957541Y-60792602D01*
X162842577Y-60620545D01*
X162842575Y-60620542D01*
X162696257Y-60474224D01*
X162576276Y-60394056D01*
X162524198Y-60359259D01*
X162413002Y-60313200D01*
X162333020Y-60280070D01*
X162333012Y-60280068D01*
X162130069Y-60239700D01*
X162130065Y-60239700D01*
X161923135Y-60239700D01*
X161923130Y-60239700D01*
X161720187Y-60280068D01*
X161720179Y-60280070D01*
X161529003Y-60359258D01*
X161356942Y-60474224D01*
X161210624Y-60620542D01*
X161095658Y-60792603D01*
X161016470Y-60983779D01*
X161016468Y-60983787D01*
X160976100Y-61186730D01*
X160537099Y-61186730D01*
X160496730Y-60983780D01*
X160417541Y-60792602D01*
X160302577Y-60620545D01*
X160302575Y-60620542D01*
X160156257Y-60474224D01*
X160036276Y-60394056D01*
X159984198Y-60359259D01*
X159873002Y-60313200D01*
X159793020Y-60280070D01*
X159793012Y-60280068D01*
X159590069Y-60239700D01*
X159590065Y-60239700D01*
X159383135Y-60239700D01*
X159383130Y-60239700D01*
X159180187Y-60280068D01*
X159180179Y-60280070D01*
X158989003Y-60359258D01*
X158816942Y-60474224D01*
X158670624Y-60620542D01*
X158555658Y-60792603D01*
X158476470Y-60983779D01*
X158476468Y-60983787D01*
X158436100Y-61186730D01*
X157997099Y-61186730D01*
X157956730Y-60983780D01*
X157877541Y-60792602D01*
X157762577Y-60620545D01*
X157762575Y-60620542D01*
X157616257Y-60474224D01*
X157496276Y-60394056D01*
X157444198Y-60359259D01*
X157333002Y-60313200D01*
X157253020Y-60280070D01*
X157253012Y-60280068D01*
X157050069Y-60239700D01*
X157050065Y-60239700D01*
X156843135Y-60239700D01*
X156843130Y-60239700D01*
X156640187Y-60280068D01*
X156640179Y-60280070D01*
X156449003Y-60359258D01*
X156276942Y-60474224D01*
X156130624Y-60620542D01*
X156015658Y-60792603D01*
X155936470Y-60983779D01*
X155936468Y-60983787D01*
X155896100Y-61186730D01*
X155457099Y-61186730D01*
X155416730Y-60983780D01*
X155337541Y-60792602D01*
X155222577Y-60620545D01*
X155222575Y-60620542D01*
X155076257Y-60474224D01*
X154956276Y-60394056D01*
X154904198Y-60359259D01*
X154793002Y-60313200D01*
X154713020Y-60280070D01*
X154713012Y-60280068D01*
X154510069Y-60239700D01*
X154510065Y-60239700D01*
X154303135Y-60239700D01*
X154303130Y-60239700D01*
X154100187Y-60280068D01*
X154100179Y-60280070D01*
X153909003Y-60359258D01*
X153736942Y-60474224D01*
X153590624Y-60620542D01*
X153475658Y-60792603D01*
X153396470Y-60983779D01*
X153396468Y-60983787D01*
X153356100Y-61186730D01*
X152917099Y-61186730D01*
X152876730Y-60983780D01*
X152797541Y-60792602D01*
X152682577Y-60620545D01*
X152682575Y-60620542D01*
X152536257Y-60474224D01*
X152416276Y-60394056D01*
X152364198Y-60359259D01*
X152253002Y-60313200D01*
X152173020Y-60280070D01*
X152173012Y-60280068D01*
X151970069Y-60239700D01*
X151970065Y-60239700D01*
X151763135Y-60239700D01*
X151763130Y-60239700D01*
X151560187Y-60280068D01*
X151560179Y-60280070D01*
X151369003Y-60359258D01*
X151196942Y-60474224D01*
X151050624Y-60620542D01*
X150935658Y-60792603D01*
X150856470Y-60983779D01*
X150856468Y-60983787D01*
X150816100Y-61186730D01*
X150377099Y-61186730D01*
X150336730Y-60983780D01*
X150257541Y-60792602D01*
X150142577Y-60620545D01*
X150142575Y-60620542D01*
X149996257Y-60474224D01*
X149876276Y-60394056D01*
X149824198Y-60359259D01*
X149713002Y-60313200D01*
X149633020Y-60280070D01*
X149633012Y-60280068D01*
X149430069Y-60239700D01*
X149430065Y-60239700D01*
X149223135Y-60239700D01*
X149223130Y-60239700D01*
X149020187Y-60280068D01*
X149020179Y-60280070D01*
X148829003Y-60359258D01*
X148656942Y-60474224D01*
X148510624Y-60620542D01*
X148395658Y-60792603D01*
X148316470Y-60983779D01*
X148316468Y-60983787D01*
X148276100Y-61186730D01*
X147837099Y-61186730D01*
X147796730Y-60983780D01*
X147717541Y-60792602D01*
X147602577Y-60620545D01*
X147602575Y-60620542D01*
X147456257Y-60474224D01*
X147336276Y-60394056D01*
X147284198Y-60359259D01*
X147173002Y-60313200D01*
X147093020Y-60280070D01*
X147093012Y-60280068D01*
X146890069Y-60239700D01*
X146890065Y-60239700D01*
X146683135Y-60239700D01*
X146683130Y-60239700D01*
X146480187Y-60280068D01*
X146480179Y-60280070D01*
X146289003Y-60359258D01*
X146116942Y-60474224D01*
X145970624Y-60620542D01*
X145855658Y-60792603D01*
X145776470Y-60983779D01*
X145776468Y-60983787D01*
X145736100Y-61186730D01*
X145297099Y-61186730D01*
X145256730Y-60983780D01*
X145177541Y-60792602D01*
X145062577Y-60620545D01*
X145062575Y-60620542D01*
X144916257Y-60474224D01*
X144796276Y-60394056D01*
X144744198Y-60359259D01*
X144633002Y-60313200D01*
X144553020Y-60280070D01*
X144553012Y-60280068D01*
X144350069Y-60239700D01*
X144350065Y-60239700D01*
X144143135Y-60239700D01*
X144143130Y-60239700D01*
X143940187Y-60280068D01*
X143940179Y-60280070D01*
X143749003Y-60359258D01*
X143576942Y-60474224D01*
X143430624Y-60620542D01*
X143315658Y-60792603D01*
X143236470Y-60983779D01*
X143236468Y-60983787D01*
X143196100Y-61186730D01*
X142757099Y-61186730D01*
X142716730Y-60983780D01*
X142637541Y-60792602D01*
X142522577Y-60620545D01*
X142522575Y-60620542D01*
X142376257Y-60474224D01*
X142256276Y-60394056D01*
X142204198Y-60359259D01*
X142093002Y-60313200D01*
X142013020Y-60280070D01*
X142013012Y-60280068D01*
X141810069Y-60239700D01*
X141810065Y-60239700D01*
X141603135Y-60239700D01*
X141603130Y-60239700D01*
X141400187Y-60280068D01*
X141400179Y-60280070D01*
X141209003Y-60359258D01*
X141036942Y-60474224D01*
X140890624Y-60620542D01*
X140775658Y-60792603D01*
X140696470Y-60983779D01*
X140696468Y-60983787D01*
X140656100Y-61186730D01*
X140217099Y-61186730D01*
X140176730Y-60983780D01*
X140097541Y-60792602D01*
X139982577Y-60620545D01*
X139982575Y-60620542D01*
X139836257Y-60474224D01*
X139716276Y-60394056D01*
X139664198Y-60359259D01*
X139553002Y-60313200D01*
X139473020Y-60280070D01*
X139473012Y-60280068D01*
X139270069Y-60239700D01*
X139270065Y-60239700D01*
X139063135Y-60239700D01*
X139063130Y-60239700D01*
X138860187Y-60280068D01*
X138860179Y-60280070D01*
X138669003Y-60359258D01*
X138496942Y-60474224D01*
X138350624Y-60620542D01*
X138235658Y-60792603D01*
X138156470Y-60983779D01*
X138156468Y-60983787D01*
X138116100Y-61186730D01*
X137677099Y-61186730D01*
X137636730Y-60983780D01*
X137557541Y-60792602D01*
X137442577Y-60620545D01*
X137442575Y-60620542D01*
X137296257Y-60474224D01*
X137176276Y-60394056D01*
X137124198Y-60359259D01*
X137013002Y-60313200D01*
X136933020Y-60280070D01*
X136933012Y-60280068D01*
X136730069Y-60239700D01*
X136730065Y-60239700D01*
X136523135Y-60239700D01*
X136523130Y-60239700D01*
X136320187Y-60280068D01*
X136320179Y-60280070D01*
X136129003Y-60359258D01*
X135956942Y-60474224D01*
X135810624Y-60620542D01*
X135695658Y-60792603D01*
X135616470Y-60983779D01*
X135616468Y-60983787D01*
X135576100Y-61186730D01*
X135137099Y-61186730D01*
X135096730Y-60983780D01*
X135017541Y-60792602D01*
X134902577Y-60620545D01*
X134902575Y-60620542D01*
X134756257Y-60474224D01*
X134636276Y-60394056D01*
X134584198Y-60359259D01*
X134473002Y-60313200D01*
X134393020Y-60280070D01*
X134393012Y-60280068D01*
X134190069Y-60239700D01*
X134190065Y-60239700D01*
X133983135Y-60239700D01*
X133983130Y-60239700D01*
X133780187Y-60280068D01*
X133780179Y-60280070D01*
X133589003Y-60359258D01*
X133416942Y-60474224D01*
X133270624Y-60620542D01*
X133155658Y-60792603D01*
X133076470Y-60983779D01*
X133076468Y-60983787D01*
X133036100Y-61186730D01*
X132597099Y-61186730D01*
X132556730Y-60983780D01*
X132477541Y-60792602D01*
X132362577Y-60620545D01*
X132362575Y-60620542D01*
X132216257Y-60474224D01*
X132096276Y-60394056D01*
X132044198Y-60359259D01*
X131933002Y-60313200D01*
X131853020Y-60280070D01*
X131853012Y-60280068D01*
X131650069Y-60239700D01*
X131650065Y-60239700D01*
X131443135Y-60239700D01*
X131443130Y-60239700D01*
X131240187Y-60280068D01*
X131240179Y-60280070D01*
X131049003Y-60359258D01*
X130876942Y-60474224D01*
X130730624Y-60620542D01*
X130615658Y-60792603D01*
X130536470Y-60983779D01*
X130536468Y-60983787D01*
X130496100Y-61186730D01*
X130057099Y-61186730D01*
X130016730Y-60983780D01*
X129937541Y-60792602D01*
X129822577Y-60620545D01*
X129822575Y-60620542D01*
X129676257Y-60474224D01*
X129556276Y-60394056D01*
X129504198Y-60359259D01*
X129393002Y-60313200D01*
X129313020Y-60280070D01*
X129313012Y-60280068D01*
X129110069Y-60239700D01*
X129110065Y-60239700D01*
X128903135Y-60239700D01*
X128903130Y-60239700D01*
X128700187Y-60280068D01*
X128700179Y-60280070D01*
X128509003Y-60359258D01*
X128336942Y-60474224D01*
X128190624Y-60620542D01*
X128075658Y-60792603D01*
X127996470Y-60983779D01*
X127996468Y-60983787D01*
X127956100Y-61186730D01*
X127442159Y-61186730D01*
X127406055Y-61005225D01*
X127406052Y-61005215D01*
X127332408Y-60827421D01*
X127332407Y-60827419D01*
X127312590Y-60797762D01*
X126949562Y-61160790D01*
X126932525Y-61097207D01*
X126866699Y-60983193D01*
X126773607Y-60890101D01*
X126659593Y-60824275D01*
X126596009Y-60807237D01*
X126959037Y-60444209D01*
X126959036Y-60444208D01*
X126929386Y-60424396D01*
X126929379Y-60424392D01*
X126751580Y-60350746D01*
X126751574Y-60350744D01*
X126562828Y-60313200D01*
X126370372Y-60313200D01*
X126181625Y-60350744D01*
X126181619Y-60350746D01*
X126003817Y-60424393D01*
X126003808Y-60424398D01*
X125974162Y-60444207D01*
X125974161Y-60444208D01*
X126337191Y-60807237D01*
X126273607Y-60824275D01*
X126159593Y-60890101D01*
X126066501Y-60983193D01*
X126000675Y-61097207D01*
X125983637Y-61160790D01*
X125620608Y-60797761D01*
X125620607Y-60797762D01*
X125600798Y-60827408D01*
X125600793Y-60827417D01*
X125527146Y-61005219D01*
X125527144Y-61005225D01*
X125489600Y-61193971D01*
X125489600Y-61386428D01*
X125489599Y-61386428D01*
X124903600Y-61386428D01*
X124903600Y-61193971D01*
X124866055Y-61005225D01*
X124866052Y-61005215D01*
X124792408Y-60827421D01*
X124792407Y-60827419D01*
X124772590Y-60797762D01*
X124409562Y-61160790D01*
X124392525Y-61097207D01*
X124326699Y-60983193D01*
X124233607Y-60890101D01*
X124119593Y-60824275D01*
X124056009Y-60807237D01*
X124419037Y-60444209D01*
X124419036Y-60444208D01*
X124389386Y-60424396D01*
X124389379Y-60424392D01*
X124211580Y-60350746D01*
X124211574Y-60350744D01*
X124022828Y-60313200D01*
X123830372Y-60313200D01*
X123641625Y-60350744D01*
X123641619Y-60350746D01*
X123463817Y-60424393D01*
X123463808Y-60424398D01*
X123434162Y-60444207D01*
X123434161Y-60444208D01*
X123797191Y-60807237D01*
X123733607Y-60824275D01*
X123619593Y-60890101D01*
X123526501Y-60983193D01*
X123460675Y-61097207D01*
X123443637Y-61160790D01*
X123080608Y-60797761D01*
X123080607Y-60797762D01*
X123060798Y-60827408D01*
X123060793Y-60827417D01*
X122987146Y-61005219D01*
X122987144Y-61005225D01*
X122949600Y-61193971D01*
X122949600Y-61386428D01*
X122949599Y-61386428D01*
X122326400Y-61386428D01*
X122326400Y-53536153D01*
X123929500Y-53536153D01*
X123929500Y-54243846D01*
X123960261Y-54398489D01*
X123960264Y-54398501D01*
X124020602Y-54544172D01*
X124020609Y-54544185D01*
X124108210Y-54675288D01*
X124108213Y-54675292D01*
X124219707Y-54786786D01*
X124219711Y-54786789D01*
X124350814Y-54874390D01*
X124350827Y-54874397D01*
X124496498Y-54934735D01*
X124496503Y-54934737D01*
X124651153Y-54965499D01*
X124651156Y-54965500D01*
X124651158Y-54965500D01*
X124808844Y-54965500D01*
X124808845Y-54965499D01*
X124963497Y-54934737D01*
X125109179Y-54874394D01*
X125240289Y-54786789D01*
X125351789Y-54675289D01*
X125439394Y-54544179D01*
X125499737Y-54398497D01*
X125530500Y-54243842D01*
X125530500Y-53536158D01*
X125530500Y-53536155D01*
X125530499Y-53536153D01*
X125523549Y-53501213D01*
X125499737Y-53381503D01*
X125439394Y-53235821D01*
X125439392Y-53235818D01*
X125439390Y-53235814D01*
X125434984Y-53229220D01*
X126003000Y-53229220D01*
X126003000Y-53640000D01*
X126449670Y-53640000D01*
X126429925Y-53659745D01*
X126380556Y-53745255D01*
X126355000Y-53840630D01*
X126355000Y-53939370D01*
X126380556Y-54034745D01*
X126429925Y-54120255D01*
X126449670Y-54140000D01*
X126003001Y-54140000D01*
X126003001Y-54550773D01*
X126013677Y-54624060D01*
X126068936Y-54737096D01*
X126157903Y-54826063D01*
X126270939Y-54881321D01*
X126270946Y-54881324D01*
X126344220Y-54891999D01*
X126479999Y-54891999D01*
X126480000Y-54891998D01*
X126480000Y-54170330D01*
X126499745Y-54190075D01*
X126585255Y-54239444D01*
X126680630Y-54265000D01*
X126779370Y-54265000D01*
X126874745Y-54239444D01*
X126960255Y-54190075D01*
X126980000Y-54170330D01*
X126980000Y-54891999D01*
X127115773Y-54891999D01*
X127189060Y-54881322D01*
X127302096Y-54826063D01*
X127391063Y-54737096D01*
X127446321Y-54624060D01*
X127446324Y-54624053D01*
X127457000Y-54550779D01*
X127457000Y-54140000D01*
X127010330Y-54140000D01*
X127030075Y-54120255D01*
X127079444Y-54034745D01*
X127105000Y-53939370D01*
X127105000Y-53840630D01*
X127086835Y-53772838D01*
X147853100Y-53772838D01*
X147853100Y-54024761D01*
X147892510Y-54273585D01*
X147970360Y-54513183D01*
X148049013Y-54667547D01*
X148084450Y-54737096D01*
X148084732Y-54737648D01*
X148232801Y-54941449D01*
X148232805Y-54941454D01*
X148410945Y-55119594D01*
X148410950Y-55119598D01*
X148552308Y-55222300D01*
X148614755Y-55267670D01*
X148757784Y-55340547D01*
X148839216Y-55382039D01*
X148839218Y-55382039D01*
X148839221Y-55382041D01*
X149078815Y-55459890D01*
X149327638Y-55499300D01*
X149327639Y-55499300D01*
X149579561Y-55499300D01*
X149579562Y-55499300D01*
X149828385Y-55459890D01*
X150067979Y-55382041D01*
X150292445Y-55267670D01*
X150496256Y-55119593D01*
X150674393Y-54941456D01*
X150822470Y-54737645D01*
X150936841Y-54513179D01*
X151014690Y-54273585D01*
X151054100Y-54024762D01*
X151054100Y-53772838D01*
X163093100Y-53772838D01*
X163093100Y-54024761D01*
X163132510Y-54273585D01*
X163210360Y-54513183D01*
X163289013Y-54667547D01*
X163324450Y-54737096D01*
X163324732Y-54737648D01*
X163472801Y-54941449D01*
X163472805Y-54941454D01*
X163650945Y-55119594D01*
X163650950Y-55119598D01*
X163792308Y-55222300D01*
X163854755Y-55267670D01*
X163997784Y-55340547D01*
X164079216Y-55382039D01*
X164079218Y-55382039D01*
X164079221Y-55382041D01*
X164318815Y-55459890D01*
X164567638Y-55499300D01*
X164567639Y-55499300D01*
X164819561Y-55499300D01*
X164819562Y-55499300D01*
X165068385Y-55459890D01*
X165270807Y-55394118D01*
X165340645Y-55392124D01*
X165396804Y-55424369D01*
X166128943Y-56156508D01*
X166128953Y-56156519D01*
X166133283Y-56160849D01*
X166133284Y-56160850D01*
X166241550Y-56269116D01*
X166374149Y-56345672D01*
X166405399Y-56354045D01*
X166405401Y-56354046D01*
X166405402Y-56354046D01*
X166444283Y-56364464D01*
X166522044Y-56385301D01*
X166522046Y-56385301D01*
X166682752Y-56385301D01*
X166682768Y-56385300D01*
X170198032Y-56385300D01*
X170198048Y-56385301D01*
X170205644Y-56385301D01*
X170358753Y-56385301D01*
X170358756Y-56385301D01*
X170506651Y-56345672D01*
X170639250Y-56269116D01*
X170747516Y-56160850D01*
X170747516Y-56160848D01*
X170757720Y-56150645D01*
X170757723Y-56150640D01*
X171398547Y-55509819D01*
X171459870Y-55476334D01*
X171486228Y-55473500D01*
X172092270Y-55473500D01*
X172122699Y-55470646D01*
X172122701Y-55470646D01*
X172186790Y-55448219D01*
X172250882Y-55425793D01*
X172360150Y-55345150D01*
X172440793Y-55235882D01*
X172481231Y-55120317D01*
X172485646Y-55107701D01*
X172485646Y-55107699D01*
X172488500Y-55077269D01*
X172488500Y-53718730D01*
X172485646Y-53688300D01*
X172485646Y-53688298D01*
X172440793Y-53560119D01*
X172440792Y-53560117D01*
X172360150Y-53450850D01*
X172250882Y-53370207D01*
X172250880Y-53370206D01*
X172122700Y-53325353D01*
X172092270Y-53322500D01*
X172092266Y-53322500D01*
X171283734Y-53322500D01*
X171283730Y-53322500D01*
X171253300Y-53325353D01*
X171253298Y-53325353D01*
X171125119Y-53370206D01*
X171125117Y-53370207D01*
X171015850Y-53450850D01*
X170935207Y-53560117D01*
X170935206Y-53560119D01*
X170890353Y-53688298D01*
X170890353Y-53688300D01*
X170887500Y-53718730D01*
X170887500Y-54324772D01*
X170878855Y-54354212D01*
X170872332Y-54384199D01*
X170868577Y-54389214D01*
X170867815Y-54391811D01*
X170851181Y-54412453D01*
X170700181Y-54563453D01*
X170638858Y-54596938D01*
X170569166Y-54591954D01*
X170513233Y-54550082D01*
X170488816Y-54484618D01*
X170488500Y-54475772D01*
X170488500Y-54044155D01*
X170488499Y-54044153D01*
X170457738Y-53889510D01*
X170457737Y-53889503D01*
X170457735Y-53889498D01*
X170397397Y-53743827D01*
X170397390Y-53743814D01*
X170309789Y-53612711D01*
X170309786Y-53612707D01*
X170198292Y-53501213D01*
X170198288Y-53501210D01*
X170067185Y-53413609D01*
X170067172Y-53413602D01*
X169921501Y-53353264D01*
X169921489Y-53353261D01*
X169766845Y-53322500D01*
X169766842Y-53322500D01*
X169609158Y-53322500D01*
X169609155Y-53322500D01*
X169454510Y-53353261D01*
X169454498Y-53353264D01*
X169308827Y-53413602D01*
X169308814Y-53413609D01*
X169177711Y-53501210D01*
X169177707Y-53501213D01*
X169066213Y-53612707D01*
X169066210Y-53612711D01*
X168978609Y-53743814D01*
X168978602Y-53743827D01*
X168918264Y-53889498D01*
X168918261Y-53889510D01*
X168887500Y-54044153D01*
X168887500Y-54751846D01*
X168918261Y-54906489D01*
X168918264Y-54906501D01*
X168978054Y-55050848D01*
X168985523Y-55120317D01*
X168954247Y-55182796D01*
X168894158Y-55218448D01*
X168863493Y-55222300D01*
X166890827Y-55222300D01*
X166823788Y-55202615D01*
X166803146Y-55185981D01*
X166219169Y-54602004D01*
X166185684Y-54540681D01*
X166188918Y-54476007D01*
X166254690Y-54273585D01*
X166294100Y-54024762D01*
X166294100Y-53772838D01*
X166254690Y-53524015D01*
X166176841Y-53284421D01*
X166176839Y-53284418D01*
X166176839Y-53284416D01*
X166135347Y-53202984D01*
X166062470Y-53059955D01*
X165985443Y-52953936D01*
X165914398Y-52856150D01*
X165914394Y-52856145D01*
X165736254Y-52678005D01*
X165736249Y-52678001D01*
X165532448Y-52529932D01*
X165532447Y-52529931D01*
X165532445Y-52529930D01*
X165462347Y-52494213D01*
X165307983Y-52415560D01*
X165068385Y-52337710D01*
X164819562Y-52298300D01*
X164567638Y-52298300D01*
X164443226Y-52318005D01*
X164318814Y-52337710D01*
X164079216Y-52415560D01*
X163854751Y-52529932D01*
X163650950Y-52678001D01*
X163650945Y-52678005D01*
X163472805Y-52856145D01*
X163472801Y-52856150D01*
X163324732Y-53059951D01*
X163210360Y-53284416D01*
X163132510Y-53524014D01*
X163093100Y-53772838D01*
X151054100Y-53772838D01*
X151014690Y-53524015D01*
X150936841Y-53284421D01*
X150936839Y-53284418D01*
X150936839Y-53284416D01*
X150895347Y-53202984D01*
X150822470Y-53059955D01*
X150745443Y-52953936D01*
X150674398Y-52856150D01*
X150674394Y-52856145D01*
X150496254Y-52678005D01*
X150496249Y-52678001D01*
X150292448Y-52529932D01*
X150292447Y-52529931D01*
X150292445Y-52529930D01*
X150222347Y-52494213D01*
X150067983Y-52415560D01*
X149828385Y-52337710D01*
X149579562Y-52298300D01*
X149327638Y-52298300D01*
X149203226Y-52318005D01*
X149078814Y-52337710D01*
X148839216Y-52415560D01*
X148614751Y-52529932D01*
X148410950Y-52678001D01*
X148410945Y-52678005D01*
X148232805Y-52856145D01*
X148232801Y-52856150D01*
X148084732Y-53059951D01*
X147970360Y-53284416D01*
X147892510Y-53524014D01*
X147853100Y-53772838D01*
X127086835Y-53772838D01*
X127079444Y-53745255D01*
X127030075Y-53659745D01*
X127010330Y-53640000D01*
X127456999Y-53640000D01*
X127456999Y-53229226D01*
X127446322Y-53155939D01*
X127391063Y-53042903D01*
X127302096Y-52953936D01*
X127189060Y-52898678D01*
X127189053Y-52898675D01*
X127115780Y-52888000D01*
X126980000Y-52888000D01*
X126980000Y-53609670D01*
X126960255Y-53589925D01*
X126874745Y-53540556D01*
X126779370Y-53515000D01*
X126680630Y-53515000D01*
X126585255Y-53540556D01*
X126499745Y-53589925D01*
X126480000Y-53609670D01*
X126480000Y-52888000D01*
X126344226Y-52888000D01*
X126270939Y-52898677D01*
X126157903Y-52953936D01*
X126068936Y-53042903D01*
X126013678Y-53155939D01*
X126013675Y-53155946D01*
X126003000Y-53229220D01*
X125434984Y-53229220D01*
X125351789Y-53104711D01*
X125351786Y-53104707D01*
X125240292Y-52993213D01*
X125240288Y-52993210D01*
X125109185Y-52905609D01*
X125109172Y-52905602D01*
X124963501Y-52845264D01*
X124963489Y-52845261D01*
X124808845Y-52814500D01*
X124808842Y-52814500D01*
X124651158Y-52814500D01*
X124651155Y-52814500D01*
X124496510Y-52845261D01*
X124496498Y-52845264D01*
X124350827Y-52905602D01*
X124350814Y-52905609D01*
X124219711Y-52993210D01*
X124219707Y-52993213D01*
X124108213Y-53104707D01*
X124108210Y-53104711D01*
X124020609Y-53235814D01*
X124020602Y-53235827D01*
X123960264Y-53381498D01*
X123960261Y-53381510D01*
X123929500Y-53536153D01*
X122326400Y-53536153D01*
X122326400Y-50289000D01*
X122346085Y-50221961D01*
X122398889Y-50176206D01*
X122450400Y-50165000D01*
X190884000Y-50165000D01*
X190951039Y-50184685D01*
G37*
%TD.AperFunction*%
%TD*%
%TA.AperFunction,Conductor*%
%TO.N,/4v6*%
G36*
X147092730Y-87561185D02*
G01*
X147113372Y-87577819D01*
X147444591Y-87909037D01*
X147381007Y-87926075D01*
X147266993Y-87991901D01*
X147173901Y-88084993D01*
X147108075Y-88199007D01*
X147091037Y-88262590D01*
X146728008Y-87899561D01*
X146728007Y-87899562D01*
X146708198Y-87929208D01*
X146708193Y-87929217D01*
X146634546Y-88107019D01*
X146634544Y-88107025D01*
X146597000Y-88295771D01*
X146597000Y-88488228D01*
X146596999Y-88488228D01*
X146634544Y-88676974D01*
X146634546Y-88676980D01*
X146708192Y-88854779D01*
X146708196Y-88854786D01*
X146728008Y-88884436D01*
X146728009Y-88884437D01*
X147091037Y-88521408D01*
X147108075Y-88584993D01*
X147173901Y-88699007D01*
X147266993Y-88792099D01*
X147381007Y-88857925D01*
X147444590Y-88874962D01*
X147081562Y-89237990D01*
X147111219Y-89257807D01*
X147111221Y-89257808D01*
X147289015Y-89331452D01*
X147289025Y-89331455D01*
X147477771Y-89369000D01*
X147670228Y-89369000D01*
X147858974Y-89331455D01*
X147858984Y-89331452D01*
X148036778Y-89257808D01*
X148036782Y-89257806D01*
X148066437Y-89237990D01*
X147703410Y-88874962D01*
X147766993Y-88857925D01*
X147881007Y-88792099D01*
X147974099Y-88699007D01*
X148039925Y-88584993D01*
X148056962Y-88521409D01*
X148419989Y-88884436D01*
X148453846Y-88881102D01*
X148522492Y-88894121D01*
X148573202Y-88942186D01*
X148590000Y-89004505D01*
X148590000Y-125352000D01*
X148570315Y-125419039D01*
X148517511Y-125464794D01*
X148466000Y-125476000D01*
X139443000Y-125476000D01*
X139375961Y-125456315D01*
X139330206Y-125403511D01*
X139319000Y-125352000D01*
X139319000Y-123853773D01*
X143973001Y-123853773D01*
X143983677Y-123927060D01*
X144038936Y-124040096D01*
X144127903Y-124129063D01*
X144240939Y-124184321D01*
X144240946Y-124184324D01*
X144314220Y-124194999D01*
X144749999Y-124194999D01*
X145250000Y-124194999D01*
X145685773Y-124194999D01*
X145759060Y-124184322D01*
X145872096Y-124129063D01*
X145961063Y-124040096D01*
X146016321Y-123927060D01*
X146016324Y-123927053D01*
X146027000Y-123853779D01*
X146027000Y-123743000D01*
X145250000Y-123743000D01*
X145250000Y-124194999D01*
X144749999Y-124194999D01*
X144750000Y-124194998D01*
X144750000Y-123743000D01*
X143973001Y-123743000D01*
X143973001Y-123853773D01*
X139319000Y-123853773D01*
X139319000Y-123132220D01*
X143973000Y-123132220D01*
X143973000Y-123243000D01*
X144750000Y-123243000D01*
X145250000Y-123243000D01*
X146026999Y-123243000D01*
X146026999Y-123132226D01*
X146016322Y-123058939D01*
X145961063Y-122945903D01*
X145872096Y-122856936D01*
X145759060Y-122801678D01*
X145759053Y-122801675D01*
X145685780Y-122791000D01*
X145250000Y-122791000D01*
X145250000Y-123243000D01*
X144750000Y-123243000D01*
X144750000Y-122791000D01*
X144314226Y-122791000D01*
X144240939Y-122801677D01*
X144127903Y-122856936D01*
X144038936Y-122945903D01*
X143983678Y-123058939D01*
X143983675Y-123058946D01*
X143973000Y-123132220D01*
X139319000Y-123132220D01*
X139319000Y-121876510D01*
X139778999Y-121876510D01*
X139786368Y-121913552D01*
X139814438Y-121955561D01*
X139856447Y-121983631D01*
X139893489Y-121991000D01*
X141656000Y-121991000D01*
X142156000Y-121991000D01*
X143918510Y-121991000D01*
X143955552Y-121983631D01*
X143997561Y-121955561D01*
X144025631Y-121913552D01*
X144033000Y-121876510D01*
X144033000Y-118614000D01*
X142156000Y-118614000D01*
X142156000Y-121991000D01*
X141656000Y-121991000D01*
X141656000Y-118614000D01*
X139779000Y-118614000D01*
X139779000Y-121876510D01*
X139778999Y-121876510D01*
X139319000Y-121876510D01*
X139319000Y-114851489D01*
X139779000Y-114851489D01*
X139779000Y-118114000D01*
X141656000Y-118114000D01*
X142156000Y-118114000D01*
X144033000Y-118114000D01*
X144033000Y-114851489D01*
X144025631Y-114814447D01*
X143997561Y-114772438D01*
X143955552Y-114744368D01*
X143918510Y-114737000D01*
X142156000Y-114737000D01*
X142156000Y-118114000D01*
X141656000Y-118114000D01*
X141656000Y-114737000D01*
X139893490Y-114737000D01*
X139856447Y-114744368D01*
X139814438Y-114772438D01*
X139786368Y-114814447D01*
X139779000Y-114851489D01*
X139319000Y-114851489D01*
X139319000Y-109064284D01*
X139338685Y-108997245D01*
X139355319Y-108976603D01*
X139451871Y-108880051D01*
X139490136Y-108841785D01*
X139490139Y-108841782D01*
X139599632Y-108677914D01*
X139606892Y-108660388D01*
X139649486Y-108557554D01*
X139675051Y-108495835D01*
X139713500Y-108302541D01*
X139713500Y-108112694D01*
X140326000Y-108112694D01*
X140326000Y-108295305D01*
X140361622Y-108474388D01*
X140361624Y-108474396D01*
X140431504Y-108643099D01*
X140443056Y-108660388D01*
X140853000Y-108250445D01*
X140853000Y-108256661D01*
X140880259Y-108358394D01*
X140932920Y-108449606D01*
X141007394Y-108524080D01*
X141098606Y-108576741D01*
X141200339Y-108604000D01*
X141206554Y-108604000D01*
X140796609Y-109013942D01*
X140813903Y-109025497D01*
X140982603Y-109095375D01*
X140982611Y-109095377D01*
X141161694Y-109130999D01*
X141161698Y-109131000D01*
X141344302Y-109131000D01*
X141344305Y-109130999D01*
X141523388Y-109095377D01*
X141523396Y-109095375D01*
X141692096Y-109025497D01*
X141709389Y-109013942D01*
X141299447Y-108604000D01*
X141305661Y-108604000D01*
X141407394Y-108576741D01*
X141498606Y-108524080D01*
X141573080Y-108449606D01*
X141625741Y-108358394D01*
X141653000Y-108256661D01*
X141653000Y-108250446D01*
X142062942Y-108660388D01*
X142074497Y-108643096D01*
X142144375Y-108474396D01*
X142144377Y-108474388D01*
X142179999Y-108295305D01*
X142180000Y-108295302D01*
X142180000Y-108112698D01*
X142179999Y-108112694D01*
X142144377Y-107933611D01*
X142144375Y-107933603D01*
X142074497Y-107764903D01*
X142062942Y-107747609D01*
X141653000Y-108157552D01*
X141653000Y-108151339D01*
X141625741Y-108049606D01*
X141573080Y-107958394D01*
X141498606Y-107883920D01*
X141407394Y-107831259D01*
X141305661Y-107804000D01*
X141299447Y-107804000D01*
X141709388Y-107394056D01*
X141709388Y-107394055D01*
X141692099Y-107382504D01*
X141523396Y-107312624D01*
X141523388Y-107312622D01*
X141344305Y-107277000D01*
X141161694Y-107277000D01*
X140982611Y-107312622D01*
X140982603Y-107312624D01*
X140813899Y-107382505D01*
X140813894Y-107382507D01*
X140796610Y-107394055D01*
X140796610Y-107394057D01*
X141206554Y-107804000D01*
X141200339Y-107804000D01*
X141098606Y-107831259D01*
X141007394Y-107883920D01*
X140932920Y-107958394D01*
X140880259Y-108049606D01*
X140853000Y-108151339D01*
X140853000Y-108157553D01*
X140443057Y-107747610D01*
X140443055Y-107747610D01*
X140431507Y-107764894D01*
X140431505Y-107764899D01*
X140361624Y-107933603D01*
X140361622Y-107933611D01*
X140326000Y-108112694D01*
X139713500Y-108112694D01*
X139713500Y-108105459D01*
X139713500Y-108105456D01*
X139675052Y-107912170D01*
X139675051Y-107912169D01*
X139675051Y-107912165D01*
X139663352Y-107883920D01*
X139599635Y-107730092D01*
X139599628Y-107730079D01*
X139490139Y-107566218D01*
X139490136Y-107566214D01*
X139355319Y-107431397D01*
X139321834Y-107370074D01*
X139319000Y-107343716D01*
X139319000Y-87665500D01*
X139338685Y-87598461D01*
X139391489Y-87552706D01*
X139443000Y-87541500D01*
X147025691Y-87541500D01*
X147092730Y-87561185D01*
G37*
%TD.AperFunction*%
%TA.AperFunction,Conductor*%
G36*
X148474685Y-87544050D02*
G01*
X148483647Y-87542762D01*
X148507687Y-87553740D01*
X148533039Y-87561185D01*
X148538966Y-87568025D01*
X148547203Y-87571787D01*
X148561492Y-87594021D01*
X148578794Y-87613989D01*
X148581081Y-87624503D01*
X148584977Y-87630565D01*
X148590000Y-87665500D01*
X148590000Y-87779493D01*
X148570315Y-87846532D01*
X148517511Y-87892287D01*
X148453847Y-87902896D01*
X148419991Y-87899561D01*
X148056962Y-88262590D01*
X148039925Y-88199007D01*
X147974099Y-88084993D01*
X147881007Y-87991901D01*
X147766993Y-87926075D01*
X147703409Y-87909037D01*
X148034626Y-87577819D01*
X148095949Y-87544334D01*
X148122307Y-87541500D01*
X148466000Y-87541500D01*
X148474685Y-87544050D01*
G37*
%TD.AperFunction*%
%TD*%
M02*
