%TF.GenerationSoftware,KiCad,Pcbnew,9.0.2*%
%TF.CreationDate,2025-11-06T14:17:09-06:00*%
%TF.ProjectId,cubesat Sim board,63756265-7361-4742-9053-696d20626f61,rev?*%
%TF.SameCoordinates,Original*%
%TF.FileFunction,Copper,L2,Bot*%
%TF.FilePolarity,Positive*%
%FSLAX46Y46*%
G04 Gerber Fmt 4.6, Leading zero omitted, Abs format (unit mm)*
G04 Created by KiCad (PCBNEW 9.0.2) date 2025-11-06 14:17:09*
%MOMM*%
%LPD*%
G01*
G04 APERTURE LIST*
G04 Aperture macros list*
%AMRoundRect*
0 Rectangle with rounded corners*
0 $1 Rounding radius*
0 $2 $3 $4 $5 $6 $7 $8 $9 X,Y pos of 4 corners*
0 Add a 4 corners polygon primitive as box body*
4,1,4,$2,$3,$4,$5,$6,$7,$8,$9,$2,$3,0*
0 Add four circle primitives for the rounded corners*
1,1,$1+$1,$2,$3*
1,1,$1+$1,$4,$5*
1,1,$1+$1,$6,$7*
1,1,$1+$1,$8,$9*
0 Add four rect primitives between the rounded corners*
20,1,$1+$1,$2,$3,$4,$5,0*
20,1,$1+$1,$4,$5,$6,$7,0*
20,1,$1+$1,$6,$7,$8,$9,0*
20,1,$1+$1,$8,$9,$2,$3,0*%
G04 Aperture macros list end*
%TA.AperFunction,ComponentPad*%
%ADD10C,2.800000*%
%TD*%
%TA.AperFunction,ComponentPad*%
%ADD11O,2.800000X2.800000*%
%TD*%
%TA.AperFunction,ComponentPad*%
%ADD12C,5.400000*%
%TD*%
%TA.AperFunction,ComponentPad*%
%ADD13C,1.803400*%
%TD*%
%TA.AperFunction,HeatsinkPad*%
%ADD14O,1.550000X0.890000*%
%TD*%
%TA.AperFunction,HeatsinkPad*%
%ADD15O,0.950000X1.250000*%
%TD*%
%TA.AperFunction,ComponentPad*%
%ADD16C,1.600000*%
%TD*%
%TA.AperFunction,ComponentPad*%
%ADD17O,1.600000X1.600000*%
%TD*%
%TA.AperFunction,ComponentPad*%
%ADD18C,1.700000*%
%TD*%
%TA.AperFunction,ComponentPad*%
%ADD19R,1.700000X1.700000*%
%TD*%
%TA.AperFunction,ComponentPad*%
%ADD20RoundRect,0.250000X0.350000X0.625000X-0.350000X0.625000X-0.350000X-0.625000X0.350000X-0.625000X0*%
%TD*%
%TA.AperFunction,ComponentPad*%
%ADD21O,1.200000X1.750000*%
%TD*%
%TA.AperFunction,ComponentPad*%
%ADD22O,1.308000X2.616000*%
%TD*%
%TA.AperFunction,ComponentPad*%
%ADD23O,2.616000X1.308000*%
%TD*%
%TA.AperFunction,ComponentPad*%
%ADD24C,1.508000*%
%TD*%
%TA.AperFunction,ViaPad*%
%ADD25C,0.600000*%
%TD*%
%TA.AperFunction,Conductor*%
%ADD26C,0.200000*%
%TD*%
G04 APERTURE END LIST*
D10*
%TO.P,R3,1*%
%TO.N,GND*%
X164820600Y-54025800D03*
D11*
%TO.P,R3,2*%
%TO.N,Net-(J3-Pin_1)*%
X180060600Y-54025800D03*
%TD*%
D12*
%TO.P,REF\u002A\u002A,1*%
%TO.N,GND*%
X176885600Y-62560200D03*
%TD*%
%TO.P,,1*%
%TO.N,GND*%
X120389808Y-124285359D03*
%TD*%
D13*
%TO.P,J1,1,Pin_1*%
%TO.N,GND*%
X120015000Y-104140000D03*
%TO.P,J1,2,Pin_2*%
%TO.N,/28V*%
X120015000Y-106680000D03*
%TD*%
D14*
%TO.P,J10,6,Shield*%
%TO.N,GND*%
X193675000Y-64564000D03*
D15*
X190975000Y-63564000D03*
X190975000Y-58564000D03*
D14*
X193675000Y-57564000D03*
%TD*%
D16*
%TO.P,R1,1*%
%TO.N,Net-(U1-FB)*%
X135636000Y-105185000D03*
D17*
%TO.P,R1,2*%
%TO.N,GND*%
X135636000Y-102645000D03*
%TD*%
D16*
%TO.P,R2,1*%
%TO.N,/4v6*%
X141253000Y-108204000D03*
D17*
%TO.P,R2,2*%
%TO.N,Net-(U1-FB)*%
X138713000Y-108204000D03*
%TD*%
D18*
%TO.P,J5,GND,Pin_2*%
%TO.N,GND*%
X157734000Y-88392000D03*
%TO.P,J5,SCL,Pin_3*%
%TO.N,/SCL*%
X155194000Y-88392000D03*
%TO.P,J5,SDA,Pin_4*%
%TO.N,/SDA*%
X152654000Y-88392000D03*
D19*
%TO.P,J5,VCC,Pin_1*%
%TO.N,/BATT_SW*%
X160274000Y-88392000D03*
D18*
%TO.P,J5,Vin+,Pin_6*%
%TO.N,/4v6*%
X147574000Y-88392000D03*
%TO.P,J5,Vin-,Pin_5*%
%TO.N,/BATT_SW*%
X150114000Y-88392000D03*
%TD*%
D13*
%TO.P,J6,HASP_RX,Pin_1*%
%TO.N,Net-(J6-Pin_1)*%
X121285000Y-79375000D03*
%TO.P,J6,HASP_TX,Pin_2*%
%TO.N,Net-(J6-Pin_2)*%
X121285000Y-81915000D03*
%TO.P,J6,SIG_GND,Pin_3*%
%TO.N,GND*%
X121285000Y-84455000D03*
%TD*%
D20*
%TO.P,J4,1,Pin_1*%
%TO.N,/BATT_SW*%
X126730000Y-53890000D03*
D21*
%TO.P,J4,2,Pin_2*%
%TO.N,GND*%
X124730000Y-53890000D03*
%TD*%
D12*
%TO.P,,1*%
%TO.N,GND*%
X190666930Y-124286700D03*
%TD*%
D22*
%TO.P,X1,1*%
%TO.N,unconnected-(X1-Pad1)*%
X120302000Y-95210000D03*
D23*
%TO.P,X1,2*%
%TO.N,unconnected-(X1-Pad2)*%
X125302000Y-100210000D03*
%TO.P,X1,3*%
%TO.N,unconnected-(X1-Pad3)*%
X125302000Y-90210000D03*
D24*
%TO.P,X1,4*%
%TO.N,unconnected-(X1-Pad4)*%
X130302000Y-92710000D03*
%TO.P,X1,5*%
%TO.N,/EN*%
X130302000Y-95210000D03*
%TO.P,X1,6*%
%TO.N,GND*%
X130302000Y-97710000D03*
%TD*%
D20*
%TO.P,J3,1,Pin_1*%
%TO.N,Net-(J3-Pin_1)*%
X187055000Y-54525000D03*
D21*
%TO.P,J3,2,Pin_2*%
%TO.N,GND*%
X185055000Y-54525000D03*
%TD*%
D18*
%TO.P,J8,D+,Pin_2*%
%TO.N,Net-(J8-Pin_2)*%
X184531000Y-86448000D03*
%TO.P,J8,D-,Pin_3*%
%TO.N,Net-(J8-Pin_3)*%
X181991000Y-86448000D03*
%TO.P,J8,GND,Pin_4*%
%TO.N,GND*%
X179451000Y-86448000D03*
D19*
%TO.P,J8,VBUS,Pin_1*%
%TO.N,Net-(J8-Pin_1)*%
X187071000Y-86448000D03*
%TD*%
D18*
%TO.P,J9,D+,Pin_2*%
%TO.N,Net-(J10-D+)*%
X184531000Y-71208000D03*
%TO.P,J9,D-,Pin_3*%
%TO.N,Net-(J10-D-)*%
X181991000Y-71208000D03*
%TO.P,J9,GND,Pin_4*%
%TO.N,GND*%
X179451000Y-71208000D03*
D19*
%TO.P,J9,VBUS,Pin_1*%
%TO.N,Net-(J10-VBUS)*%
X187071000Y-71208000D03*
%TD*%
D12*
%TO.P,,1*%
%TO.N,GND*%
X118887040Y-62558600D03*
%TD*%
D18*
%TO.P,J7,D+,Pin_2*%
%TO.N,unconnected-(J7-Pin_2-PadD+)*%
X174371000Y-77558000D03*
%TO.P,J7,D-,Pin_3*%
%TO.N,unconnected-(J7-Pin_3-PadD-)*%
X174371000Y-80098000D03*
%TO.P,J7,GND,Pin_4*%
%TO.N,GND*%
X174371000Y-82638000D03*
D19*
%TO.P,J7,VBUS,Pin_1*%
%TO.N,unconnected-(J7-Pin_1-PadVBUS)*%
X174371000Y-75018000D03*
%TD*%
%TO.P,J2,1,Pin_1*%
%TO.N,/PI_3V3*%
X123926600Y-63830200D03*
D18*
%TO.P,J2,2,Pin_2*%
%TO.N,/BATT_SW*%
X123926600Y-61290200D03*
%TO.P,J2,3,Pin_3*%
%TO.N,/SDA*%
X126466600Y-63830200D03*
%TO.P,J2,4,Pin_4*%
%TO.N,/BATT_SW*%
X126466600Y-61290200D03*
%TO.P,J2,5,Pin_5*%
%TO.N,/SCL*%
X129006600Y-63830200D03*
%TO.P,J2,6,Pin_6*%
%TO.N,GND*%
X129006600Y-61290200D03*
%TO.P,J2,7,Pin_7*%
%TO.N,unconnected-(J2-Pin_7-Pad7)*%
X131546600Y-63830200D03*
%TO.P,J2,8,Pin_8*%
%TO.N,unconnected-(J2-Pin_8-Pad8)*%
X131546600Y-61290200D03*
%TO.P,J2,9,Pin_9*%
%TO.N,unconnected-(J2-Pin_9-Pad9)*%
X134086600Y-63830200D03*
%TO.P,J2,10,Pin_10*%
%TO.N,unconnected-(J2-Pin_10-Pad10)*%
X134086600Y-61290200D03*
%TO.P,J2,11,Pin_11*%
%TO.N,unconnected-(J2-Pin_11-Pad11)*%
X136626600Y-63830200D03*
%TO.P,J2,12,Pin_12*%
%TO.N,unconnected-(J2-Pin_12-Pad12)*%
X136626600Y-61290200D03*
%TO.P,J2,13,Pin_13*%
%TO.N,unconnected-(J2-Pin_13-Pad13)*%
X139166600Y-63830200D03*
%TO.P,J2,14,Pin_14*%
%TO.N,unconnected-(J2-Pin_14-Pad14)*%
X139166600Y-61290200D03*
%TO.P,J2,15,Pin_15*%
%TO.N,unconnected-(J2-Pin_15-Pad15)*%
X141706600Y-63830200D03*
%TO.P,J2,16,Pin_16*%
%TO.N,unconnected-(J2-Pin_16-Pad16)*%
X141706600Y-61290200D03*
%TO.P,J2,17,Pin_17*%
%TO.N,unconnected-(J2-Pin_17-Pad17)*%
X144246600Y-63830200D03*
%TO.P,J2,18,Pin_18*%
%TO.N,unconnected-(J2-Pin_18-Pad18)*%
X144246600Y-61290200D03*
%TO.P,J2,19,Pin_19*%
%TO.N,unconnected-(J2-Pin_19-Pad19)*%
X146786600Y-63830200D03*
%TO.P,J2,20,Pin_20*%
%TO.N,unconnected-(J2-Pin_20-Pad20)*%
X146786600Y-61290200D03*
%TO.P,J2,21,Pin_21*%
%TO.N,unconnected-(J2-Pin_21-Pad21)*%
X149326600Y-63830200D03*
%TO.P,J2,22,Pin_22*%
%TO.N,unconnected-(J2-Pin_22-Pad22)*%
X149326600Y-61290200D03*
%TO.P,J2,23,Pin_23*%
%TO.N,unconnected-(J2-Pin_23-Pad23)*%
X151866600Y-63830200D03*
%TO.P,J2,24,Pin_24*%
%TO.N,unconnected-(J2-Pin_24-Pad24)*%
X151866600Y-61290200D03*
%TO.P,J2,25,Pin_25*%
%TO.N,unconnected-(J2-Pin_25-Pad25)*%
X154406600Y-63830200D03*
%TO.P,J2,26,Pin_26*%
%TO.N,unconnected-(J2-Pin_26-Pad26)*%
X154406600Y-61290200D03*
%TO.P,J2,27,Pin_27*%
%TO.N,unconnected-(J2-Pin_27-Pad27)*%
X156946600Y-63830200D03*
%TO.P,J2,28,Pin_28*%
%TO.N,unconnected-(J2-Pin_28-Pad28)*%
X156946600Y-61290200D03*
%TO.P,J2,29,Pin_29*%
%TO.N,unconnected-(J2-Pin_29-Pad29)*%
X159486600Y-63830200D03*
%TO.P,J2,30,Pin_30*%
%TO.N,unconnected-(J2-Pin_30-Pad30)*%
X159486600Y-61290200D03*
%TO.P,J2,31,Pin_31*%
%TO.N,unconnected-(J2-Pin_31-Pad31)*%
X162026600Y-63830200D03*
%TO.P,J2,32,Pin_32*%
%TO.N,unconnected-(J2-Pin_32-Pad32)*%
X162026600Y-61290200D03*
%TO.P,J2,33,Pin_33*%
%TO.N,unconnected-(J2-Pin_33-Pad33)*%
X164566600Y-63830200D03*
%TO.P,J2,34,Pin_34*%
%TO.N,unconnected-(J2-Pin_34-Pad34)*%
X164566600Y-61290200D03*
%TO.P,J2,35,Pin_35*%
%TO.N,unconnected-(J2-Pin_35-Pad35)*%
X167106600Y-63830200D03*
%TO.P,J2,36,Pin_36*%
%TO.N,unconnected-(J2-Pin_36-Pad36)*%
X167106600Y-61290200D03*
%TO.P,J2,37,Pin_37*%
%TO.N,unconnected-(J2-Pin_37-Pad37)*%
X169646600Y-63830200D03*
%TO.P,J2,38,Pin_38*%
%TO.N,unconnected-(J2-Pin_38-Pad38)*%
X169646600Y-61290200D03*
%TO.P,J2,39,Pin_39*%
%TO.N,GND*%
X172186600Y-63830200D03*
%TO.P,J2,40,Pin_40*%
%TO.N,unconnected-(J2-Pin_40-Pad40)*%
X172186600Y-61290200D03*
%TD*%
D25*
%TO.N,GND*%
X158242000Y-69723000D03*
X133604000Y-108004001D03*
X147066000Y-69977000D03*
X161417000Y-77978000D03*
X148082000Y-75438000D03*
X124968000Y-112888000D03*
X125476000Y-112354000D03*
X134874000Y-77851000D03*
X137160000Y-69088000D03*
X143764000Y-126365000D03*
X128270000Y-112608000D03*
%TO.N,Net-(J6-Pin_2)*%
X128524000Y-78105000D03*
X130472265Y-76918735D03*
%TO.N,Net-(J6-Pin_1)*%
X127127000Y-76962000D03*
X129413000Y-75311000D03*
%TO.N,Net-(J10-D-)*%
X185039000Y-67398000D03*
X183677000Y-67400278D03*
%TD*%
D26*
%TO.N,Net-(J6-Pin_2)*%
X129710265Y-76918735D02*
X128524000Y-78105000D01*
X130472265Y-76918735D02*
X129710265Y-76918735D01*
%TO.N,Net-(J6-Pin_1)*%
X128778000Y-75311000D02*
X127127000Y-76962000D01*
X129413000Y-75311000D02*
X128778000Y-75311000D01*
%TO.N,Net-(J10-D-)*%
X183677000Y-67400278D02*
X185036722Y-67400278D01*
X185036722Y-67400278D02*
X185039000Y-67398000D01*
%TD*%
%TA.AperFunction,Conductor*%
%TO.N,GND*%
G36*
X170988044Y-61944199D02*
G01*
X171027086Y-61989256D01*
X171031551Y-61998020D01*
X171156490Y-62169986D01*
X171306813Y-62320309D01*
X171478779Y-62445248D01*
X171478781Y-62445249D01*
X171478784Y-62445251D01*
X171488093Y-62449994D01*
X171538890Y-62497966D01*
X171555687Y-62565787D01*
X171533152Y-62631922D01*
X171488105Y-62670960D01*
X171479046Y-62675576D01*
X171479040Y-62675580D01*
X171424882Y-62714927D01*
X171424882Y-62714928D01*
X172057191Y-63347237D01*
X171993607Y-63364275D01*
X171879593Y-63430101D01*
X171786501Y-63523193D01*
X171720675Y-63637207D01*
X171703637Y-63700791D01*
X171071328Y-63068482D01*
X171071327Y-63068482D01*
X171031980Y-63122640D01*
X171031976Y-63122646D01*
X171027360Y-63131705D01*
X170979381Y-63182497D01*
X170911559Y-63199287D01*
X170845426Y-63176743D01*
X170806394Y-63131693D01*
X170801651Y-63122384D01*
X170801649Y-63122381D01*
X170801648Y-63122379D01*
X170676709Y-62950413D01*
X170526386Y-62800090D01*
X170354420Y-62675151D01*
X170346200Y-62670963D01*
X170345654Y-62670685D01*
X170294859Y-62622712D01*
X170278063Y-62554892D01*
X170300599Y-62488756D01*
X170345654Y-62449715D01*
X170354416Y-62445251D01*
X170444154Y-62380053D01*
X170526386Y-62320309D01*
X170526388Y-62320306D01*
X170526392Y-62320304D01*
X170676704Y-62169992D01*
X170676706Y-62169988D01*
X170676709Y-62169986D01*
X170801648Y-61998020D01*
X170801647Y-61998020D01*
X170801651Y-61998016D01*
X170806114Y-61989254D01*
X170854088Y-61938459D01*
X170921908Y-61921663D01*
X170988044Y-61944199D01*
G37*
%TD.AperFunction*%
%TA.AperFunction,Conductor*%
G36*
X128540675Y-61483193D02*
G01*
X128606501Y-61597207D01*
X128699593Y-61690299D01*
X128813607Y-61756125D01*
X128877190Y-61773162D01*
X128244882Y-62405469D01*
X128244882Y-62405470D01*
X128299052Y-62444826D01*
X128299051Y-62444826D01*
X128308095Y-62449434D01*
X128358892Y-62497408D01*
X128375687Y-62565229D01*
X128353150Y-62631364D01*
X128308099Y-62670402D01*
X128298782Y-62675149D01*
X128126813Y-62800090D01*
X127976490Y-62950413D01*
X127851549Y-63122382D01*
X127847084Y-63131146D01*
X127799109Y-63181942D01*
X127731288Y-63198736D01*
X127665153Y-63176198D01*
X127626116Y-63131146D01*
X127621650Y-63122382D01*
X127496709Y-62950413D01*
X127346386Y-62800090D01*
X127174420Y-62675151D01*
X127166200Y-62670963D01*
X127165654Y-62670685D01*
X127114859Y-62622712D01*
X127098063Y-62554892D01*
X127120599Y-62488756D01*
X127165654Y-62449715D01*
X127174416Y-62445251D01*
X127264154Y-62380053D01*
X127346386Y-62320309D01*
X127346388Y-62320306D01*
X127346392Y-62320304D01*
X127496704Y-62169992D01*
X127496706Y-62169988D01*
X127496709Y-62169986D01*
X127582490Y-62051917D01*
X127621651Y-61998016D01*
X127626393Y-61988708D01*
X127674363Y-61937911D01*
X127742183Y-61921111D01*
X127808319Y-61943645D01*
X127847363Y-61988700D01*
X127851973Y-61997747D01*
X127891328Y-62051916D01*
X128523637Y-61419608D01*
X128540675Y-61483193D01*
G37*
%TD.AperFunction*%
%TA.AperFunction,Conductor*%
G36*
X130121870Y-62051917D02*
G01*
X130121870Y-62051916D01*
X130161222Y-61997755D01*
X130165832Y-61988707D01*
X130213805Y-61937909D01*
X130281625Y-61921112D01*
X130347761Y-61943647D01*
X130386804Y-61988704D01*
X130391549Y-61998017D01*
X130516490Y-62169986D01*
X130666813Y-62320309D01*
X130838782Y-62445250D01*
X130847546Y-62449716D01*
X130898342Y-62497691D01*
X130915136Y-62565512D01*
X130892598Y-62631647D01*
X130847546Y-62670684D01*
X130838782Y-62675149D01*
X130666813Y-62800090D01*
X130516490Y-62950413D01*
X130391549Y-63122382D01*
X130387084Y-63131146D01*
X130339109Y-63181942D01*
X130271288Y-63198736D01*
X130205153Y-63176198D01*
X130166116Y-63131146D01*
X130161650Y-63122382D01*
X130036709Y-62950413D01*
X129886386Y-62800090D01*
X129714417Y-62675149D01*
X129705104Y-62670404D01*
X129654307Y-62622430D01*
X129637512Y-62554609D01*
X129660049Y-62488474D01*
X129705107Y-62449432D01*
X129714155Y-62444822D01*
X129768316Y-62405470D01*
X129768317Y-62405470D01*
X129136008Y-61773162D01*
X129199593Y-61756125D01*
X129313607Y-61690299D01*
X129406699Y-61597207D01*
X129472525Y-61483193D01*
X129489562Y-61419608D01*
X130121870Y-62051917D01*
G37*
%TD.AperFunction*%
%TA.AperFunction,Conductor*%
G36*
X190585177Y-49559269D02*
G01*
X190696269Y-49560433D01*
X190698835Y-49560486D01*
X190805026Y-49563825D01*
X190808394Y-49563977D01*
X190913521Y-49570160D01*
X190916374Y-49570361D01*
X191022729Y-49579096D01*
X191025423Y-49579348D01*
X191131210Y-49590484D01*
X191134305Y-49590850D01*
X191228654Y-49603212D01*
X191238649Y-49604522D01*
X191241787Y-49604974D01*
X191271199Y-49609595D01*
X191346952Y-49621498D01*
X191349469Y-49621921D01*
X191454444Y-49640727D01*
X191457384Y-49641292D01*
X191552146Y-49660726D01*
X191561367Y-49662617D01*
X191564264Y-49663248D01*
X191620721Y-49676240D01*
X191667217Y-49686940D01*
X191670312Y-49687695D01*
X191772616Y-49714043D01*
X191775479Y-49714817D01*
X191878295Y-49743936D01*
X191880899Y-49744704D01*
X191939806Y-49762789D01*
X191982284Y-49775831D01*
X191985326Y-49776809D01*
X192080733Y-49808894D01*
X192085687Y-49810560D01*
X192088296Y-49811470D01*
X192187945Y-49847506D01*
X192190870Y-49848607D01*
X192289697Y-49887254D01*
X192292295Y-49888304D01*
X192390660Y-49929434D01*
X192393260Y-49930557D01*
X192490124Y-49973759D01*
X192492832Y-49975006D01*
X192588334Y-50020428D01*
X192591133Y-50021804D01*
X192686040Y-50069923D01*
X192688501Y-50071205D01*
X192782040Y-50121315D01*
X192784732Y-50122802D01*
X192877196Y-50175390D01*
X192879560Y-50176769D01*
X192934451Y-50209649D01*
X192970401Y-50231183D01*
X192973169Y-50232891D01*
X193034543Y-50271877D01*
X193062298Y-50289507D01*
X193064771Y-50291119D01*
X193152914Y-50350106D01*
X193155354Y-50351783D01*
X193242451Y-50413196D01*
X193244675Y-50414803D01*
X193330264Y-50478104D01*
X193332676Y-50479936D01*
X193416126Y-50544965D01*
X193418443Y-50546815D01*
X193500662Y-50614106D01*
X193502898Y-50615980D01*
X193583240Y-50684997D01*
X193585544Y-50687029D01*
X193664116Y-50758060D01*
X193666265Y-50760049D01*
X193743434Y-50833196D01*
X193745553Y-50835253D01*
X193820869Y-50910129D01*
X193822926Y-50912223D01*
X193896204Y-50988606D01*
X193898333Y-50990882D01*
X193969801Y-51069227D01*
X193971769Y-51071436D01*
X194041514Y-51151656D01*
X194043427Y-51153911D01*
X194110874Y-51235331D01*
X194112825Y-51237749D01*
X194175667Y-51317632D01*
X194178566Y-51321317D01*
X194180250Y-51323507D01*
X194244106Y-51408511D01*
X194246004Y-51411107D01*
X194307389Y-51497393D01*
X194308962Y-51499656D01*
X194368371Y-51587222D01*
X194370232Y-51590048D01*
X194427265Y-51679257D01*
X194428683Y-51681529D01*
X194484047Y-51772394D01*
X194485656Y-51775111D01*
X194496862Y-51794603D01*
X194538506Y-51867042D01*
X194539896Y-51869527D01*
X194590839Y-51963153D01*
X194592194Y-51965714D01*
X194640452Y-52059563D01*
X194641908Y-52062488D01*
X194687875Y-52157989D01*
X194689055Y-52160512D01*
X194733189Y-52257734D01*
X194734359Y-52260395D01*
X194775879Y-52357866D01*
X194777072Y-52360768D01*
X194816118Y-52459274D01*
X194817172Y-52462028D01*
X194853788Y-52561226D01*
X194854834Y-52564172D01*
X194889009Y-52664471D01*
X194889930Y-52667286D01*
X194921773Y-52768607D01*
X194922628Y-52771443D01*
X194952029Y-52873451D01*
X194952818Y-52876318D01*
X194976864Y-52967950D01*
X194979710Y-52978792D01*
X194980441Y-52981723D01*
X195004987Y-53085490D01*
X195005609Y-53088260D01*
X195027583Y-53191668D01*
X195028211Y-53194825D01*
X195047499Y-53298799D01*
X195047996Y-53301666D01*
X195064861Y-53406202D01*
X195065324Y-53409322D01*
X195079553Y-53514460D01*
X195079905Y-53517313D01*
X195091754Y-53623302D01*
X195092040Y-53626155D01*
X195101380Y-53731763D01*
X195101616Y-53734887D01*
X195108283Y-53840661D01*
X195108431Y-53843531D01*
X195112653Y-53949645D01*
X195112738Y-53952753D01*
X195114597Y-54079236D01*
X195114610Y-54081058D01*
X195114610Y-57150042D01*
X195094925Y-57217081D01*
X195042121Y-57262836D01*
X194972963Y-57272780D01*
X194909407Y-57243755D01*
X194876049Y-57197495D01*
X194842449Y-57116377D01*
X194842444Y-57116368D01*
X194739029Y-56961598D01*
X194739026Y-56961594D01*
X194607405Y-56829973D01*
X194607401Y-56829970D01*
X194452631Y-56726555D01*
X194452622Y-56726550D01*
X194280646Y-56655316D01*
X194280638Y-56655314D01*
X194098077Y-56619000D01*
X193925000Y-56619000D01*
X193925000Y-57314000D01*
X193425000Y-57314000D01*
X193425000Y-56619000D01*
X193251923Y-56619000D01*
X193069361Y-56655314D01*
X193069353Y-56655316D01*
X192897377Y-56726550D01*
X192897368Y-56726555D01*
X192742598Y-56829970D01*
X192742594Y-56829973D01*
X192610973Y-56961594D01*
X192610970Y-56961598D01*
X192507555Y-57116368D01*
X192507548Y-57116381D01*
X192436317Y-57288350D01*
X192436316Y-57288355D01*
X192431216Y-57314000D01*
X193300272Y-57314000D01*
X193208386Y-57352060D01*
X193138060Y-57422386D01*
X193100000Y-57514272D01*
X193100000Y-57613728D01*
X193138060Y-57705614D01*
X193208386Y-57775940D01*
X193300272Y-57814000D01*
X192431216Y-57814000D01*
X192436316Y-57839644D01*
X192436317Y-57839649D01*
X192507548Y-58011618D01*
X192507555Y-58011631D01*
X192610970Y-58166401D01*
X192610973Y-58166405D01*
X192742594Y-58298026D01*
X192742598Y-58298029D01*
X192897368Y-58401444D01*
X192897377Y-58401449D01*
X193069353Y-58472683D01*
X193069361Y-58472685D01*
X193251921Y-58508999D01*
X193251924Y-58509000D01*
X193425000Y-58509000D01*
X193425000Y-57814000D01*
X193925000Y-57814000D01*
X193925000Y-58509000D01*
X194098076Y-58509000D01*
X194098078Y-58508999D01*
X194280638Y-58472685D01*
X194280646Y-58472683D01*
X194452622Y-58401449D01*
X194452631Y-58401444D01*
X194607401Y-58298029D01*
X194607405Y-58298026D01*
X194739026Y-58166405D01*
X194739029Y-58166401D01*
X194842444Y-58011631D01*
X194842451Y-58011618D01*
X194876049Y-57930505D01*
X194919889Y-57876101D01*
X194986183Y-57854036D01*
X195053883Y-57871315D01*
X195101494Y-57922452D01*
X195114610Y-57977957D01*
X195114610Y-64150042D01*
X195094925Y-64217081D01*
X195042121Y-64262836D01*
X194972963Y-64272780D01*
X194909407Y-64243755D01*
X194876049Y-64197495D01*
X194842449Y-64116377D01*
X194842444Y-64116368D01*
X194739029Y-63961598D01*
X194739026Y-63961594D01*
X194607405Y-63829973D01*
X194607401Y-63829970D01*
X194452631Y-63726555D01*
X194452622Y-63726550D01*
X194280646Y-63655316D01*
X194280638Y-63655314D01*
X194098077Y-63619000D01*
X193925000Y-63619000D01*
X193925000Y-64314000D01*
X193425000Y-64314000D01*
X193425000Y-63619000D01*
X193251923Y-63619000D01*
X193069361Y-63655314D01*
X193069353Y-63655316D01*
X192897377Y-63726550D01*
X192897368Y-63726555D01*
X192742598Y-63829970D01*
X192742594Y-63829973D01*
X192610973Y-63961594D01*
X192610970Y-63961598D01*
X192507555Y-64116368D01*
X192507548Y-64116381D01*
X192436317Y-64288350D01*
X192436316Y-64288355D01*
X192431216Y-64314000D01*
X193300272Y-64314000D01*
X193208386Y-64352060D01*
X193138060Y-64422386D01*
X193100000Y-64514272D01*
X193100000Y-64613728D01*
X193138060Y-64705614D01*
X193208386Y-64775940D01*
X193300272Y-64814000D01*
X192431216Y-64814000D01*
X192436316Y-64839644D01*
X192436317Y-64839649D01*
X192507548Y-65011618D01*
X192507555Y-65011631D01*
X192610970Y-65166401D01*
X192610973Y-65166405D01*
X192742594Y-65298026D01*
X192742598Y-65298029D01*
X192897368Y-65401444D01*
X192897377Y-65401449D01*
X193069353Y-65472683D01*
X193069361Y-65472685D01*
X193251921Y-65508999D01*
X193251924Y-65509000D01*
X193425000Y-65509000D01*
X193425000Y-64814000D01*
X193925000Y-64814000D01*
X193925000Y-65509000D01*
X194098076Y-65509000D01*
X194098078Y-65508999D01*
X194280638Y-65472685D01*
X194280646Y-65472683D01*
X194452622Y-65401449D01*
X194452631Y-65401444D01*
X194607401Y-65298029D01*
X194607405Y-65298026D01*
X194739026Y-65166405D01*
X194739029Y-65166401D01*
X194842444Y-65011631D01*
X194842451Y-65011618D01*
X194876049Y-64930505D01*
X194919889Y-64876101D01*
X194986183Y-64854036D01*
X195053883Y-64871315D01*
X195101494Y-64922452D01*
X195114610Y-64977957D01*
X195114610Y-124352594D01*
X195115381Y-124355473D01*
X195119591Y-124389313D01*
X195119589Y-124389454D01*
X195119513Y-124392368D01*
X195115485Y-124499171D01*
X195115344Y-124502028D01*
X195108930Y-124607450D01*
X195108678Y-124610833D01*
X195099352Y-124716388D01*
X195099093Y-124718998D01*
X195087467Y-124824965D01*
X195087087Y-124828073D01*
X195072933Y-124932648D01*
X195072477Y-124935724D01*
X195055603Y-125040550D01*
X195055099Y-125043461D01*
X195035689Y-125148087D01*
X195035126Y-125150935D01*
X195013264Y-125255119D01*
X195012626Y-125257984D01*
X195001865Y-125303786D01*
X194988456Y-125360863D01*
X194987698Y-125363915D01*
X194960877Y-125466336D01*
X194960091Y-125469196D01*
X194930560Y-125571876D01*
X194929760Y-125574546D01*
X194898187Y-125675709D01*
X194897195Y-125678750D01*
X194863144Y-125778709D01*
X194862125Y-125781582D01*
X194825293Y-125881583D01*
X194824298Y-125884194D01*
X194785251Y-125983265D01*
X194784108Y-125986064D01*
X194742995Y-126083310D01*
X194741722Y-126086215D01*
X194697944Y-126182658D01*
X194696763Y-126185183D01*
X194650687Y-126280911D01*
X194649285Y-126283732D01*
X194600575Y-126378681D01*
X194599336Y-126381034D01*
X194548793Y-126474562D01*
X194547199Y-126477419D01*
X194494620Y-126568861D01*
X194493086Y-126571457D01*
X194437715Y-126662554D01*
X194436227Y-126664940D01*
X194379062Y-126754355D01*
X194377324Y-126756998D01*
X194318244Y-126844413D01*
X194316516Y-126846904D01*
X194254611Y-126933839D01*
X194252990Y-126936063D01*
X194189493Y-127021171D01*
X194187565Y-127023687D01*
X194122236Y-127106734D01*
X194120374Y-127109044D01*
X194052634Y-127191040D01*
X194050724Y-127193297D01*
X193981268Y-127273402D01*
X193979191Y-127275737D01*
X193907338Y-127354504D01*
X193905469Y-127356508D01*
X193832117Y-127433433D01*
X193829924Y-127435675D01*
X193755567Y-127509807D01*
X193753201Y-127512104D01*
X193676136Y-127584954D01*
X193674104Y-127586832D01*
X193594534Y-127658756D01*
X193592469Y-127660582D01*
X193512364Y-127729818D01*
X193509815Y-127731962D01*
X193427942Y-127798969D01*
X193425790Y-127800690D01*
X193341956Y-127866247D01*
X193339471Y-127868141D01*
X193254315Y-127931340D01*
X193251883Y-127933099D01*
X193242273Y-127939876D01*
X193165281Y-127994164D01*
X193162789Y-127995875D01*
X193074747Y-128054795D01*
X193072264Y-128056414D01*
X192982106Y-128113678D01*
X192979731Y-128115150D01*
X192888645Y-128170163D01*
X192885943Y-128171749D01*
X192794512Y-128223864D01*
X192791763Y-128225385D01*
X192697987Y-128275733D01*
X192695509Y-128277027D01*
X192600654Y-128325232D01*
X192597942Y-128326569D01*
X192502411Y-128372222D01*
X192499572Y-128373535D01*
X192403002Y-128416727D01*
X192400218Y-128417931D01*
X192301994Y-128459010D01*
X192299398Y-128460062D01*
X192200569Y-128498795D01*
X192197635Y-128499902D01*
X192098978Y-128535719D01*
X192097989Y-128536078D01*
X192095198Y-128537053D01*
X191994699Y-128570849D01*
X191991845Y-128571770D01*
X191890472Y-128603114D01*
X191887658Y-128603948D01*
X191785515Y-128632876D01*
X191782598Y-128633663D01*
X191679270Y-128660225D01*
X191676506Y-128660902D01*
X191573061Y-128684977D01*
X191570121Y-128685624D01*
X191466324Y-128707139D01*
X191463268Y-128707732D01*
X191359168Y-128726598D01*
X191356257Y-128727090D01*
X191251506Y-128743508D01*
X191248423Y-128743952D01*
X191143299Y-128757733D01*
X191140414Y-128758077D01*
X191034164Y-128769481D01*
X191031336Y-128769752D01*
X190925633Y-128778653D01*
X190922504Y-128778876D01*
X190827080Y-128784485D01*
X190820004Y-128784699D01*
X190650686Y-128784972D01*
X190635355Y-128786040D01*
X190614064Y-128786183D01*
X190613572Y-128786187D01*
X190612737Y-128786190D01*
X120390820Y-128786190D01*
X120389260Y-128786180D01*
X120279578Y-128784800D01*
X120276701Y-128784731D01*
X120171105Y-128780950D01*
X120167982Y-128780798D01*
X120062488Y-128774354D01*
X120059621Y-128774146D01*
X119954259Y-128765255D01*
X119951134Y-128764951D01*
X119846171Y-128753410D01*
X119843287Y-128753059D01*
X119738028Y-128738983D01*
X119735183Y-128738569D01*
X119630895Y-128722153D01*
X119627760Y-128721618D01*
X119523941Y-128702536D01*
X119521085Y-128701976D01*
X119417236Y-128680357D01*
X119414341Y-128679718D01*
X119333673Y-128660902D01*
X119311317Y-128655687D01*
X119308440Y-128654980D01*
X119206510Y-128628616D01*
X119203458Y-128627785D01*
X119101559Y-128598636D01*
X119098907Y-128597845D01*
X119027195Y-128575575D01*
X118997961Y-128566496D01*
X118994907Y-128565504D01*
X118994806Y-128565469D01*
X118894925Y-128531589D01*
X118892259Y-128530649D01*
X118838563Y-128511021D01*
X118792825Y-128494301D01*
X118790072Y-128493258D01*
X118776443Y-128487905D01*
X118691794Y-128454661D01*
X118688903Y-128453483D01*
X118591478Y-128412332D01*
X118588907Y-128411212D01*
X118492322Y-128367817D01*
X118489462Y-128366488D01*
X118394292Y-128320785D01*
X118391684Y-128319495D01*
X118297000Y-128271260D01*
X118294426Y-128269910D01*
X118201243Y-128219654D01*
X118198577Y-128218174D01*
X118106949Y-128165809D01*
X118104338Y-128164274D01*
X118014068Y-128109718D01*
X118011475Y-128108107D01*
X117922816Y-128051499D01*
X117920169Y-128049761D01*
X117838467Y-127994608D01*
X117832311Y-127990452D01*
X117830125Y-127988942D01*
X117829487Y-127988491D01*
X117743196Y-127927483D01*
X117740673Y-127925651D01*
X117691012Y-127888634D01*
X117656222Y-127862702D01*
X117653871Y-127860905D01*
X117570319Y-127795446D01*
X117568132Y-127793692D01*
X117486628Y-127726810D01*
X117484081Y-127724662D01*
X117404216Y-127655452D01*
X117402185Y-127653652D01*
X117323715Y-127582529D01*
X117321467Y-127580439D01*
X117245158Y-127507685D01*
X117243043Y-127505619D01*
X117167989Y-127430565D01*
X117165923Y-127428450D01*
X117106839Y-127366479D01*
X117093166Y-127352138D01*
X117091040Y-127349850D01*
X117020012Y-127271486D01*
X117018178Y-127269417D01*
X116948935Y-127189512D01*
X116946789Y-127186967D01*
X116879916Y-127105476D01*
X116878161Y-127103287D01*
X116812723Y-127019760D01*
X116810915Y-127017396D01*
X116747918Y-126932883D01*
X116746086Y-126930359D01*
X116733197Y-126912128D01*
X116684648Y-126843457D01*
X116683162Y-126841306D01*
X116623835Y-126753421D01*
X116622107Y-126750789D01*
X116613659Y-126737557D01*
X116613658Y-126737556D01*
X116605372Y-126724579D01*
X116565513Y-126662151D01*
X116563903Y-126659559D01*
X116509318Y-126569244D01*
X116507782Y-126566631D01*
X116455455Y-126475069D01*
X116453975Y-126472405D01*
X116427740Y-126423762D01*
X116403669Y-126379130D01*
X116402343Y-126376600D01*
X116354119Y-126281935D01*
X116352839Y-126279348D01*
X116307097Y-126184097D01*
X116305787Y-126181278D01*
X116262381Y-126084669D01*
X116261289Y-126082162D01*
X116250362Y-126056292D01*
X116220113Y-125984675D01*
X116218926Y-125981761D01*
X116180338Y-125883505D01*
X116179317Y-125880809D01*
X116142978Y-125781401D01*
X116142012Y-125778661D01*
X116108093Y-125678668D01*
X116107100Y-125675611D01*
X116106733Y-125674430D01*
X116075764Y-125574707D01*
X116074973Y-125572054D01*
X116045822Y-125470147D01*
X116044991Y-125467095D01*
X116018627Y-125365165D01*
X116017934Y-125362348D01*
X115993876Y-125259208D01*
X115993264Y-125256434D01*
X115971619Y-125152461D01*
X115971083Y-125149725D01*
X115951990Y-125045848D01*
X115951455Y-125042713D01*
X115948201Y-125022042D01*
X115935028Y-124938355D01*
X115934633Y-124935638D01*
X115920549Y-124830321D01*
X115920198Y-124827437D01*
X115911769Y-124750779D01*
X115908654Y-124722451D01*
X115908353Y-124719349D01*
X115908323Y-124718998D01*
X115899460Y-124613966D01*
X115899254Y-124611120D01*
X115899236Y-124610833D01*
X115892810Y-124505626D01*
X115892658Y-124502503D01*
X115889693Y-124419697D01*
X115888875Y-124396860D01*
X115888809Y-124394079D01*
X115887433Y-124284610D01*
X115887424Y-124283188D01*
X115887632Y-124105646D01*
X117189808Y-124105646D01*
X117189808Y-124465071D01*
X117230048Y-124822210D01*
X117230050Y-124822222D01*
X117310027Y-125172627D01*
X117310028Y-125172629D01*
X117428735Y-125511876D01*
X117584678Y-125835695D01*
X117775900Y-126140023D01*
X117955889Y-126365723D01*
X119274536Y-125047076D01*
X119360086Y-125164825D01*
X119510342Y-125315081D01*
X119628089Y-125400629D01*
X118309442Y-126719275D01*
X118309442Y-126719276D01*
X118535143Y-126899266D01*
X118839471Y-127090488D01*
X119163290Y-127246431D01*
X119502537Y-127365138D01*
X119502539Y-127365139D01*
X119852944Y-127445116D01*
X119852956Y-127445118D01*
X120210095Y-127485358D01*
X120210097Y-127485359D01*
X120569519Y-127485359D01*
X120569520Y-127485358D01*
X120926659Y-127445118D01*
X120926671Y-127445116D01*
X121277076Y-127365139D01*
X121277078Y-127365138D01*
X121616325Y-127246431D01*
X121940144Y-127090488D01*
X122244472Y-126899266D01*
X122470172Y-126719275D01*
X121151526Y-125400629D01*
X121269274Y-125315081D01*
X121419530Y-125164825D01*
X121505078Y-125047077D01*
X122823724Y-126365723D01*
X123003715Y-126140023D01*
X123194937Y-125835695D01*
X123350880Y-125511876D01*
X123469587Y-125172629D01*
X123469588Y-125172627D01*
X123549565Y-124822222D01*
X123549567Y-124822210D01*
X123589807Y-124465071D01*
X123589808Y-124465069D01*
X123589808Y-124106987D01*
X187466930Y-124106987D01*
X187466930Y-124466412D01*
X187507170Y-124823551D01*
X187507172Y-124823563D01*
X187587149Y-125173968D01*
X187587150Y-125173970D01*
X187705857Y-125513217D01*
X187861800Y-125837036D01*
X188053022Y-126141364D01*
X188233011Y-126367064D01*
X189551658Y-125048417D01*
X189637208Y-125166166D01*
X189787464Y-125316422D01*
X189905211Y-125401970D01*
X188586564Y-126720616D01*
X188586564Y-126720617D01*
X188812265Y-126900607D01*
X189116593Y-127091829D01*
X189440412Y-127247772D01*
X189779659Y-127366479D01*
X189779661Y-127366480D01*
X190130066Y-127446457D01*
X190130078Y-127446459D01*
X190487217Y-127486699D01*
X190487219Y-127486700D01*
X190846641Y-127486700D01*
X190846642Y-127486699D01*
X191203781Y-127446459D01*
X191203793Y-127446457D01*
X191554198Y-127366480D01*
X191554200Y-127366479D01*
X191893447Y-127247772D01*
X192217266Y-127091829D01*
X192521594Y-126900607D01*
X192747294Y-126720616D01*
X191428648Y-125401970D01*
X191546396Y-125316422D01*
X191696652Y-125166166D01*
X191782200Y-125048418D01*
X193100846Y-126367064D01*
X193280837Y-126141364D01*
X193472059Y-125837036D01*
X193628002Y-125513217D01*
X193746709Y-125173970D01*
X193746710Y-125173968D01*
X193826687Y-124823563D01*
X193826689Y-124823551D01*
X193866929Y-124466412D01*
X193866930Y-124466410D01*
X193866930Y-124106989D01*
X193866929Y-124106987D01*
X193826689Y-123749848D01*
X193826687Y-123749836D01*
X193746710Y-123399431D01*
X193746709Y-123399429D01*
X193628002Y-123060182D01*
X193472059Y-122736363D01*
X193280837Y-122432035D01*
X193100846Y-122206334D01*
X191782200Y-123524981D01*
X191696652Y-123407234D01*
X191546396Y-123256978D01*
X191428646Y-123171428D01*
X192747294Y-121852781D01*
X192521594Y-121672792D01*
X192217266Y-121481570D01*
X191893447Y-121325627D01*
X191554200Y-121206920D01*
X191554198Y-121206919D01*
X191203793Y-121126942D01*
X191203781Y-121126940D01*
X190846642Y-121086700D01*
X190487217Y-121086700D01*
X190130078Y-121126940D01*
X190130066Y-121126942D01*
X189779661Y-121206919D01*
X189779659Y-121206920D01*
X189440412Y-121325627D01*
X189116593Y-121481570D01*
X188812265Y-121672792D01*
X188586564Y-121852781D01*
X189905212Y-123171429D01*
X189787464Y-123256978D01*
X189637208Y-123407234D01*
X189551659Y-123524982D01*
X188233011Y-122206334D01*
X188053022Y-122432035D01*
X187861800Y-122736363D01*
X187705857Y-123060182D01*
X187587150Y-123399429D01*
X187587149Y-123399431D01*
X187507172Y-123749836D01*
X187507170Y-123749848D01*
X187466930Y-124106987D01*
X123589808Y-124106987D01*
X123589808Y-124105648D01*
X123589807Y-124105646D01*
X123549567Y-123748507D01*
X123549565Y-123748495D01*
X123469588Y-123398090D01*
X123469587Y-123398088D01*
X123350880Y-123058841D01*
X123194937Y-122735022D01*
X123003715Y-122430694D01*
X122823724Y-122204993D01*
X121505078Y-123523640D01*
X121419530Y-123405893D01*
X121269274Y-123255637D01*
X121151524Y-123170087D01*
X122470172Y-121851440D01*
X122244472Y-121671451D01*
X121940144Y-121480229D01*
X121616325Y-121324286D01*
X121277078Y-121205579D01*
X121277076Y-121205578D01*
X120926671Y-121125601D01*
X120926659Y-121125599D01*
X120569520Y-121085359D01*
X120210095Y-121085359D01*
X119852956Y-121125599D01*
X119852944Y-121125601D01*
X119502539Y-121205578D01*
X119502537Y-121205579D01*
X119163290Y-121324286D01*
X118839471Y-121480229D01*
X118535143Y-121671451D01*
X118309442Y-121851440D01*
X119628090Y-123170088D01*
X119510342Y-123255637D01*
X119360086Y-123405893D01*
X119274537Y-123523641D01*
X117955889Y-122204993D01*
X117775900Y-122430694D01*
X117584678Y-122735022D01*
X117428735Y-123058841D01*
X117310028Y-123398088D01*
X117310027Y-123398090D01*
X117230050Y-123748495D01*
X117230048Y-123748507D01*
X117189808Y-124105646D01*
X115887632Y-124105646D01*
X115906366Y-108101648D01*
X137412500Y-108101648D01*
X137412500Y-108306351D01*
X137444522Y-108508534D01*
X137507781Y-108703223D01*
X137600715Y-108885613D01*
X137721028Y-109051213D01*
X137865786Y-109195971D01*
X138020749Y-109308556D01*
X138031390Y-109316287D01*
X138147607Y-109375503D01*
X138213776Y-109409218D01*
X138213778Y-109409218D01*
X138213781Y-109409220D01*
X138318137Y-109443127D01*
X138408465Y-109472477D01*
X138509557Y-109488488D01*
X138610648Y-109504500D01*
X138610649Y-109504500D01*
X138815351Y-109504500D01*
X138815352Y-109504500D01*
X139017534Y-109472477D01*
X139212219Y-109409220D01*
X139394610Y-109316287D01*
X139487590Y-109248732D01*
X139560213Y-109195971D01*
X139560215Y-109195968D01*
X139560219Y-109195966D01*
X139704966Y-109051219D01*
X139704968Y-109051215D01*
X139704971Y-109051213D01*
X139825284Y-108885614D01*
X139825285Y-108885613D01*
X139825287Y-108885610D01*
X139872516Y-108792917D01*
X139920489Y-108742123D01*
X139988310Y-108725328D01*
X140054445Y-108747865D01*
X140093485Y-108792919D01*
X140140715Y-108885614D01*
X140261028Y-109051213D01*
X140405786Y-109195971D01*
X140560749Y-109308556D01*
X140571390Y-109316287D01*
X140687607Y-109375503D01*
X140753776Y-109409218D01*
X140753778Y-109409218D01*
X140753781Y-109409220D01*
X140858137Y-109443127D01*
X140948465Y-109472477D01*
X141049557Y-109488488D01*
X141150648Y-109504500D01*
X141150649Y-109504500D01*
X141355351Y-109504500D01*
X141355352Y-109504500D01*
X141557534Y-109472477D01*
X141752219Y-109409220D01*
X141934610Y-109316287D01*
X142027590Y-109248732D01*
X142100213Y-109195971D01*
X142100215Y-109195968D01*
X142100219Y-109195966D01*
X142244966Y-109051219D01*
X142244968Y-109051215D01*
X142244971Y-109051213D01*
X142297732Y-108978590D01*
X142365287Y-108885610D01*
X142458220Y-108703219D01*
X142521477Y-108508534D01*
X142553500Y-108306352D01*
X142553500Y-108101648D01*
X142521477Y-107899466D01*
X142514914Y-107879268D01*
X142458218Y-107704776D01*
X142401506Y-107593474D01*
X142365287Y-107522390D01*
X142357556Y-107511749D01*
X142244971Y-107356786D01*
X142100213Y-107212028D01*
X141934613Y-107091715D01*
X141934612Y-107091714D01*
X141934610Y-107091713D01*
X141877653Y-107062691D01*
X141752223Y-106998781D01*
X141557534Y-106935522D01*
X141382995Y-106907878D01*
X141355352Y-106903500D01*
X141150648Y-106903500D01*
X141126329Y-106907351D01*
X140948465Y-106935522D01*
X140753776Y-106998781D01*
X140571386Y-107091715D01*
X140405786Y-107212028D01*
X140261028Y-107356786D01*
X140140715Y-107522386D01*
X140093485Y-107615080D01*
X140045510Y-107665876D01*
X139977689Y-107682671D01*
X139911554Y-107660134D01*
X139872515Y-107615080D01*
X139861506Y-107593474D01*
X139825287Y-107522390D01*
X139817556Y-107511749D01*
X139704971Y-107356786D01*
X139560213Y-107212028D01*
X139394613Y-107091715D01*
X139394612Y-107091714D01*
X139394610Y-107091713D01*
X139337653Y-107062691D01*
X139212223Y-106998781D01*
X139017534Y-106935522D01*
X138842995Y-106907878D01*
X138815352Y-106903500D01*
X138610648Y-106903500D01*
X138586329Y-106907351D01*
X138408465Y-106935522D01*
X138213776Y-106998781D01*
X138031386Y-107091715D01*
X137865786Y-107212028D01*
X137721028Y-107356786D01*
X137600715Y-107522386D01*
X137507781Y-107704776D01*
X137444522Y-107899465D01*
X137412500Y-108101648D01*
X115906366Y-108101648D01*
X115908159Y-106569644D01*
X118612800Y-106569644D01*
X118612800Y-106790355D01*
X118647327Y-107008350D01*
X118715528Y-107218255D01*
X118715529Y-107218258D01*
X118815731Y-107414913D01*
X118945462Y-107593472D01*
X119101528Y-107749538D01*
X119280087Y-107879269D01*
X119376540Y-107928414D01*
X119476741Y-107979470D01*
X119476744Y-107979471D01*
X119581696Y-108013571D01*
X119686651Y-108047673D01*
X119904644Y-108082200D01*
X119904645Y-108082200D01*
X120125355Y-108082200D01*
X120125356Y-108082200D01*
X120343349Y-108047673D01*
X120553258Y-107979470D01*
X120749913Y-107879269D01*
X120928472Y-107749538D01*
X121084538Y-107593472D01*
X121214269Y-107414913D01*
X121314470Y-107218258D01*
X121382673Y-107008349D01*
X121417200Y-106790356D01*
X121417200Y-106569644D01*
X121382673Y-106351651D01*
X121314470Y-106141742D01*
X121314470Y-106141741D01*
X121214268Y-105945086D01*
X121084538Y-105766528D01*
X120928472Y-105610462D01*
X120882575Y-105577116D01*
X120790210Y-105510008D01*
X120747545Y-105454677D01*
X120741566Y-105385064D01*
X120774172Y-105323269D01*
X120790211Y-105309372D01*
X120813730Y-105292283D01*
X120813731Y-105292283D01*
X120686905Y-105165457D01*
X120604096Y-105082648D01*
X134335500Y-105082648D01*
X134335500Y-105287351D01*
X134367522Y-105489534D01*
X134430781Y-105684223D01*
X134523715Y-105866613D01*
X134644028Y-106032213D01*
X134788786Y-106176971D01*
X134943749Y-106289556D01*
X134954390Y-106297287D01*
X135061081Y-106351649D01*
X135136776Y-106390218D01*
X135136778Y-106390218D01*
X135136781Y-106390220D01*
X135241137Y-106424127D01*
X135331465Y-106453477D01*
X135432557Y-106469488D01*
X135533648Y-106485500D01*
X135533649Y-106485500D01*
X135738351Y-106485500D01*
X135738352Y-106485500D01*
X135940534Y-106453477D01*
X136135219Y-106390220D01*
X136317610Y-106297287D01*
X136410590Y-106229732D01*
X136483213Y-106176971D01*
X136483215Y-106176968D01*
X136483219Y-106176966D01*
X136627966Y-106032219D01*
X136627968Y-106032215D01*
X136627971Y-106032213D01*
X136680732Y-105959590D01*
X136748287Y-105866610D01*
X136841220Y-105684219D01*
X136904477Y-105489534D01*
X136936500Y-105287352D01*
X136936500Y-105082648D01*
X136904477Y-104880465D01*
X136866248Y-104762809D01*
X136841220Y-104685781D01*
X136841218Y-104685778D01*
X136841218Y-104685776D01*
X136807503Y-104619607D01*
X136748287Y-104503390D01*
X136740556Y-104492749D01*
X136627971Y-104337786D01*
X136483213Y-104193028D01*
X136317611Y-104072713D01*
X136224369Y-104025203D01*
X136173574Y-103977229D01*
X136156779Y-103909407D01*
X136179317Y-103843273D01*
X136224371Y-103804234D01*
X136317347Y-103756861D01*
X136482894Y-103636582D01*
X136482895Y-103636582D01*
X136627582Y-103491895D01*
X136627582Y-103491894D01*
X136747859Y-103326349D01*
X136840755Y-103144029D01*
X136903990Y-102949413D01*
X136912609Y-102895000D01*
X135951686Y-102895000D01*
X135956080Y-102890606D01*
X136008741Y-102799394D01*
X136036000Y-102697661D01*
X136036000Y-102592339D01*
X136008741Y-102490606D01*
X135956080Y-102399394D01*
X135951686Y-102395000D01*
X136912609Y-102395000D01*
X136903990Y-102340586D01*
X136840755Y-102145970D01*
X136747859Y-101963650D01*
X136627582Y-101798105D01*
X136627582Y-101798104D01*
X136482895Y-101653417D01*
X136317349Y-101533140D01*
X136135029Y-101440244D01*
X135940413Y-101377009D01*
X135886000Y-101368390D01*
X135886000Y-102329314D01*
X135881606Y-102324920D01*
X135790394Y-102272259D01*
X135688661Y-102245000D01*
X135583339Y-102245000D01*
X135481606Y-102272259D01*
X135390394Y-102324920D01*
X135386000Y-102329314D01*
X135386000Y-101368390D01*
X135331586Y-101377009D01*
X135136970Y-101440244D01*
X134954650Y-101533140D01*
X134789105Y-101653417D01*
X134789104Y-101653417D01*
X134644417Y-101798104D01*
X134644417Y-101798105D01*
X134524140Y-101963650D01*
X134431244Y-102145970D01*
X134368009Y-102340586D01*
X134359391Y-102395000D01*
X135320314Y-102395000D01*
X135315920Y-102399394D01*
X135263259Y-102490606D01*
X135236000Y-102592339D01*
X135236000Y-102697661D01*
X135263259Y-102799394D01*
X135315920Y-102890606D01*
X135320314Y-102895000D01*
X134359391Y-102895000D01*
X134368009Y-102949413D01*
X134431244Y-103144029D01*
X134524140Y-103326349D01*
X134644417Y-103491894D01*
X134644417Y-103491895D01*
X134789104Y-103636582D01*
X134954652Y-103756861D01*
X135047628Y-103804234D01*
X135098425Y-103852208D01*
X135115220Y-103920029D01*
X135092683Y-103986164D01*
X135047630Y-104025203D01*
X134954388Y-104072713D01*
X134788786Y-104193028D01*
X134644028Y-104337786D01*
X134523715Y-104503386D01*
X134430781Y-104685776D01*
X134367522Y-104880465D01*
X134335500Y-105082648D01*
X120604096Y-105082648D01*
X120260728Y-104739281D01*
X120321801Y-104713984D01*
X120427885Y-104643101D01*
X120518101Y-104552885D01*
X120588984Y-104446801D01*
X120614280Y-104385728D01*
X121167283Y-104938731D01*
X121167283Y-104938730D01*
X121213840Y-104874651D01*
X121314007Y-104678063D01*
X121382184Y-104468236D01*
X121382184Y-104468233D01*
X121416700Y-104250315D01*
X121416700Y-104029684D01*
X121382184Y-103811766D01*
X121382184Y-103811763D01*
X121314007Y-103601936D01*
X121213842Y-103405352D01*
X121167283Y-103341268D01*
X121167282Y-103341268D01*
X120614280Y-103894270D01*
X120588984Y-103833199D01*
X120518101Y-103727115D01*
X120427885Y-103636899D01*
X120321801Y-103566016D01*
X120260726Y-103540718D01*
X120813730Y-102987715D01*
X120749647Y-102941157D01*
X120553063Y-102840992D01*
X120343235Y-102772815D01*
X120125315Y-102738300D01*
X119904685Y-102738300D01*
X119686766Y-102772815D01*
X119686763Y-102772815D01*
X119476936Y-102840992D01*
X119280342Y-102941162D01*
X119216268Y-102987714D01*
X119216268Y-102987715D01*
X119769271Y-103540718D01*
X119708199Y-103566016D01*
X119602115Y-103636899D01*
X119511899Y-103727115D01*
X119441016Y-103833199D01*
X119415718Y-103894271D01*
X118862715Y-103341268D01*
X118862714Y-103341268D01*
X118816162Y-103405342D01*
X118715992Y-103601936D01*
X118647815Y-103811763D01*
X118647815Y-103811766D01*
X118613300Y-104029684D01*
X118613300Y-104250315D01*
X118647815Y-104468233D01*
X118647815Y-104468236D01*
X118715992Y-104678063D01*
X118816157Y-104874647D01*
X118862715Y-104938730D01*
X119415718Y-104385727D01*
X119441016Y-104446801D01*
X119511899Y-104552885D01*
X119602115Y-104643101D01*
X119708199Y-104713984D01*
X119769271Y-104739280D01*
X119216268Y-105292282D01*
X119216268Y-105292283D01*
X119239788Y-105309371D01*
X119282454Y-105364701D01*
X119288433Y-105434314D01*
X119255828Y-105496110D01*
X119239789Y-105510007D01*
X119101534Y-105610457D01*
X119101525Y-105610464D01*
X118945464Y-105766525D01*
X118945464Y-105766526D01*
X118945462Y-105766528D01*
X118889747Y-105843212D01*
X118815731Y-105945086D01*
X118715529Y-106141741D01*
X118715528Y-106141744D01*
X118647327Y-106351649D01*
X118612800Y-106569644D01*
X115908159Y-106569644D01*
X115915701Y-100126228D01*
X116951500Y-100126228D01*
X116951500Y-100293771D01*
X116984182Y-100458074D01*
X116984184Y-100458082D01*
X117048295Y-100612860D01*
X117141373Y-100752162D01*
X117259837Y-100870626D01*
X117352494Y-100932537D01*
X117399137Y-100963703D01*
X117553918Y-101027816D01*
X117718228Y-101060499D01*
X117718232Y-101060500D01*
X117718233Y-101060500D01*
X117885768Y-101060500D01*
X117885769Y-101060499D01*
X118050082Y-101027816D01*
X118204863Y-100963703D01*
X118344162Y-100870626D01*
X118462626Y-100752162D01*
X118555703Y-100612863D01*
X118619816Y-100458082D01*
X118652500Y-100293767D01*
X118652500Y-100126233D01*
X118652499Y-100126230D01*
X118652499Y-100126228D01*
X119451500Y-100126228D01*
X119451500Y-100293771D01*
X119484182Y-100458074D01*
X119484184Y-100458082D01*
X119548295Y-100612860D01*
X119641373Y-100752162D01*
X119759837Y-100870626D01*
X119852494Y-100932537D01*
X119899137Y-100963703D01*
X120053918Y-101027816D01*
X120218228Y-101060499D01*
X120218232Y-101060500D01*
X120218233Y-101060500D01*
X120385768Y-101060500D01*
X120385769Y-101060499D01*
X120550082Y-101027816D01*
X120704863Y-100963703D01*
X120844162Y-100870626D01*
X120962626Y-100752162D01*
X121055703Y-100612863D01*
X121119816Y-100458082D01*
X121152500Y-100293767D01*
X121152500Y-100126233D01*
X121152500Y-100126232D01*
X121152500Y-100126230D01*
X121151089Y-100119139D01*
X123493500Y-100119139D01*
X123493500Y-100300860D01*
X123521928Y-100480347D01*
X123521928Y-100480350D01*
X123578081Y-100653171D01*
X123578083Y-100653174D01*
X123660583Y-100815090D01*
X123767397Y-100962106D01*
X123895894Y-101090603D01*
X124042910Y-101197417D01*
X124204826Y-101279917D01*
X124204828Y-101279918D01*
X124366029Y-101332294D01*
X124377654Y-101336072D01*
X124557139Y-101364500D01*
X124557140Y-101364500D01*
X126046860Y-101364500D01*
X126046861Y-101364500D01*
X126226346Y-101336072D01*
X126226349Y-101336071D01*
X126226350Y-101336071D01*
X126399171Y-101279918D01*
X126399171Y-101279917D01*
X126399174Y-101279917D01*
X126561090Y-101197417D01*
X126708106Y-101090603D01*
X126836603Y-100962106D01*
X126943417Y-100815090D01*
X127025917Y-100653174D01*
X127082072Y-100480346D01*
X127110500Y-100300861D01*
X127110500Y-100126228D01*
X129451500Y-100126228D01*
X129451500Y-100293771D01*
X129484182Y-100458074D01*
X129484184Y-100458082D01*
X129548295Y-100612860D01*
X129641373Y-100752162D01*
X129759837Y-100870626D01*
X129852494Y-100932537D01*
X129899137Y-100963703D01*
X130053918Y-101027816D01*
X130218228Y-101060499D01*
X130218232Y-101060500D01*
X130218233Y-101060500D01*
X130385768Y-101060500D01*
X130385769Y-101060499D01*
X130550082Y-101027816D01*
X130704863Y-100963703D01*
X130844162Y-100870626D01*
X130962626Y-100752162D01*
X131055703Y-100612863D01*
X131119816Y-100458082D01*
X131152500Y-100293767D01*
X131152500Y-100126233D01*
X131152499Y-100126230D01*
X131152499Y-100126228D01*
X131119817Y-99961925D01*
X131119816Y-99961918D01*
X131055703Y-99807137D01*
X131024537Y-99760494D01*
X130962626Y-99667837D01*
X130844162Y-99549373D01*
X130704860Y-99456295D01*
X130550082Y-99392184D01*
X130550074Y-99392182D01*
X130385771Y-99359500D01*
X130385767Y-99359500D01*
X130218233Y-99359500D01*
X130218228Y-99359500D01*
X130053925Y-99392182D01*
X130053917Y-99392184D01*
X129899139Y-99456295D01*
X129759837Y-99549373D01*
X129641373Y-99667837D01*
X129548295Y-99807139D01*
X129484184Y-99961917D01*
X129484182Y-99961925D01*
X129451500Y-100126228D01*
X127110500Y-100126228D01*
X127110500Y-100119139D01*
X127082072Y-99939654D01*
X127082071Y-99939650D01*
X127082071Y-99939649D01*
X127025918Y-99766828D01*
X127025916Y-99766825D01*
X126975480Y-99667837D01*
X126943417Y-99604910D01*
X126836603Y-99457894D01*
X126708106Y-99329397D01*
X126561090Y-99222583D01*
X126399174Y-99140083D01*
X126399171Y-99140081D01*
X126226348Y-99083928D01*
X126106689Y-99064976D01*
X126046861Y-99055500D01*
X124557139Y-99055500D01*
X124497310Y-99064976D01*
X124377652Y-99083928D01*
X124377649Y-99083928D01*
X124204828Y-99140081D01*
X124204825Y-99140083D01*
X124042909Y-99222583D01*
X123959030Y-99283525D01*
X123895894Y-99329397D01*
X123895892Y-99329399D01*
X123895891Y-99329399D01*
X123767399Y-99457891D01*
X123767399Y-99457892D01*
X123767397Y-99457894D01*
X123721525Y-99521030D01*
X123660583Y-99604909D01*
X123578083Y-99766825D01*
X123578081Y-99766828D01*
X123521928Y-99939649D01*
X123521928Y-99939652D01*
X123493500Y-100119139D01*
X121151089Y-100119139D01*
X121119817Y-99961925D01*
X121119816Y-99961918D01*
X121055703Y-99807137D01*
X121024537Y-99760494D01*
X120962626Y-99667837D01*
X120844162Y-99549373D01*
X120704860Y-99456295D01*
X120550082Y-99392184D01*
X120550074Y-99392182D01*
X120385771Y-99359500D01*
X120385767Y-99359500D01*
X120218233Y-99359500D01*
X120218228Y-99359500D01*
X120053925Y-99392182D01*
X120053917Y-99392184D01*
X119899139Y-99456295D01*
X119759837Y-99549373D01*
X119641373Y-99667837D01*
X119548295Y-99807139D01*
X119484184Y-99961917D01*
X119484182Y-99961925D01*
X119451500Y-100126228D01*
X118652499Y-100126228D01*
X118619817Y-99961925D01*
X118619816Y-99961918D01*
X118555703Y-99807137D01*
X118524537Y-99760494D01*
X118462626Y-99667837D01*
X118344162Y-99549373D01*
X118204860Y-99456295D01*
X118050082Y-99392184D01*
X118050074Y-99392182D01*
X117885771Y-99359500D01*
X117885767Y-99359500D01*
X117718233Y-99359500D01*
X117718228Y-99359500D01*
X117553925Y-99392182D01*
X117553917Y-99392184D01*
X117399139Y-99456295D01*
X117259837Y-99549373D01*
X117141373Y-99667837D01*
X117048295Y-99807139D01*
X116984184Y-99961917D01*
X116984182Y-99961925D01*
X116951500Y-100126228D01*
X115915701Y-100126228D01*
X115922328Y-94465139D01*
X119147500Y-94465139D01*
X119147500Y-95954861D01*
X119148901Y-95963704D01*
X119175928Y-96134347D01*
X119175928Y-96134350D01*
X119232081Y-96307171D01*
X119232083Y-96307174D01*
X119314583Y-96469090D01*
X119421397Y-96616106D01*
X119549894Y-96744603D01*
X119696910Y-96851417D01*
X119858826Y-96933917D01*
X119858828Y-96933918D01*
X120020029Y-96986294D01*
X120031654Y-96990072D01*
X120211139Y-97018500D01*
X120211140Y-97018500D01*
X120392860Y-97018500D01*
X120392861Y-97018500D01*
X120572346Y-96990072D01*
X120572349Y-96990071D01*
X120572350Y-96990071D01*
X120745171Y-96933918D01*
X120745171Y-96933917D01*
X120745174Y-96933917D01*
X120907090Y-96851417D01*
X121054106Y-96744603D01*
X121182603Y-96616106D01*
X121289417Y-96469090D01*
X121371917Y-96307174D01*
X121417500Y-96166884D01*
X121428071Y-96134350D01*
X121428071Y-96134349D01*
X121428072Y-96134346D01*
X121456500Y-95954861D01*
X121456500Y-95126228D01*
X124451500Y-95126228D01*
X124451500Y-95293771D01*
X124484182Y-95458074D01*
X124484184Y-95458082D01*
X124548295Y-95612860D01*
X124641373Y-95752162D01*
X124759837Y-95870626D01*
X124852494Y-95932537D01*
X124899137Y-95963703D01*
X125053918Y-96027816D01*
X125218228Y-96060499D01*
X125218232Y-96060500D01*
X125218233Y-96060500D01*
X125385768Y-96060500D01*
X125385769Y-96060499D01*
X125550082Y-96027816D01*
X125704863Y-95963703D01*
X125844162Y-95870626D01*
X125962626Y-95752162D01*
X126055703Y-95612863D01*
X126119816Y-95458082D01*
X126152500Y-95293767D01*
X126152500Y-95126233D01*
X126119816Y-94961918D01*
X126055703Y-94807137D01*
X126003120Y-94728441D01*
X125962626Y-94667837D01*
X125844162Y-94549373D01*
X125704860Y-94456295D01*
X125550082Y-94392184D01*
X125550074Y-94392182D01*
X125385771Y-94359500D01*
X125385767Y-94359500D01*
X125218233Y-94359500D01*
X125218228Y-94359500D01*
X125053925Y-94392182D01*
X125053917Y-94392184D01*
X124899139Y-94456295D01*
X124759837Y-94549373D01*
X124641373Y-94667837D01*
X124548295Y-94807139D01*
X124484184Y-94961917D01*
X124484182Y-94961925D01*
X124451500Y-95126228D01*
X121456500Y-95126228D01*
X121456500Y-94465139D01*
X121428072Y-94285654D01*
X121428071Y-94285650D01*
X121428071Y-94285649D01*
X121371918Y-94112828D01*
X121371916Y-94112825D01*
X121338586Y-94047409D01*
X121289417Y-93950910D01*
X121182603Y-93803894D01*
X121054106Y-93675397D01*
X120907090Y-93568583D01*
X120745174Y-93486083D01*
X120745171Y-93486081D01*
X120572348Y-93429928D01*
X120452689Y-93410976D01*
X120392861Y-93401500D01*
X120211139Y-93401500D01*
X120151310Y-93410976D01*
X120031652Y-93429928D01*
X120031649Y-93429928D01*
X119858828Y-93486081D01*
X119858825Y-93486083D01*
X119696909Y-93568583D01*
X119613030Y-93629525D01*
X119549894Y-93675397D01*
X119549892Y-93675399D01*
X119549891Y-93675399D01*
X119421399Y-93803891D01*
X119421399Y-93803892D01*
X119421397Y-93803894D01*
X119388251Y-93849515D01*
X119314583Y-93950909D01*
X119232083Y-94112825D01*
X119232081Y-94112828D01*
X119175928Y-94285649D01*
X119175928Y-94285652D01*
X119175928Y-94285654D01*
X119147500Y-94465139D01*
X115922328Y-94465139D01*
X115924498Y-92611263D01*
X129047500Y-92611263D01*
X129047500Y-92808736D01*
X129078389Y-93003763D01*
X129139408Y-93191558D01*
X129139409Y-93191561D01*
X129229056Y-93367501D01*
X129229058Y-93367504D01*
X129345115Y-93527246D01*
X129484753Y-93666884D01*
X129634234Y-93775486D01*
X129644499Y-93782944D01*
X129775151Y-93849515D01*
X129825947Y-93897490D01*
X129842742Y-93965311D01*
X129820204Y-94031446D01*
X129775151Y-94070484D01*
X129692049Y-94112828D01*
X129644495Y-94137058D01*
X129484753Y-94253115D01*
X129345115Y-94392753D01*
X129229058Y-94552495D01*
X129139408Y-94728441D01*
X129078389Y-94916236D01*
X129047500Y-95111263D01*
X129047500Y-95308736D01*
X129078389Y-95503763D01*
X129139408Y-95691558D01*
X129139409Y-95691561D01*
X129229056Y-95867501D01*
X129229058Y-95867504D01*
X129345115Y-96027246D01*
X129484753Y-96166884D01*
X129634234Y-96275486D01*
X129644499Y-96282944D01*
X129775702Y-96349796D01*
X129826497Y-96397770D01*
X129843292Y-96465591D01*
X129820754Y-96531726D01*
X129775701Y-96570765D01*
X129644762Y-96637482D01*
X129644760Y-96637483D01*
X129609010Y-96663456D01*
X129609010Y-96663457D01*
X130172591Y-97227037D01*
X130109007Y-97244075D01*
X129994993Y-97309901D01*
X129901901Y-97402993D01*
X129836075Y-97517007D01*
X129819037Y-97580590D01*
X129255457Y-97017010D01*
X129255456Y-97017010D01*
X129229483Y-97052760D01*
X129229482Y-97052762D01*
X129139873Y-97228626D01*
X129078876Y-97416353D01*
X129048000Y-97611302D01*
X129048000Y-97808697D01*
X129078876Y-98003646D01*
X129139873Y-98191373D01*
X129229483Y-98367239D01*
X129255457Y-98402988D01*
X129255457Y-98402989D01*
X129819037Y-97839409D01*
X129836075Y-97902993D01*
X129901901Y-98017007D01*
X129994993Y-98110099D01*
X130109007Y-98175925D01*
X130172590Y-98192962D01*
X129609009Y-98756541D01*
X129609010Y-98756542D01*
X129644755Y-98782512D01*
X129644768Y-98782520D01*
X129820626Y-98872126D01*
X130008353Y-98933123D01*
X130203303Y-98964000D01*
X130400697Y-98964000D01*
X130595646Y-98933123D01*
X130783373Y-98872126D01*
X130959241Y-98782516D01*
X130994988Y-98756543D01*
X130994988Y-98756541D01*
X130431410Y-98192962D01*
X130494993Y-98175925D01*
X130609007Y-98110099D01*
X130702099Y-98017007D01*
X130767925Y-97902993D01*
X130784962Y-97839409D01*
X131348541Y-98402988D01*
X131348543Y-98402988D01*
X131374516Y-98367241D01*
X131464126Y-98191373D01*
X131525123Y-98003646D01*
X131556000Y-97808697D01*
X131556000Y-97611302D01*
X131525123Y-97416353D01*
X131464126Y-97228626D01*
X131374520Y-97052768D01*
X131374512Y-97052755D01*
X131348542Y-97017010D01*
X131348541Y-97017009D01*
X130784962Y-97580589D01*
X130767925Y-97517007D01*
X130702099Y-97402993D01*
X130609007Y-97309901D01*
X130494993Y-97244075D01*
X130431409Y-97227037D01*
X130994989Y-96663457D01*
X130959239Y-96637483D01*
X130828298Y-96570765D01*
X130777502Y-96522790D01*
X130760707Y-96454969D01*
X130783245Y-96388834D01*
X130828294Y-96349797D01*
X130959501Y-96282944D01*
X130979912Y-96268114D01*
X131119246Y-96166884D01*
X131119248Y-96166881D01*
X131119252Y-96166879D01*
X131258879Y-96027252D01*
X131258881Y-96027248D01*
X131258884Y-96027246D01*
X131311474Y-95954860D01*
X131374944Y-95867501D01*
X131464591Y-95691561D01*
X131525610Y-95503763D01*
X131532845Y-95458082D01*
X131556500Y-95308736D01*
X131556500Y-95111263D01*
X131525610Y-94916236D01*
X131490161Y-94807137D01*
X131464591Y-94728439D01*
X131374944Y-94552499D01*
X131305050Y-94456297D01*
X131258884Y-94392753D01*
X131119246Y-94253115D01*
X130959505Y-94137058D01*
X130911951Y-94112828D01*
X130828846Y-94070483D01*
X130778052Y-94022510D01*
X130761257Y-93954689D01*
X130783794Y-93888554D01*
X130828845Y-93849517D01*
X130959501Y-93782944D01*
X130979912Y-93768114D01*
X131119246Y-93666884D01*
X131119248Y-93666881D01*
X131119252Y-93666879D01*
X131258879Y-93527252D01*
X131258881Y-93527248D01*
X131258884Y-93527246D01*
X131350242Y-93401500D01*
X131374944Y-93367501D01*
X131464591Y-93191561D01*
X131525610Y-93003763D01*
X131556500Y-92808736D01*
X131556500Y-92611263D01*
X131525610Y-92416236D01*
X131505270Y-92353637D01*
X131464591Y-92228439D01*
X131374944Y-92052499D01*
X131367486Y-92042234D01*
X131258884Y-91892753D01*
X131119246Y-91753115D01*
X130959504Y-91637058D01*
X130959503Y-91637057D01*
X130959501Y-91637056D01*
X130783561Y-91547409D01*
X130783558Y-91547408D01*
X130595763Y-91486389D01*
X130400736Y-91455500D01*
X130400731Y-91455500D01*
X130203269Y-91455500D01*
X130203264Y-91455500D01*
X130008236Y-91486389D01*
X129820441Y-91547408D01*
X129644495Y-91637058D01*
X129484753Y-91753115D01*
X129345115Y-91892753D01*
X129229058Y-92052495D01*
X129139408Y-92228441D01*
X129078389Y-92416236D01*
X129047500Y-92611263D01*
X115924498Y-92611263D01*
X115927407Y-90126228D01*
X116951500Y-90126228D01*
X116951500Y-90293771D01*
X116984182Y-90458074D01*
X116984184Y-90458082D01*
X117048295Y-90612860D01*
X117141373Y-90752162D01*
X117259837Y-90870626D01*
X117352494Y-90932537D01*
X117399137Y-90963703D01*
X117553918Y-91027816D01*
X117718228Y-91060499D01*
X117718232Y-91060500D01*
X117718233Y-91060500D01*
X117885768Y-91060500D01*
X117885769Y-91060499D01*
X118050082Y-91027816D01*
X118204863Y-90963703D01*
X118344162Y-90870626D01*
X118462626Y-90752162D01*
X118555703Y-90612863D01*
X118619816Y-90458082D01*
X118652500Y-90293767D01*
X118652500Y-90126233D01*
X118652499Y-90126230D01*
X118652499Y-90126228D01*
X119451500Y-90126228D01*
X119451500Y-90293771D01*
X119484182Y-90458074D01*
X119484184Y-90458082D01*
X119548295Y-90612860D01*
X119641373Y-90752162D01*
X119759837Y-90870626D01*
X119852494Y-90932537D01*
X119899137Y-90963703D01*
X120053918Y-91027816D01*
X120218228Y-91060499D01*
X120218232Y-91060500D01*
X120218233Y-91060500D01*
X120385768Y-91060500D01*
X120385769Y-91060499D01*
X120550082Y-91027816D01*
X120704863Y-90963703D01*
X120844162Y-90870626D01*
X120962626Y-90752162D01*
X121055703Y-90612863D01*
X121119816Y-90458082D01*
X121152500Y-90293767D01*
X121152500Y-90126233D01*
X121152500Y-90126232D01*
X121152500Y-90126230D01*
X121151089Y-90119139D01*
X123493500Y-90119139D01*
X123493500Y-90300860D01*
X123521928Y-90480347D01*
X123521928Y-90480350D01*
X123578081Y-90653171D01*
X123578083Y-90653174D01*
X123660583Y-90815090D01*
X123767397Y-90962106D01*
X123895894Y-91090603D01*
X124042910Y-91197417D01*
X124204826Y-91279917D01*
X124204828Y-91279918D01*
X124366029Y-91332294D01*
X124377654Y-91336072D01*
X124557139Y-91364500D01*
X124557140Y-91364500D01*
X126046860Y-91364500D01*
X126046861Y-91364500D01*
X126226346Y-91336072D01*
X126226349Y-91336071D01*
X126226350Y-91336071D01*
X126399171Y-91279918D01*
X126399171Y-91279917D01*
X126399174Y-91279917D01*
X126561090Y-91197417D01*
X126708106Y-91090603D01*
X126836603Y-90962106D01*
X126943417Y-90815090D01*
X127025917Y-90653174D01*
X127082072Y-90480346D01*
X127110500Y-90300861D01*
X127110500Y-90126228D01*
X129451500Y-90126228D01*
X129451500Y-90293771D01*
X129484182Y-90458074D01*
X129484184Y-90458082D01*
X129548295Y-90612860D01*
X129641373Y-90752162D01*
X129759837Y-90870626D01*
X129852494Y-90932537D01*
X129899137Y-90963703D01*
X130053918Y-91027816D01*
X130218228Y-91060499D01*
X130218232Y-91060500D01*
X130218233Y-91060500D01*
X130385768Y-91060500D01*
X130385769Y-91060499D01*
X130550082Y-91027816D01*
X130704863Y-90963703D01*
X130844162Y-90870626D01*
X130962626Y-90752162D01*
X131055703Y-90612863D01*
X131119816Y-90458082D01*
X131152500Y-90293767D01*
X131152500Y-90126233D01*
X131152499Y-90126230D01*
X131152499Y-90126228D01*
X131119817Y-89961925D01*
X131119816Y-89961918D01*
X131055703Y-89807137D01*
X131012513Y-89742499D01*
X130962626Y-89667837D01*
X130844162Y-89549373D01*
X130704860Y-89456295D01*
X130550082Y-89392184D01*
X130550074Y-89392182D01*
X130385771Y-89359500D01*
X130385767Y-89359500D01*
X130218233Y-89359500D01*
X130218228Y-89359500D01*
X130053925Y-89392182D01*
X130053917Y-89392184D01*
X129899139Y-89456295D01*
X129759837Y-89549373D01*
X129641373Y-89667837D01*
X129548295Y-89807139D01*
X129484184Y-89961917D01*
X129484182Y-89961925D01*
X129451500Y-90126228D01*
X127110500Y-90126228D01*
X127110500Y-90119139D01*
X127082072Y-89939654D01*
X127082071Y-89939650D01*
X127082071Y-89939649D01*
X127025918Y-89766828D01*
X127025916Y-89766825D01*
X127013522Y-89742499D01*
X126943417Y-89604910D01*
X126836603Y-89457894D01*
X126708106Y-89329397D01*
X126561090Y-89222583D01*
X126399174Y-89140083D01*
X126399171Y-89140081D01*
X126226348Y-89083928D01*
X126106689Y-89064976D01*
X126046861Y-89055500D01*
X124557139Y-89055500D01*
X124497310Y-89064976D01*
X124377652Y-89083928D01*
X124377649Y-89083928D01*
X124204828Y-89140081D01*
X124204825Y-89140083D01*
X124042909Y-89222583D01*
X124001112Y-89252951D01*
X123895894Y-89329397D01*
X123895892Y-89329399D01*
X123895891Y-89329399D01*
X123767399Y-89457891D01*
X123767399Y-89457892D01*
X123767397Y-89457894D01*
X123731524Y-89507269D01*
X123660583Y-89604909D01*
X123578083Y-89766825D01*
X123578081Y-89766828D01*
X123521928Y-89939649D01*
X123521928Y-89939652D01*
X123493500Y-90119139D01*
X121151089Y-90119139D01*
X121119817Y-89961925D01*
X121119816Y-89961918D01*
X121055703Y-89807137D01*
X121012513Y-89742499D01*
X120962626Y-89667837D01*
X120844162Y-89549373D01*
X120704860Y-89456295D01*
X120550082Y-89392184D01*
X120550074Y-89392182D01*
X120385771Y-89359500D01*
X120385767Y-89359500D01*
X120218233Y-89359500D01*
X120218228Y-89359500D01*
X120053925Y-89392182D01*
X120053917Y-89392184D01*
X119899139Y-89456295D01*
X119759837Y-89549373D01*
X119641373Y-89667837D01*
X119548295Y-89807139D01*
X119484184Y-89961917D01*
X119484182Y-89961925D01*
X119451500Y-90126228D01*
X118652499Y-90126228D01*
X118619817Y-89961925D01*
X118619816Y-89961918D01*
X118555703Y-89807137D01*
X118512513Y-89742499D01*
X118462626Y-89667837D01*
X118344162Y-89549373D01*
X118204860Y-89456295D01*
X118050082Y-89392184D01*
X118050074Y-89392182D01*
X117885771Y-89359500D01*
X117885767Y-89359500D01*
X117718233Y-89359500D01*
X117718228Y-89359500D01*
X117553925Y-89392182D01*
X117553917Y-89392184D01*
X117399139Y-89456295D01*
X117259837Y-89549373D01*
X117141373Y-89667837D01*
X117048295Y-89807139D01*
X116984184Y-89961917D01*
X116984182Y-89961925D01*
X116951500Y-90126228D01*
X115927407Y-90126228D01*
X115929561Y-88285713D01*
X146223500Y-88285713D01*
X146223500Y-88498286D01*
X146256753Y-88708239D01*
X146322444Y-88910414D01*
X146418951Y-89099820D01*
X146543890Y-89271786D01*
X146694213Y-89422109D01*
X146866179Y-89547048D01*
X146866181Y-89547049D01*
X146866184Y-89547051D01*
X147055588Y-89643557D01*
X147257757Y-89709246D01*
X147467713Y-89742500D01*
X147467714Y-89742500D01*
X147680286Y-89742500D01*
X147680287Y-89742500D01*
X147890243Y-89709246D01*
X148092412Y-89643557D01*
X148281816Y-89547051D01*
X148368138Y-89484335D01*
X148453786Y-89422109D01*
X148453788Y-89422106D01*
X148453792Y-89422104D01*
X148604104Y-89271792D01*
X148604106Y-89271788D01*
X148604109Y-89271786D01*
X148729048Y-89099820D01*
X148729047Y-89099820D01*
X148729051Y-89099816D01*
X148733514Y-89091054D01*
X148781488Y-89040259D01*
X148849308Y-89023463D01*
X148915444Y-89045999D01*
X148954486Y-89091056D01*
X148958951Y-89099820D01*
X149083890Y-89271786D01*
X149234213Y-89422109D01*
X149406179Y-89547048D01*
X149406181Y-89547049D01*
X149406184Y-89547051D01*
X149595588Y-89643557D01*
X149797757Y-89709246D01*
X150007713Y-89742500D01*
X150007714Y-89742500D01*
X150220286Y-89742500D01*
X150220287Y-89742500D01*
X150430243Y-89709246D01*
X150632412Y-89643557D01*
X150821816Y-89547051D01*
X150908138Y-89484335D01*
X150993786Y-89422109D01*
X150993788Y-89422106D01*
X150993792Y-89422104D01*
X151144104Y-89271792D01*
X151144106Y-89271788D01*
X151144109Y-89271786D01*
X151269048Y-89099820D01*
X151269047Y-89099820D01*
X151269051Y-89099816D01*
X151273514Y-89091054D01*
X151321488Y-89040259D01*
X151389308Y-89023463D01*
X151455444Y-89045999D01*
X151494486Y-89091056D01*
X151498951Y-89099820D01*
X151623890Y-89271786D01*
X151774213Y-89422109D01*
X151946179Y-89547048D01*
X151946181Y-89547049D01*
X151946184Y-89547051D01*
X152135588Y-89643557D01*
X152337757Y-89709246D01*
X152547713Y-89742500D01*
X152547714Y-89742500D01*
X152760286Y-89742500D01*
X152760287Y-89742500D01*
X152970243Y-89709246D01*
X153172412Y-89643557D01*
X153361816Y-89547051D01*
X153448138Y-89484335D01*
X153533786Y-89422109D01*
X153533788Y-89422106D01*
X153533792Y-89422104D01*
X153684104Y-89271792D01*
X153684106Y-89271788D01*
X153684109Y-89271786D01*
X153809048Y-89099820D01*
X153809047Y-89099820D01*
X153809051Y-89099816D01*
X153813514Y-89091054D01*
X153861488Y-89040259D01*
X153929308Y-89023463D01*
X153995444Y-89045999D01*
X154034486Y-89091056D01*
X154038951Y-89099820D01*
X154163890Y-89271786D01*
X154314213Y-89422109D01*
X154486179Y-89547048D01*
X154486181Y-89547049D01*
X154486184Y-89547051D01*
X154675588Y-89643557D01*
X154877757Y-89709246D01*
X155087713Y-89742500D01*
X155087714Y-89742500D01*
X155300286Y-89742500D01*
X155300287Y-89742500D01*
X155510243Y-89709246D01*
X155712412Y-89643557D01*
X155901816Y-89547051D01*
X155988138Y-89484335D01*
X156073786Y-89422109D01*
X156073788Y-89422106D01*
X156073792Y-89422104D01*
X156224104Y-89271792D01*
X156224106Y-89271788D01*
X156224109Y-89271786D01*
X156291515Y-89179007D01*
X156349051Y-89099816D01*
X156353793Y-89090508D01*
X156401763Y-89039711D01*
X156469583Y-89022911D01*
X156535719Y-89045445D01*
X156574763Y-89090500D01*
X156579373Y-89099547D01*
X156618728Y-89153716D01*
X157251037Y-88521408D01*
X157268075Y-88584993D01*
X157333901Y-88699007D01*
X157426993Y-88792099D01*
X157541007Y-88857925D01*
X157604590Y-88874962D01*
X156972282Y-89507269D01*
X156972282Y-89507270D01*
X157026449Y-89546624D01*
X157215782Y-89643095D01*
X157417870Y-89708757D01*
X157627754Y-89742000D01*
X157840246Y-89742000D01*
X158050127Y-89708757D01*
X158050130Y-89708757D01*
X158252217Y-89643095D01*
X158441554Y-89546622D01*
X158495716Y-89507270D01*
X158495717Y-89507270D01*
X157863408Y-88874962D01*
X157926993Y-88857925D01*
X158041007Y-88792099D01*
X158134099Y-88699007D01*
X158199925Y-88584993D01*
X158216962Y-88521408D01*
X158887181Y-89191628D01*
X158920666Y-89252951D01*
X158923500Y-89279300D01*
X158923500Y-89289865D01*
X158923501Y-89289876D01*
X158929908Y-89349483D01*
X158980202Y-89484328D01*
X158980206Y-89484335D01*
X159066452Y-89599544D01*
X159066455Y-89599547D01*
X159181664Y-89685793D01*
X159181671Y-89685797D01*
X159316517Y-89736091D01*
X159316516Y-89736091D01*
X159323444Y-89736835D01*
X159376127Y-89742500D01*
X161171872Y-89742499D01*
X161231483Y-89736091D01*
X161366331Y-89685796D01*
X161481546Y-89599546D01*
X161567796Y-89484331D01*
X161618091Y-89349483D01*
X161624500Y-89289873D01*
X161624499Y-87494128D01*
X161618091Y-87434517D01*
X161567796Y-87299669D01*
X161567795Y-87299668D01*
X161567793Y-87299664D01*
X161481547Y-87184455D01*
X161481544Y-87184452D01*
X161366335Y-87098206D01*
X161366328Y-87098202D01*
X161231482Y-87047908D01*
X161231483Y-87047908D01*
X161171883Y-87041501D01*
X161171881Y-87041500D01*
X161171873Y-87041500D01*
X161171864Y-87041500D01*
X159376129Y-87041500D01*
X159376123Y-87041501D01*
X159316516Y-87047908D01*
X159181671Y-87098202D01*
X159181664Y-87098206D01*
X159066455Y-87184452D01*
X159066452Y-87184455D01*
X158980206Y-87299664D01*
X158980202Y-87299671D01*
X158929908Y-87434517D01*
X158925222Y-87478109D01*
X158923501Y-87494123D01*
X158923500Y-87494135D01*
X158923500Y-87504690D01*
X158903815Y-87571729D01*
X158887181Y-87592371D01*
X158216962Y-88262590D01*
X158199925Y-88199007D01*
X158134099Y-88084993D01*
X158041007Y-87991901D01*
X157926993Y-87926075D01*
X157863409Y-87909037D01*
X158495716Y-87276728D01*
X158441550Y-87237375D01*
X158252217Y-87140904D01*
X158050129Y-87075242D01*
X157840246Y-87042000D01*
X157627754Y-87042000D01*
X157417872Y-87075242D01*
X157417869Y-87075242D01*
X157215782Y-87140904D01*
X157026439Y-87237380D01*
X156972282Y-87276727D01*
X156972282Y-87276728D01*
X157604591Y-87909037D01*
X157541007Y-87926075D01*
X157426993Y-87991901D01*
X157333901Y-88084993D01*
X157268075Y-88199007D01*
X157251037Y-88262591D01*
X156618728Y-87630282D01*
X156618727Y-87630282D01*
X156579380Y-87684440D01*
X156579376Y-87684446D01*
X156574760Y-87693505D01*
X156526781Y-87744297D01*
X156458959Y-87761087D01*
X156392826Y-87738543D01*
X156353794Y-87693493D01*
X156349051Y-87684184D01*
X156349049Y-87684181D01*
X156349048Y-87684179D01*
X156224109Y-87512213D01*
X156073786Y-87361890D01*
X155901820Y-87236951D01*
X155712414Y-87140444D01*
X155712413Y-87140443D01*
X155712412Y-87140443D01*
X155510243Y-87074754D01*
X155510241Y-87074753D01*
X155510240Y-87074753D01*
X155348957Y-87049208D01*
X155300287Y-87041500D01*
X155087713Y-87041500D01*
X155039042Y-87049208D01*
X154877760Y-87074753D01*
X154675585Y-87140444D01*
X154486179Y-87236951D01*
X154314213Y-87361890D01*
X154163890Y-87512213D01*
X154038949Y-87684182D01*
X154034484Y-87692946D01*
X153986509Y-87743742D01*
X153918688Y-87760536D01*
X153852553Y-87737998D01*
X153813516Y-87692946D01*
X153809050Y-87684182D01*
X153684109Y-87512213D01*
X153533786Y-87361890D01*
X153361820Y-87236951D01*
X153172414Y-87140444D01*
X153172413Y-87140443D01*
X153172412Y-87140443D01*
X152970243Y-87074754D01*
X152970241Y-87074753D01*
X152970240Y-87074753D01*
X152808957Y-87049208D01*
X152760287Y-87041500D01*
X152547713Y-87041500D01*
X152499042Y-87049208D01*
X152337760Y-87074753D01*
X152135585Y-87140444D01*
X151946179Y-87236951D01*
X151774213Y-87361890D01*
X151623890Y-87512213D01*
X151498949Y-87684182D01*
X151494484Y-87692946D01*
X151446509Y-87743742D01*
X151378688Y-87760536D01*
X151312553Y-87737998D01*
X151273516Y-87692946D01*
X151269050Y-87684182D01*
X151144109Y-87512213D01*
X150993786Y-87361890D01*
X150821820Y-87236951D01*
X150632414Y-87140444D01*
X150632413Y-87140443D01*
X150632412Y-87140443D01*
X150430243Y-87074754D01*
X150430241Y-87074753D01*
X150430240Y-87074753D01*
X150268957Y-87049208D01*
X150220287Y-87041500D01*
X150007713Y-87041500D01*
X149959042Y-87049208D01*
X149797760Y-87074753D01*
X149595585Y-87140444D01*
X149406179Y-87236951D01*
X149234213Y-87361890D01*
X149083890Y-87512213D01*
X148958949Y-87684182D01*
X148954484Y-87692946D01*
X148906509Y-87743742D01*
X148838688Y-87760536D01*
X148772553Y-87737998D01*
X148733516Y-87692946D01*
X148729050Y-87684182D01*
X148604109Y-87512213D01*
X148453786Y-87361890D01*
X148281820Y-87236951D01*
X148092414Y-87140444D01*
X148092413Y-87140443D01*
X148092412Y-87140443D01*
X147890243Y-87074754D01*
X147890241Y-87074753D01*
X147890240Y-87074753D01*
X147728957Y-87049208D01*
X147680287Y-87041500D01*
X147467713Y-87041500D01*
X147419042Y-87049208D01*
X147257760Y-87074753D01*
X147055585Y-87140444D01*
X146866179Y-87236951D01*
X146694213Y-87361890D01*
X146543890Y-87512213D01*
X146418951Y-87684179D01*
X146322444Y-87873585D01*
X146256753Y-88075760D01*
X146223500Y-88285713D01*
X115929561Y-88285713D01*
X115931837Y-86341753D01*
X178101000Y-86341753D01*
X178101000Y-86554246D01*
X178134242Y-86764127D01*
X178134242Y-86764130D01*
X178199904Y-86966217D01*
X178296375Y-87155550D01*
X178335728Y-87209716D01*
X178968037Y-86577408D01*
X178985075Y-86640993D01*
X179050901Y-86755007D01*
X179143993Y-86848099D01*
X179258007Y-86913925D01*
X179321590Y-86930962D01*
X178689282Y-87563269D01*
X178689282Y-87563270D01*
X178743449Y-87602624D01*
X178932782Y-87699095D01*
X179134870Y-87764757D01*
X179344754Y-87798000D01*
X179557246Y-87798000D01*
X179767127Y-87764757D01*
X179767130Y-87764757D01*
X179969217Y-87699095D01*
X180158554Y-87602622D01*
X180212716Y-87563270D01*
X180212717Y-87563270D01*
X179580408Y-86930962D01*
X179643993Y-86913925D01*
X179758007Y-86848099D01*
X179851099Y-86755007D01*
X179916925Y-86640993D01*
X179933962Y-86577408D01*
X180566270Y-87209717D01*
X180566270Y-87209716D01*
X180605622Y-87155555D01*
X180610232Y-87146507D01*
X180658205Y-87095709D01*
X180726025Y-87078912D01*
X180792161Y-87101447D01*
X180831204Y-87146504D01*
X180835949Y-87155817D01*
X180960890Y-87327786D01*
X181111213Y-87478109D01*
X181283179Y-87603048D01*
X181283181Y-87603049D01*
X181283184Y-87603051D01*
X181472588Y-87699557D01*
X181674757Y-87765246D01*
X181884713Y-87798500D01*
X181884714Y-87798500D01*
X182097286Y-87798500D01*
X182097287Y-87798500D01*
X182307243Y-87765246D01*
X182509412Y-87699557D01*
X182698816Y-87603051D01*
X182785138Y-87540335D01*
X182870786Y-87478109D01*
X182870788Y-87478106D01*
X182870792Y-87478104D01*
X183021104Y-87327792D01*
X183021106Y-87327788D01*
X183021109Y-87327786D01*
X183146048Y-87155820D01*
X183146050Y-87155817D01*
X183146051Y-87155816D01*
X183150514Y-87147054D01*
X183198488Y-87096259D01*
X183266308Y-87079463D01*
X183332444Y-87101999D01*
X183371486Y-87147056D01*
X183375951Y-87155820D01*
X183500890Y-87327786D01*
X183651213Y-87478109D01*
X183823179Y-87603048D01*
X183823181Y-87603049D01*
X183823184Y-87603051D01*
X184012588Y-87699557D01*
X184214757Y-87765246D01*
X184424713Y-87798500D01*
X184424714Y-87798500D01*
X184637286Y-87798500D01*
X184637287Y-87798500D01*
X184847243Y-87765246D01*
X185049412Y-87699557D01*
X185238816Y-87603051D01*
X185388727Y-87494135D01*
X185410784Y-87478110D01*
X185410784Y-87478109D01*
X185410792Y-87478104D01*
X185524329Y-87364566D01*
X185585648Y-87331084D01*
X185655340Y-87336068D01*
X185711274Y-87377939D01*
X185728189Y-87408917D01*
X185777202Y-87540328D01*
X185777206Y-87540335D01*
X185863452Y-87655544D01*
X185863455Y-87655547D01*
X185978664Y-87741793D01*
X185978671Y-87741797D01*
X186113517Y-87792091D01*
X186113516Y-87792091D01*
X186120444Y-87792835D01*
X186173127Y-87798500D01*
X187968872Y-87798499D01*
X188028483Y-87792091D01*
X188163331Y-87741796D01*
X188278546Y-87655546D01*
X188364796Y-87540331D01*
X188415091Y-87405483D01*
X188421500Y-87345873D01*
X188421499Y-85550128D01*
X188415091Y-85490517D01*
X188413810Y-85487083D01*
X188364797Y-85355671D01*
X188364793Y-85355664D01*
X188278547Y-85240455D01*
X188278544Y-85240452D01*
X188163335Y-85154206D01*
X188163328Y-85154202D01*
X188028482Y-85103908D01*
X188028483Y-85103908D01*
X187968883Y-85097501D01*
X187968881Y-85097500D01*
X187968873Y-85097500D01*
X187968864Y-85097500D01*
X186173129Y-85097500D01*
X186173123Y-85097501D01*
X186113516Y-85103908D01*
X185978671Y-85154202D01*
X185978664Y-85154206D01*
X185863455Y-85240452D01*
X185863452Y-85240455D01*
X185777206Y-85355664D01*
X185777203Y-85355669D01*
X185728189Y-85487083D01*
X185686317Y-85543016D01*
X185620853Y-85567433D01*
X185552580Y-85552581D01*
X185524326Y-85531430D01*
X185410786Y-85417890D01*
X185238820Y-85292951D01*
X185049414Y-85196444D01*
X185049413Y-85196443D01*
X185049412Y-85196443D01*
X184847243Y-85130754D01*
X184847241Y-85130753D01*
X184847240Y-85130753D01*
X184685957Y-85105208D01*
X184637287Y-85097500D01*
X184424713Y-85097500D01*
X184376042Y-85105208D01*
X184214760Y-85130753D01*
X184012585Y-85196444D01*
X183823179Y-85292951D01*
X183651213Y-85417890D01*
X183500890Y-85568213D01*
X183375949Y-85740182D01*
X183371484Y-85748946D01*
X183323509Y-85799742D01*
X183255688Y-85816536D01*
X183189553Y-85793998D01*
X183150516Y-85748946D01*
X183146050Y-85740182D01*
X183021109Y-85568213D01*
X182870786Y-85417890D01*
X182698820Y-85292951D01*
X182509414Y-85196444D01*
X182509413Y-85196443D01*
X182509412Y-85196443D01*
X182307243Y-85130754D01*
X182307241Y-85130753D01*
X182307240Y-85130753D01*
X182145957Y-85105208D01*
X182097287Y-85097500D01*
X181884713Y-85097500D01*
X181836042Y-85105208D01*
X181674760Y-85130753D01*
X181472585Y-85196444D01*
X181283179Y-85292951D01*
X181111213Y-85417890D01*
X180960890Y-85568213D01*
X180835949Y-85740182D01*
X180831202Y-85749499D01*
X180783227Y-85800293D01*
X180715405Y-85817087D01*
X180649271Y-85794548D01*
X180610234Y-85749495D01*
X180605626Y-85740452D01*
X180566270Y-85686282D01*
X180566269Y-85686282D01*
X179933962Y-86318590D01*
X179916925Y-86255007D01*
X179851099Y-86140993D01*
X179758007Y-86047901D01*
X179643993Y-85982075D01*
X179580409Y-85965037D01*
X180212716Y-85332728D01*
X180158550Y-85293375D01*
X179969217Y-85196904D01*
X179767129Y-85131242D01*
X179557246Y-85098000D01*
X179344754Y-85098000D01*
X179134872Y-85131242D01*
X179134869Y-85131242D01*
X178932782Y-85196904D01*
X178743439Y-85293380D01*
X178689282Y-85332727D01*
X178689282Y-85332728D01*
X179321591Y-85965037D01*
X179258007Y-85982075D01*
X179143993Y-86047901D01*
X179050901Y-86140993D01*
X178985075Y-86255007D01*
X178968037Y-86318591D01*
X178335728Y-85686282D01*
X178335727Y-85686282D01*
X178296380Y-85740439D01*
X178199904Y-85929782D01*
X178134242Y-86131869D01*
X178134242Y-86131872D01*
X178101000Y-86341753D01*
X115931837Y-86341753D01*
X115940121Y-79264644D01*
X119882800Y-79264644D01*
X119882800Y-79485355D01*
X119917327Y-79703350D01*
X119985528Y-79913255D01*
X119985529Y-79913258D01*
X120085731Y-80109913D01*
X120215462Y-80288472D01*
X120371528Y-80444538D01*
X120500242Y-80538055D01*
X120509364Y-80544682D01*
X120552029Y-80600012D01*
X120558008Y-80669626D01*
X120525402Y-80731421D01*
X120509363Y-80745318D01*
X120371528Y-80845462D01*
X120371526Y-80845464D01*
X120371525Y-80845464D01*
X120215464Y-81001525D01*
X120215464Y-81001526D01*
X120215462Y-81001528D01*
X120159747Y-81078212D01*
X120085731Y-81180086D01*
X119985529Y-81376741D01*
X119985528Y-81376744D01*
X119917327Y-81586649D01*
X119882800Y-81804644D01*
X119882800Y-82025355D01*
X119917327Y-82243350D01*
X119985528Y-82453255D01*
X119985529Y-82453258D01*
X120079660Y-82637999D01*
X120085731Y-82649913D01*
X120215462Y-82828472D01*
X120371528Y-82984538D01*
X120371531Y-82984540D01*
X120509788Y-83084990D01*
X120552454Y-83140320D01*
X120558433Y-83209933D01*
X120525827Y-83271728D01*
X120509788Y-83285627D01*
X120486268Y-83302714D01*
X120486268Y-83302715D01*
X121039271Y-83855718D01*
X120978199Y-83881016D01*
X120872115Y-83951899D01*
X120781899Y-84042115D01*
X120711016Y-84148199D01*
X120685718Y-84209271D01*
X120132715Y-83656268D01*
X120132714Y-83656268D01*
X120086162Y-83720342D01*
X119985992Y-83916936D01*
X119917815Y-84126763D01*
X119917815Y-84126766D01*
X119883300Y-84344684D01*
X119883300Y-84565315D01*
X119917815Y-84783233D01*
X119917815Y-84783236D01*
X119985992Y-84993063D01*
X120086157Y-85189647D01*
X120132715Y-85253730D01*
X120685718Y-84700727D01*
X120711016Y-84761801D01*
X120781899Y-84867885D01*
X120872115Y-84958101D01*
X120978199Y-85028984D01*
X121039271Y-85054280D01*
X120486268Y-85607282D01*
X120486268Y-85607283D01*
X120550352Y-85653842D01*
X120746936Y-85754007D01*
X120956764Y-85822184D01*
X121174685Y-85856700D01*
X121395315Y-85856700D01*
X121613233Y-85822184D01*
X121613236Y-85822184D01*
X121823063Y-85754007D01*
X122019651Y-85653840D01*
X122083730Y-85607283D01*
X122083731Y-85607283D01*
X121530728Y-85054281D01*
X121591801Y-85028984D01*
X121697885Y-84958101D01*
X121788101Y-84867885D01*
X121858984Y-84761801D01*
X121884280Y-84700728D01*
X122437283Y-85253731D01*
X122437283Y-85253730D01*
X122483840Y-85189651D01*
X122584007Y-84993063D01*
X122652184Y-84783236D01*
X122652184Y-84783233D01*
X122686700Y-84565315D01*
X122686700Y-84344684D01*
X122652184Y-84126766D01*
X122652184Y-84126763D01*
X122584007Y-83916936D01*
X122505219Y-83762306D01*
X122483842Y-83720352D01*
X122437283Y-83656268D01*
X122437282Y-83656268D01*
X121884280Y-84209270D01*
X121858984Y-84148199D01*
X121788101Y-84042115D01*
X121697885Y-83951899D01*
X121591801Y-83881016D01*
X121530726Y-83855718D01*
X122083730Y-83302715D01*
X122060211Y-83285628D01*
X122017545Y-83230298D01*
X122011566Y-83160685D01*
X122044171Y-83098889D01*
X122060206Y-83084993D01*
X122198472Y-82984538D01*
X122354538Y-82828472D01*
X122484269Y-82649913D01*
X122584470Y-82453258D01*
X122652673Y-82243349D01*
X122687200Y-82025356D01*
X122687200Y-81804644D01*
X122652673Y-81586651D01*
X122617617Y-81478760D01*
X122584471Y-81376744D01*
X122584470Y-81376741D01*
X122521445Y-81253049D01*
X122484269Y-81180087D01*
X122354538Y-81001528D01*
X122198472Y-80845462D01*
X122060636Y-80745318D01*
X122017970Y-80689988D01*
X122011991Y-80620375D01*
X122044597Y-80558580D01*
X122060636Y-80544682D01*
X122068945Y-80538645D01*
X122198472Y-80444538D01*
X122354538Y-80288472D01*
X122484269Y-80109913D01*
X122584470Y-79913258D01*
X122652673Y-79703349D01*
X122687200Y-79485356D01*
X122687200Y-79264644D01*
X122652673Y-79046651D01*
X122584470Y-78836742D01*
X122584470Y-78836741D01*
X122521446Y-78713051D01*
X122484269Y-78640087D01*
X122354538Y-78461528D01*
X122198472Y-78305462D01*
X122019913Y-78175731D01*
X121976744Y-78153735D01*
X121823258Y-78075529D01*
X121823255Y-78075528D01*
X121613350Y-78007327D01*
X121504352Y-77990063D01*
X121395356Y-77972800D01*
X121174644Y-77972800D01*
X121101979Y-77984309D01*
X120956649Y-78007327D01*
X120746744Y-78075528D01*
X120746741Y-78075529D01*
X120550086Y-78175731D01*
X120448212Y-78249747D01*
X120371528Y-78305462D01*
X120371526Y-78305464D01*
X120371525Y-78305464D01*
X120215464Y-78461525D01*
X120215464Y-78461526D01*
X120215462Y-78461528D01*
X120199005Y-78484179D01*
X120085731Y-78640086D01*
X119985529Y-78836741D01*
X119985528Y-78836744D01*
X119917327Y-79046649D01*
X119882800Y-79264644D01*
X115940121Y-79264644D01*
X115942909Y-76883153D01*
X126326500Y-76883153D01*
X126326500Y-77040846D01*
X126357261Y-77195489D01*
X126357264Y-77195501D01*
X126417602Y-77341172D01*
X126417609Y-77341185D01*
X126505210Y-77472288D01*
X126505213Y-77472292D01*
X126616707Y-77583786D01*
X126616711Y-77583789D01*
X126747814Y-77671390D01*
X126747827Y-77671397D01*
X126863320Y-77719235D01*
X126893503Y-77731737D01*
X127048153Y-77762499D01*
X127048156Y-77762500D01*
X127048158Y-77762500D01*
X127205844Y-77762500D01*
X127205845Y-77762499D01*
X127360497Y-77731737D01*
X127506179Y-77671394D01*
X127623924Y-77592718D01*
X127690601Y-77571841D01*
X127757981Y-77590325D01*
X127804672Y-77642304D01*
X127815848Y-77711274D01*
X127807376Y-77743273D01*
X127754264Y-77871498D01*
X127754261Y-77871510D01*
X127723500Y-78026153D01*
X127723500Y-78183846D01*
X127754261Y-78338489D01*
X127754264Y-78338501D01*
X127814602Y-78484172D01*
X127814609Y-78484185D01*
X127902210Y-78615288D01*
X127902213Y-78615292D01*
X128013707Y-78726786D01*
X128013711Y-78726789D01*
X128144814Y-78814390D01*
X128144827Y-78814397D01*
X128290498Y-78874735D01*
X128290503Y-78874737D01*
X128414728Y-78899447D01*
X128445153Y-78905499D01*
X128445156Y-78905500D01*
X128445158Y-78905500D01*
X128602844Y-78905500D01*
X128602845Y-78905499D01*
X128757497Y-78874737D01*
X128903179Y-78814394D01*
X129034289Y-78726789D01*
X129145789Y-78615289D01*
X129233394Y-78484179D01*
X129293737Y-78338497D01*
X129313113Y-78241085D01*
X129324638Y-78183150D01*
X129357023Y-78121239D01*
X129358521Y-78119713D01*
X129875473Y-77602760D01*
X129936794Y-77569277D01*
X130006485Y-77574261D01*
X130032044Y-77587342D01*
X130093077Y-77628124D01*
X130093092Y-77628132D01*
X130197545Y-77671397D01*
X130238768Y-77688472D01*
X130353401Y-77711274D01*
X130393418Y-77719234D01*
X130393421Y-77719235D01*
X130393423Y-77719235D01*
X130551109Y-77719235D01*
X130551110Y-77719234D01*
X130705762Y-77688472D01*
X130851444Y-77628129D01*
X130982554Y-77540524D01*
X131094054Y-77429024D01*
X131181659Y-77297914D01*
X131242002Y-77152232D01*
X131272765Y-76997577D01*
X131272765Y-76839893D01*
X131272765Y-76839890D01*
X131272764Y-76839888D01*
X131242003Y-76685245D01*
X131242002Y-76685238D01*
X131239090Y-76678208D01*
X131181662Y-76539562D01*
X131181655Y-76539549D01*
X131094054Y-76408446D01*
X131094051Y-76408442D01*
X130982557Y-76296948D01*
X130982553Y-76296945D01*
X130851450Y-76209344D01*
X130851437Y-76209337D01*
X130705766Y-76148999D01*
X130705754Y-76148996D01*
X130551110Y-76118235D01*
X130551107Y-76118235D01*
X130393423Y-76118235D01*
X130393420Y-76118235D01*
X130238775Y-76148996D01*
X130238763Y-76148999D01*
X130093092Y-76209337D01*
X130093079Y-76209344D01*
X129961390Y-76297337D01*
X129943343Y-76302987D01*
X129927434Y-76313212D01*
X129896472Y-76317663D01*
X129894712Y-76318215D01*
X129892499Y-76318235D01*
X129696516Y-76318235D01*
X129629477Y-76298550D01*
X129583722Y-76245746D01*
X129573778Y-76176588D01*
X129602803Y-76113032D01*
X129649064Y-76079674D01*
X129792172Y-76020397D01*
X129792172Y-76020396D01*
X129792179Y-76020394D01*
X129923289Y-75932789D01*
X130034789Y-75821289D01*
X130122394Y-75690179D01*
X130182737Y-75544497D01*
X130213500Y-75389842D01*
X130213500Y-75232158D01*
X130213500Y-75232155D01*
X130213499Y-75232153D01*
X130182738Y-75077510D01*
X130182737Y-75077503D01*
X130182735Y-75077498D01*
X130122397Y-74931827D01*
X130122390Y-74931814D01*
X130034789Y-74800711D01*
X130034786Y-74800707D01*
X129923292Y-74689213D01*
X129923288Y-74689210D01*
X129792185Y-74601609D01*
X129792172Y-74601602D01*
X129646501Y-74541264D01*
X129646489Y-74541261D01*
X129491845Y-74510500D01*
X129491842Y-74510500D01*
X129334158Y-74510500D01*
X129334155Y-74510500D01*
X129179510Y-74541261D01*
X129179498Y-74541264D01*
X129033827Y-74601602D01*
X129033814Y-74601609D01*
X128902127Y-74689601D01*
X128835450Y-74710479D01*
X128833236Y-74710499D01*
X128698943Y-74710499D01*
X128622579Y-74730961D01*
X128546214Y-74751423D01*
X128546209Y-74751426D01*
X128409290Y-74830475D01*
X128409282Y-74830481D01*
X127112339Y-76127425D01*
X127051016Y-76160910D01*
X127048850Y-76161361D01*
X126893508Y-76192261D01*
X126893498Y-76192264D01*
X126747827Y-76252602D01*
X126747814Y-76252609D01*
X126616711Y-76340210D01*
X126616707Y-76340213D01*
X126505213Y-76451707D01*
X126505210Y-76451711D01*
X126417609Y-76582814D01*
X126417602Y-76582827D01*
X126357264Y-76728498D01*
X126357261Y-76728510D01*
X126326500Y-76883153D01*
X115942909Y-76883153D01*
X115946143Y-74120135D01*
X173020500Y-74120135D01*
X173020500Y-75915870D01*
X173020501Y-75915876D01*
X173026908Y-75975483D01*
X173077202Y-76110328D01*
X173077206Y-76110335D01*
X173163452Y-76225544D01*
X173163455Y-76225547D01*
X173278664Y-76311793D01*
X173278671Y-76311797D01*
X173410082Y-76360810D01*
X173466016Y-76402681D01*
X173490433Y-76468145D01*
X173475582Y-76536418D01*
X173454431Y-76564673D01*
X173340889Y-76678215D01*
X173215951Y-76850179D01*
X173119444Y-77039585D01*
X173053753Y-77241760D01*
X173020500Y-77451713D01*
X173020500Y-77664286D01*
X173036055Y-77762500D01*
X173053754Y-77874243D01*
X173119156Y-78075530D01*
X173119444Y-78076414D01*
X173215951Y-78265820D01*
X173340890Y-78437786D01*
X173491213Y-78588109D01*
X173663182Y-78713050D01*
X173671946Y-78717516D01*
X173722742Y-78765491D01*
X173739536Y-78833312D01*
X173716998Y-78899447D01*
X173671946Y-78938484D01*
X173663182Y-78942949D01*
X173491213Y-79067890D01*
X173340890Y-79218213D01*
X173215951Y-79390179D01*
X173119444Y-79579585D01*
X173053753Y-79781760D01*
X173032926Y-79913258D01*
X173020500Y-79991713D01*
X173020500Y-80204287D01*
X173053754Y-80414243D01*
X173114114Y-80600012D01*
X173119444Y-80616414D01*
X173215951Y-80805820D01*
X173340890Y-80977786D01*
X173491213Y-81128109D01*
X173663179Y-81253048D01*
X173663181Y-81253049D01*
X173663184Y-81253051D01*
X173672493Y-81257794D01*
X173723290Y-81305766D01*
X173740087Y-81373587D01*
X173717552Y-81439722D01*
X173672505Y-81478760D01*
X173663446Y-81483376D01*
X173663440Y-81483380D01*
X173609282Y-81522727D01*
X173609282Y-81522728D01*
X174241591Y-82155037D01*
X174178007Y-82172075D01*
X174063993Y-82237901D01*
X173970901Y-82330993D01*
X173905075Y-82445007D01*
X173888037Y-82508591D01*
X173255728Y-81876282D01*
X173255727Y-81876282D01*
X173216380Y-81930439D01*
X173119904Y-82119782D01*
X173054242Y-82321869D01*
X173054242Y-82321872D01*
X173021000Y-82531753D01*
X173021000Y-82744246D01*
X173054242Y-82954127D01*
X173054242Y-82954130D01*
X173119904Y-83156217D01*
X173216375Y-83345550D01*
X173255728Y-83399716D01*
X173888037Y-82767408D01*
X173905075Y-82830993D01*
X173970901Y-82945007D01*
X174063993Y-83038099D01*
X174178007Y-83103925D01*
X174241590Y-83120962D01*
X173609282Y-83753269D01*
X173609282Y-83753270D01*
X173663449Y-83792624D01*
X173852782Y-83889095D01*
X174054870Y-83954757D01*
X174264754Y-83988000D01*
X174477246Y-83988000D01*
X174687127Y-83954757D01*
X174687130Y-83954757D01*
X174889217Y-83889095D01*
X175078554Y-83792622D01*
X175132716Y-83753270D01*
X175132717Y-83753270D01*
X174500408Y-83120962D01*
X174563993Y-83103925D01*
X174678007Y-83038099D01*
X174771099Y-82945007D01*
X174836925Y-82830993D01*
X174853962Y-82767408D01*
X175486270Y-83399717D01*
X175486270Y-83399716D01*
X175525622Y-83345554D01*
X175622095Y-83156217D01*
X175687757Y-82954130D01*
X175687757Y-82954127D01*
X175721000Y-82744246D01*
X175721000Y-82531753D01*
X175687757Y-82321872D01*
X175687757Y-82321869D01*
X175622095Y-82119782D01*
X175525624Y-81930449D01*
X175486270Y-81876282D01*
X175486269Y-81876282D01*
X174853962Y-82508590D01*
X174836925Y-82445007D01*
X174771099Y-82330993D01*
X174678007Y-82237901D01*
X174563993Y-82172075D01*
X174500409Y-82155037D01*
X175132716Y-81522728D01*
X175078547Y-81483373D01*
X175078547Y-81483372D01*
X175069500Y-81478763D01*
X175018706Y-81430788D01*
X175001912Y-81362966D01*
X175024451Y-81296832D01*
X175069508Y-81257793D01*
X175078816Y-81253051D01*
X175179243Y-81180087D01*
X175250786Y-81128109D01*
X175250788Y-81128106D01*
X175250792Y-81128104D01*
X175401104Y-80977792D01*
X175401106Y-80977788D01*
X175401109Y-80977786D01*
X175526048Y-80805820D01*
X175526047Y-80805820D01*
X175526051Y-80805816D01*
X175622557Y-80616412D01*
X175688246Y-80414243D01*
X175721500Y-80204287D01*
X175721500Y-79991713D01*
X175688246Y-79781757D01*
X175622557Y-79579588D01*
X175526051Y-79390184D01*
X175526049Y-79390181D01*
X175526048Y-79390179D01*
X175401109Y-79218213D01*
X175250786Y-79067890D01*
X175078820Y-78942951D01*
X175078115Y-78942591D01*
X175070054Y-78938485D01*
X175019259Y-78890512D01*
X175002463Y-78822692D01*
X175024999Y-78756556D01*
X175070054Y-78717515D01*
X175078816Y-78713051D01*
X175179243Y-78640087D01*
X175250786Y-78588109D01*
X175250788Y-78588106D01*
X175250792Y-78588104D01*
X175401104Y-78437792D01*
X175401106Y-78437788D01*
X175401109Y-78437786D01*
X175526048Y-78265820D01*
X175526047Y-78265820D01*
X175526051Y-78265816D01*
X175622557Y-78076412D01*
X175688246Y-77874243D01*
X175721500Y-77664287D01*
X175721500Y-77451713D01*
X175688246Y-77241757D01*
X175622557Y-77039588D01*
X175526051Y-76850184D01*
X175526049Y-76850181D01*
X175526048Y-76850179D01*
X175401109Y-76678213D01*
X175287569Y-76564673D01*
X175254084Y-76503350D01*
X175259068Y-76433658D01*
X175300940Y-76377725D01*
X175331915Y-76360810D01*
X175463331Y-76311796D01*
X175578546Y-76225546D01*
X175664796Y-76110331D01*
X175715091Y-75975483D01*
X175721500Y-75915873D01*
X175721499Y-74120128D01*
X175715091Y-74060517D01*
X175664796Y-73925669D01*
X175664795Y-73925668D01*
X175664793Y-73925664D01*
X175578547Y-73810455D01*
X175578544Y-73810452D01*
X175463335Y-73724206D01*
X175463328Y-73724202D01*
X175328482Y-73673908D01*
X175328483Y-73673908D01*
X175268883Y-73667501D01*
X175268881Y-73667500D01*
X175268873Y-73667500D01*
X175268864Y-73667500D01*
X173473129Y-73667500D01*
X173473123Y-73667501D01*
X173413516Y-73673908D01*
X173278671Y-73724202D01*
X173278664Y-73724206D01*
X173163455Y-73810452D01*
X173163452Y-73810455D01*
X173077206Y-73925664D01*
X173077202Y-73925671D01*
X173026908Y-74060517D01*
X173020501Y-74120116D01*
X173020501Y-74120123D01*
X173020500Y-74120135D01*
X115946143Y-74120135D01*
X115949676Y-71101753D01*
X178101000Y-71101753D01*
X178101000Y-71314246D01*
X178134242Y-71524127D01*
X178134242Y-71524130D01*
X178199904Y-71726217D01*
X178296375Y-71915550D01*
X178335728Y-71969716D01*
X178968037Y-71337408D01*
X178985075Y-71400993D01*
X179050901Y-71515007D01*
X179143993Y-71608099D01*
X179258007Y-71673925D01*
X179321590Y-71690962D01*
X178689282Y-72323269D01*
X178689282Y-72323270D01*
X178743449Y-72362624D01*
X178932782Y-72459095D01*
X179134870Y-72524757D01*
X179344754Y-72558000D01*
X179557246Y-72558000D01*
X179767127Y-72524757D01*
X179767130Y-72524757D01*
X179969217Y-72459095D01*
X180158554Y-72362622D01*
X180212716Y-72323270D01*
X180212717Y-72323270D01*
X179580408Y-71690962D01*
X179643993Y-71673925D01*
X179758007Y-71608099D01*
X179851099Y-71515007D01*
X179916925Y-71400993D01*
X179933962Y-71337408D01*
X180566270Y-71969717D01*
X180566270Y-71969716D01*
X180605622Y-71915555D01*
X180610232Y-71906507D01*
X180658205Y-71855709D01*
X180726025Y-71838912D01*
X180792161Y-71861447D01*
X180831204Y-71906504D01*
X180835949Y-71915817D01*
X180960890Y-72087786D01*
X181111213Y-72238109D01*
X181283179Y-72363048D01*
X181283181Y-72363049D01*
X181283184Y-72363051D01*
X181472588Y-72459557D01*
X181674757Y-72525246D01*
X181884713Y-72558500D01*
X181884714Y-72558500D01*
X182097286Y-72558500D01*
X182097287Y-72558500D01*
X182307243Y-72525246D01*
X182509412Y-72459557D01*
X182698816Y-72363051D01*
X182785138Y-72300335D01*
X182870786Y-72238109D01*
X182870788Y-72238106D01*
X182870792Y-72238104D01*
X183021104Y-72087792D01*
X183021106Y-72087788D01*
X183021109Y-72087786D01*
X183146048Y-71915820D01*
X183146050Y-71915817D01*
X183146051Y-71915816D01*
X183150514Y-71907054D01*
X183198488Y-71856259D01*
X183266308Y-71839463D01*
X183332444Y-71861999D01*
X183371486Y-71907056D01*
X183375951Y-71915820D01*
X183500890Y-72087786D01*
X183651213Y-72238109D01*
X183823179Y-72363048D01*
X183823181Y-72363049D01*
X183823184Y-72363051D01*
X184012588Y-72459557D01*
X184214757Y-72525246D01*
X184424713Y-72558500D01*
X184424714Y-72558500D01*
X184637286Y-72558500D01*
X184637287Y-72558500D01*
X184847243Y-72525246D01*
X185049412Y-72459557D01*
X185238816Y-72363051D01*
X185410792Y-72238104D01*
X185524329Y-72124566D01*
X185585648Y-72091084D01*
X185655340Y-72096068D01*
X185711274Y-72137939D01*
X185728189Y-72168917D01*
X185777202Y-72300328D01*
X185777206Y-72300335D01*
X185863452Y-72415544D01*
X185863455Y-72415547D01*
X185978664Y-72501793D01*
X185978671Y-72501797D01*
X186113517Y-72552091D01*
X186113516Y-72552091D01*
X186120444Y-72552835D01*
X186173127Y-72558500D01*
X187968872Y-72558499D01*
X188028483Y-72552091D01*
X188163331Y-72501796D01*
X188278546Y-72415546D01*
X188364796Y-72300331D01*
X188415091Y-72165483D01*
X188421500Y-72105873D01*
X188421499Y-70310128D01*
X188415091Y-70250517D01*
X188413810Y-70247083D01*
X188364797Y-70115671D01*
X188364793Y-70115664D01*
X188278547Y-70000455D01*
X188278544Y-70000452D01*
X188163335Y-69914206D01*
X188163328Y-69914202D01*
X188028482Y-69863908D01*
X188028483Y-69863908D01*
X187968883Y-69857501D01*
X187968881Y-69857500D01*
X187968873Y-69857500D01*
X187968864Y-69857500D01*
X186173129Y-69857500D01*
X186173123Y-69857501D01*
X186113516Y-69863908D01*
X185978671Y-69914202D01*
X185978664Y-69914206D01*
X185863455Y-70000452D01*
X185863452Y-70000455D01*
X185777206Y-70115664D01*
X185777203Y-70115669D01*
X185728189Y-70247083D01*
X185686317Y-70303016D01*
X185620853Y-70327433D01*
X185552580Y-70312581D01*
X185524326Y-70291430D01*
X185410786Y-70177890D01*
X185238820Y-70052951D01*
X185049414Y-69956444D01*
X185049413Y-69956443D01*
X185049412Y-69956443D01*
X184847243Y-69890754D01*
X184847241Y-69890753D01*
X184847240Y-69890753D01*
X184685957Y-69865208D01*
X184637287Y-69857500D01*
X184424713Y-69857500D01*
X184376042Y-69865208D01*
X184214760Y-69890753D01*
X184012585Y-69956444D01*
X183823179Y-70052951D01*
X183651213Y-70177890D01*
X183500890Y-70328213D01*
X183375949Y-70500182D01*
X183371484Y-70508946D01*
X183323509Y-70559742D01*
X183255688Y-70576536D01*
X183189553Y-70553998D01*
X183150516Y-70508946D01*
X183146050Y-70500182D01*
X183021109Y-70328213D01*
X182870786Y-70177890D01*
X182698820Y-70052951D01*
X182509414Y-69956444D01*
X182509413Y-69956443D01*
X182509412Y-69956443D01*
X182307243Y-69890754D01*
X182307241Y-69890753D01*
X182307240Y-69890753D01*
X182145957Y-69865208D01*
X182097287Y-69857500D01*
X181884713Y-69857500D01*
X181836042Y-69865208D01*
X181674760Y-69890753D01*
X181472585Y-69956444D01*
X181283179Y-70052951D01*
X181111213Y-70177890D01*
X180960890Y-70328213D01*
X180835949Y-70500182D01*
X180831202Y-70509499D01*
X180783227Y-70560293D01*
X180715405Y-70577087D01*
X180649271Y-70554548D01*
X180610234Y-70509495D01*
X180605626Y-70500452D01*
X180566270Y-70446282D01*
X180566269Y-70446282D01*
X179933962Y-71078590D01*
X179916925Y-71015007D01*
X179851099Y-70900993D01*
X179758007Y-70807901D01*
X179643993Y-70742075D01*
X179580409Y-70725037D01*
X180212716Y-70092728D01*
X180158550Y-70053375D01*
X179969217Y-69956904D01*
X179767129Y-69891242D01*
X179557246Y-69858000D01*
X179344754Y-69858000D01*
X179134872Y-69891242D01*
X179134869Y-69891242D01*
X178932782Y-69956904D01*
X178743439Y-70053380D01*
X178689282Y-70092727D01*
X178689282Y-70092728D01*
X179321591Y-70725037D01*
X179258007Y-70742075D01*
X179143993Y-70807901D01*
X179050901Y-70900993D01*
X178985075Y-71015007D01*
X178968037Y-71078591D01*
X178335728Y-70446282D01*
X178335727Y-70446282D01*
X178296380Y-70500439D01*
X178199904Y-70689782D01*
X178134242Y-70891869D01*
X178134242Y-70891872D01*
X178101000Y-71101753D01*
X115949676Y-71101753D01*
X115954101Y-67321431D01*
X182876500Y-67321431D01*
X182876500Y-67479124D01*
X182907261Y-67633767D01*
X182907264Y-67633779D01*
X182967602Y-67779450D01*
X182967609Y-67779463D01*
X183055210Y-67910566D01*
X183055213Y-67910570D01*
X183166707Y-68022064D01*
X183166711Y-68022067D01*
X183297814Y-68109668D01*
X183297827Y-68109675D01*
X183438003Y-68167737D01*
X183443503Y-68170015D01*
X183586701Y-68198499D01*
X183598153Y-68200777D01*
X183598156Y-68200778D01*
X183598158Y-68200778D01*
X183755844Y-68200778D01*
X183755845Y-68200777D01*
X183910497Y-68170015D01*
X184056179Y-68109672D01*
X184059594Y-68107390D01*
X184187875Y-68021676D01*
X184205921Y-68016025D01*
X184221831Y-68005801D01*
X184252792Y-68001349D01*
X184254553Y-68000798D01*
X184256766Y-68000778D01*
X184462644Y-68000778D01*
X184529683Y-68020463D01*
X184531535Y-68021676D01*
X184659814Y-68107390D01*
X184659827Y-68107397D01*
X184805498Y-68167735D01*
X184805503Y-68167737D01*
X184960153Y-68198499D01*
X184960156Y-68198500D01*
X184960158Y-68198500D01*
X185117844Y-68198500D01*
X185117845Y-68198499D01*
X185272497Y-68167737D01*
X185412672Y-68109675D01*
X185418172Y-68107397D01*
X185418172Y-68107396D01*
X185418179Y-68107394D01*
X185549289Y-68019789D01*
X185660789Y-67908289D01*
X185748394Y-67777179D01*
X185808737Y-67631497D01*
X185839500Y-67476842D01*
X185839500Y-67319158D01*
X185839500Y-67319155D01*
X185839499Y-67319153D01*
X185808737Y-67164503D01*
X185808735Y-67164498D01*
X185748397Y-67018827D01*
X185748390Y-67018814D01*
X185660789Y-66887711D01*
X185660786Y-66887707D01*
X185549292Y-66776213D01*
X185549288Y-66776210D01*
X185418185Y-66688609D01*
X185418172Y-66688602D01*
X185272501Y-66628264D01*
X185272489Y-66628261D01*
X185117845Y-66597500D01*
X185117842Y-66597500D01*
X184960158Y-66597500D01*
X184960155Y-66597500D01*
X184805510Y-66628261D01*
X184805498Y-66628264D01*
X184659827Y-66688602D01*
X184659814Y-66688609D01*
X184524716Y-66778880D01*
X184506669Y-66784530D01*
X184490760Y-66794755D01*
X184459800Y-66799206D01*
X184458039Y-66799758D01*
X184455825Y-66799778D01*
X184256766Y-66799778D01*
X184189727Y-66780093D01*
X184187875Y-66778880D01*
X184056185Y-66690887D01*
X184056172Y-66690880D01*
X183910501Y-66630542D01*
X183910489Y-66630539D01*
X183755845Y-66599778D01*
X183755842Y-66599778D01*
X183598158Y-66599778D01*
X183598155Y-66599778D01*
X183443510Y-66630539D01*
X183443498Y-66630542D01*
X183297827Y-66690880D01*
X183297814Y-66690887D01*
X183166711Y-66778488D01*
X183166707Y-66778491D01*
X183055213Y-66889985D01*
X183055210Y-66889989D01*
X182967609Y-67021092D01*
X182967602Y-67021105D01*
X182907264Y-67166776D01*
X182907261Y-67166788D01*
X182876500Y-67321431D01*
X115954101Y-67321431D01*
X115956615Y-65174291D01*
X115956885Y-64943925D01*
X115957506Y-64413264D01*
X115957590Y-64341350D01*
X115977353Y-64274335D01*
X116030211Y-64228641D01*
X116099381Y-64218779D01*
X116162902Y-64247878D01*
X116186584Y-64275524D01*
X116273132Y-64413264D01*
X116453121Y-64638964D01*
X117771768Y-63320317D01*
X117857318Y-63438066D01*
X118007574Y-63588322D01*
X118125321Y-63673870D01*
X116806674Y-64992516D01*
X116806674Y-64992517D01*
X117032375Y-65172507D01*
X117336703Y-65363729D01*
X117660522Y-65519672D01*
X117999769Y-65638379D01*
X117999771Y-65638380D01*
X118350176Y-65718357D01*
X118350188Y-65718359D01*
X118707327Y-65758599D01*
X118707329Y-65758600D01*
X119066751Y-65758600D01*
X119066752Y-65758599D01*
X119423891Y-65718359D01*
X119423903Y-65718357D01*
X119774308Y-65638380D01*
X119774310Y-65638379D01*
X120113557Y-65519672D01*
X120437376Y-65363729D01*
X120741704Y-65172507D01*
X120967404Y-64992516D01*
X119648758Y-63673870D01*
X119766506Y-63588322D01*
X119916762Y-63438066D01*
X120002310Y-63320318D01*
X121320956Y-64638964D01*
X121500947Y-64413264D01*
X121692169Y-64108936D01*
X121848112Y-63785117D01*
X121966819Y-63445870D01*
X121966820Y-63445868D01*
X122046797Y-63095463D01*
X122046799Y-63095451D01*
X122087039Y-62738312D01*
X122087040Y-62738310D01*
X122087040Y-62378889D01*
X122087039Y-62378887D01*
X122046799Y-62021748D01*
X122046797Y-62021736D01*
X121966820Y-61671331D01*
X121966819Y-61671329D01*
X121848112Y-61332082D01*
X121800321Y-61232843D01*
X121800320Y-61232841D01*
X121776758Y-61183913D01*
X122576100Y-61183913D01*
X122576100Y-61396487D01*
X122609354Y-61606443D01*
X122630957Y-61672931D01*
X122675044Y-61808614D01*
X122771551Y-61998020D01*
X122896490Y-62169986D01*
X123010030Y-62283526D01*
X123043515Y-62344849D01*
X123038531Y-62414541D01*
X122996659Y-62470474D01*
X122965683Y-62487389D01*
X122834269Y-62536403D01*
X122834264Y-62536406D01*
X122719055Y-62622652D01*
X122719052Y-62622655D01*
X122632806Y-62737864D01*
X122632802Y-62737871D01*
X122582508Y-62872717D01*
X122576101Y-62932316D01*
X122576100Y-62932335D01*
X122576100Y-64728070D01*
X122576101Y-64728076D01*
X122582508Y-64787683D01*
X122632802Y-64922528D01*
X122632806Y-64922535D01*
X122719052Y-65037744D01*
X122719055Y-65037747D01*
X122834264Y-65123993D01*
X122834271Y-65123997D01*
X122969117Y-65174291D01*
X122969116Y-65174291D01*
X122976044Y-65175035D01*
X123028727Y-65180700D01*
X124824472Y-65180699D01*
X124884083Y-65174291D01*
X125018931Y-65123996D01*
X125134146Y-65037746D01*
X125220396Y-64922531D01*
X125269410Y-64791116D01*
X125311281Y-64735184D01*
X125376745Y-64710766D01*
X125445018Y-64725617D01*
X125473273Y-64746769D01*
X125586813Y-64860309D01*
X125758779Y-64985248D01*
X125758781Y-64985249D01*
X125758784Y-64985251D01*
X125948188Y-65081757D01*
X126150357Y-65147446D01*
X126360313Y-65180700D01*
X126360314Y-65180700D01*
X126572886Y-65180700D01*
X126572887Y-65180700D01*
X126782843Y-65147446D01*
X126985012Y-65081757D01*
X127174416Y-64985251D01*
X127260738Y-64922535D01*
X127346386Y-64860309D01*
X127346388Y-64860306D01*
X127346392Y-64860304D01*
X127496704Y-64709992D01*
X127496706Y-64709988D01*
X127496709Y-64709986D01*
X127621648Y-64538020D01*
X127621647Y-64538020D01*
X127621651Y-64538016D01*
X127626114Y-64529254D01*
X127674088Y-64478459D01*
X127741908Y-64461663D01*
X127808044Y-64484199D01*
X127847086Y-64529256D01*
X127851551Y-64538020D01*
X127976490Y-64709986D01*
X128126813Y-64860309D01*
X128298779Y-64985248D01*
X128298781Y-64985249D01*
X128298784Y-64985251D01*
X128488188Y-65081757D01*
X128690357Y-65147446D01*
X128900313Y-65180700D01*
X128900314Y-65180700D01*
X129112886Y-65180700D01*
X129112887Y-65180700D01*
X129322843Y-65147446D01*
X129525012Y-65081757D01*
X129714416Y-64985251D01*
X129800738Y-64922535D01*
X129886386Y-64860309D01*
X129886388Y-64860306D01*
X129886392Y-64860304D01*
X130036704Y-64709992D01*
X130036706Y-64709988D01*
X130036709Y-64709986D01*
X130161648Y-64538020D01*
X130161647Y-64538020D01*
X130161651Y-64538016D01*
X130166114Y-64529254D01*
X130214088Y-64478459D01*
X130281908Y-64461663D01*
X130348044Y-64484199D01*
X130387086Y-64529256D01*
X130391551Y-64538020D01*
X130516490Y-64709986D01*
X130666813Y-64860309D01*
X130838779Y-64985248D01*
X130838781Y-64985249D01*
X130838784Y-64985251D01*
X131028188Y-65081757D01*
X131230357Y-65147446D01*
X131440313Y-65180700D01*
X131440314Y-65180700D01*
X131652886Y-65180700D01*
X131652887Y-65180700D01*
X131862843Y-65147446D01*
X132065012Y-65081757D01*
X132254416Y-64985251D01*
X132340738Y-64922535D01*
X132426386Y-64860309D01*
X132426388Y-64860306D01*
X132426392Y-64860304D01*
X132576704Y-64709992D01*
X132576706Y-64709988D01*
X132576709Y-64709986D01*
X132701648Y-64538020D01*
X132701647Y-64538020D01*
X132701651Y-64538016D01*
X132706114Y-64529254D01*
X132754088Y-64478459D01*
X132821908Y-64461663D01*
X132888044Y-64484199D01*
X132927086Y-64529256D01*
X132931551Y-64538020D01*
X133056490Y-64709986D01*
X133206813Y-64860309D01*
X133378779Y-64985248D01*
X133378781Y-64985249D01*
X133378784Y-64985251D01*
X133568188Y-65081757D01*
X133770357Y-65147446D01*
X133980313Y-65180700D01*
X133980314Y-65180700D01*
X134192886Y-65180700D01*
X134192887Y-65180700D01*
X134402843Y-65147446D01*
X134605012Y-65081757D01*
X134794416Y-64985251D01*
X134880738Y-64922535D01*
X134966386Y-64860309D01*
X134966388Y-64860306D01*
X134966392Y-64860304D01*
X135116704Y-64709992D01*
X135116706Y-64709988D01*
X135116709Y-64709986D01*
X135241648Y-64538020D01*
X135241647Y-64538020D01*
X135241651Y-64538016D01*
X135246114Y-64529254D01*
X135294088Y-64478459D01*
X135361908Y-64461663D01*
X135428044Y-64484199D01*
X135467086Y-64529256D01*
X135471551Y-64538020D01*
X135596490Y-64709986D01*
X135746813Y-64860309D01*
X135918779Y-64985248D01*
X135918781Y-64985249D01*
X135918784Y-64985251D01*
X136108188Y-65081757D01*
X136310357Y-65147446D01*
X136520313Y-65180700D01*
X136520314Y-65180700D01*
X136732886Y-65180700D01*
X136732887Y-65180700D01*
X136942843Y-65147446D01*
X137145012Y-65081757D01*
X137334416Y-64985251D01*
X137420738Y-64922535D01*
X137506386Y-64860309D01*
X137506388Y-64860306D01*
X137506392Y-64860304D01*
X137656704Y-64709992D01*
X137656706Y-64709988D01*
X137656709Y-64709986D01*
X137781648Y-64538020D01*
X137781647Y-64538020D01*
X137781651Y-64538016D01*
X137786114Y-64529254D01*
X137834088Y-64478459D01*
X137901908Y-64461663D01*
X137968044Y-64484199D01*
X138007086Y-64529256D01*
X138011551Y-64538020D01*
X138136490Y-64709986D01*
X138286813Y-64860309D01*
X138458779Y-64985248D01*
X138458781Y-64985249D01*
X138458784Y-64985251D01*
X138648188Y-65081757D01*
X138850357Y-65147446D01*
X139060313Y-65180700D01*
X139060314Y-65180700D01*
X139272886Y-65180700D01*
X139272887Y-65180700D01*
X139482843Y-65147446D01*
X139685012Y-65081757D01*
X139874416Y-64985251D01*
X139960738Y-64922535D01*
X140046386Y-64860309D01*
X140046388Y-64860306D01*
X140046392Y-64860304D01*
X140196704Y-64709992D01*
X140196706Y-64709988D01*
X140196709Y-64709986D01*
X140321648Y-64538020D01*
X140321647Y-64538020D01*
X140321651Y-64538016D01*
X140326114Y-64529254D01*
X140374088Y-64478459D01*
X140441908Y-64461663D01*
X140508044Y-64484199D01*
X140547086Y-64529256D01*
X140551551Y-64538020D01*
X140676490Y-64709986D01*
X140826813Y-64860309D01*
X140998779Y-64985248D01*
X140998781Y-64985249D01*
X140998784Y-64985251D01*
X141188188Y-65081757D01*
X141390357Y-65147446D01*
X141600313Y-65180700D01*
X141600314Y-65180700D01*
X141812886Y-65180700D01*
X141812887Y-65180700D01*
X142022843Y-65147446D01*
X142225012Y-65081757D01*
X142414416Y-64985251D01*
X142500738Y-64922535D01*
X142586386Y-64860309D01*
X142586388Y-64860306D01*
X142586392Y-64860304D01*
X142736704Y-64709992D01*
X142736706Y-64709988D01*
X142736709Y-64709986D01*
X142861648Y-64538020D01*
X142861647Y-64538020D01*
X142861651Y-64538016D01*
X142866114Y-64529254D01*
X142914088Y-64478459D01*
X142981908Y-64461663D01*
X143048044Y-64484199D01*
X143087086Y-64529256D01*
X143091551Y-64538020D01*
X143216490Y-64709986D01*
X143366813Y-64860309D01*
X143538779Y-64985248D01*
X143538781Y-64985249D01*
X143538784Y-64985251D01*
X143728188Y-65081757D01*
X143930357Y-65147446D01*
X144140313Y-65180700D01*
X144140314Y-65180700D01*
X144352886Y-65180700D01*
X144352887Y-65180700D01*
X144562843Y-65147446D01*
X144765012Y-65081757D01*
X144954416Y-64985251D01*
X145040738Y-64922535D01*
X145126386Y-64860309D01*
X145126388Y-64860306D01*
X145126392Y-64860304D01*
X145276704Y-64709992D01*
X145276706Y-64709988D01*
X145276709Y-64709986D01*
X145401648Y-64538020D01*
X145401647Y-64538020D01*
X145401651Y-64538016D01*
X145406114Y-64529254D01*
X145454088Y-64478459D01*
X145521908Y-64461663D01*
X145588044Y-64484199D01*
X145627086Y-64529256D01*
X145631551Y-64538020D01*
X145756490Y-64709986D01*
X145906813Y-64860309D01*
X146078779Y-64985248D01*
X146078781Y-64985249D01*
X146078784Y-64985251D01*
X146268188Y-65081757D01*
X146470357Y-65147446D01*
X146680313Y-65180700D01*
X146680314Y-65180700D01*
X146892886Y-65180700D01*
X146892887Y-65180700D01*
X147102843Y-65147446D01*
X147305012Y-65081757D01*
X147494416Y-64985251D01*
X147580738Y-64922535D01*
X147666386Y-64860309D01*
X147666388Y-64860306D01*
X147666392Y-64860304D01*
X147816704Y-64709992D01*
X147816706Y-64709988D01*
X147816709Y-64709986D01*
X147941648Y-64538020D01*
X147941647Y-64538020D01*
X147941651Y-64538016D01*
X147946114Y-64529254D01*
X147994088Y-64478459D01*
X148061908Y-64461663D01*
X148128044Y-64484199D01*
X148167086Y-64529256D01*
X148171551Y-64538020D01*
X148296490Y-64709986D01*
X148446813Y-64860309D01*
X148618779Y-64985248D01*
X148618781Y-64985249D01*
X148618784Y-64985251D01*
X148808188Y-65081757D01*
X149010357Y-65147446D01*
X149220313Y-65180700D01*
X149220314Y-65180700D01*
X149432886Y-65180700D01*
X149432887Y-65180700D01*
X149642843Y-65147446D01*
X149845012Y-65081757D01*
X150034416Y-64985251D01*
X150120738Y-64922535D01*
X150206386Y-64860309D01*
X150206388Y-64860306D01*
X150206392Y-64860304D01*
X150356704Y-64709992D01*
X150356706Y-64709988D01*
X150356709Y-64709986D01*
X150481648Y-64538020D01*
X150481647Y-64538020D01*
X150481651Y-64538016D01*
X150486114Y-64529254D01*
X150534088Y-64478459D01*
X150601908Y-64461663D01*
X150668044Y-64484199D01*
X150707086Y-64529256D01*
X150711551Y-64538020D01*
X150836490Y-64709986D01*
X150986813Y-64860309D01*
X151158779Y-64985248D01*
X151158781Y-64985249D01*
X151158784Y-64985251D01*
X151348188Y-65081757D01*
X151550357Y-65147446D01*
X151760313Y-65180700D01*
X151760314Y-65180700D01*
X151972886Y-65180700D01*
X151972887Y-65180700D01*
X152182843Y-65147446D01*
X152385012Y-65081757D01*
X152574416Y-64985251D01*
X152660738Y-64922535D01*
X152746386Y-64860309D01*
X152746388Y-64860306D01*
X152746392Y-64860304D01*
X152896704Y-64709992D01*
X152896706Y-64709988D01*
X152896709Y-64709986D01*
X153021648Y-64538020D01*
X153021647Y-64538020D01*
X153021651Y-64538016D01*
X153026114Y-64529254D01*
X153074088Y-64478459D01*
X153141908Y-64461663D01*
X153208044Y-64484199D01*
X153247086Y-64529256D01*
X153251551Y-64538020D01*
X153376490Y-64709986D01*
X153526813Y-64860309D01*
X153698779Y-64985248D01*
X153698781Y-64985249D01*
X153698784Y-64985251D01*
X153888188Y-65081757D01*
X154090357Y-65147446D01*
X154300313Y-65180700D01*
X154300314Y-65180700D01*
X154512886Y-65180700D01*
X154512887Y-65180700D01*
X154722843Y-65147446D01*
X154925012Y-65081757D01*
X155114416Y-64985251D01*
X155200738Y-64922535D01*
X155286386Y-64860309D01*
X155286388Y-64860306D01*
X155286392Y-64860304D01*
X155436704Y-64709992D01*
X155436706Y-64709988D01*
X155436709Y-64709986D01*
X155561648Y-64538020D01*
X155561647Y-64538020D01*
X155561651Y-64538016D01*
X155566114Y-64529254D01*
X155614088Y-64478459D01*
X155681908Y-64461663D01*
X155748044Y-64484199D01*
X155787086Y-64529256D01*
X155791551Y-64538020D01*
X155916490Y-64709986D01*
X156066813Y-64860309D01*
X156238779Y-64985248D01*
X156238781Y-64985249D01*
X156238784Y-64985251D01*
X156428188Y-65081757D01*
X156630357Y-65147446D01*
X156840313Y-65180700D01*
X156840314Y-65180700D01*
X157052886Y-65180700D01*
X157052887Y-65180700D01*
X157262843Y-65147446D01*
X157465012Y-65081757D01*
X157654416Y-64985251D01*
X157740738Y-64922535D01*
X157826386Y-64860309D01*
X157826388Y-64860306D01*
X157826392Y-64860304D01*
X157976704Y-64709992D01*
X157976706Y-64709988D01*
X157976709Y-64709986D01*
X158101648Y-64538020D01*
X158101647Y-64538020D01*
X158101651Y-64538016D01*
X158106114Y-64529254D01*
X158154088Y-64478459D01*
X158221908Y-64461663D01*
X158288044Y-64484199D01*
X158327086Y-64529256D01*
X158331551Y-64538020D01*
X158456490Y-64709986D01*
X158606813Y-64860309D01*
X158778779Y-64985248D01*
X158778781Y-64985249D01*
X158778784Y-64985251D01*
X158968188Y-65081757D01*
X159170357Y-65147446D01*
X159380313Y-65180700D01*
X159380314Y-65180700D01*
X159592886Y-65180700D01*
X159592887Y-65180700D01*
X159802843Y-65147446D01*
X160005012Y-65081757D01*
X160194416Y-64985251D01*
X160280738Y-64922535D01*
X160366386Y-64860309D01*
X160366388Y-64860306D01*
X160366392Y-64860304D01*
X160516704Y-64709992D01*
X160516706Y-64709988D01*
X160516709Y-64709986D01*
X160641648Y-64538020D01*
X160641647Y-64538020D01*
X160641651Y-64538016D01*
X160646114Y-64529254D01*
X160694088Y-64478459D01*
X160761908Y-64461663D01*
X160828044Y-64484199D01*
X160867086Y-64529256D01*
X160871551Y-64538020D01*
X160996490Y-64709986D01*
X161146813Y-64860309D01*
X161318779Y-64985248D01*
X161318781Y-64985249D01*
X161318784Y-64985251D01*
X161508188Y-65081757D01*
X161710357Y-65147446D01*
X161920313Y-65180700D01*
X161920314Y-65180700D01*
X162132886Y-65180700D01*
X162132887Y-65180700D01*
X162342843Y-65147446D01*
X162545012Y-65081757D01*
X162734416Y-64985251D01*
X162820738Y-64922535D01*
X162906386Y-64860309D01*
X162906388Y-64860306D01*
X162906392Y-64860304D01*
X163056704Y-64709992D01*
X163056706Y-64709988D01*
X163056709Y-64709986D01*
X163181648Y-64538020D01*
X163181647Y-64538020D01*
X163181651Y-64538016D01*
X163186114Y-64529254D01*
X163234088Y-64478459D01*
X163301908Y-64461663D01*
X163368044Y-64484199D01*
X163407086Y-64529256D01*
X163411551Y-64538020D01*
X163536490Y-64709986D01*
X163686813Y-64860309D01*
X163858779Y-64985248D01*
X163858781Y-64985249D01*
X163858784Y-64985251D01*
X164048188Y-65081757D01*
X164250357Y-65147446D01*
X164460313Y-65180700D01*
X164460314Y-65180700D01*
X164672886Y-65180700D01*
X164672887Y-65180700D01*
X164882843Y-65147446D01*
X165085012Y-65081757D01*
X165274416Y-64985251D01*
X165360738Y-64922535D01*
X165446386Y-64860309D01*
X165446388Y-64860306D01*
X165446392Y-64860304D01*
X165596704Y-64709992D01*
X165596706Y-64709988D01*
X165596709Y-64709986D01*
X165721648Y-64538020D01*
X165721647Y-64538020D01*
X165721651Y-64538016D01*
X165726114Y-64529254D01*
X165774088Y-64478459D01*
X165841908Y-64461663D01*
X165908044Y-64484199D01*
X165947086Y-64529256D01*
X165951551Y-64538020D01*
X166076490Y-64709986D01*
X166226813Y-64860309D01*
X166398779Y-64985248D01*
X166398781Y-64985249D01*
X166398784Y-64985251D01*
X166588188Y-65081757D01*
X166790357Y-65147446D01*
X167000313Y-65180700D01*
X167000314Y-65180700D01*
X167212886Y-65180700D01*
X167212887Y-65180700D01*
X167422843Y-65147446D01*
X167625012Y-65081757D01*
X167814416Y-64985251D01*
X167900738Y-64922535D01*
X167986386Y-64860309D01*
X167986388Y-64860306D01*
X167986392Y-64860304D01*
X168136704Y-64709992D01*
X168136706Y-64709988D01*
X168136709Y-64709986D01*
X168261648Y-64538020D01*
X168261647Y-64538020D01*
X168261651Y-64538016D01*
X168266114Y-64529254D01*
X168314088Y-64478459D01*
X168381908Y-64461663D01*
X168448044Y-64484199D01*
X168487086Y-64529256D01*
X168491551Y-64538020D01*
X168616490Y-64709986D01*
X168766813Y-64860309D01*
X168938779Y-64985248D01*
X168938781Y-64985249D01*
X168938784Y-64985251D01*
X169128188Y-65081757D01*
X169330357Y-65147446D01*
X169540313Y-65180700D01*
X169540314Y-65180700D01*
X169752886Y-65180700D01*
X169752887Y-65180700D01*
X169962843Y-65147446D01*
X170165012Y-65081757D01*
X170354416Y-64985251D01*
X170440738Y-64922535D01*
X170526386Y-64860309D01*
X170526388Y-64860306D01*
X170526392Y-64860304D01*
X170676704Y-64709992D01*
X170676706Y-64709988D01*
X170676709Y-64709986D01*
X170762490Y-64591917D01*
X170801651Y-64538016D01*
X170806393Y-64528708D01*
X170854363Y-64477911D01*
X170922183Y-64461111D01*
X170988319Y-64483645D01*
X171027363Y-64528700D01*
X171031973Y-64537747D01*
X171071328Y-64591916D01*
X171703637Y-63959608D01*
X171720675Y-64023193D01*
X171786501Y-64137207D01*
X171879593Y-64230299D01*
X171993607Y-64296125D01*
X172057190Y-64313162D01*
X171424882Y-64945469D01*
X171424882Y-64945470D01*
X171479049Y-64984824D01*
X171668382Y-65081295D01*
X171870470Y-65146957D01*
X172080354Y-65180200D01*
X172292846Y-65180200D01*
X172502727Y-65146957D01*
X172502730Y-65146957D01*
X172704817Y-65081295D01*
X172894154Y-64984822D01*
X172948317Y-64945470D01*
X172316008Y-64313162D01*
X172379593Y-64296125D01*
X172493607Y-64230299D01*
X172586699Y-64137207D01*
X172652525Y-64023193D01*
X172669562Y-63959608D01*
X173301870Y-64591917D01*
X173301870Y-64591916D01*
X173341222Y-64537754D01*
X173437695Y-64348417D01*
X173503357Y-64146330D01*
X173503357Y-64146327D01*
X173536600Y-63936446D01*
X173536600Y-63723953D01*
X173503357Y-63514072D01*
X173503357Y-63514069D01*
X173437695Y-63311982D01*
X173341224Y-63122649D01*
X173301870Y-63068482D01*
X173301869Y-63068482D01*
X172669562Y-63700790D01*
X172652525Y-63637207D01*
X172586699Y-63523193D01*
X172493607Y-63430101D01*
X172379593Y-63364275D01*
X172316009Y-63347237D01*
X172948316Y-62714928D01*
X172894147Y-62675573D01*
X172894147Y-62675572D01*
X172885100Y-62670963D01*
X172834306Y-62622988D01*
X172817512Y-62555166D01*
X172840051Y-62489032D01*
X172885108Y-62449993D01*
X172894416Y-62445251D01*
X172983557Y-62380487D01*
X173685600Y-62380487D01*
X173685600Y-62739912D01*
X173725840Y-63097051D01*
X173725842Y-63097063D01*
X173805819Y-63447468D01*
X173805820Y-63447470D01*
X173924527Y-63786717D01*
X174080470Y-64110536D01*
X174271692Y-64414864D01*
X174451681Y-64640564D01*
X175770328Y-63321917D01*
X175855878Y-63439666D01*
X176006134Y-63589922D01*
X176123881Y-63675470D01*
X174805234Y-64994116D01*
X174805234Y-64994117D01*
X175030935Y-65174107D01*
X175335263Y-65365329D01*
X175659082Y-65521272D01*
X175998329Y-65639979D01*
X175998331Y-65639980D01*
X176348736Y-65719957D01*
X176348748Y-65719959D01*
X176705887Y-65760199D01*
X176705889Y-65760200D01*
X177065311Y-65760200D01*
X177065312Y-65760199D01*
X177422451Y-65719959D01*
X177422463Y-65719957D01*
X177772868Y-65639980D01*
X177772870Y-65639979D01*
X178112117Y-65521272D01*
X178435936Y-65365329D01*
X178740264Y-65174107D01*
X178965964Y-64994116D01*
X177647318Y-63675470D01*
X177765066Y-63589922D01*
X177915322Y-63439666D01*
X178000870Y-63321918D01*
X179319516Y-64640564D01*
X179499507Y-64414864D01*
X179690729Y-64110536D01*
X179846672Y-63786717D01*
X179863119Y-63739716D01*
X179965379Y-63447470D01*
X179965381Y-63447464D01*
X179994534Y-63319738D01*
X179994534Y-63319737D01*
X179995844Y-63313999D01*
X190000789Y-63313999D01*
X190000790Y-63314000D01*
X190718763Y-63314000D01*
X190700000Y-63359299D01*
X190700000Y-63768701D01*
X190718763Y-63814000D01*
X190000789Y-63814000D01*
X190037466Y-63998389D01*
X190037468Y-63998397D01*
X190110964Y-64175833D01*
X190110969Y-64175842D01*
X190217667Y-64335526D01*
X190217670Y-64335530D01*
X190353471Y-64471331D01*
X190513157Y-64578030D01*
X190513167Y-64578035D01*
X190690599Y-64651530D01*
X190690606Y-64651533D01*
X190725000Y-64658373D01*
X190725000Y-63829056D01*
X190741866Y-63869775D01*
X190819225Y-63947134D01*
X190920299Y-63989000D01*
X191029701Y-63989000D01*
X191130775Y-63947134D01*
X191208134Y-63869775D01*
X191225000Y-63829056D01*
X191225000Y-64658373D01*
X191259393Y-64651532D01*
X191259400Y-64651530D01*
X191436832Y-64578035D01*
X191436842Y-64578030D01*
X191596529Y-64471331D01*
X191596530Y-64471329D01*
X191732329Y-64335530D01*
X191732332Y-64335526D01*
X191770477Y-64278440D01*
X191839030Y-64175842D01*
X191839035Y-64175833D01*
X191912531Y-63998397D01*
X191912533Y-63998389D01*
X191949210Y-63814000D01*
X191231237Y-63814000D01*
X191250000Y-63768701D01*
X191250000Y-63359299D01*
X191231237Y-63314000D01*
X191949210Y-63314000D01*
X191949210Y-63313999D01*
X191912533Y-63129610D01*
X191912531Y-63129602D01*
X191839035Y-62952166D01*
X191839030Y-62952157D01*
X191732332Y-62792473D01*
X191732329Y-62792469D01*
X191596530Y-62656670D01*
X191596526Y-62656667D01*
X191436842Y-62549969D01*
X191436833Y-62549964D01*
X191259397Y-62476468D01*
X191259389Y-62476466D01*
X191225000Y-62469625D01*
X191225000Y-63298943D01*
X191208134Y-63258225D01*
X191130775Y-63180866D01*
X191029701Y-63139000D01*
X190920299Y-63139000D01*
X190819225Y-63180866D01*
X190741866Y-63258225D01*
X190725000Y-63298943D01*
X190725000Y-62469625D01*
X190690610Y-62476466D01*
X190690602Y-62476468D01*
X190513166Y-62549964D01*
X190513157Y-62549969D01*
X190353473Y-62656667D01*
X190353469Y-62656670D01*
X190217670Y-62792469D01*
X190217667Y-62792473D01*
X190110969Y-62952157D01*
X190110964Y-62952166D01*
X190037468Y-63129602D01*
X190037466Y-63129610D01*
X190000789Y-63313999D01*
X179995844Y-63313999D01*
X180045357Y-63097063D01*
X180045359Y-63097051D01*
X180085599Y-62739912D01*
X180085600Y-62739910D01*
X180085600Y-62380489D01*
X180085599Y-62380487D01*
X180045359Y-62023348D01*
X180045357Y-62023336D01*
X179965380Y-61672931D01*
X179965379Y-61672929D01*
X179846672Y-61333682D01*
X179690729Y-61009863D01*
X179499507Y-60705535D01*
X179319516Y-60479834D01*
X178000870Y-61798481D01*
X177915322Y-61680734D01*
X177765066Y-61530478D01*
X177647316Y-61444928D01*
X178965964Y-60126281D01*
X178740264Y-59946292D01*
X178435936Y-59755070D01*
X178112117Y-59599127D01*
X177772870Y-59480420D01*
X177772868Y-59480419D01*
X177422463Y-59400442D01*
X177422451Y-59400440D01*
X177065312Y-59360200D01*
X176705887Y-59360200D01*
X176348748Y-59400440D01*
X176348736Y-59400442D01*
X175998331Y-59480419D01*
X175998329Y-59480420D01*
X175659082Y-59599127D01*
X175335263Y-59755070D01*
X175030935Y-59946292D01*
X174805234Y-60126281D01*
X176123882Y-61444929D01*
X176006134Y-61530478D01*
X175855878Y-61680734D01*
X175770329Y-61798482D01*
X174451681Y-60479834D01*
X174271692Y-60705535D01*
X174080470Y-61009863D01*
X173924527Y-61333682D01*
X173805820Y-61672929D01*
X173805819Y-61672931D01*
X173725842Y-62023336D01*
X173725840Y-62023348D01*
X173685600Y-62380487D01*
X172983557Y-62380487D01*
X172985759Y-62378887D01*
X173066386Y-62320309D01*
X173066388Y-62320306D01*
X173066392Y-62320304D01*
X173216704Y-62169992D01*
X173216706Y-62169988D01*
X173216709Y-62169986D01*
X173341648Y-61998020D01*
X173341647Y-61998020D01*
X173341651Y-61998016D01*
X173438157Y-61808612D01*
X173503846Y-61606443D01*
X173537100Y-61396487D01*
X173537100Y-61183913D01*
X173503846Y-60973957D01*
X173438157Y-60771788D01*
X173341651Y-60582384D01*
X173341649Y-60582381D01*
X173341648Y-60582379D01*
X173216709Y-60410413D01*
X173066386Y-60260090D01*
X172894420Y-60135151D01*
X172705014Y-60038644D01*
X172705013Y-60038643D01*
X172705012Y-60038643D01*
X172502843Y-59972954D01*
X172502841Y-59972953D01*
X172502840Y-59972953D01*
X172324405Y-59944692D01*
X172292887Y-59939700D01*
X172080313Y-59939700D01*
X172048795Y-59944692D01*
X171870360Y-59972953D01*
X171668185Y-60038644D01*
X171478779Y-60135151D01*
X171306813Y-60260090D01*
X171156490Y-60410413D01*
X171031549Y-60582382D01*
X171027084Y-60591146D01*
X170979109Y-60641942D01*
X170911288Y-60658736D01*
X170845153Y-60636198D01*
X170806116Y-60591146D01*
X170801650Y-60582382D01*
X170676709Y-60410413D01*
X170526386Y-60260090D01*
X170354420Y-60135151D01*
X170165014Y-60038644D01*
X170165013Y-60038643D01*
X170165012Y-60038643D01*
X169962843Y-59972954D01*
X169962841Y-59972953D01*
X169962840Y-59972953D01*
X169784405Y-59944692D01*
X169752887Y-59939700D01*
X169540313Y-59939700D01*
X169508795Y-59944692D01*
X169330360Y-59972953D01*
X169128185Y-60038644D01*
X168938779Y-60135151D01*
X168766813Y-60260090D01*
X168616490Y-60410413D01*
X168491549Y-60582382D01*
X168487084Y-60591146D01*
X168439109Y-60641942D01*
X168371288Y-60658736D01*
X168305153Y-60636198D01*
X168266116Y-60591146D01*
X168261650Y-60582382D01*
X168136709Y-60410413D01*
X167986386Y-60260090D01*
X167814420Y-60135151D01*
X167625014Y-60038644D01*
X167625013Y-60038643D01*
X167625012Y-60038643D01*
X167422843Y-59972954D01*
X167422841Y-59972953D01*
X167422840Y-59972953D01*
X167244405Y-59944692D01*
X167212887Y-59939700D01*
X167000313Y-59939700D01*
X166968795Y-59944692D01*
X166790360Y-59972953D01*
X166588185Y-60038644D01*
X166398779Y-60135151D01*
X166226813Y-60260090D01*
X166076490Y-60410413D01*
X165951549Y-60582382D01*
X165947084Y-60591146D01*
X165899109Y-60641942D01*
X165831288Y-60658736D01*
X165765153Y-60636198D01*
X165726116Y-60591146D01*
X165721650Y-60582382D01*
X165596709Y-60410413D01*
X165446386Y-60260090D01*
X165274420Y-60135151D01*
X165085014Y-60038644D01*
X165085013Y-60038643D01*
X165085012Y-60038643D01*
X164882843Y-59972954D01*
X164882841Y-59972953D01*
X164882840Y-59972953D01*
X164704405Y-59944692D01*
X164672887Y-59939700D01*
X164460313Y-59939700D01*
X164428795Y-59944692D01*
X164250360Y-59972953D01*
X164048185Y-60038644D01*
X163858779Y-60135151D01*
X163686813Y-60260090D01*
X163536490Y-60410413D01*
X163411549Y-60582382D01*
X163407084Y-60591146D01*
X163359109Y-60641942D01*
X163291288Y-60658736D01*
X163225153Y-60636198D01*
X163186116Y-60591146D01*
X163181650Y-60582382D01*
X163056709Y-60410413D01*
X162906386Y-60260090D01*
X162734420Y-60135151D01*
X162545014Y-60038644D01*
X162545013Y-60038643D01*
X162545012Y-60038643D01*
X162342843Y-59972954D01*
X162342841Y-59972953D01*
X162342840Y-59972953D01*
X162164405Y-59944692D01*
X162132887Y-59939700D01*
X161920313Y-59939700D01*
X161888795Y-59944692D01*
X161710360Y-59972953D01*
X161508185Y-60038644D01*
X161318779Y-60135151D01*
X161146813Y-60260090D01*
X160996490Y-60410413D01*
X160871549Y-60582382D01*
X160867084Y-60591146D01*
X160819109Y-60641942D01*
X160751288Y-60658736D01*
X160685153Y-60636198D01*
X160646116Y-60591146D01*
X160641650Y-60582382D01*
X160516709Y-60410413D01*
X160366386Y-60260090D01*
X160194420Y-60135151D01*
X160005014Y-60038644D01*
X160005013Y-60038643D01*
X160005012Y-60038643D01*
X159802843Y-59972954D01*
X159802841Y-59972953D01*
X159802840Y-59972953D01*
X159624405Y-59944692D01*
X159592887Y-59939700D01*
X159380313Y-59939700D01*
X159348795Y-59944692D01*
X159170360Y-59972953D01*
X158968185Y-60038644D01*
X158778779Y-60135151D01*
X158606813Y-60260090D01*
X158456490Y-60410413D01*
X158331549Y-60582382D01*
X158327084Y-60591146D01*
X158279109Y-60641942D01*
X158211288Y-60658736D01*
X158145153Y-60636198D01*
X158106116Y-60591146D01*
X158101650Y-60582382D01*
X157976709Y-60410413D01*
X157826386Y-60260090D01*
X157654420Y-60135151D01*
X157465014Y-60038644D01*
X157465013Y-60038643D01*
X157465012Y-60038643D01*
X157262843Y-59972954D01*
X157262841Y-59972953D01*
X157262840Y-59972953D01*
X157084405Y-59944692D01*
X157052887Y-59939700D01*
X156840313Y-59939700D01*
X156808795Y-59944692D01*
X156630360Y-59972953D01*
X156428185Y-60038644D01*
X156238779Y-60135151D01*
X156066813Y-60260090D01*
X155916490Y-60410413D01*
X155791549Y-60582382D01*
X155787084Y-60591146D01*
X155739109Y-60641942D01*
X155671288Y-60658736D01*
X155605153Y-60636198D01*
X155566116Y-60591146D01*
X155561650Y-60582382D01*
X155436709Y-60410413D01*
X155286386Y-60260090D01*
X155114420Y-60135151D01*
X154925014Y-60038644D01*
X154925013Y-60038643D01*
X154925012Y-60038643D01*
X154722843Y-59972954D01*
X154722841Y-59972953D01*
X154722840Y-59972953D01*
X154544405Y-59944692D01*
X154512887Y-59939700D01*
X154300313Y-59939700D01*
X154268795Y-59944692D01*
X154090360Y-59972953D01*
X153888185Y-60038644D01*
X153698779Y-60135151D01*
X153526813Y-60260090D01*
X153376490Y-60410413D01*
X153251549Y-60582382D01*
X153247084Y-60591146D01*
X153199109Y-60641942D01*
X153131288Y-60658736D01*
X153065153Y-60636198D01*
X153026116Y-60591146D01*
X153021650Y-60582382D01*
X152896709Y-60410413D01*
X152746386Y-60260090D01*
X152574420Y-60135151D01*
X152385014Y-60038644D01*
X152385013Y-60038643D01*
X152385012Y-60038643D01*
X152182843Y-59972954D01*
X152182841Y-59972953D01*
X152182840Y-59972953D01*
X152004405Y-59944692D01*
X151972887Y-59939700D01*
X151760313Y-59939700D01*
X151728795Y-59944692D01*
X151550360Y-59972953D01*
X151348185Y-60038644D01*
X151158779Y-60135151D01*
X150986813Y-60260090D01*
X150836490Y-60410413D01*
X150711549Y-60582382D01*
X150707084Y-60591146D01*
X150659109Y-60641942D01*
X150591288Y-60658736D01*
X150525153Y-60636198D01*
X150486116Y-60591146D01*
X150481650Y-60582382D01*
X150356709Y-60410413D01*
X150206386Y-60260090D01*
X150034420Y-60135151D01*
X149845014Y-60038644D01*
X149845013Y-60038643D01*
X149845012Y-60038643D01*
X149642843Y-59972954D01*
X149642841Y-59972953D01*
X149642840Y-59972953D01*
X149464405Y-59944692D01*
X149432887Y-59939700D01*
X149220313Y-59939700D01*
X149188795Y-59944692D01*
X149010360Y-59972953D01*
X148808185Y-60038644D01*
X148618779Y-60135151D01*
X148446813Y-60260090D01*
X148296490Y-60410413D01*
X148171549Y-60582382D01*
X148167084Y-60591146D01*
X148119109Y-60641942D01*
X148051288Y-60658736D01*
X147985153Y-60636198D01*
X147946116Y-60591146D01*
X147941650Y-60582382D01*
X147816709Y-60410413D01*
X147666386Y-60260090D01*
X147494420Y-60135151D01*
X147305014Y-60038644D01*
X147305013Y-60038643D01*
X147305012Y-60038643D01*
X147102843Y-59972954D01*
X147102841Y-59972953D01*
X147102840Y-59972953D01*
X146924405Y-59944692D01*
X146892887Y-59939700D01*
X146680313Y-59939700D01*
X146648795Y-59944692D01*
X146470360Y-59972953D01*
X146268185Y-60038644D01*
X146078779Y-60135151D01*
X145906813Y-60260090D01*
X145756490Y-60410413D01*
X145631549Y-60582382D01*
X145627084Y-60591146D01*
X145579109Y-60641942D01*
X145511288Y-60658736D01*
X145445153Y-60636198D01*
X145406116Y-60591146D01*
X145401650Y-60582382D01*
X145276709Y-60410413D01*
X145126386Y-60260090D01*
X144954420Y-60135151D01*
X144765014Y-60038644D01*
X144765013Y-60038643D01*
X144765012Y-60038643D01*
X144562843Y-59972954D01*
X144562841Y-59972953D01*
X144562840Y-59972953D01*
X144384405Y-59944692D01*
X144352887Y-59939700D01*
X144140313Y-59939700D01*
X144108795Y-59944692D01*
X143930360Y-59972953D01*
X143728185Y-60038644D01*
X143538779Y-60135151D01*
X143366813Y-60260090D01*
X143216490Y-60410413D01*
X143091549Y-60582382D01*
X143087084Y-60591146D01*
X143039109Y-60641942D01*
X142971288Y-60658736D01*
X142905153Y-60636198D01*
X142866116Y-60591146D01*
X142861650Y-60582382D01*
X142736709Y-60410413D01*
X142586386Y-60260090D01*
X142414420Y-60135151D01*
X142225014Y-60038644D01*
X142225013Y-60038643D01*
X142225012Y-60038643D01*
X142022843Y-59972954D01*
X142022841Y-59972953D01*
X142022840Y-59972953D01*
X141844405Y-59944692D01*
X141812887Y-59939700D01*
X141600313Y-59939700D01*
X141568795Y-59944692D01*
X141390360Y-59972953D01*
X141188185Y-60038644D01*
X140998779Y-60135151D01*
X140826813Y-60260090D01*
X140676490Y-60410413D01*
X140551549Y-60582382D01*
X140547084Y-60591146D01*
X140499109Y-60641942D01*
X140431288Y-60658736D01*
X140365153Y-60636198D01*
X140326116Y-60591146D01*
X140321650Y-60582382D01*
X140196709Y-60410413D01*
X140046386Y-60260090D01*
X139874420Y-60135151D01*
X139685014Y-60038644D01*
X139685013Y-60038643D01*
X139685012Y-60038643D01*
X139482843Y-59972954D01*
X139482841Y-59972953D01*
X139482840Y-59972953D01*
X139304405Y-59944692D01*
X139272887Y-59939700D01*
X139060313Y-59939700D01*
X139028795Y-59944692D01*
X138850360Y-59972953D01*
X138648185Y-60038644D01*
X138458779Y-60135151D01*
X138286813Y-60260090D01*
X138136490Y-60410413D01*
X138011549Y-60582382D01*
X138007084Y-60591146D01*
X137959109Y-60641942D01*
X137891288Y-60658736D01*
X137825153Y-60636198D01*
X137786116Y-60591146D01*
X137781650Y-60582382D01*
X137656709Y-60410413D01*
X137506386Y-60260090D01*
X137334420Y-60135151D01*
X137145014Y-60038644D01*
X137145013Y-60038643D01*
X137145012Y-60038643D01*
X136942843Y-59972954D01*
X136942841Y-59972953D01*
X136942840Y-59972953D01*
X136764405Y-59944692D01*
X136732887Y-59939700D01*
X136520313Y-59939700D01*
X136488795Y-59944692D01*
X136310360Y-59972953D01*
X136108185Y-60038644D01*
X135918779Y-60135151D01*
X135746813Y-60260090D01*
X135596490Y-60410413D01*
X135471549Y-60582382D01*
X135467084Y-60591146D01*
X135419109Y-60641942D01*
X135351288Y-60658736D01*
X135285153Y-60636198D01*
X135246116Y-60591146D01*
X135241650Y-60582382D01*
X135116709Y-60410413D01*
X134966386Y-60260090D01*
X134794420Y-60135151D01*
X134605014Y-60038644D01*
X134605013Y-60038643D01*
X134605012Y-60038643D01*
X134402843Y-59972954D01*
X134402841Y-59972953D01*
X134402840Y-59972953D01*
X134224405Y-59944692D01*
X134192887Y-59939700D01*
X133980313Y-59939700D01*
X133948795Y-59944692D01*
X133770360Y-59972953D01*
X133568185Y-60038644D01*
X133378779Y-60135151D01*
X133206813Y-60260090D01*
X133056490Y-60410413D01*
X132931549Y-60582382D01*
X132927084Y-60591146D01*
X132879109Y-60641942D01*
X132811288Y-60658736D01*
X132745153Y-60636198D01*
X132706116Y-60591146D01*
X132701650Y-60582382D01*
X132576709Y-60410413D01*
X132426386Y-60260090D01*
X132254420Y-60135151D01*
X132065014Y-60038644D01*
X132065013Y-60038643D01*
X132065012Y-60038643D01*
X131862843Y-59972954D01*
X131862841Y-59972953D01*
X131862840Y-59972953D01*
X131684405Y-59944692D01*
X131652887Y-59939700D01*
X131440313Y-59939700D01*
X131408795Y-59944692D01*
X131230360Y-59972953D01*
X131028185Y-60038644D01*
X130838779Y-60135151D01*
X130666813Y-60260090D01*
X130516490Y-60410413D01*
X130391549Y-60582382D01*
X130386802Y-60591699D01*
X130338827Y-60642493D01*
X130271005Y-60659287D01*
X130204871Y-60636748D01*
X130165834Y-60591695D01*
X130161226Y-60582652D01*
X130121870Y-60528482D01*
X130121869Y-60528482D01*
X129489562Y-61160790D01*
X129472525Y-61097207D01*
X129406699Y-60983193D01*
X129313607Y-60890101D01*
X129199593Y-60824275D01*
X129136009Y-60807237D01*
X129768316Y-60174928D01*
X129714150Y-60135575D01*
X129524817Y-60039104D01*
X129322729Y-59973442D01*
X129112846Y-59940200D01*
X128900354Y-59940200D01*
X128690472Y-59973442D01*
X128690469Y-59973442D01*
X128488382Y-60039104D01*
X128299039Y-60135580D01*
X128244882Y-60174927D01*
X128244882Y-60174928D01*
X128877191Y-60807237D01*
X128813607Y-60824275D01*
X128699593Y-60890101D01*
X128606501Y-60983193D01*
X128540675Y-61097207D01*
X128523637Y-61160791D01*
X127891328Y-60528482D01*
X127891327Y-60528482D01*
X127851980Y-60582640D01*
X127851976Y-60582646D01*
X127847360Y-60591705D01*
X127799381Y-60642497D01*
X127731559Y-60659287D01*
X127665426Y-60636743D01*
X127626394Y-60591693D01*
X127621651Y-60582384D01*
X127621649Y-60582381D01*
X127621648Y-60582379D01*
X127496709Y-60410413D01*
X127346386Y-60260090D01*
X127174420Y-60135151D01*
X126985014Y-60038644D01*
X126985013Y-60038643D01*
X126985012Y-60038643D01*
X126782843Y-59972954D01*
X126782841Y-59972953D01*
X126782840Y-59972953D01*
X126604405Y-59944692D01*
X126572887Y-59939700D01*
X126360313Y-59939700D01*
X126328795Y-59944692D01*
X126150360Y-59972953D01*
X125948185Y-60038644D01*
X125758779Y-60135151D01*
X125586813Y-60260090D01*
X125436490Y-60410413D01*
X125311549Y-60582382D01*
X125307084Y-60591146D01*
X125259109Y-60641942D01*
X125191288Y-60658736D01*
X125125153Y-60636198D01*
X125086116Y-60591146D01*
X125081650Y-60582382D01*
X124956709Y-60410413D01*
X124806386Y-60260090D01*
X124634420Y-60135151D01*
X124445014Y-60038644D01*
X124445013Y-60038643D01*
X124445012Y-60038643D01*
X124242843Y-59972954D01*
X124242841Y-59972953D01*
X124242840Y-59972953D01*
X124064405Y-59944692D01*
X124032887Y-59939700D01*
X123820313Y-59939700D01*
X123788795Y-59944692D01*
X123610360Y-59972953D01*
X123408185Y-60038644D01*
X123218779Y-60135151D01*
X123046813Y-60260090D01*
X122896490Y-60410413D01*
X122771551Y-60582379D01*
X122675044Y-60771785D01*
X122609353Y-60973960D01*
X122607891Y-60983193D01*
X122576100Y-61183913D01*
X121776758Y-61183913D01*
X121692171Y-61008266D01*
X121500947Y-60703935D01*
X121320956Y-60478234D01*
X120002310Y-61796881D01*
X119916762Y-61679134D01*
X119766506Y-61528878D01*
X119648756Y-61443328D01*
X120967404Y-60124681D01*
X120741704Y-59944692D01*
X120437376Y-59753470D01*
X120113557Y-59597527D01*
X119774310Y-59478820D01*
X119774308Y-59478819D01*
X119423903Y-59398842D01*
X119423891Y-59398840D01*
X119066752Y-59358600D01*
X118707327Y-59358600D01*
X118350188Y-59398840D01*
X118350176Y-59398842D01*
X117999771Y-59478819D01*
X117999769Y-59478820D01*
X117660522Y-59597527D01*
X117336703Y-59753470D01*
X117032375Y-59944692D01*
X116806674Y-60124681D01*
X118125322Y-61443329D01*
X118007574Y-61528878D01*
X117857318Y-61679134D01*
X117771769Y-61796882D01*
X116453121Y-60478234D01*
X116273132Y-60703935D01*
X116190765Y-60835021D01*
X116138430Y-60881312D01*
X116069376Y-60891960D01*
X116005528Y-60863585D01*
X115967156Y-60805195D01*
X115961772Y-60768910D01*
X115963628Y-59183376D01*
X115964690Y-58313999D01*
X190000789Y-58313999D01*
X190000790Y-58314000D01*
X190718763Y-58314000D01*
X190700000Y-58359299D01*
X190700000Y-58768701D01*
X190718763Y-58814000D01*
X190000789Y-58814000D01*
X190037466Y-58998389D01*
X190037468Y-58998397D01*
X190110964Y-59175833D01*
X190110969Y-59175842D01*
X190217667Y-59335526D01*
X190217670Y-59335530D01*
X190353469Y-59471329D01*
X190353473Y-59471332D01*
X190513157Y-59578030D01*
X190513167Y-59578035D01*
X190690599Y-59651530D01*
X190690606Y-59651533D01*
X190725000Y-59658373D01*
X190725000Y-58829056D01*
X190741866Y-58869775D01*
X190819225Y-58947134D01*
X190920299Y-58989000D01*
X191029701Y-58989000D01*
X191130775Y-58947134D01*
X191208134Y-58869775D01*
X191225000Y-58829056D01*
X191225000Y-59658372D01*
X191259393Y-59651533D01*
X191259400Y-59651530D01*
X191436832Y-59578035D01*
X191436842Y-59578030D01*
X191596526Y-59471332D01*
X191596530Y-59471329D01*
X191732329Y-59335530D01*
X191732332Y-59335526D01*
X191839030Y-59175842D01*
X191839035Y-59175833D01*
X191912531Y-58998397D01*
X191912533Y-58998389D01*
X191949210Y-58814000D01*
X191231237Y-58814000D01*
X191250000Y-58768701D01*
X191250000Y-58359299D01*
X191231237Y-58314000D01*
X191949210Y-58314000D01*
X191949210Y-58313999D01*
X191912533Y-58129610D01*
X191912531Y-58129602D01*
X191839035Y-57952166D01*
X191839030Y-57952157D01*
X191770477Y-57849560D01*
X191732332Y-57792473D01*
X191732329Y-57792469D01*
X191596529Y-57656669D01*
X191596526Y-57656667D01*
X191436842Y-57549969D01*
X191436833Y-57549964D01*
X191259785Y-57476628D01*
X191225000Y-57491920D01*
X191225000Y-58298943D01*
X191208134Y-58258225D01*
X191130775Y-58180866D01*
X191029701Y-58139000D01*
X190920299Y-58139000D01*
X190819225Y-58180866D01*
X190741866Y-58258225D01*
X190725000Y-58298943D01*
X190725000Y-57469625D01*
X190690610Y-57476466D01*
X190690602Y-57476468D01*
X190513166Y-57549964D01*
X190513157Y-57549969D01*
X190353473Y-57656667D01*
X190353471Y-57656669D01*
X190217670Y-57792469D01*
X190217667Y-57792473D01*
X190110969Y-57952157D01*
X190110964Y-57952166D01*
X190037468Y-58129602D01*
X190037466Y-58129610D01*
X190000789Y-58313999D01*
X115964690Y-58313999D01*
X115969886Y-54059090D01*
X115969946Y-54055440D01*
X115973194Y-53952124D01*
X115973347Y-53948751D01*
X115973899Y-53939370D01*
X115979530Y-53843626D01*
X115979731Y-53840775D01*
X115979821Y-53839678D01*
X115988466Y-53734416D01*
X115988717Y-53731738D01*
X115999854Y-53625934D01*
X116000221Y-53622836D01*
X116012591Y-53528428D01*
X123630000Y-53528428D01*
X123630000Y-53640000D01*
X124449670Y-53640000D01*
X124429925Y-53659745D01*
X124380556Y-53745255D01*
X124355000Y-53840630D01*
X124355000Y-53939370D01*
X124380556Y-54034745D01*
X124429925Y-54120255D01*
X124449670Y-54140000D01*
X123630000Y-54140000D01*
X123630000Y-54251571D01*
X123657085Y-54422584D01*
X123710591Y-54587257D01*
X123789195Y-54741524D01*
X123890967Y-54881602D01*
X124013397Y-55004032D01*
X124153475Y-55105804D01*
X124307744Y-55184408D01*
X124472415Y-55237914D01*
X124472414Y-55237914D01*
X124479999Y-55239115D01*
X124480000Y-55239114D01*
X124480000Y-54170330D01*
X124499745Y-54190075D01*
X124585255Y-54239444D01*
X124680630Y-54265000D01*
X124779370Y-54265000D01*
X124874745Y-54239444D01*
X124960255Y-54190075D01*
X124980000Y-54170330D01*
X124980000Y-55239115D01*
X124987584Y-55237914D01*
X125152255Y-55184408D01*
X125306524Y-55105804D01*
X125446598Y-55004035D01*
X125554199Y-54896434D01*
X125615522Y-54862949D01*
X125685214Y-54867933D01*
X125741148Y-54909804D01*
X125747418Y-54919016D01*
X125787288Y-54983656D01*
X125911344Y-55107712D01*
X126060666Y-55199814D01*
X126227203Y-55254999D01*
X126329991Y-55265500D01*
X127130008Y-55265499D01*
X127130016Y-55265498D01*
X127130019Y-55265498D01*
X127186302Y-55259748D01*
X127232797Y-55254999D01*
X127399334Y-55199814D01*
X127548656Y-55107712D01*
X127672712Y-54983656D01*
X127764814Y-54834334D01*
X127819999Y-54667797D01*
X127830500Y-54565009D01*
X127830499Y-53901266D01*
X162920600Y-53901266D01*
X162920600Y-54150333D01*
X162953108Y-54397263D01*
X163017573Y-54637849D01*
X163112883Y-54867948D01*
X163112888Y-54867959D01*
X163237413Y-55083641D01*
X163237419Y-55083649D01*
X163312000Y-55180845D01*
X164181289Y-54311556D01*
X164200268Y-54357374D01*
X164276874Y-54472024D01*
X164374376Y-54569526D01*
X164489026Y-54646132D01*
X164534842Y-54665109D01*
X163665553Y-55534398D01*
X163762750Y-55608980D01*
X163762758Y-55608986D01*
X163978440Y-55733511D01*
X163978451Y-55733516D01*
X164208550Y-55828826D01*
X164449136Y-55893291D01*
X164696066Y-55925800D01*
X164945134Y-55925800D01*
X165192063Y-55893291D01*
X165432649Y-55828826D01*
X165662748Y-55733516D01*
X165662759Y-55733511D01*
X165878455Y-55608978D01*
X165975645Y-55534400D01*
X165975645Y-55534397D01*
X165106357Y-54665109D01*
X165152174Y-54646132D01*
X165266824Y-54569526D01*
X165364326Y-54472024D01*
X165440932Y-54357374D01*
X165459909Y-54311557D01*
X166329197Y-55180845D01*
X166329200Y-55180845D01*
X166403778Y-55083655D01*
X166528311Y-54867959D01*
X166528316Y-54867948D01*
X166623626Y-54637849D01*
X166688091Y-54397263D01*
X166720600Y-54150333D01*
X166720600Y-53901266D01*
X166720596Y-53901235D01*
X178160100Y-53901235D01*
X178160100Y-54150365D01*
X178160100Y-54150370D01*
X178160101Y-54150375D01*
X178192617Y-54397361D01*
X178257098Y-54638007D01*
X178352430Y-54868161D01*
X178352437Y-54868176D01*
X178477000Y-55083926D01*
X178628660Y-55281574D01*
X178628666Y-55281581D01*
X178804818Y-55457733D01*
X178804825Y-55457739D01*
X179002473Y-55609399D01*
X179218223Y-55733962D01*
X179218238Y-55733969D01*
X179317425Y-55775053D01*
X179448393Y-55829302D01*
X179689035Y-55893782D01*
X179936035Y-55926300D01*
X179936042Y-55926300D01*
X180185158Y-55926300D01*
X180185165Y-55926300D01*
X180432165Y-55893782D01*
X180672807Y-55829302D01*
X180902973Y-55733964D01*
X181118727Y-55609399D01*
X181316376Y-55457738D01*
X181492538Y-55281576D01*
X181644199Y-55083927D01*
X181768764Y-54868173D01*
X181864102Y-54638007D01*
X181928582Y-54397365D01*
X181959380Y-54163428D01*
X183955000Y-54163428D01*
X183955000Y-54275000D01*
X184774670Y-54275000D01*
X184754925Y-54294745D01*
X184705556Y-54380255D01*
X184680000Y-54475630D01*
X184680000Y-54574370D01*
X184705556Y-54669745D01*
X184754925Y-54755255D01*
X184774670Y-54775000D01*
X183955000Y-54775000D01*
X183955000Y-54886571D01*
X183982085Y-55057584D01*
X184035591Y-55222257D01*
X184114195Y-55376524D01*
X184215967Y-55516602D01*
X184338397Y-55639032D01*
X184478475Y-55740804D01*
X184632744Y-55819408D01*
X184797415Y-55872914D01*
X184797414Y-55872914D01*
X184804999Y-55874115D01*
X184805000Y-55874114D01*
X184805000Y-54805330D01*
X184824745Y-54825075D01*
X184910255Y-54874444D01*
X185005630Y-54900000D01*
X185104370Y-54900000D01*
X185199745Y-54874444D01*
X185285255Y-54825075D01*
X185305000Y-54805330D01*
X185305000Y-55874115D01*
X185312584Y-55872914D01*
X185477255Y-55819408D01*
X185631524Y-55740804D01*
X185771598Y-55639035D01*
X185879199Y-55531434D01*
X185940522Y-55497949D01*
X186010214Y-55502933D01*
X186066148Y-55544804D01*
X186072420Y-55554019D01*
X186106323Y-55608986D01*
X186112288Y-55618656D01*
X186236344Y-55742712D01*
X186385666Y-55834814D01*
X186552203Y-55889999D01*
X186654991Y-55900500D01*
X187455008Y-55900499D01*
X187455016Y-55900498D01*
X187455019Y-55900498D01*
X187511302Y-55894748D01*
X187557797Y-55889999D01*
X187724334Y-55834814D01*
X187873656Y-55742712D01*
X187997712Y-55618656D01*
X188089814Y-55469334D01*
X188144999Y-55302797D01*
X188155500Y-55200009D01*
X188155499Y-53849992D01*
X188154850Y-53843643D01*
X188144999Y-53747203D01*
X188144998Y-53747200D01*
X188137111Y-53723400D01*
X188089814Y-53580666D01*
X187997712Y-53431344D01*
X187873656Y-53307288D01*
X187724334Y-53215186D01*
X187557797Y-53160001D01*
X187557795Y-53160000D01*
X187455010Y-53149500D01*
X186654998Y-53149500D01*
X186654980Y-53149501D01*
X186552203Y-53160000D01*
X186552200Y-53160001D01*
X186385668Y-53215185D01*
X186385663Y-53215187D01*
X186236342Y-53307289D01*
X186112289Y-53431342D01*
X186072420Y-53495981D01*
X186020472Y-53542705D01*
X185951509Y-53553928D01*
X185887427Y-53526084D01*
X185879200Y-53518565D01*
X185771602Y-53410967D01*
X185631524Y-53309195D01*
X185477257Y-53230591D01*
X185312589Y-53177087D01*
X185312581Y-53177085D01*
X185305000Y-53175884D01*
X185305000Y-54244670D01*
X185285255Y-54224925D01*
X185199745Y-54175556D01*
X185104370Y-54150000D01*
X185005630Y-54150000D01*
X184910255Y-54175556D01*
X184824745Y-54224925D01*
X184805000Y-54244670D01*
X184805000Y-53175884D01*
X184804999Y-53175884D01*
X184797418Y-53177085D01*
X184797410Y-53177087D01*
X184632742Y-53230591D01*
X184478475Y-53309195D01*
X184338397Y-53410967D01*
X184215967Y-53533397D01*
X184114195Y-53673475D01*
X184035591Y-53827742D01*
X183982085Y-53992415D01*
X183955000Y-54163428D01*
X181959380Y-54163428D01*
X181961100Y-54150365D01*
X181961100Y-53901235D01*
X181928582Y-53654235D01*
X181864102Y-53413593D01*
X181788300Y-53230591D01*
X181768769Y-53183438D01*
X181768762Y-53183423D01*
X181644199Y-52967673D01*
X181492539Y-52770025D01*
X181492533Y-52770018D01*
X181316381Y-52593866D01*
X181316374Y-52593860D01*
X181118726Y-52442200D01*
X180902976Y-52317637D01*
X180902961Y-52317630D01*
X180672807Y-52222298D01*
X180462775Y-52166020D01*
X180432165Y-52157818D01*
X180432164Y-52157817D01*
X180432161Y-52157817D01*
X180185175Y-52125301D01*
X180185170Y-52125300D01*
X180185165Y-52125300D01*
X179936035Y-52125300D01*
X179936029Y-52125300D01*
X179936024Y-52125301D01*
X179689038Y-52157817D01*
X179448392Y-52222298D01*
X179218238Y-52317630D01*
X179218223Y-52317637D01*
X179002473Y-52442200D01*
X178804825Y-52593860D01*
X178804818Y-52593866D01*
X178628666Y-52770018D01*
X178628660Y-52770025D01*
X178477000Y-52967673D01*
X178352437Y-53183423D01*
X178352430Y-53183438D01*
X178257098Y-53413592D01*
X178192617Y-53654238D01*
X178160630Y-53897208D01*
X178160100Y-53901235D01*
X166720596Y-53901235D01*
X166688091Y-53654336D01*
X166623626Y-53413750D01*
X166528316Y-53183651D01*
X166528311Y-53183640D01*
X166403786Y-52967958D01*
X166403780Y-52967950D01*
X166329198Y-52870753D01*
X165459909Y-53740042D01*
X165440932Y-53694226D01*
X165364326Y-53579576D01*
X165266824Y-53482074D01*
X165152174Y-53405468D01*
X165106355Y-53386489D01*
X165975645Y-52517200D01*
X165878449Y-52442619D01*
X165878441Y-52442613D01*
X165662759Y-52318088D01*
X165662748Y-52318083D01*
X165432649Y-52222773D01*
X165192063Y-52158308D01*
X164945134Y-52125800D01*
X164696066Y-52125800D01*
X164449136Y-52158308D01*
X164208550Y-52222773D01*
X163978451Y-52318083D01*
X163978447Y-52318085D01*
X163762743Y-52442623D01*
X163665553Y-52517199D01*
X163665553Y-52517200D01*
X164534843Y-53386490D01*
X164489026Y-53405468D01*
X164374376Y-53482074D01*
X164276874Y-53579576D01*
X164200268Y-53694226D01*
X164181290Y-53740043D01*
X163312000Y-52870753D01*
X163311999Y-52870753D01*
X163237423Y-52967943D01*
X163112885Y-53183647D01*
X163112883Y-53183651D01*
X163017573Y-53413750D01*
X162953108Y-53654336D01*
X162920600Y-53901266D01*
X127830499Y-53901266D01*
X127830499Y-53864353D01*
X127830499Y-53214998D01*
X127830498Y-53214981D01*
X127819999Y-53112203D01*
X127819998Y-53112200D01*
X127800612Y-53053698D01*
X127764814Y-52945666D01*
X127672712Y-52796344D01*
X127548656Y-52672288D01*
X127543045Y-52668827D01*
X127399340Y-52580189D01*
X127399335Y-52580187D01*
X127399334Y-52580186D01*
X127232797Y-52525001D01*
X127232795Y-52525000D01*
X127130010Y-52514500D01*
X126329998Y-52514500D01*
X126329980Y-52514501D01*
X126227203Y-52525000D01*
X126227200Y-52525001D01*
X126060668Y-52580185D01*
X126060663Y-52580187D01*
X125911342Y-52672289D01*
X125787289Y-52796342D01*
X125747420Y-52860981D01*
X125695472Y-52907705D01*
X125626509Y-52918928D01*
X125562427Y-52891084D01*
X125554200Y-52883565D01*
X125446602Y-52775967D01*
X125306524Y-52674195D01*
X125152257Y-52595591D01*
X124987589Y-52542087D01*
X124987581Y-52542085D01*
X124980000Y-52540884D01*
X124980000Y-53609670D01*
X124960255Y-53589925D01*
X124874745Y-53540556D01*
X124779370Y-53515000D01*
X124680630Y-53515000D01*
X124585255Y-53540556D01*
X124499745Y-53589925D01*
X124480000Y-53609670D01*
X124480000Y-52540884D01*
X124479999Y-52540884D01*
X124472418Y-52542085D01*
X124472410Y-52542087D01*
X124307742Y-52595591D01*
X124153475Y-52674195D01*
X124013397Y-52775967D01*
X123890967Y-52898397D01*
X123789195Y-53038475D01*
X123710591Y-53192742D01*
X123657085Y-53357415D01*
X123630000Y-53528428D01*
X116012591Y-53528428D01*
X116013891Y-53518504D01*
X116014342Y-53515369D01*
X116015658Y-53506994D01*
X116030872Y-53410171D01*
X116031287Y-53407699D01*
X116050099Y-53302694D01*
X116050658Y-53299784D01*
X116071990Y-53195764D01*
X116072617Y-53192889D01*
X116091186Y-53112200D01*
X116096313Y-53089918D01*
X116097064Y-53086841D01*
X116123412Y-52984537D01*
X116124186Y-52981674D01*
X116153305Y-52878858D01*
X116154073Y-52876255D01*
X116176395Y-52803549D01*
X116185203Y-52774859D01*
X116186182Y-52771814D01*
X116219013Y-52674195D01*
X116219930Y-52671468D01*
X116220851Y-52668827D01*
X116221409Y-52667286D01*
X116256867Y-52569231D01*
X116257985Y-52566261D01*
X116263861Y-52551234D01*
X116296634Y-52467426D01*
X116297661Y-52464887D01*
X116338816Y-52366461D01*
X116339912Y-52363924D01*
X116383147Y-52266986D01*
X116384360Y-52264352D01*
X116429812Y-52168788D01*
X116431173Y-52166020D01*
X116463188Y-52102875D01*
X116479302Y-52071091D01*
X116480555Y-52068688D01*
X116530702Y-51975080D01*
X116532152Y-51972455D01*
X116584781Y-51879918D01*
X116586115Y-51877632D01*
X116640572Y-51786718D01*
X116642239Y-51784016D01*
X116698905Y-51694810D01*
X116700463Y-51692419D01*
X116759500Y-51604201D01*
X116761125Y-51601837D01*
X116822595Y-51514660D01*
X116824141Y-51512520D01*
X116887502Y-51426850D01*
X116889275Y-51424515D01*
X116954372Y-51340979D01*
X116956147Y-51338755D01*
X117023493Y-51256468D01*
X117025315Y-51254296D01*
X117094400Y-51173874D01*
X117096356Y-51171655D01*
X117167471Y-51092990D01*
X117169376Y-51090933D01*
X117242602Y-51013680D01*
X117244585Y-51011637D01*
X117319543Y-50936238D01*
X117321546Y-50934271D01*
X117397995Y-50860930D01*
X117400230Y-50858839D01*
X117478626Y-50787324D01*
X117480775Y-50785410D01*
X117561036Y-50715629D01*
X117563280Y-50713726D01*
X117595508Y-50687029D01*
X117644758Y-50646231D01*
X117647069Y-50644366D01*
X117730752Y-50578535D01*
X117732809Y-50576953D01*
X117817932Y-50513008D01*
X117820422Y-50511187D01*
X117906832Y-50449715D01*
X117908956Y-50448238D01*
X117996625Y-50388759D01*
X117999382Y-50386943D01*
X118088699Y-50329842D01*
X118090824Y-50328515D01*
X118181828Y-50273065D01*
X118184419Y-50271532D01*
X118276414Y-50218645D01*
X118278910Y-50217250D01*
X118372522Y-50166314D01*
X118375051Y-50164975D01*
X118468980Y-50116676D01*
X118471809Y-50115268D01*
X118567419Y-50069249D01*
X118569820Y-50068126D01*
X118667131Y-50023951D01*
X118669735Y-50022806D01*
X118767308Y-49981243D01*
X118770064Y-49980110D01*
X118868689Y-49941017D01*
X118871351Y-49939998D01*
X118970657Y-49903342D01*
X118973480Y-49902340D01*
X119073890Y-49868127D01*
X119076655Y-49867223D01*
X119080321Y-49866070D01*
X119178014Y-49835368D01*
X119180771Y-49834537D01*
X119282829Y-49805121D01*
X119285636Y-49804348D01*
X119388263Y-49777417D01*
X119391029Y-49776727D01*
X119494859Y-49752166D01*
X119497611Y-49751547D01*
X119601082Y-49729560D01*
X119604149Y-49728950D01*
X119708212Y-49709646D01*
X119710991Y-49709164D01*
X119815630Y-49692283D01*
X119818642Y-49691836D01*
X119923846Y-49677597D01*
X119926652Y-49677251D01*
X120032689Y-49665397D01*
X120035506Y-49665114D01*
X120141140Y-49655772D01*
X120144247Y-49655537D01*
X120250091Y-49648866D01*
X120252840Y-49648725D01*
X120359043Y-49644499D01*
X120362094Y-49644415D01*
X120471429Y-49642809D01*
X120472810Y-49642799D01*
X190584016Y-49559263D01*
X190585177Y-49559269D01*
G37*
%TD.AperFunction*%
%TD*%
M02*
