%TF.GenerationSoftware,KiCad,Pcbnew,9.0.1*%
%TF.CreationDate,2025-11-10T16:42:31-06:00*%
%TF.ProjectId,cubesat Sim board,63756265-7361-4742-9053-696d20626f61,rev?*%
%TF.SameCoordinates,Original*%
%TF.FileFunction,Soldermask,Bot*%
%TF.FilePolarity,Negative*%
%FSLAX46Y46*%
G04 Gerber Fmt 4.6, Leading zero omitted, Abs format (unit mm)*
G04 Created by KiCad (PCBNEW 9.0.1) date 2025-11-10 16:42:31*
%MOMM*%
%LPD*%
G01*
G04 APERTURE LIST*
G04 Aperture macros list*
%AMRoundRect*
0 Rectangle with rounded corners*
0 $1 Rounding radius*
0 $2 $3 $4 $5 $6 $7 $8 $9 X,Y pos of 4 corners*
0 Add a 4 corners polygon primitive as box body*
4,1,4,$2,$3,$4,$5,$6,$7,$8,$9,$2,$3,0*
0 Add four circle primitives for the rounded corners*
1,1,$1+$1,$2,$3*
1,1,$1+$1,$4,$5*
1,1,$1+$1,$6,$7*
1,1,$1+$1,$8,$9*
0 Add four rect primitives between the rounded corners*
20,1,$1+$1,$2,$3,$4,$5,0*
20,1,$1+$1,$4,$5,$6,$7,0*
20,1,$1+$1,$6,$7,$8,$9,0*
20,1,$1+$1,$8,$9,$2,$3,0*%
G04 Aperture macros list end*
%ADD10O,1.550000X0.890000*%
%ADD11O,0.950000X1.250000*%
%ADD12C,2.800000*%
%ADD13O,2.800000X2.800000*%
%ADD14C,5.400000*%
%ADD15C,1.803400*%
%ADD16C,1.600000*%
%ADD17O,1.600000X1.600000*%
%ADD18C,1.700000*%
%ADD19R,1.700000X1.700000*%
%ADD20RoundRect,0.250000X0.350000X0.625000X-0.350000X0.625000X-0.350000X-0.625000X0.350000X-0.625000X0*%
%ADD21O,1.200000X1.750000*%
%ADD22C,1.200000*%
%ADD23O,1.512000X2.820000*%
%ADD24O,2.820000X1.512000*%
%ADD25C,1.712000*%
G04 APERTURE END LIST*
D10*
%TO.C,J10*%
X193708000Y-64564000D03*
D11*
X191008000Y-63564000D03*
X191008000Y-58564000D03*
D10*
X193708000Y-57564000D03*
%TD*%
D12*
%TO.C,R3*%
X149453600Y-53898800D03*
D13*
X164693600Y-53898800D03*
%TD*%
D14*
%TO.C,REF\u002A\u002A*%
X176885600Y-62560200D03*
%TD*%
%TO.C,*%
X120389808Y-124285359D03*
%TD*%
D15*
%TO.C,J1*%
X120015000Y-104140000D03*
X120015000Y-106680000D03*
%TD*%
D16*
%TO.C,R1*%
X135636000Y-105185000D03*
D17*
X135636000Y-102645000D03*
%TD*%
D16*
%TO.C,R2*%
X141253000Y-108204000D03*
D17*
X138713000Y-108204000D03*
%TD*%
D18*
%TO.C,J5*%
X157734000Y-88392000D03*
X155194000Y-88392000D03*
X152654000Y-88392000D03*
D19*
X160274000Y-88392000D03*
D18*
X147574000Y-88392000D03*
X150114000Y-88392000D03*
%TD*%
D15*
%TO.C,J6*%
X121285000Y-79375000D03*
X121285000Y-81915000D03*
X121285000Y-84455000D03*
%TD*%
D20*
%TO.C,J4*%
X126730000Y-53890000D03*
D21*
X124730000Y-53890000D03*
%TD*%
D14*
%TO.C,*%
X190666930Y-124286700D03*
%TD*%
D22*
%TO.C,X1*%
X117802000Y-90210000D03*
X117802000Y-100210000D03*
X120302000Y-90210000D03*
X120302000Y-100210000D03*
X125302000Y-95210000D03*
X130302000Y-90210000D03*
X130302000Y-100210000D03*
D23*
X120302000Y-95210000D03*
D24*
X125302000Y-100210000D03*
X125302000Y-90210000D03*
D25*
X130302000Y-92710000D03*
X130302000Y-95210000D03*
X130302000Y-97710000D03*
%TD*%
D20*
%TO.C,J3*%
X171688000Y-54398000D03*
D21*
X169688000Y-54398000D03*
%TD*%
D18*
%TO.C,J8*%
X184531000Y-86448000D03*
X181991000Y-86448000D03*
X179451000Y-86448000D03*
D19*
X187071000Y-86448000D03*
%TD*%
D18*
%TO.C,J9*%
X184531000Y-71208000D03*
X181991000Y-71208000D03*
X179451000Y-71208000D03*
D19*
X187071000Y-71208000D03*
%TD*%
D14*
%TO.C,*%
X118887040Y-62558600D03*
%TD*%
D18*
%TO.C,J7*%
X174371000Y-77558000D03*
X174371000Y-80098000D03*
X174371000Y-82638000D03*
D19*
X174371000Y-75018000D03*
%TD*%
%TO.C,J2*%
X123926600Y-63830200D03*
D18*
X123926600Y-61290200D03*
X126466600Y-63830200D03*
X126466600Y-61290200D03*
X129006600Y-63830200D03*
X129006600Y-61290200D03*
X131546600Y-63830200D03*
X131546600Y-61290200D03*
X134086600Y-63830200D03*
X134086600Y-61290200D03*
X136626600Y-63830200D03*
X136626600Y-61290200D03*
X139166600Y-63830200D03*
X139166600Y-61290200D03*
X141706600Y-63830200D03*
X141706600Y-61290200D03*
X144246600Y-63830200D03*
X144246600Y-61290200D03*
X146786600Y-63830200D03*
X146786600Y-61290200D03*
X149326600Y-63830200D03*
X149326600Y-61290200D03*
X151866600Y-63830200D03*
X151866600Y-61290200D03*
X154406600Y-63830200D03*
X154406600Y-61290200D03*
X156946600Y-63830200D03*
X156946600Y-61290200D03*
X159486600Y-63830200D03*
X159486600Y-61290200D03*
X162026600Y-63830200D03*
X162026600Y-61290200D03*
X164566600Y-63830200D03*
X164566600Y-61290200D03*
X167106600Y-63830200D03*
X167106600Y-61290200D03*
X169646600Y-63830200D03*
X169646600Y-61290200D03*
X172186600Y-63830200D03*
X172186600Y-61290200D03*
%TD*%
M02*
